<svg width="390" height="452" viewBox="0 0 390 452" fill="none" xmlns="http://www.w3.org/2000/svg">
<rect width="390" height="452" fill="#83C9B1"/>
<path d="M308.688 49.8183L294.997 51.615L307.281 58.6933L304.241 73.0903L314.772 62.6545L328.459 68.8934L322.375 56.774L331.972 46.2155L317.697 47.418L311.493 34.2188L308.688 49.8183Z" fill="#F0B921"/>
<path d="M330.38 74.0391L332.581 80.0098L338.61 79.2772L333.857 83.2993L337.334 89.1455L331.651 86.3445C331.651 86.3445 327.072 90.7926 326.899 91.0943C326.725 91.3959 328.175 85.0038 328.175 85.0038L322.492 81.3505L329.332 80.7424L330.375 74.0439L330.38 74.0391Z" fill="#F0B921"/>
<path d="M354.963 48.4414L358.071 58.5475L368 57.2233L359.505 63.1205L363.454 72.1436L355.56 66.4876L348.142 72.1436L351.611 64.5629L342.401 58.5475L352.688 58.4292L354.963 48.4414Z" fill="#F0B921"/>
<path d="M33.5273 48.1074L36.2758 57.388H44.6289L38.0252 62.6271L40.5719 69.6203L33.5273 65.9576L25.2962 69.5267L28.1618 62.3885L21 56.677L30.5444 57.0325L33.5273 48.1074Z" fill="#F0B921"/>
<path d="M76.2153 34L79.6725 48.165L94.3554 50.4245L81.7038 56.6135L84.2087 72.0884L73.3491 60.66L59.2667 67.0876L67.1429 54.354L55.209 44.4741L70.6048 46.8552L76.2153 34Z" fill="#F0B921"/>
<path d="M58.5661 73.1465L60.5764 79.8232H66.1419L60.6974 83.5225L62.354 89.3693L57.0258 84.118L51.223 87.5782L54.4199 81.8534L49.5664 77.5585L56.4349 78.154L58.5661 73.1465Z" fill="#F0B921"/>
</svg>
