<svg width="1440" height="452" viewBox="0 0 1440 452" fill="none" xmlns="http://www.w3.org/2000/svg">
<rect width="1440" height="452" fill="#83C9B1"/>
<path d="M91.3772 165.141L97.3836 185.422H115.638L101.207 196.872L106.772 212.155L91.3772 204.15L73.3888 211.95L79.6514 196.35L64 183.869L84.8583 184.645L91.3772 165.141Z" fill="#F0B921"/>
<path d="M184.667 134.312L192.222 165.269L224.31 170.207L196.661 183.732L202.136 217.551L178.403 192.575L147.627 206.622L164.84 178.794L138.76 157.202L172.406 162.406L184.667 134.312Z" fill="#F0B921"/>
<path d="M146.097 219.863L150.49 234.454H162.653L150.754 242.539L154.375 255.317L142.731 243.84L130.049 251.402L137.036 238.891L126.429 229.505L141.439 230.807L146.097 219.863Z" fill="#F0B921"/>
<path d="M1245.71 165.714L1215.46 169.597L1242.6 184.894L1235.88 216.009L1259.15 193.455L1289.39 206.938L1275.95 180.746L1297.16 157.927L1265.62 160.526L1251.91 132L1245.71 165.714Z" fill="#F0B921"/>
<path d="M1292.53 219.092L1297.48 231.766L1311.03 230.211L1300.35 238.748L1308.16 251.157L1295.39 245.212C1295.39 245.212 1285.1 254.654 1284.71 255.294C1284.32 255.934 1287.58 242.366 1287.58 242.366L1274.81 234.611L1290.18 233.321L1292.52 219.102L1292.53 219.092Z" fill="#F0B921"/>
<path d="M1346.35 163.6L1353.18 185.617L1375 182.732L1356.33 195.58L1365.01 215.238L1347.66 202.916L1331.35 215.238L1338.98 198.722L1318.74 185.617L1341.35 185.359L1346.35 163.6Z" fill="#F0B921"/>
</svg>
