<svg width="354" height="61" viewBox="0 0 354 61" fill="none" xmlns="http://www.w3.org/2000/svg">
<path d="M324 7.75217e-07C320.06 -0.000894964 316.159 0.774466 312.518 2.28179C308.878 3.78911 305.571 5.99886 302.785 8.7848C299.999 11.5707 297.789 14.8783 296.282 18.5184C294.774 22.1586 293.999 26.0601 294 30C294 35.9334 295.759 41.7336 299.056 46.6671C302.352 51.6006 307.038 55.4457 312.519 57.7164C318.001 59.987 324.033 60.5811 329.853 59.4235C335.672 58.266 341.018 55.4088 345.213 51.2132C349.409 47.0176 352.266 41.6721 353.424 35.8527C354.581 30.0333 353.987 24.0013 351.716 18.5195C349.446 13.0377 345.601 8.35235 340.667 5.05591C335.734 1.75947 329.933 7.75217e-07 324 7.75217e-07ZM335.857 45.3477C335.267 45.3477 334.855 45.1227 334.422 44.8602C330.368 42.4023 325.347 41.1136 319.906 41.1136C317.131 41.1136 314.134 41.4443 311.008 42.0852L310.626 42.1807C310.231 42.2761 309.825 42.3818 309.515 42.3818C309.219 42.3864 308.925 42.3318 308.651 42.2212C308.377 42.1106 308.127 41.9463 307.917 41.738C307.707 41.5296 307.541 41.2814 307.429 41.0079C307.316 40.7345 307.259 40.4412 307.261 40.1454C307.261 38.8739 307.977 37.9739 309.177 37.7489C312.7 36.9212 316.304 36.4958 319.923 36.4807C326.247 36.4807 331.899 37.9466 336.733 40.8409C337.561 41.325 338.083 41.8841 338.083 43.1182C338.082 43.7086 337.847 44.2747 337.43 44.6925C337.013 45.1103 336.447 45.3459 335.857 45.3477ZM338.969 36.617C338.264 36.617 337.8 36.3477 337.391 36.1091C330.085 31.7761 319.21 30.3375 310.251 32.7239C310.114 32.7636 309.978 32.8057 309.842 32.85C309.505 32.9557 309.191 33.0614 308.748 33.0614C308.038 33.0586 307.358 32.7742 306.857 32.2705C306.357 31.7668 306.077 31.0851 306.078 30.375C306.078 28.9466 306.825 27.9477 308.172 27.5659C311.625 26.6182 314.867 25.9909 319.534 25.9909C327.075 25.9909 334.387 27.883 340.118 31.3125C341.161 31.9091 341.635 32.7239 341.635 33.9409C341.636 34.6492 341.356 35.3288 340.856 35.8306C340.356 36.3324 339.678 36.6152 338.969 36.617ZM342.501 26.6625C341.836 26.6625 341.427 26.5023 340.814 26.1716C335.86 23.1989 328.132 21.4295 320.124 21.4295C315.951 21.4295 312.16 21.8898 308.853 22.783C308.741 22.8109 308.63 22.8416 308.519 22.875C308.118 23.0123 307.699 23.0904 307.275 23.1068C306.86 23.1091 306.449 23.0286 306.065 22.8698C305.682 22.711 305.334 22.4773 305.042 22.1823C304.751 21.8873 304.521 21.5369 304.366 21.1519C304.211 20.7668 304.135 20.3547 304.142 19.9398C304.142 18.3955 305.008 17.2159 306.46 16.7864C310.452 15.6068 315.048 15.0102 320.117 15.0102C329.247 15.0102 337.933 17.0386 343.95 20.5705C345.082 21.2148 345.637 22.1898 345.637 23.5432C345.641 23.9551 345.562 24.3636 345.405 24.7446C345.248 25.1257 345.017 25.4716 344.725 25.7621C344.433 26.0526 344.086 26.2819 343.704 26.4365C343.322 26.5911 342.913 26.668 342.501 26.6625Z" fill="#FFE9C3"/>
<path d="M255.009 29.4781L247.991 26.2031C247.378 25.9188 246.875 26.2375 246.875 26.9156V33.0844C246.875 33.7625 247.378 34.0813 247.991 33.7969L255.006 30.5219C255.622 30.2344 255.622 29.7656 255.009 29.4781ZM250 0C233.431 0 220 13.4312 220 30C220 46.5687 233.431 60 250 60C266.569 60 280 46.5687 280 30C280 13.4312 266.569 0 250 0ZM250 42.1875C234.644 42.1875 234.375 40.8031 234.375 30C234.375 19.1969 234.644 17.8125 250 17.8125C265.356 17.8125 265.625 19.1969 265.625 30C265.625 40.8031 265.356 42.1875 250 42.1875Z" fill="#FFE9C3"/>
<path d="M185.375 31C185.375 33.4864 184.387 35.871 182.629 37.6291C180.871 39.3873 178.486 40.375 176 40.375C173.514 40.375 171.129 39.3873 169.371 37.6291C167.613 35.871 166.625 33.4864 166.625 31C166.625 30.4656 166.681 29.9438 166.778 29.4375H163.5V41.9281C163.5 42.7969 164.203 43.5 165.072 43.5H186.931C187.348 43.4992 187.747 43.3332 188.041 43.0385C188.335 42.7438 188.5 42.3445 188.5 41.9281V29.4375H185.222C185.319 29.9438 185.375 30.4656 185.375 31ZM176 37.25C176.821 37.2498 177.634 37.0879 178.392 36.7735C179.151 36.4592 179.84 35.9985 180.42 35.4179C181 34.8372 181.461 34.1479 181.775 33.3894C182.089 32.6308 182.25 31.8178 182.25 30.9969C182.25 30.1759 182.088 29.363 181.774 28.6046C181.459 27.8462 180.999 27.1572 180.418 26.5768C179.837 25.9964 179.148 25.5361 178.389 25.2221C177.631 24.9082 176.818 24.7467 175.997 24.7469C174.339 24.7473 172.749 25.4063 171.577 26.579C170.405 27.7517 169.746 29.342 169.747 31C169.747 32.658 170.406 34.248 171.579 35.4201C172.752 36.5922 174.342 37.2504 176 37.25ZM183.5 24.4375H187.247C187.496 24.4375 187.735 24.3388 187.911 24.1631C188.087 23.9874 188.187 23.7489 188.187 23.5V19.7531C188.187 19.5037 188.088 19.2644 187.912 19.088C187.736 18.9116 187.496 18.8125 187.247 18.8125H183.5C183.251 18.8125 183.011 18.9116 182.835 19.088C182.658 19.2644 182.559 19.5037 182.559 19.7531V23.5C182.562 24.0156 182.984 24.4375 183.5 24.4375ZM176 1C168.044 1 160.413 4.1607 154.787 9.7868C149.161 15.4129 146 23.0435 146 31C146 38.9565 149.161 46.5871 154.787 52.2132C160.413 57.8393 168.044 61 176 61C179.94 61 183.841 60.224 187.481 58.7164C191.12 57.2087 194.427 54.999 197.213 52.2132C199.999 49.4274 202.209 46.1203 203.716 42.4805C205.224 38.8407 206 34.9397 206 31C206 27.0603 205.224 23.1593 203.716 19.5195C202.209 15.8797 199.999 12.5726 197.213 9.7868C194.427 7.00104 191.12 4.79125 187.481 3.28361C183.841 1.77597 179.94 1 176 1ZM191.625 43.1531C191.625 45.0625 190.062 46.625 188.153 46.625H163.847C161.937 46.625 160.375 45.0625 160.375 43.1531V18.8469C160.375 16.9375 161.937 15.375 163.847 15.375H188.153C190.062 15.375 191.625 16.9375 191.625 18.8469V43.1531Z" fill="#FFE9C3"/>
<path d="M103.062 1C87.0078 1 74 14.0078 74 30.0625C74 46.1172 87.0078 59.125 103.062 59.125C119.117 59.125 132.125 46.1172 132.125 30.0625C132.125 14.0078 119.117 1 103.062 1ZM108.711 39.2148H87.5L97.4258 20.9219H118.637L108.711 39.2148Z" fill="#FFE9C3"/>
<g clip-path="url(#clip0_739_882)">
<path d="M54.375 0H5.625C2.53125 0 0 2.53125 0 5.625V54.375C0 57.4688 2.53125 60 5.625 60H54.375C57.4688 60 60 57.4688 60 54.375V5.625C60 2.53125 57.4688 0 54.375 0ZM10.4666 40.3253C10.3777 40.8589 9.91599 41.25 9.375 41.25C8.83401 41.25 8.37231 40.8589 8.28338 40.3253L7.65412 36.5497C7.55208 35.9375 7.55208 35.3125 7.65412 34.7003L8.28338 30.9247C8.37231 30.3911 8.83401 30 9.375 30C9.91599 30 10.3777 30.3911 10.4666 30.9247L11.0959 34.7003C11.1979 35.3125 11.1979 35.9375 11.0959 36.5497L10.4666 40.3253ZM17.9288 40.3197C17.8624 40.8512 17.4106 41.25 16.875 41.25C16.3394 41.25 15.8876 40.8512 15.8212 40.3197L15.1163 34.6803C15.0391 34.0625 15.0391 33.4375 15.1163 32.8197L15.8212 27.1803C15.8876 26.6488 16.3394 26.25 16.875 26.25C17.4106 26.25 17.8624 26.6488 17.9288 27.1803L18.6337 32.8197C18.7109 33.4375 18.7109 34.0625 18.6337 34.6803L17.9288 40.3197ZM25.3904 40.3157C25.3463 40.8438 24.9049 41.25 24.375 41.25C23.8451 41.25 23.4037 40.8438 23.3596 40.3157L22.5779 30.9343C22.526 30.3125 22.526 29.6875 22.5779 29.0657L23.3596 19.6843C23.4037 19.1562 23.8451 18.75 24.375 18.75C24.9049 18.75 25.3463 19.1562 25.3904 19.6843L26.1721 29.0657C26.224 29.6875 26.224 30.3125 26.1721 30.9343L25.3904 40.3157ZM48.3525 41.25L30.6938 41.2388C30.5079 41.2173 30.336 41.1297 30.2093 40.992C30.0827 40.8543 30.0097 40.6757 30.0038 40.4888V20.2612C30.0038 19.8862 30.1313 19.6987 30.6112 19.5112C32.2377 18.8791 33.9889 18.634 35.7263 18.7953C37.4638 18.9566 39.1399 19.5198 40.6222 20.4405C42.1045 21.3612 43.3524 22.614 44.2671 24.1C44.6314 24.6919 44.9389 25.3143 45.1868 25.9589C45.7439 27.4075 47.416 28.3911 48.9609 28.5401C50.0062 28.6408 51.0104 28.9981 51.8844 29.5802C52.7585 30.1623 53.4753 30.9511 53.9713 31.8768C54.4672 32.8024 54.727 33.8361 54.7275 34.8863C54.7275 38.4038 51.87 41.25 48.3525 41.25Z" fill="#FFE9C3"/>
</g>
<defs>
<clipPath id="clip0_739_882">
<rect width="60" height="60" rx="30" fill="white"/>
</clipPath>
</defs>
</svg>
