<?xml version="1.0" encoding="UTF-8"?><svg id="Layer_1" xmlns="http://www.w3.org/2000/svg" width="298" height="152" xmlns:xlink="http://www.w3.org/1999/xlink" viewBox="0 0 298 152"><defs><style>.cls-1{filter:url(#drop-shadow-5);}.cls-1,.cls-2,.cls-3,.cls-4,.cls-5,.cls-6,.cls-7{stroke-width:0px;}.cls-1,.cls-2,.cls-3,.cls-4,.cls-5,.cls-7{fill:#f0b921;}.cls-2{filter:url(#drop-shadow-2);}.cls-3{filter:url(#drop-shadow-6);}.cls-4{filter:url(#drop-shadow-3);}.cls-5{filter:url(#drop-shadow-1);}.cls-6{fill:#3d1a20;}.cls-7{filter:url(#drop-shadow-4);}</style><filter id="drop-shadow-1" filterUnits="userSpaceOnUse"><feOffset dx="7" dy="5"/><feGaussianBlur result="blur" stdDeviation="10"/><feFlood flood-color="#000" flood-opacity=".25"/><feComposite in2="blur" operator="in"/><feComposite in="SourceGraphic"/></filter><filter id="drop-shadow-2" filterUnits="userSpaceOnUse"><feOffset dx="7" dy="5"/><feGaussianBlur result="blur-2" stdDeviation="10"/><feFlood flood-color="#000" flood-opacity=".25"/><feComposite in2="blur-2" operator="in"/><feComposite in="SourceGraphic"/></filter><filter id="drop-shadow-3" filterUnits="userSpaceOnUse"><feOffset dx="7" dy="5"/><feGaussianBlur result="blur-3" stdDeviation="10"/><feFlood flood-color="#000" flood-opacity=".25"/><feComposite in2="blur-3" operator="in"/><feComposite in="SourceGraphic"/></filter><filter id="drop-shadow-4" filterUnits="userSpaceOnUse"><feOffset dx="7" dy="5"/><feGaussianBlur result="blur-4" stdDeviation="10"/><feFlood flood-color="#000" flood-opacity=".25"/><feComposite in2="blur-4" operator="in"/><feComposite in="SourceGraphic"/></filter><filter id="drop-shadow-5" filterUnits="userSpaceOnUse"><feOffset dx="7" dy="5"/><feGaussianBlur result="blur-5" stdDeviation="10"/><feFlood flood-color="#000" flood-opacity=".25"/><feComposite in2="blur-5" operator="in"/><feComposite in="SourceGraphic"/></filter><filter id="drop-shadow-6" filterUnits="userSpaceOnUse"><feOffset dx="7" dy="5"/><feGaussianBlur result="blur-6" stdDeviation="10"/><feFlood flood-color="#000" flood-opacity=".25"/><feComposite in2="blur-6" operator="in"/><feComposite in="SourceGraphic"/></filter></defs><path class="cls-5" d="M33.59,113.06h.35c.19,0,.32-.04.39-.11.08-.08.13-.22.13-.41v-3.61c0-.18-.04-.3-.13-.38-.07-.08-.21-.13-.39-.13h-.28v-1.05h1.75l.1.95c.25-.39.56-.68.94-.87.38-.2.84-.29,1.39-.29.41,0,.77.09,1.06.28.3.19.52.45.67.8.23-.37.52-.64.85-.81.35-.18.77-.27,1.29-.27.77,0,1.32.19,1.65.57.35.38.52.96.52,1.72v3.08c0,.18.04.31.13.39s.21.13.39.13h.39v1.04h-2.38v-4.63c0-.47-.09-.8-.27-.99-.18-.2-.48-.29-.9-.29s-.77.12-1.02.36c-.24.24-.36.6-.36,1.06v2.94c0,.19.03.32.1.41.07.07.2.11.38.11h.38v1.04h-2.24v-4.59c0-.46-.09-.79-.27-1.01-.18-.21-.46-.32-.84-.32-.47,0-.83.13-1.08.39s-.38.64-.38,1.15v2.83c0,.19.03.32.1.41.07.07.2.11.38.11h.38v1.04h-3.18v-1.04h0ZM49.03,114.31c-1.14,0-2-.31-2.58-.94-.58-.63-.87-1.5-.87-2.62s.28-2.01.85-2.63c.58-.63,1.44-.95,2.59-.95s2.01.32,2.58.95c.58.63.87,1.5.87,2.63s-.29,1.99-.87,2.62c-.58.63-1.44.94-2.58.94h.01ZM49.03,113.26c.67,0,1.17-.21,1.5-.62s.49-1.04.49-1.89-.16-1.49-.49-1.9c-.33-.42-.83-.63-1.5-.63s-1.17.21-1.5.63c-.32.41-.48,1.05-.48,1.9s.16,1.48.48,1.89c.33.41.83.62,1.5.62ZM53.39,113.06h.35c.19,0,.32-.04.39-.11.08-.08.13-.22.13-.41v-3.6c0-.19-.04-.32-.11-.39-.07-.08-.21-.13-.39-.13h-.29v-1.05h1.79l.08.94c.32-.4.68-.69,1.08-.87.41-.19.91-.28,1.48-.28,1.49,0,2.24.77,2.24,2.32v3.05c0,.19.04.32.11.41.08.07.22.11.41.11h.39v1.04h-2.41v-4.59c0-.47-.1-.8-.29-1.01-.2-.21-.51-.32-.95-.32-.48,0-.87.14-1.18.41-.31.27-.46.65-.46,1.13v2.83c0,.19.03.32.1.41.07.07.2.11.38.11h.36v1.04h-3.21s0-1.04,0-1.04ZM64.62,114.31c-.77,0-1.36-.19-1.75-.57s-.59-.94-.59-1.68v-3.67h-1.09v-1.01h1.09v-1.51l1.48-.48v1.99h2.02v1.01h-2.02v3.77c0,.41.07.7.22.88.16.18.4.27.71.27.41,0,.72-.09.94-.27v-.6h1.27v1.06c-.31.26-.64.46-1.01.6-.36.14-.79.21-1.29.21h.02ZM67.42,113.06h.35c.19,0,.32-.04.39-.11.08-.08.13-.22.13-.41v-6.16c0-.18-.04-.31-.13-.39-.07-.08-.21-.13-.39-.13h-.28v-1.04h2.16v3.25c.34-.34.68-.57,1.02-.7.35-.14.8-.21,1.33-.21.73,0,1.27.2,1.64.6s.56.98.56,1.72v3.05c0,.19.04.32.11.41.08.07.21.11.39.11h.39v1.04h-2.42v-4.59c0-.47-.1-.81-.31-1.02s-.52-.32-.94-.32c-.48,0-.87.14-1.18.42-.31.27-.46.65-.46,1.13v2.83c0,.19.03.32.1.41.07.07.2.11.36.11h.38v1.04h-3.21v-1.04h0ZM78.68,114.31c-1.13,0-2.07-.27-2.81-.81v-1.09h1.37v.56c.38.22.85.34,1.4.34.42,0,.73-.07.94-.2s.32-.35.32-.64c0-.2-.06-.35-.17-.48-.1-.13-.25-.24-.43-.32-.19-.09-.56-.25-1.11-.48-.55-.22-.98-.42-1.27-.57-.29-.17-.53-.38-.71-.63s-.27-.57-.27-.95c0-.62.24-1.08.71-1.39.48-.32,1.12-.48,1.95-.48.52,0,1.01.07,1.47.21.46.13.85.32,1.19.57v1.05h-1.34v-.52c-.34-.21-.74-.31-1.2-.31-.42,0-.74.07-.95.2s-.31.35-.31.66c0,.28.11.5.34.66.22.15.57.31,1.04.48.13.04.28.09.43.15.49.19.87.36,1.16.52.29.16.53.37.71.63.19.26.28.59.28.99,0,.6-.23,1.05-.69,1.37-.45.32-1.13.48-2.04.48h0Z"/><path class="cls-2" d="M131.01,114.31c-.92,0-1.65-.3-2.17-.9-.51-.6-.77-1.45-.77-2.56,0-1.17.26-2.07.77-2.72.51-.64,1.26-.97,2.23-.97.57,0,1.02.07,1.36.21.35.14.63.37.85.7v-1.61c0-.22-.04-.38-.11-.48-.07-.09-.22-.14-.43-.14h-.24v-1.02h2.23v7.77c0,.21.03.35.1.43.07.07.19.11.36.11h.28v.95h-1.88l-.13-.98c-.28.42-.61.72-.99.91s-.87.28-1.46.28v.02ZM131.35,113.22c.6,0,1.06-.19,1.4-.57.34-.39.5-.91.5-1.57v-.71c0-.68-.16-1.2-.49-1.57-.32-.36-.77-.55-1.36-.55-.66,0-1.14.21-1.44.62-.29.41-.43,1.07-.43,1.97s.14,1.47.42,1.83.75.55,1.4.55ZM138.32,114.31c-.75,0-1.32-.16-1.71-.49-.38-.33-.57-.79-.57-1.39,0-.67.21-1.16.63-1.47.43-.32,1.04-.5,1.85-.56l1.96-.13v-.85c0-.44-.09-.76-.28-.95-.19-.2-.5-.29-.95-.29-.31,0-.57.03-.77.08s-.38.13-.55.24v.5h-1.3v-1.11c.78-.49,1.67-.73,2.65-.73,1.79,0,2.69.79,2.69,2.38v3.07c0,.19.03.32.1.41.07.08.19.13.35.13h.31v.95h-1.61l-.18-.88c-.3.38-.65.66-1.05.84-.39.17-.91.25-1.55.25h-.02ZM138.66,113.3c.56,0,1-.12,1.33-.36s.49-.61.49-1.11v-.67l-1.85.14c-.46.03-.77.13-.95.29s-.27.42-.27.77c0,.31.1.54.29.7.2.16.51.24.95.24h0ZM146.7,116.9c-1.14,0-2.04-.32-2.72-.97v-1.01h1.3v.5c.31.34.76.5,1.36.5.49,0,.85-.14,1.09-.42.25-.28.38-.69.38-1.23v-.99c-.26.26-.55.45-.87.57-.32.11-.69.17-1.11.17-.8,0-1.43-.21-1.88-.62-.45-.42-.67-1.01-.67-1.76v-2.72c0-.18-.04-.31-.13-.39s-.22-.13-.39-.13h-.41v-1.04h2.41v4.31c0,.91.45,1.37,1.36,1.37.49,0,.87-.14,1.16-.41.29-.28.43-.68.43-1.2v-2.52c0-.19-.04-.32-.11-.39-.07-.08-.19-.13-.36-.13h-.36v-1.04h2.34v6.59c0,.89-.26,1.6-.77,2.13-.5.53-1.19.8-2.06.8v.03ZM153.2,114.31c-1.13,0-2.07-.27-2.81-.81v-1.09h1.37v.56c.38.22.85.34,1.4.34.42,0,.73-.07.94-.2s.32-.35.32-.64c0-.2-.06-.35-.17-.48-.1-.13-.25-.24-.43-.32-.19-.09-.56-.25-1.11-.48s-.98-.42-1.27-.57c-.29-.17-.53-.38-.71-.63s-.27-.57-.27-.95c0-.62.24-1.08.71-1.39.48-.32,1.12-.48,1.95-.48.52,0,1.01.07,1.47.21.46.13.85.32,1.19.57v1.05h-1.34v-.52c-.34-.21-.74-.31-1.2-.31-.42,0-.74.07-.95.2-.2.13-.31.35-.31.66,0,.28.11.5.34.66.22.15.57.31,1.04.48.13.04.27.09.43.15.49.19.87.36,1.16.52s.53.37.71.63c.19.26.28.59.28.99,0,.6-.23,1.05-.69,1.37-.45.32-1.13.48-2.04.48h-.01Z"/><path class="cls-4" d="M208.85,113.06h.35c.19,0,.32-.04.39-.11.08-.08.13-.22.13-.41v-6.16c0-.18-.04-.31-.13-.39-.07-.08-.21-.13-.39-.13h-.28v-1.04h2.16v3.25c.34-.34.68-.57,1.02-.7.35-.14.8-.21,1.33-.21.73,0,1.27.2,1.64.6s.56.98.56,1.72v3.05c0,.19.04.32.11.41.08.07.21.11.39.11h.39v1.04h-2.42v-4.59c0-.47-.1-.81-.31-1.02-.21-.21-.52-.32-.94-.32-.48,0-.87.14-1.18.42-.31.27-.46.65-.46,1.13v2.83c0,.19.03.32.1.41.07.07.2.11.36.11h.38v1.04h-3.21v-1.04h0ZM220.74,114.31c-1.14,0-2-.31-2.58-.94-.58-.63-.87-1.5-.87-2.62s.29-2.01.85-2.63c.58-.63,1.44-.95,2.59-.95s2.01.32,2.58.95c.58.63.87,1.5.87,2.63s-.29,1.99-.87,2.62c-.58.63-1.44.94-2.58.94h0ZM220.74,113.26c.67,0,1.17-.21,1.5-.62s.49-1.04.49-1.89-.16-1.49-.49-1.9c-.33-.42-.83-.63-1.5-.63s-1.17.21-1.5.63c-.32.41-.48,1.05-.48,1.9s.16,1.48.48,1.89c.33.41.83.62,1.5.62ZM227.7,114.31c-.76,0-1.34-.2-1.74-.6s-.59-.98-.59-1.72v-3.05c0-.18-.04-.31-.13-.39-.07-.08-.2-.13-.38-.13h-.41v-1.04h2.41v4.59c0,.91.44,1.36,1.32,1.36.48,0,.86-.14,1.15-.42s.43-.68.43-1.2v-2.77c0-.18-.04-.31-.11-.39-.06-.08-.18-.13-.35-.13h-.39v-1.04h2.34v5.17c0,.18.04.31.13.39.08.07.22.11.39.11h.28v1.05h-1.78l-.08-.91c-.3.39-.65.68-1.05.85-.39.18-.87.27-1.44.27h0ZM232.84,113.06h.35c.19,0,.32-.04.39-.11.08-.08.13-.22.13-.41v-3.61c0-.18-.04-.31-.11-.39s-.2-.13-.38-.13h-.29v-1.04h1.93l.2.77c.19-.29.43-.49.71-.6.3-.11.65-.17,1.05-.17h.64v1.04h-.78c-.53,0-.91.12-1.13.36-.22.23-.34.6-.34,1.09v2.67c0,.19.04.32.11.41.08.07.2.11.38.11h.35v1.04h-3.21v-1.04h0ZM240.43,114.31c-1.13,0-2.07-.27-2.81-.81v-1.09h1.37v.56c.38.22.85.34,1.4.34.42,0,.73-.07.94-.2s.32-.35.32-.64c0-.2-.06-.35-.17-.48-.1-.13-.25-.24-.43-.32-.19-.09-.56-.25-1.11-.48-.55-.22-.97-.42-1.27-.57-.29-.17-.53-.38-.71-.63-.18-.25-.27-.57-.27-.95,0-.62.24-1.08.71-1.39.48-.32,1.12-.48,1.95-.48.52,0,1.01.07,1.47.21.46.13.85.32,1.19.57v1.05h-1.34v-.52c-.34-.21-.74-.31-1.2-.31-.42,0-.74.07-.95.2-.21.13-.31.35-.31.66,0,.28.11.5.34.66.22.15.57.31,1.04.48.13.04.28.09.43.15.49.19.87.36,1.16.52.29.16.53.37.71.63.19.26.28.59.28.99,0,.6-.23,1.05-.69,1.37-.45.32-1.13.48-2.04.48h-.01Z"/><rect class="cls-7" x="23" y="25.1" width="70" height="70" rx="10" ry="10"/><rect class="cls-1" x="107" y="25.1" width="70" height="70" rx="10" ry="10"/><rect class="cls-3" x="191" y="25.1" width="70" height="70" rx="10" ry="10"/><path class="cls-6" d="M51.44,72.45h2.95c.73,0,1.23-.15,1.5-.45.3-.3.45-.78.45-1.45v-21.7l-4.85,2.95-2-3.3,7.55-4.75h4.55v26.8c0,.67.15,1.15.45,1.45s.82.45,1.55.45h2.9v3.65h-15.05s0-3.65,0-3.65Z"/><path class="cls-6" d="M139.56,72.45h2.55c.73,0,1.23-.15,1.5-.45.3-.3.45-.78.45-1.45v-3h-14.75v-3.4l14.95-20.4h4.95v20.1h5.5v3.7h-5.5v3c0,.67.15,1.15.45,1.45.3.3.82.45,1.55.45h2.5v3.65h-14.15s0-3.65,0-3.65ZM144.36,63.85v-13.4l-9.8,13.4h9.8Z"/><path class="cls-6" d="M225.68,76.85c-2.27,0-4.38-.32-6.35-.95-1.93-.63-3.6-1.55-5-2.75v-4.7h5.25v3c1.8,1.13,3.88,1.7,6.25,1.7s4.07-.5,5.1-1.5c1.07-1,1.6-2.7,1.6-5.1,0-3.67-2.05-5.5-6.15-5.5h-4v-3.7h4.15c3.77,0,5.65-1.9,5.65-5.7,0-1.67-.55-2.9-1.65-3.7-1.1-.83-2.62-1.25-4.55-1.25-2.13,0-4.05.38-5.75,1.15v3h-5.25v-4.65c1.33-.97,2.98-1.73,4.95-2.3,1.97-.6,3.97-.9,6-.9,3.4,0,6.15.72,8.25,2.15,2.13,1.4,3.2,3.52,3.2,6.35,0,3.37-1.45,5.92-4.35,7.65,3.1,1.43,4.65,3.85,4.65,7.25,0,3.63-.98,6.28-2.95,7.95-1.93,1.67-4.95,2.5-9.05,2.5h0Z"/></svg>