<?xml version="1.0" encoding="UTF-8"?><svg id="Layer_1" xmlns="http://www.w3.org/2000/svg" width="442" height="158" viewBox="0 0 442 158"><defs><style>.cls-1{fill:#f0b921;}.cls-1,.cls-2{stroke-width:0px;}.cls-2{fill:#3d1a20;}</style></defs><rect class="cls-1" x="1.8" y="3" width="100" height="100" rx="20" ry="20"/><rect class="cls-1" x="171.8" y="1" width="100" height="100" rx="20" ry="20"/><rect class="cls-1" x="341.8" width="100" height="100" rx="20" ry="20"/><path class="cls-2" d="M42.63,70.89h4.13c1.03,0,1.73-.21,2.1-.63.42-.42.63-1.1.63-2.03v-30.38l-6.79,4.13-2.8-4.62,10.57-6.65h6.37v37.52c0,.93.21,1.61.63,2.03.42.42,1.14.63,2.17.63h4.06v5.11h-21.07v-5.11Z"/><path class="cls-2" d="M206.05,70.29c0-4.25,1.28-7.89,3.85-10.92,2.57-3.03,6.3-5.74,11.2-8.12,3.45-1.68,5.83-3.29,7.14-4.83,1.35-1.59,2.03-3.78,2.03-6.58,0-2.38-.77-4.13-2.31-5.25-1.49-1.17-3.62-1.75-6.37-1.75-3.13,0-5.81.56-8.05,1.68v4.13h-7.28v-6.58c1.96-1.31,4.29-2.36,7-3.15,2.71-.84,5.46-1.26,8.26-1.26,4.85,0,8.73,1.03,11.62,3.08,2.94,2.01,4.41,5.04,4.41,9.1,0,2.47-.47,4.62-1.4,6.44-.89,1.82-2.33,3.5-4.34,5.04-1.96,1.49-4.67,3.08-8.12,4.76-3.36,1.63-5.9,3.45-7.63,5.46-1.68,2.01-2.52,4.46-2.52,7.35h23.52v5.11h-31.01v-3.71Z"/><path class="cls-2" d="M400.04,32.89h-17.08v4.9h-7.42v-10.08h32.55v3.57l-16.8,41.72h-7.42l16.17-40.11Z"/><path class="cls-1" d="M.2,149.78h.75c.4,0,.68-.08.84-.24.18-.18.27-.47.27-.87v-7.74c0-.38-.09-.65-.27-.81-.16-.18-.44-.27-.84-.27H.35v-2.25h3.75l.21,2.04c.54-.84,1.21-1.46,2.01-1.86.82-.42,1.81-.63,2.97-.63.88,0,1.64.2,2.28.6.64.4,1.12.97,1.44,1.71.5-.8,1.11-1.38,1.83-1.74.74-.38,1.66-.57,2.76-.57,1.64,0,2.82.41,3.54,1.23.74.82,1.11,2.05,1.11,3.69v6.6c0,.38.09.66.27.84.18.18.46.27.84.27h.84v2.22h-5.1v-9.93c0-1-.19-1.71-.57-2.13-.38-.42-1.02-.63-1.92-.63s-1.65.26-2.19.78c-.52.52-.78,1.28-.78,2.28v6.3c0,.4.07.69.21.87.16.16.43.24.81.24h.81v2.22h-4.8v-9.84c0-.98-.19-1.7-.57-2.16s-.98-.69-1.8-.69c-1,0-1.77.28-2.31.84-.54.56-.81,1.38-.81,2.46v6.06c0,.4.07.69.21.87.16.16.43.24.81.24h.81v2.22H.2v-2.22ZM33.27,152.45c-2.44,0-4.28-.67-5.52-2.01s-1.86-3.21-1.86-5.61.61-4.3,1.83-5.64c1.24-1.36,3.09-2.04,5.55-2.04s4.3.68,5.52,2.04c1.24,1.34,1.86,3.22,1.86,5.64s-.62,4.27-1.86,5.61c-1.24,1.34-3.08,2.01-5.52,2.01ZM33.27,150.2c1.44,0,2.51-.44,3.21-1.32.7-.88,1.05-2.23,1.05-4.05s-.35-3.2-1.05-4.08c-.7-.9-1.77-1.35-3.21-1.35s-2.51.45-3.21,1.35c-.68.88-1.02,2.24-1.02,4.08s.34,3.17,1.02,4.05c.7.88,1.77,1.32,3.21,1.32ZM42.62,149.78h.75c.4,0,.68-.08.84-.24.18-.18.27-.47.27-.87v-7.71c0-.4-.08-.68-.24-.84-.16-.18-.44-.27-.84-.27h-.63v-2.25h3.84l.18,2.01c.68-.86,1.45-1.48,2.31-1.86.88-.4,1.94-.6,3.18-.6,3.2,0,4.8,1.66,4.8,4.98v6.54c0,.4.08.69.24.87.18.16.47.24.87.24h.84v2.22h-5.16v-9.84c0-1-.21-1.72-.63-2.16-.42-.46-1.1-.69-2.04-.69-1.02,0-1.86.29-2.52.87-.66.58-.99,1.39-.99,2.43v6.06c0,.4.07.69.21.87.16.16.43.24.81.24h.78v2.22h-6.87v-2.22ZM66.69,152.45c-1.66,0-2.91-.41-3.75-1.23-.84-.82-1.26-2.02-1.26-3.6v-7.86h-2.34v-2.16h2.34v-3.24l3.18-1.02v4.26h4.32v2.16h-4.32v8.07c0,.88.16,1.51.48,1.89.34.38.85.57,1.53.57.88,0,1.55-.19,2.01-.57v-1.29h2.73v2.28c-.66.56-1.38.99-2.16,1.29s-1.7.45-2.76.45ZM72.68,149.78h.75c.4,0,.68-.08.84-.24.18-.18.27-.47.27-.87v-13.2c0-.38-.09-.66-.27-.84-.16-.18-.44-.27-.84-.27h-.6v-2.22h4.62v6.96c.72-.72,1.45-1.22,2.19-1.5.76-.3,1.71-.45,2.85-.45,1.56,0,2.73.43,3.51,1.29.8.86,1.2,2.09,1.2,3.69v6.54c0,.4.08.69.24.87.18.16.46.24.84.24h.84v2.22h-5.19v-9.84c0-1-.22-1.73-.66-2.19-.44-.46-1.11-.69-2.01-.69-1.02,0-1.86.3-2.52.9-.66.58-.99,1.39-.99,2.43v6.06c0,.4.07.69.21.87.16.16.42.24.78.24h.81v2.22h-6.87v-2.22ZM96.81,152.45c-2.42,0-4.43-.58-6.03-1.74v-2.34h2.94v1.2c.82.48,1.82.72,3,.72.9,0,1.57-.14,2.01-.42.46-.28.69-.74.69-1.38,0-.42-.12-.76-.36-1.02-.22-.28-.53-.51-.93-.69-.4-.2-1.19-.54-2.37-1.02-1.18-.48-2.09-.89-2.73-1.23-.62-.36-1.13-.81-1.53-1.35-.38-.54-.57-1.22-.57-2.04,0-1.32.51-2.31,1.53-2.97,1.02-.68,2.41-1.02,4.17-1.02,1.12,0,2.17.15,3.15.45.98.28,1.83.69,2.55,1.23v2.25h-2.88v-1.11c-.72-.44-1.58-.66-2.58-.66-.9,0-1.58.14-2.04.42-.44.28-.66.75-.66,1.41,0,.6.24,1.07.72,1.41.48.32,1.22.66,2.22,1.02.28.08.59.19.93.33,1.04.4,1.87.77,2.49,1.11.62.34,1.13.79,1.53,1.35.4.56.6,1.27.6,2.13,0,1.28-.49,2.26-1.47,2.94-.96.68-2.42,1.02-4.38,1.02Z"/><path class="cls-1" d="M198.33,152.45c-1.98,0-3.53-.64-4.65-1.92-1.1-1.28-1.65-3.11-1.65-5.49,0-2.5.55-4.44,1.65-5.82s2.69-2.07,4.77-2.07c1.22,0,2.19.15,2.91.45.74.3,1.35.8,1.83,1.5v-3.45c0-.48-.08-.82-.24-1.02-.16-.2-.47-.3-.93-.3h-.51v-2.19h4.77v16.65c0,.44.07.75.21.93.14.16.4.24.78.24h.6v2.04h-4.02l-.27-2.1c-.6.9-1.31,1.55-2.13,1.95-.82.4-1.86.6-3.12.6ZM199.05,150.11c1.28,0,2.28-.41,3-1.23.72-.84,1.08-1.96,1.08-3.36v-1.53c0-1.46-.35-2.58-1.05-3.36-.68-.78-1.65-1.17-2.91-1.17-1.42,0-2.45.44-3.09,1.32-.62.88-.93,2.29-.93,4.23,0,1.84.3,3.15.9,3.93.6.78,1.6,1.17,3,1.17ZM213.99,152.45c-1.6,0-2.82-.35-3.66-1.05-.82-.7-1.23-1.69-1.23-2.97,0-1.44.45-2.49,1.35-3.15.92-.68,2.24-1.08,3.96-1.2l4.2-.27v-1.83c0-.94-.2-1.62-.6-2.04-.4-.42-1.08-.63-2.04-.63-.66,0-1.21.06-1.65.18-.42.1-.81.27-1.17.51v1.08h-2.79v-2.37c1.68-1.04,3.57-1.56,5.67-1.56,3.84,0,5.76,1.7,5.76,5.1v6.57c0,.4.07.69.21.87.16.18.41.27.75.27h.66v2.04h-3.45l-.39-1.89c-.64.82-1.39,1.42-2.25,1.8-.84.36-1.95.54-3.33.54ZM214.71,150.29c1.2,0,2.15-.26,2.85-.78.7-.52,1.05-1.31,1.05-2.37v-1.44l-3.96.3c-.98.06-1.66.27-2.04.63-.38.34-.57.89-.57,1.65,0,.66.21,1.16.63,1.5s1.1.51,2.04.51ZM231.95,158c-2.44,0-4.38-.69-5.82-2.07v-2.16h2.79v1.08c.66.72,1.63,1.08,2.91,1.08,1.04,0,1.82-.3,2.34-.9.54-.6.81-1.48.81-2.64v-2.13c-.56.56-1.18.97-1.86,1.23-.68.24-1.47.36-2.37.36-1.72,0-3.06-.44-4.02-1.32-.96-.9-1.44-2.16-1.44-3.78v-5.82c0-.38-.09-.66-.27-.84s-.46-.27-.84-.27h-.87v-2.22h5.16v9.24c0,1.96.97,2.94,2.91,2.94,1.04,0,1.87-.29,2.49-.87.62-.6.93-1.46.93-2.58v-5.4c0-.4-.08-.68-.24-.84-.14-.18-.4-.27-.78-.27h-.78v-2.22h5.01v14.13c0,1.9-.55,3.42-1.65,4.56-1.08,1.14-2.55,1.71-4.41,1.71ZM245.87,152.45c-2.42,0-4.43-.58-6.03-1.74v-2.34h2.94v1.2c.82.48,1.82.72,3,.72.9,0,1.57-.14,2.01-.42.46-.28.69-.74.69-1.38,0-.42-.12-.76-.36-1.02-.22-.28-.53-.51-.93-.69-.4-.2-1.19-.54-2.37-1.02-1.18-.48-2.09-.89-2.73-1.23-.62-.36-1.13-.81-1.53-1.35-.38-.54-.57-1.22-.57-2.04,0-1.32.51-2.31,1.53-2.97,1.02-.68,2.41-1.02,4.17-1.02,1.12,0,2.17.15,3.15.45.98.28,1.83.69,2.55,1.23v2.25h-2.88v-1.11c-.72-.44-1.58-.66-2.58-.66-.9,0-1.58.14-2.04.42-.44.28-.66.75-.66,1.41,0,.6.24,1.07.72,1.41.48.32,1.22.66,2.22,1.02.28.08.59.19.93.33,1.04.4,1.87.77,2.49,1.11.62.34,1.13.79,1.53,1.35s.6,1.27.6,2.13c0,1.28-.49,2.26-1.47,2.94-.96.68-2.42,1.02-4.38,1.02Z"/><path class="cls-1" d="M355.13,149.78h.75c.4,0,.68-.08.84-.24.18-.18.27-.47.27-.87v-13.2c0-.38-.09-.66-.27-.84-.16-.18-.44-.27-.84-.27h-.6v-2.22h4.62v6.96c.72-.72,1.45-1.22,2.19-1.5.76-.3,1.71-.45,2.85-.45,1.56,0,2.73.43,3.51,1.29.8.86,1.2,2.09,1.2,3.69v6.54c0,.4.08.69.24.87.18.16.46.24.84.24h.84v2.22h-5.19v-9.84c0-1-.22-1.73-.66-2.19-.44-.46-1.11-.69-2.01-.69-1.02,0-1.86.3-2.52.9-.66.58-.99,1.39-.99,2.43v6.06c0,.4.07.69.21.87.16.16.42.24.78.24h.81v2.22h-6.87v-2.22ZM380.62,152.45c-2.44,0-4.28-.67-5.52-2.01-1.24-1.34-1.86-3.21-1.86-5.61s.61-4.3,1.83-5.64c1.24-1.36,3.09-2.04,5.55-2.04s4.3.68,5.52,2.04c1.24,1.34,1.86,3.22,1.86,5.64s-.62,4.27-1.86,5.61c-1.24,1.34-3.08,2.01-5.52,2.01ZM380.62,150.2c1.44,0,2.51-.44,3.21-1.32.7-.88,1.05-2.23,1.05-4.05s-.35-3.2-1.05-4.08c-.7-.9-1.77-1.35-3.21-1.35s-2.51.45-3.21,1.35c-.68.88-1.02,2.24-1.02,4.08s.34,3.17,1.02,4.05c.7.88,1.77,1.32,3.21,1.32ZM395.54,152.45c-1.64,0-2.88-.43-3.72-1.29s-1.26-2.09-1.26-3.69v-6.54c0-.38-.09-.66-.27-.84-.16-.18-.43-.27-.81-.27h-.87v-2.22h5.16v9.84c0,1.94.94,2.91,2.82,2.91,1.02,0,1.84-.3,2.46-.9.62-.6.93-1.46.93-2.58v-5.94c0-.38-.08-.66-.24-.84-.14-.18-.39-.27-.75-.27h-.84v-2.22h5.01v11.07c0,.38.09.66.27.84.18.16.46.24.84.24h.6v2.25h-3.81l-.18-1.95c-.64.84-1.39,1.45-2.25,1.83-.84.38-1.87.57-3.09.57ZM406.55,149.78h.75c.4,0,.68-.08.84-.24.18-.18.27-.47.27-.87v-7.74c0-.38-.08-.66-.24-.84-.16-.18-.43-.27-.81-.27h-.63v-2.22h4.14l.42,1.65c.4-.62.91-1.05,1.53-1.29.64-.24,1.39-.36,2.25-.36h1.38v2.22h-1.68c-1.14,0-1.95.26-2.43.78-.48.5-.72,1.28-.72,2.34v5.73c0,.4.08.69.24.87.16.16.43.24.81.24h.75v2.22h-6.87v-2.22ZM422.8,152.45c-2.42,0-4.43-.58-6.03-1.74v-2.34h2.94v1.2c.82.48,1.82.72,3,.72.9,0,1.57-.14,2.01-.42.46-.28.69-.74.69-1.38,0-.42-.12-.76-.36-1.02-.22-.28-.53-.51-.93-.69-.4-.2-1.19-.54-2.37-1.02-1.18-.48-2.09-.89-2.73-1.23-.62-.36-1.13-.81-1.53-1.35-.38-.54-.57-1.22-.57-2.04,0-1.32.51-2.31,1.53-2.97,1.02-.68,2.41-1.02,4.17-1.02,1.12,0,2.17.15,3.15.45.98.28,1.83.69,2.55,1.23v2.25h-2.88v-1.11c-.72-.44-1.58-.66-2.58-.66-.9,0-1.58.14-2.04.42-.44.28-.66.75-.66,1.41,0,.6.24,1.07.72,1.41.48.32,1.22.66,2.22,1.02.28.08.59.19.93.33,1.04.4,1.87.77,2.49,1.11.62.34,1.13.79,1.53,1.35s.6,1.27.6,2.13c0,1.28-.49,2.26-1.47,2.94-.96.68-2.42,1.02-4.38,1.02Z"/></svg>