<svg width="390" height="63" viewBox="0 0 390 63" fill="none" xmlns="http://www.w3.org/2000/svg">
<rect x="161.57" width="67.86" height="30" fill="#FFE9C3"/>
<rect x="229.43" y="4.0918" width="3.915" height="22.5" fill="#FFE9C3"/>
<rect x="157.655" y="4.0918" width="3.915" height="22.5" fill="#FFE9C3"/>
<ellipse cx="233.345" cy="15.3409" rx="5.655" ry="7.84091" fill="#FFE9C3"/>
<ellipse cx="157.655" cy="15.3409" rx="5.655" ry="7.84091" fill="#FFE9C3"/>
<line y1="14" x2="171.047" y2="14" stroke="#FFE9C3" stroke-width="2"/>
<line x1="234" y1="14" x2="390" y2="14" stroke="#FFE9C3" stroke-width="2"/>
<path d="M186.51 9.61816L186.782 9.66211L186.826 9.61816H186.879L187.099 9.66211L187.283 9.61816C187.951 9.77051 188.285 9.89355 188.285 9.9873L188.329 9.93457H188.417C188.546 9.93457 188.833 10.1016 189.278 10.4355H189.322C189.322 10.3594 189.384 10.3154 189.507 10.3037C189.507 10.2393 189.565 10.207 189.683 10.207C189.683 10.0664 189.82 9.88477 190.096 9.66211L190.14 9.71484L190.096 10.0312L190.14 10.207L190.096 10.251L190.14 10.5762V10.8926C189.987 10.8281 189.762 10.7959 189.463 10.7959L189.507 10.9365L190.14 11.0244L190.096 11.2529L190.14 12.0703L190.096 12.7471L190.14 13.0195L190.096 13.5645V13.6963L190.052 13.749L190.096 13.8809L190.052 14.1094H190.14V14.1973L190.052 14.2852L190.008 14.2412H189.955L189.683 14.2852L189.639 14.2412H189.595L189.41 14.2852H189.322L189.278 14.2412L189.234 14.2852H189.19L189.146 14.2412L189.094 14.2852H189.006L188.918 14.1973V14.0215L188.962 13.8369L188.918 13.793V13.749L188.962 13.6963V13.6523L188.918 13.6084V13.5645L188.962 13.5205V13.4766L188.918 13.292L188.962 13.248V13.2041L188.918 12.9316L188.962 12.6152C188.903 12.4102 188.707 12.0762 188.373 11.6133C188.373 11.5547 188.326 11.5254 188.232 11.5254C188.232 11.4668 188.174 11.4375 188.057 11.4375C188.057 11.3145 187.966 11.2529 187.784 11.2529V11.165H187.688V11.209L187.195 11.1123L187.151 11.165H187.099L186.923 11.1123L186.738 11.165V11.1123C186.258 11.2764 186.018 11.5342 186.018 11.8857L185.921 12.2988L185.965 12.4307L185.877 12.8877L185.921 13.0195L185.877 13.1602L185.921 13.5645V13.6523L185.833 13.793V13.8369C185.921 13.8369 185.965 13.8662 185.965 13.9248V14.0215L185.921 14.5137L185.965 14.5576V14.6104L185.921 14.6543V14.6982L185.965 15.1992V15.2871L185.921 15.3311V15.375H185.965L186.062 15.2871L186.923 15.375C187.345 15.3164 187.556 15.2109 187.556 15.0586C187.556 14.8008 187.403 14.5605 187.099 14.3379V14.2852H187.151C187.257 14.2852 187.421 14.3613 187.644 14.5137C187.837 14.5137 188.051 14.8154 188.285 15.4189L188.188 15.5156L188.285 15.7354C188.227 15.9873 188.165 16.125 188.101 16.1484C188.224 16.3418 188.285 16.5381 188.285 16.7373C188.285 17.1357 187.937 17.4521 187.239 17.6865H187.099V17.5986C187.251 17.5986 187.389 17.4316 187.512 17.0977C187.342 16.9453 187.204 16.8691 187.099 16.8691L186.923 16.9658L186.879 16.9219V16.8691L186.378 16.9658V16.9219L186.334 16.9658H186.237L186.193 16.9219L185.965 16.9658V17.0537L185.921 17.5107L185.965 17.6865L185.877 18.1436H185.965V18.1875L185.921 19.998L185.965 20.499L185.921 20.7275L185.965 20.9033L185.921 21.2637C185.921 21.7793 186.088 22.1133 186.422 22.2656L186.694 22.3535H186.826C187.025 22.3535 187.283 22.248 187.6 22.0371H187.644V22.0811C187.644 22.3506 187.283 22.6523 186.562 22.9863V22.9424L186.51 22.9863H186.466L186.29 22.8984V22.9424L186.334 23.0742H186.29L185.789 23.127H185.332C185.18 23.127 184.983 23.0215 184.743 22.8105C184.474 23.0508 184.248 23.1709 184.066 23.1709H183.97C183.647 23.1709 183.211 23.0039 182.66 22.6699L182.247 22.1689V22.125H182.3L182.845 22.3535C183.267 22.3535 183.478 22.1865 183.478 21.8525L183.521 21.4922L183.478 21.2637L183.521 21.2197V21.1758L183.478 21.0352L183.521 20.9033L183.434 20.3672L183.521 20.1387L183.434 19.0928L183.478 18.416L183.434 18.2754H183.478L183.434 18.2314V18.1436L183.521 18.0557L183.434 17.7305L183.478 17.3701C183.478 16.9482 183.234 16.5703 182.748 16.2363V16.1924L183.478 15.3311L183.434 14.8828V14.5137L183.478 14.2412L183.434 14.0654L183.478 13.749L183.434 13.6963L183.521 13.6084V13.5645L183.434 13.4238V13.3799C183.434 13.1689 183.463 13.0049 183.521 12.8877L183.478 12.7031C183.565 12.7031 183.609 12.6738 183.609 12.6152C183.492 12.6152 183.434 12.5684 183.434 12.4746L183.478 12.4307V12.3867L183.434 12.3428V12.2988L183.478 12.2461V12.2021L183.434 11.9736L183.478 11.7979L183.381 11.3408L183.434 11.209L183.381 11.0684L183.434 11.0244L183.381 10.9805C183.234 10.8984 183.161 10.8223 183.161 10.752H182.889C182.678 10.752 182.435 10.9043 182.159 11.209L182.115 11.165C182.396 10.4971 182.774 10.0723 183.249 9.89062C183.56 9.80273 183.832 9.75879 184.066 9.75879C184.23 9.75879 184.485 9.92285 184.831 10.251C185.159 9.95215 185.417 9.80273 185.604 9.80273L185.648 9.84668C185.648 9.73535 185.936 9.65918 186.51 9.61816ZM188.013 10.0312L187.916 10.1631H188.013L188.101 10.0752V10.0312H188.013ZM183.882 10.1191V10.1631L183.97 10.251L184.198 10.3477V10.3037L183.926 10.1191H183.882ZM184.242 10.3037C184.242 10.3623 184.304 10.3916 184.427 10.3916L184.471 10.4355V10.4795L184.427 10.5234H184.567L184.611 10.3916L184.242 10.3037ZM187.327 10.4795H187.371L187.468 10.3916H187.424L187.327 10.4795ZM185.429 10.5234C185.429 10.5879 185.473 10.6201 185.561 10.6201H185.604V10.5762L185.429 10.5234ZM187.688 10.5234C187.688 10.5879 187.644 10.6201 187.556 10.6201V10.6641H187.828L187.688 10.5234ZM186.879 10.752L186.694 10.708L186.378 10.8486V10.8926L186.694 10.9365L186.782 10.752L186.826 10.7959H186.923C187.134 10.6904 187.239 10.6172 187.239 10.5762H187.195L186.879 10.752ZM185.692 10.6201V10.6641L185.921 10.708H185.965V10.6641L185.789 10.6201H185.692ZM188.145 10.6201L188.101 10.752H188.329L188.145 10.6201ZM188.461 10.708V10.752L189.41 10.8926V10.7959C188.9 10.7959 188.646 10.752 188.646 10.6641L188.461 10.708ZM185.833 11.0684V11.1123L185.921 11.2529L185.473 11.3408L185.517 11.3848V11.4814H185.473L185.429 11.4375L185.244 11.5693H185.332C185.514 11.54 185.604 11.4961 185.604 11.4375L185.561 11.3848L185.692 11.3408L185.833 11.3848C185.833 11.3262 185.877 11.2969 185.965 11.2969L186.237 11.1123V11.0684L186.193 11.0244V10.9805L186.237 10.9365H186.193L185.833 11.0684ZM186.29 10.9805V11.0684H186.422V10.9365L186.29 10.9805ZM184.567 11.8857V11.9736C184.708 11.9736 184.919 11.8389 185.2 11.5693V11.5254C184.995 11.7012 184.784 11.8213 184.567 11.8857ZM184.295 12.1143H184.427V11.9736L184.295 12.1143ZM183.97 12.0703V12.1143H184.11V12.0264L183.97 12.0703ZM184.022 12.2021L183.926 12.3867H183.97L184.198 12.2021H184.022ZM185.604 15.6914H185.692L185.833 15.5596V15.5156C185.698 15.5742 185.622 15.6328 185.604 15.6914ZM185.288 15.876H185.332L185.517 15.7354H185.473C185.35 15.7822 185.288 15.8291 185.288 15.876ZM184.884 15.876V15.9199L185.104 15.9639H185.156L185.244 15.876L185.016 15.832L184.884 15.876ZM183.926 19.6816L184.066 19.8223V19.7695L183.97 19.6816H183.926ZM184.198 19.8662V19.9541H184.295C184.295 20.0479 184.324 20.0947 184.383 20.0947L184.427 20.042V19.998L184.198 19.8662ZM184.567 20.2266V20.3145C184.743 20.3555 184.831 20.4316 184.831 20.543H184.928V20.499L184.611 20.2266H184.567ZM185.2 20.6309V20.7275H185.332L185.288 20.7715V20.8154L185.104 20.7275H185.06V20.7715C185.335 20.8242 185.473 20.9121 185.473 21.0352H185.648L185.2 20.6309ZM184.972 20.9561V21L185.156 21.3516H185.2V21.1318C185.136 21.1318 185.104 21.0732 185.104 20.9561H184.972ZM185.473 21.5361V21.6768H185.561L185.517 21.5361H185.473ZM185.604 21.8525V21.9492L185.648 21.9932H185.692L185.648 21.8525H185.604ZM183.521 22.3096V22.3535H183.75V22.2129H183.706L183.521 22.3096ZM184.242 22.3096L184.339 22.3975L184.515 22.3535V22.3096H184.242ZM185.877 22.4414V22.4854C185.947 22.4854 186.067 22.6084 186.237 22.8545H186.29C186.12 22.5791 185.997 22.4414 185.921 22.4414H185.877ZM186.782 22.4854L186.694 22.7139L186.738 22.7578H186.782L186.879 22.626L186.826 22.582L186.879 22.5381L186.826 22.4854H186.782ZM196.731 9.66211H196.863C197.18 9.66211 197.522 9.97266 197.892 10.5938L197.997 10.9189H197.936C197.777 10.667 197.546 10.541 197.241 10.541C197.083 10.541 196.957 10.6348 196.863 10.8223L197.057 11.8506C196.998 11.8506 196.969 11.8975 196.969 11.9912L196.925 11.9385H196.863V12.1758H196.925L196.969 11.9912H197.057C197.314 14.2881 197.578 15.4365 197.848 15.4365L197.936 15.7178C198.041 15.7178 198.231 15.8555 198.507 16.1309V16.1836C198.249 16.4883 198.059 16.7695 197.936 17.0273L198.788 21.9668C198.882 22.2129 199.02 22.3359 199.201 22.3359H199.342C199.518 22.3359 199.705 22.2129 199.904 21.9668L199.948 22.0107C199.409 22.7549 198.896 23.127 198.41 23.127L197.848 22.8018H197.76C197.385 23.0479 197.121 23.1709 196.969 23.1709H196.775C196.342 23.1709 195.94 22.8574 195.571 22.2305H195.615C195.955 22.3887 196.219 22.4678 196.406 22.4678C196.594 22.4502 196.688 22.3271 196.688 22.0986L196.556 21.3516L196.819 21.167H196.775L196.556 21.2637L196.494 21.2109V20.6572C196.342 20.6572 196.233 20.1914 196.169 19.2598L196.125 19.2158V19.1719H195.659L195.149 19.1279L195.009 19.1719L194.35 19.0225C194.35 19.0986 194.227 19.1484 193.98 19.1719C193.799 20.209 193.629 20.9678 193.471 21.4482L193.427 22.1426C193.485 22.3301 193.608 22.4238 193.796 22.4238C193.942 22.4238 194.098 22.3594 194.262 22.2305V22.3359C194.133 22.623 193.825 22.9014 193.339 23.1709H193.146C192.888 23.1709 192.624 23.0332 192.354 22.7578H192.311C192.035 23.0039 191.786 23.127 191.563 23.127H191.37C190.626 22.9395 190.254 22.6406 190.254 22.2305C190.459 22.3594 190.661 22.4238 190.86 22.4238C191.206 22.4238 191.455 22.1455 191.607 21.5889H191.651L191.607 21.5361V21.3955L192.029 20.2441L191.977 20.2002V20.0947L192.161 19.3037L192.117 19.2598L192.53 17.7744L192.486 17.7217V17.6777C192.539 17.6133 192.589 17.3965 192.636 17.0273C192.554 16.7988 192.366 16.5176 192.073 16.1836C192.126 16.043 192.357 15.8086 192.768 15.4805L193.102 15.0146C193.102 14.7393 193.254 14.5371 193.559 14.4082V14.3643L193.427 14.3203C193.403 14.4785 193.354 14.5576 193.277 14.5576H193.233V14.4521C193.638 12.958 193.84 12.0439 193.84 11.71L193.937 11.3408C193.937 10.9014 193.767 10.6816 193.427 10.6816L193.005 10.8662V10.8223C193.374 10.207 193.717 9.89941 194.033 9.89941C194.033 9.8291 194.109 9.79395 194.262 9.79395V9.84668L194.306 9.79395H194.411V9.89941H194.499V9.79395C194.892 9.79395 195.293 9.99609 195.703 10.4004C196.096 9.9082 196.438 9.66211 196.731 9.66211ZM194.587 10.1631V10.2246H194.631L194.78 10.1631V10.1191H194.719L194.587 10.1631ZM194.218 10.6377V10.6816H194.262L194.455 10.4971H194.411C194.282 10.5498 194.218 10.5967 194.218 10.6377ZM196.266 12.7383V12.8262C196.406 12.7852 196.591 12.6475 196.819 12.4131H196.775C196.646 12.4482 196.509 12.5566 196.362 12.7383H196.266ZM195.94 13.0635H195.984L196.169 12.9668V12.8701H196.125L195.94 13.0635ZM195.334 13.4414H195.378C195.519 13.377 195.598 13.3125 195.615 13.248V13.2041C195.428 13.2979 195.334 13.377 195.334 13.4414ZM195.246 13.3359L195.149 13.5293H195.246L195.29 13.3799V13.3359H195.246ZM195.747 13.4854L195.896 13.6172L196.169 13.5732V13.6611H196.318C196.318 13.5732 196.239 13.5293 196.081 13.5293V13.4854L196.028 13.5293H195.984L195.747 13.4854ZM194.218 13.9951V14.083L195.009 13.6172V13.5732H194.912L194.218 13.9951ZM195.246 13.5732C195.176 14.1299 195.064 14.4082 194.912 14.4082L194.956 14.4521L194.824 15.1553L194.868 15.2959C194.71 15.665 194.522 16.333 194.306 17.2998L194.262 17.3525C194.361 17.3525 194.411 17.3994 194.411 17.4932L194.455 17.5371H194.499L194.675 17.4932L195.615 17.5811C195.615 17.5225 195.709 17.4932 195.896 17.4932L195.615 15.4365L195.659 15.2959C195.413 14.5225 195.29 13.9482 195.29 13.5732H195.246ZM196.406 13.6611L196.556 13.8105L196.6 13.7666V13.7051L196.406 13.6611ZM196.731 13.8545L196.863 13.9951V13.9424L196.775 13.8545H196.731ZM196.969 14.0391V14.083L197.153 14.1357C197.153 14.0713 197.106 14.0391 197.013 14.0391H196.969ZM193.796 14.2236V14.3643L193.98 14.2236V14.1797L193.796 14.2236ZM192.908 19.8223V19.9189L193.049 19.8662V19.8223H192.908ZM192.583 19.9189V19.9629H192.636L192.812 19.9189V19.8662H192.724L192.583 19.9189ZM192.311 19.9629L192.267 20.0068V20.0508H192.311L192.442 20.0068V19.9629H192.311ZM197.619 20.5693V20.6572L197.76 20.6133V20.5254L197.619 20.5693ZM197.479 20.8945H197.522L197.848 20.7979V20.7012C197.602 20.7539 197.479 20.8184 197.479 20.8945ZM197.057 20.9824V21.0264H197.153V20.8945L197.057 20.9824ZM196.925 21.0264L196.863 21.167H196.969V21.0264H196.925ZM197.153 21.4482L197.294 21.5889V21.5361L197.197 21.4482H197.153ZM197.294 21.6328V21.6855L197.479 21.7734V21.6328H197.294ZM197.566 21.8174L197.716 22.0547H197.804V21.9053L197.619 21.8174H197.566ZM198.41 22.3799V22.4238C198.492 22.582 198.618 22.6611 198.788 22.6611L198.41 22.3799ZM203.71 9.60059H203.868C204.478 9.60059 204.858 9.71777 205.011 9.95215C205.163 9.95215 205.269 10.0049 205.327 10.1104V10.1543H205.248V10.1895C205.406 10.1895 205.485 10.2422 205.485 10.3477C205.644 10.3594 205.723 10.4385 205.723 10.585C205.811 10.585 205.89 10.6641 205.96 10.8223C206.136 10.8398 206.44 11.4199 206.874 12.5625C206.874 12.6152 206.833 12.6416 206.751 12.6416V12.6768C206.886 12.6768 206.953 12.7295 206.953 12.835L206.909 13.0723C206.997 13.0723 207.05 13.1514 207.067 13.3096L207.032 13.4326L207.111 13.5117V13.5469C207.111 14.4902 207.387 15.0967 207.938 15.3662V15.4014C207.826 15.5947 207.694 15.7266 207.542 15.7969L207.226 16.1572L207.27 16.4297L207.226 16.5879L207.27 16.7109C207.129 17.9707 206.956 18.7852 206.751 19.1543C206.692 19.4707 206.628 19.6289 206.558 19.6289L206.514 19.5938V19.6729L206.558 19.708V19.752H206.479V19.7871H206.558V19.8311C206.364 20.2236 206.153 20.5635 205.925 20.8506L205.96 21.0088H205.925C206.042 21.5361 206.291 21.7998 206.672 21.7998L206.988 21.8789L207.226 21.835H207.507L207.586 21.9141C207.516 21.9199 207.343 22.1572 207.067 22.626C206.78 22.9717 206.558 23.1445 206.399 23.1445C205.972 23.1445 205.693 23.0391 205.564 22.8281C205.395 22.8281 205.21 22.6816 205.011 22.3887C204.905 22.3887 204.853 22.2979 204.853 22.1162H204.896L204.817 21.9141L204.853 21.8789C204.747 21.8789 204.694 21.8262 204.694 21.7207C204.431 21.8496 204.129 21.9141 203.789 21.9141C203.309 21.9141 202.767 21.624 202.163 21.0439L202.207 21.0088V20.9736L201.847 20.6133L201.926 20.5342C201.721 20.5342 201.577 20.3906 201.495 20.1035C201.044 19.1719 200.818 18.5273 200.818 18.1699H200.862L200.739 17.458L200.783 17.2998L200.66 17.2207L200.704 17.1855V17.0273L200.625 16.79L200.783 16.3154L200.309 15.7969V15.7617L200.344 15.7178V15.6826H200.309L200.186 15.7178V15.6826C200.057 15.542 199.992 15.4365 199.992 15.3662C200.168 15.1729 200.326 15.0557 200.467 15.0146C200.467 14.8623 200.546 14.7305 200.704 14.6191L200.66 14.5752V14.4961L200.739 14.3818L200.704 14.0215L200.739 13.9863H200.783L200.739 13.8281L200.977 12.7207H201.1L201.056 12.6768V12.5977H201.135V12.5625L201.056 12.4395C201.056 12.1816 201.255 11.9326 201.653 11.6924H201.609L201.416 11.8154H201.337V11.7715C201.589 11.209 201.812 10.8662 202.005 10.7432C202.585 9.98145 203.153 9.60059 203.71 9.60059ZM204.299 10.3477V10.3916H204.378L204.501 10.3477V10.3125H204.457L204.299 10.3477ZM203.473 10.6641V10.708H203.666L203.71 10.6641V10.6289L203.473 10.6641ZM202.998 10.9014V10.9805L203.156 10.9014V10.8223L202.998 10.9014ZM202.796 11.0244V11.0596H202.919V10.9805L202.796 11.0244ZM202.998 11.9736L203.077 12.4395L202.954 12.4834V12.5977H203.033V12.6768L202.998 12.7207L203.033 12.7559V13.4678L202.919 13.5908C202.972 13.6611 203.01 13.8457 203.033 14.1445L202.998 14.4609L203.191 14.7773L203.077 14.9355H203.112L203.271 14.8916L203.666 15.3662V15.4014C203.502 15.6416 203.37 15.7617 203.271 15.7617C203.271 15.8379 203.218 15.917 203.112 15.999C203.054 16.2861 203.001 16.4297 202.954 16.4297L203.033 16.667L202.998 16.7109L203.033 16.9043L202.998 17.0273L203.033 17.1855L202.998 17.7305L203.033 18.4424H202.998L202.875 18.4072C203.01 18.5303 203.077 18.6738 203.077 18.8379V19.1543C203.077 19.7988 203.288 20.2207 203.71 20.4199C203.921 20.4727 204.026 20.5254 204.026 20.5781C204.384 20.5781 204.595 20.3408 204.659 19.8662C204.788 19.7021 204.853 19.5059 204.853 19.2773L204.932 19.1982L204.896 19.1543H204.853L204.896 18.9609V18.5654L204.853 18.2051L204.932 17.9678L204.853 17.8887V17.8096L204.896 17.5371L204.853 17.1855V16.9482H204.932V16.8691L204.853 16.79L204.896 16.5879V16.3945C204.896 16.1719 204.712 15.8555 204.343 15.4453C204.343 15.2871 204.513 15.0117 204.853 14.6191V14.1445C204.864 13.957 204.891 13.8633 204.932 13.8633L204.896 13.8281V13.7842L204.932 13.4326L204.853 13.2305L204.896 13.1162L204.853 12.9932L204.896 12.4395C204.896 11.4961 204.618 11.0244 204.062 11.0244H203.868C203.458 11.0244 203.18 11.3408 203.033 11.9736H202.998ZM201.847 11.4199L201.812 11.376V11.499H201.847C202.034 11.4346 202.128 11.3818 202.128 11.3408H202.084L201.847 11.4199ZM201.53 11.5342V11.5781H201.732V11.5342H201.53ZM206.197 14.8564V14.8916H206.241L206.716 14.7334V14.6543L206.197 14.8564ZM206.558 14.8916V14.9355H206.716V14.8916H206.558ZM205.802 14.9355V15.0146L205.96 14.9707V14.9355H205.802ZM204.817 15.208V15.2432H204.853L205.213 15.1641V15.1289H205.055L204.817 15.208ZM207.384 15.1289V15.1641H207.542V15.1289H207.384ZM200.818 16.6318L200.941 16.7461L200.897 16.6318H200.818ZM201.609 17.4229L201.688 17.502H201.732L201.653 17.4229H201.609ZM201.056 17.6602V17.7305C201.214 17.7598 201.293 17.8008 201.293 17.8535L201.337 17.8096H201.416L201.609 17.9326V17.8887C201.609 17.8125 201.557 17.7744 201.451 17.7744V17.7305L201.416 17.7744H201.372L201.056 17.6602ZM202.084 17.9326L202.163 18.0117H202.207L202.128 17.9326H202.084ZM202.4 17.9678V18.0469H202.523V18.0117L202.4 17.9678ZM202.559 18.0908V18.1699L202.682 18.2051H202.717V18.1699L202.559 18.0908ZM206.118 19.8662V19.9453L206.399 19.8662V19.8311H206.276L206.118 19.8662ZM205.213 20.2266C205.213 20.2793 205.172 20.3057 205.09 20.3057V20.3408H205.213C205.213 20.2881 205.266 20.2617 205.371 20.2617V20.2266H205.213ZM204.343 20.7715V20.8154H204.378L204.536 20.6924H204.501L204.343 20.7715ZM203.947 21.0088V21.0439H204.062L204.105 21.0088V20.9736H204.062L203.947 21.0088ZM203.508 21.2461V21.2812H203.552C203.71 21.2227 203.789 21.1699 203.789 21.123H203.745L203.508 21.2461ZM203.112 21.4043L203.033 21.5186H203.077L203.271 21.4395V21.4043H203.112ZM202.875 21.5625H202.919L202.998 21.4834H202.954L202.875 21.5625Z" fill="#63313A"/>
</svg>
