<?xml version="1.0" encoding="UTF-8"?><svg xmlns="http://www.w3.org/2000/svg" width="198" height="92" viewBox="0 0 198 92"><defs><style>.cls-1{fill:#63313a;}.cls-1,.cls-2,.cls-3{stroke-width:0px;}.cls-2{fill:#6ebba4;}.cls-4{fill:none;stroke:#ffe9c3;stroke-miterlimit:10;}.cls-3{fill:#ffe9c3;}</style></defs><g id="Layer_2"><path class="cls-3" d="M106.88,17.28l-5.89-1.96-12.37-1.21-11.93-.94-7.07.94H12.06l-10.01,1.25-.74,5.83,5.01,4.1,11.04,1.9h12.52l2.21,1.1,2.55,4.1,6.43,3.8,6.44,2.28.89,3.24-.89,7.66,2.84,10.05,2.1,5.41,1.21,5.37,2.23,2.99,6.24,2s7.73-.45,8.17-.44,5.01.5,5.3.44,4.16,2.11,4.44,1.91,9.26.61,9.26.61l10.9-1.18,10.16-3.34,8.54-3.35,9.5-3.77,3.56-4.42,5.03-3.98,5.7-2.13,10.23-1.92,6.26-2.72s1.17-4.9,1.07-5.47-3.72-4.62-3.72-4.62l-6-2.21-7.99-.29-7.51-3.9-3.07-3.33-6.14-5.32-4.71-1.07-6.48-3.09-3.61-2.28-4.12-2.04Z"/><polygon class="cls-3" points="136.96 24.84 138.9 29.11 145.09 33.04 153.44 36.51 167.54 34.64 183.31 28.29 189.85 23.96 192.07 18.68 193.09 12.4 191.39 6.69 188.53 3.86 183.61 1.8 180.24 1.8 177.7 1.8 175.53 2.61 174.24 4.29 170.93 11.76 166.29 18.68 161.94 21.75 155.1 24.48 148.91 25.77 145.67 25.77 141.63 25.77 139.27 24.4 136.96 24.84"/><path class="cls-3" d="M148.91,57.16l-5.3,3.53-4.05,3.5-1.65,2.69,2.98,1.4,5.3.32,8.69.59,3.75.65s2.91.82,4.03,1.21,4.02,1.65,4.02,1.65l3.58,3.9,4.45,6.59,1.22,3,2.28,2.34,2.81,1.42,7.18-.32,3.7-1.4,2.14-2.58,1.62-4.05-.66-5.74-1.18-5.01-2.85-3.83-2.78-2.5-7.96-3.84-6.54-2.3-9.19-1.74-9.56-.88-6.04,1.39Z"/><path class="cls-2" d="M131.39,14.54l-3.75,1.25-2.94,3.93v4.83l4.71,4.86,5.06,4.42,6.94,3.09s4.49-.15,4.93,0,2.94-.73,2.94-.73l-2.58-1.85-6.63-4.03-3.09-3.12-.52-5.51.49-4.74-1.96-1.62-3.61-.78Z"/><polygon class="cls-2" points="145.72 54.97 137.83 57.35 131.08 62.71 126.61 68.6 125.87 74.19 128.96 78.15 133.36 79.1 136.18 79.1 140.17 76.11 138.9 71.67 137.43 68.6 137.91 65.56 140.37 62.83 144.71 59.96 148.5 57.43 151.05 55.4 145.72 54.97"/><path class="cls-2" d="M178.58,31.4l-17.77,6.11-1.52,10.23.92,5.45,16.31,5.52,7.36,2.06,6.4-2.06s.66-3.17.74-3.76.88-5.52.88-5.52c0,0-.36-5.32-.36-6.2s.36-6.3.36-6.3l-1.69-5.17-2.01-1.45-4.18-1.34-5.44,2.43Z"/><path class="cls-2" d="M149.28,20.02l1.22,1.8s5.26.43,5.63.4,6.89-1.7,6.89-1.7l3.66-2.9,3.24-5.15,1.42-4.12v-4.07l-3.44-3.24-2.88.31-2.86.96-1.35,2.35v3.09l-.31,2.06-.29,2.65-1.95,2.84-1.84,1.94-4.2,2.46-2.94.3Z"/><path class="cls-2" d="M151.86,71.81l4.86,2.06,3.5,2.21,2.45,2.42.46,6.34.45,3.61,2.79,1.49,3.56,1.08,3.49-1.98s1.89-1.44,1.76-2.02-1.16-4.35-1.16-4.35l-1.47-3.83-2.62-3.07-2.79-2.6-5.65-1.89-4.03-1.46h-4.27l-1.33,1.97Z"/></g><g id="Layer_4"><path class="cls-4" d="M141.04,33.68s-12.81-4.42-13.25-11.93c-.22-3.75,2.23-4.79,3.68-4.88,2.01-.13,2.58,1.78,2.26,3.77-.25,1.54-1.98,3.97-5.7,3.56"/><path class="cls-4" d="M139.93,58.68s-11.08,7.81-9.41,15.14c.83,3.67,3.48,3.98,4.89,3.67,1.97-.44,1.98-2.43,1.12-4.25-.66-1.41-3-3.27-6.46-1.84"/></g><g id="Layer_1"><path class="cls-1" d="M163.5,1.19c-3.3,1.3-4.9,3.9-4.8,7.8.2,7-5.4,11.2-15,11.2-5.2,0-5.5-.1-6-2.9-.5-2.5-1.3-3.1-4.2-3.7-4.5-.8-7.9,1.3-9.6,6.1-.7,1.9-2,3.5-2.8,3.5s-4.4-1.6-8-3.6c-12.6-6.9-14.9-7.2-65.2-6.5C-.3,13.69,0,13.69,0,19.09,0,25.09,7.2,28.19,21.2,28.19h8.8l5.4,4.9c3,2.7,6.8,5.2,8.4,5.6,2.9.6,3,.9,3,5.3-.1,6.7,1.6,15.6,3.5,18.6.9,1.4,1.7,3.7,1.7,5.1,0,1.6,1.2,3.9,3,5.7,3.1,3,3.2,3,11.8,2.6,7.1-.4,9.5-.1,13.1,1.5,5.8,2.5,14.8,1.9,25-1.7,4.5-1.6,9.6-2.6,12.8-2.6,4.5,0,5.7.4,7.6,2.6,1.2,1.5,3.7,3.3,5.5,4.1,4.4,1.8,8.3.1,9.6-4.5.8-3,1.1-3.2,5.8-3.2,5,0,11,2,13.9,4.6,1.3,1.1,1.6,2.5,1.2,5.5-.5,3.2-.1,4.4,1.7,6.4,3.3,3.5,7.3,4.1,10.8,1.7,2.4-1.8,3-1.9,5.2-.6,2.9,1.6,8.8,1.8,12.4.4,3.4-1.3,6.6-6.6,6.6-11,0-4-3.2-11.5-6.2-14.7l-2.1-2.2,2.7-3.1c2.9-3.5,3.4-8.4,1.2-11.6-1.2-1.7-1.2-2.2,0-3.9.8-1,1.4-3.6,1.4-5.6,0-2.9-.7-4.3-3-6.3l-3.1-2.5,2.7-4.1c3.9-5.8,4.4-13.6,1.4-18.6-3.8-6.1-13.3-8.4-18.1-4.5-2,1.6-2.7,1.7-3.9.6-2.2-1.8-5.2-2.5-7.5-1.5ZM168.5,3.59c1.4,1,1.7,2.1,1.2,5.1-1.2,7.6-7,12.5-14.7,12.5h-4.5l3-1.6c1.7-.8,4.3-2.7,5.8-4.2,2.4-2.3,2.8-3.2,2.3-6.4-.9-5.6,2.7-8.5,6.9-5.4ZM187,3.89c5.2,3,6.7,11.1,3.1,16.9-4.1,6.7-17.8,13.1-30,14.1-6.6.5-8.4.2-12.6-1.6-7.3-3.2-13.4-9.5-6.7-7,7,2.7,24.2-3.1,28.1-9.5,1.2-1.8,2.8-5.3,3.6-7.6.8-2.4,2-4.9,2.6-5.7,1.6-1.8,8.5-1.6,11.9.4ZM99.4,15.79c3.3.9,8.6,3.1,11.6,5,3,1.8,7.1,3.7,9,4,2.2.4,5.4,2.4,8.6,5.4,6.4,6.1,9.5,7.6,16.8,8.5,16.1,2,17,11.6,1.4,14.4-6.7,1.2-11.6,4-16.9,9.5-2.6,2.8-5.1,4.1-10.7,5.6-4.1,1.1-10.4,3.4-14,5.1-7.8,3.5-17.9,4.8-23.5,3-2.1-.7-3.7-1.8-3.7-2.5,0-.6-.9-2.8-1.9-4.9l-1.9-3.7h2.7c1.5,0,3.6-.7,4.7-1.5,1.9-1.3,2.5-1.2,6,.6,3.2,1.6,5.4,2,12.1,1.7,5.4-.2,8.6-.8,9.5-1.7,1.1-1.2,1-1.3-.7-.6-1.1.5-4.8,1.1-8.3,1.3-7.8.5-14.1-2.2-17.3-7.4-3-4.9-1.4-5.8,4.7-2.8,5.4,2.7,16.8,4.4,21.9,3.3,2.2-.5,1.3-.7-3.3-.8-3.4,0-7.9-.8-9.9-1.6l-3.7-1.6,3.5-3c2.4-2.2,2.7-2.7.9-1.7-3.5,2-7.1,2.7-9.5,1.9-1.8-.7-1.7-.9,1.2-2.4,4.1-2.2,5.4-4.1,1.8-2.7-4,1.5-10.3,1.2-11.3-.5-.4-.9-2.4-2.3-4.3-3.3-2.4-1.2-3.6-2.6-4-4.7-.5-2.2-.7-2.4-.8-.8,0,1.2-.5,2.5-1.1,2.8-1,.6-2.5-3.8-2.2-7,.1-1.6-.1-1.7-.8-.5-.5.8-1,2.5-1,3.7,0,2.2-.4,2.3-7.7,2.3-8.4,0-14.2-1.2-18.1-3.8l-2.4-1.6,4.5-1.3c2.6-.7,5.2-2.2,5.9-3.2,1.1-1.5,3.6-1.9,17.3-2.6,26.3-1.4,26-1.5,35.1,3.3,5.7,3.1,7.1,3.5,4.9,1.7-1.6-1.4-5-3.5-7.5-4.7-2.5-1.3-4.7-2.4-4.9-2.5-.2-.2.2-.9.9-1.8,1.6-1.9,1.5-1.9-10.1.5-8.3,1.6-23,2.4-38.5,2.1-1.5-.1-2.5-1.1-3.2-3.4l-1.2-3.2.5,3.2.5,3.3h-5c-4.1,0-4.8.3-4.3,1.6.5,1.4-.5,1.5-10.3.9-6-.4-12-1.2-13.4-1.7C2,22.69,0,17.89,4.5,16.19c1.4-.5,17.2-.9,36.1-.9s33.9-.3,34.2-.6c1.2-1.2,18.8-.4,24.6,1.1ZM135.2,20.09c-.4,5.7,3,11,9,13.9l4.3,2.1-4.7.1c-3.9,0-5.4-.6-9.5-3.9-9.3-7.4-10.8-10.7-6.8-14.6,1.7-1.8,3.4-2.5,5.3-2.3,2.5.3,2.7.6,2.4,4.7ZM43.5,25.99l4,.7-2.5,1.8c-4.3,3-12,1.5-12-2.4,0-1,4.8-1.1,10.5-.1ZM187.2,31.89c.8-.3,1.5,0,1.6.6.1.7.5,2.9.8,4.9.6,3.5.4,3.9-2.2,4.8-3.6,1.4-7.4-.1-7.4-3,0-1.4-.4-1.9-1.2-1.4-.7.4-.9.3-.5-.1,1.9-2.1,7.1-2.3,7.5-.3.2,1.1-.3,1.8-1.2,1.8s-1.6-.5-1.6-1c0-.6-.4-1-1-1-1.8,0-1,3.9,1,4.5,2.8.9,6-1.2,6-3.8,0-5.2-5-6.1-11.9-2.1-5.3,3-13.4,4.9-15.5,3.7-1.1-.6-.1-.9,3.2-1.1,3-.1,6.8-1.3,10.5-3.2,3.1-1.6,6.4-3,7.2-3s1.5-.6,1.5-1.3c0-.8.3-.8.9.2.5.8,1.5,1.1,2.3.8ZM67.9,41.19c3.9,1.8,12.1,8.2,12.9,10.1.2.4-.9,1-2.3,1.3-2.9.7-6.2-1.1-8.2-4.6-.7-1.3-1.2-1.7-1.3-1,0,.7.5,2.2,1.1,3.3,1,1.9.7,2-9.1,1.8-5.8-.1-10.4-.7-10.9-1.3-1.8-2.3-2.2-5.8-1.1-8.7,1.2-2.8,1.5-2.9,7.9-2.9,4.4,0,8,.7,11,2ZM188.1,49.29c1.6.8,1.9,1.9,1.7,5.2q-.3,4.2-4.5,4.5c-3.2.2-5.5-.4-8.6-2.2-2.4-1.4-7-3.2-10.2-4.1l-6-1.5,5.3.5c3.4.3,7.2,1.5,10.6,3.5,7.7,4.4,12.6,3.8,12.6-1.6,0-3-2.4-4.8-5.5-4-2.5.6-3.4,2.9-1.5,4.1.6.3,1,.1,1-.4,0-.6.7-1.1,1.5-1.1s1.5.7,1.5,1.6c0,1.1-.8,1.4-2.7,1.2-2.1-.2-2.9-.9-3.1-2.7-.6-3.7,3.6-5.3,7.9-3ZM80.2,55.39c.4.7,1.1,2.4,1.4,3.7,1.3,4.5-5.1,5.7-9.2,1.6l-2.4-2.4.5,2.2c.6,2.3.5,2.3-8.7,2-7.4-.2-9.5-.6-10.5-2-1.4-1.9-1.7-5.5-.5-6.8s28.4.2,29.4,1.7ZM145.2,57.89c-3.9,1.9-9.2,7.7-9.2,10.1,0,.9.7,2.6,1.5,3.6,2.2,2.9,1.8,5.5-1,6.8-3,1.4-8.1-.5-9-3.3-2.4-7.4,8.6-18.9,18-18.9h3l-3.3,1.7ZM167.8,58.19c10.3,2.3,19.3,6.3,22.4,10.1,4,4.9,5.3,10.8,3.4,15.3-1.8,4.4-4.5,5.8-10.4,5.4-4.6-.3-4.7-.4-7.4-5.8-3.2-6.6-9.5-12.5-15.2-14.2-2.2-.7-8.2-1.2-13.2-1.3-10,0-10.4-.4-5.2-5.2,5.3-5,14.8-6.6,25.6-4.3ZM73.6,66.69c.9,1.4,1.4,3.2,1,4-.8,2.3-5.3,1.8-7-.7-.9-1.2-1.6-1.7-1.6-1.1s.7,1.8,1.5,2.7c2.3,2.2,1.9,2.6-3.1,2.6-7.1,0-10.4-2.3-10.4-7.3v-2.7h9c8.4,0,9,.1,10.6,2.5ZM166.4,73.99c4,2.3,8,9.4,7.2,12.7-.7,2.9-4.5,4.2-7.6,2.5-1.9-1-2.1-1.7-1.5-5.1.6-3.7.4-4.3-3-7.4-2-1.9-4.7-3.8-6.1-4.1-1.3-.3-2.2-1-1.9-1.4.7-1.1,9.4.7,12.9,2.8Z"/><path class="cls-1" d="M182,4.89c.8.3,2.5,1.5,3.8,2.6,1.2,1.1,2.2,1.5,2.2.9,0-1.4-4-4.2-6-4.1-1.3,0-1.3.1,0,.6Z"/><path class="cls-1" d="M184.6,9.39c2,3.5,1.2,7.3-2.4,11-3.8,4.1-4.9,3.4-1.3-.7,2.9-3.4,4.1-7.8,2.3-8.9-.5-.3-.6.8-.4,2.5.4,2.4-.2,3.6-3.2,6.3-2.2,2.1-3.1,3.6-2.3,3.9.6.2-.1,1.1-1.8,2-1.6.9-2.5,1.6-1.9,1.7,1.3,0,8.2-4.9,10.6-7.7,2.9-3.3,3.3-7.5.8-10.3l-2.1-2.5,1.7,2.7Z"/><path class="cls-1" d="M188.2,13.19c0,1.9.2,2.7.5,1.7.2-.9.2-2.5,0-3.5-.3-.9-.5-.1-.5,1.8Z"/><path class="cls-1" d="M182.6,22.59c-2.7,2.6-4,4.3-3,3.8,2.2-1.2,9-8,8.3-8.4-.2-.2-2.6,1.9-5.3,4.6Z"/><path class="cls-1" d="M171,29.69c-1.4.8-2,1.4-1.5,1.4.6,0,2.1-.6,3.5-1.4s2.1-1.4,1.5-1.4c-.5,0-2.1.6-3.5,1.4Z"/><path class="cls-1" d="M161.3,32.89c.9.2,2.3.2,3,0,.6-.3-.1-.5-1.8-.5-1.6,0-2.2.2-1.2.5Z"/><path class="cls-1" d="M18,19.59c0,1.4.4,2.7.8,3,.5.3.6-.8.4-2.5-.5-3.5-1.2-3.8-1.2-.5Z"/><path class="cls-1" d="M44.6,18.79c-.3.9-.2,2.3.4,3.2.7,1.4.9,1,1-1.6,0-3.5-.5-4.1-1.4-1.6Z"/><path class="cls-1" d="M49.2,20.69c0,1.6.2,2.2.5,1.2.2-.9.2-2.3,0-3-.3-.6-.5.1-.5,1.8Z"/><path class="cls-1" d="M130.6,19.09c-.4.7-.5,1.5-.2,1.8.9.9,1.9-.4,1.4-1.8-.4-1.1-.6-1.1-1.2,0Z"/><path class="cls-1" d="M49,45.09c0,1.1.4,2.2.9,2.5.4.3.6-.6.3-1.9-.5-3-1.2-3.3-1.2-.6Z"/><path class="cls-1" d="M52.1,45.79c0,1.1.3,1.4.6.6.3-.7.2-1.6-.1-1.9-.3-.4-.6.2-.5,1.3Z"/><path class="cls-1" d="M51,57.59c0,.8.4,1.7.9,2,.5.4.7-.3.4-1.4-.6-2.3-1.3-2.6-1.3-.6Z"/><path class="cls-1" d="M133.5,74.19c.3.5.8,1,1.1,1,.2,0,.4-.5.4-1,0-.6-.5-1-1.1-1-.5,0-.7.4-.4,1Z"/><path class="cls-1" d="M161.8,58.89c.6.2,1.8.2,2.5,0,.6-.3.1-.5-1.3-.5s-1.9.2-1.2.5Z"/><path class="cls-1" d="M166,59.59c0,.2,2.4,1.2,5.3,2.1,7.6,2.5,14.6,6.5,16.8,9.7,1.1,1.5,2.4,4.7,2.9,7l.9,4.3-.4-4.4c-.4-5-2.7-8.6-7.4-11.8-4.1-2.8-18.1-8.1-18.1-6.9Z"/><path class="cls-1" d="M177.7,67.19c4,2.3,8,5.2,8.9,6.6,2.2,3.2,2,8.5-.2,10.1-1,.7-1.3,1.3-.7,1.3,2.3,0,3.7-3.5,3.4-8.2-.2-2.9-4.8-7.4-10.9-10.6-3.3-1.8-6.4-3.2-6.8-3.2-.5,0,2.4,1.8,6.3,4Z"/><path class="cls-1" d="M184.1,74.19c1.4,3.1,1.9,3.6,1.9,2.4,0-.6-.7-1.9-1.6-3q-1.4-1.8-.3.6Z"/><path class="cls-1" d="M185.6,79.69c-.9,2.6-.7,3.2.5,1.2.6-1,.9-2.1.6-2.3-.2-.3-.7.2-1.1,1.1Z"/><path class="cls-1" d="M188.9,84.89c-1.3,1.6-1.2,1.7.4.4s2.1-2.1,1.3-2.1c-.2,0-1,.8-1.7,1.7Z"/><path class="cls-1" d="M182.3,86.89c.9.2,2.5.2,3.5,0,.9-.3.1-.5-1.8-.5s-2.7.2-1.7.5Z"/><path class="cls-1" d="M55.1,68.79c0,1.1.3,1.4.6.6.3-.7.2-1.6-.1-1.9-.3-.4-.6.2-.5,1.3Z"/></g></svg>