<svg width="1440" height="70" viewBox="0 0 1440 70" fill="none" xmlns="http://www.w3.org/2000/svg">
<line y1="34" x2="1440" y2="34" stroke="#3D1A20" stroke-width="2"/>
<path d="M889 70H577V0H889L830.241 35.0055L889 70Z" fill="#83C9B1"/>
<path d="M633.662 19.9618C634.534 19.9618 635.641 20.3771 636.984 21.2078V21.5193C636.486 21.5193 636.105 21.6924 635.842 22.0385H635.946C636.32 21.7616 636.666 21.6231 636.984 21.6231L637.088 21.5193V21.4155C637.448 21.4985 637.898 21.7754 638.438 22.2461C639.047 22.2461 639.352 21.9346 639.352 21.3116H639.767L639.663 21.2078V21.104C640.231 20.3425 640.577 19.9618 640.702 19.9618L640.805 20.0656V20.5848L640.598 20.7925L640.805 21.6231L640.598 23.1599L640.805 24.7174L640.702 25.1327L640.805 25.2365L640.702 26.3787L640.805 27.9362L640.598 28.1231L640.702 28.2269V28.3308L640.598 28.4346V28.5384L640.805 29.9921V30.4074C640.805 30.9197 640.702 31.1966 640.494 31.2381L640.39 31.1343H640.286L639.871 31.2381L639.767 31.1343L639.248 31.2381H637.192C636.984 31.1689 636.881 30.9612 636.881 30.6151V29.1614L636.984 28.6423L636.777 28.4346V28.2269L637.192 27.7285H636.984V26.171L636.881 26.0672V25.9634C637.033 25.9634 637.137 25.7903 637.192 25.4442L636.881 25.6519H636.777C636.777 25.2919 636.5 24.8074 635.946 24.1982V24.0944L636.05 23.9905V23.8867H635.946L635.842 23.9905H635.738C635.018 23.7829 634.292 23.679 633.558 23.679C631.966 23.679 631.004 24.752 630.671 26.8979C630.671 29.0161 631.841 30.8089 634.181 32.2764L635.219 32.1726H636.258C636.465 32.1726 636.569 32.5533 636.569 33.3148H636.465L637.088 34.7477C639.705 37.1289 641.013 38.8179 641.013 39.8147C641.152 39.8147 641.29 40.1608 641.428 40.8531L641.325 41.2684V41.5799L641.532 41.8914L641.428 42.5144L641.532 43.0336L641.325 43.5527L641.428 43.6566H641.532C641.422 45.0964 641.179 45.8163 640.805 45.8163L640.909 46.2316C639.899 48.7098 638.867 50.1565 637.815 50.5719C637.427 51.1949 636.424 51.6794 634.804 52.0255C634.541 52.164 634.16 52.2332 633.662 52.2332H632.727C631.91 52.2332 630.567 51.6794 628.698 50.5719L627.245 49.0144C627.093 48.7236 626.719 48.3775 626.123 47.976C625.5 46.6054 625.189 45.7471 625.189 45.401L625.293 44.9856L625.189 44.5703L625.293 43.9681L625.189 43.8642V43.7604L625.293 43.3451L625.189 43.0336C625.3 43.0336 625.404 42.7913 625.5 42.3067C625.293 41.3376 625.05 40.8531 624.774 40.8531H624.462C624.213 40.8531 623.936 40.9915 623.631 41.2684H623.528V41.0607C623.888 39.884 624.476 39.2956 625.293 39.2956L626.829 39.7109V39.6071C627.439 39.1225 627.889 38.8802 628.179 38.8802H628.906C629.515 38.8802 630 39.5032 630.36 40.7492V41.0607H630.152C630.152 40.7838 629.944 40.6108 629.529 40.5416L629.218 40.6454L629.321 40.7492V41.5799L629.114 41.8914V41.9952L629.321 42.3067V42.7221L629.114 43.4489L629.218 43.5527H629.321L629.218 44.0719L629.321 44.778C629.183 44.778 629.114 44.8818 629.114 45.0895C629.28 45.8509 629.868 46.7093 630.879 47.6645C631.696 48.2183 632.312 48.4952 632.727 48.4952H633.973C634.292 48.4952 634.811 48.0799 635.531 47.2492L636.154 47.4569H636.258V47.353L635.635 47.2492V47.0415C635.995 46.2939 636.237 45.2002 636.361 43.7604C636.154 42.8605 635.669 41.8914 634.908 40.8531C634.091 39.884 633.537 39.3994 633.246 39.3994L631.502 39.2956L630.464 39.3994L630.36 39.2956V39.1917L630.464 39.0879V38.9841L630.256 38.1742V37.4473C629.799 36.5613 629.176 35.9037 628.387 35.4745C627.667 34.5746 627.051 33.9516 626.539 33.6055L625.604 31.7573L625.708 31.4458L625.397 30.6151L625.5 30.5113L625.085 28.7461V28.5384L625.604 25.6519L625.708 25.548L625.604 25.4442V25.3404C626.075 23.7206 627.245 22.3084 629.114 21.104L631.813 20.0656L633.662 19.9618ZM634.285 22.4538V22.6407L634.596 22.5576V22.4538H634.285ZM632.831 22.7445V22.9522L633.143 22.8484V22.7445H632.831ZM631.813 23.1599V23.2637H632.021L632.333 23.1599V23.056H632.229L631.813 23.1599ZM628.283 24.8212H628.387L629.01 24.6135V24.5097H628.906C628.491 24.5789 628.283 24.6828 628.283 24.8212ZM628.595 25.0289L628.491 25.1327V25.2365H628.595L628.906 25.1327V25.0289H628.595ZM627.349 25.7557L627.245 25.8595V25.9634H627.349L627.66 25.8595V25.7557H627.349ZM640.286 25.9634H640.39L640.598 25.7557H640.494L640.286 25.9634ZM638.334 26.8979V27.1055L639.144 26.6902V26.4825L638.334 26.8979ZM625.708 26.8979V27.0017H626.123V26.8979H625.708ZM637.296 27.5209V27.6247H637.504L637.919 27.3132H637.815L637.296 27.5209ZM630.256 31.0304V31.1343H630.464L630.775 31.0304V30.9266H630.567L630.256 31.0304ZM629.841 31.2381V31.4458L630.152 31.3419V31.2381H629.841ZM629.114 31.7573H629.218L629.425 31.5496H629.321L629.114 31.7573ZM628.491 32.0688H628.595L628.802 31.8611V31.7573L628.491 32.0688ZM627.349 32.5879H627.452L627.66 32.3803H627.556L627.349 32.5879ZM626.622 44.0719V44.155H627.141V44.0719H626.622ZM628.075 44.6741V44.8818L628.802 45.0895C628.802 44.9787 628.56 44.8403 628.075 44.6741ZM636.569 47.4569V47.5607L636.984 47.6645H637.192V47.5607L636.673 47.4569H636.569ZM637.607 47.8722V47.976L638.334 48.0799C638.334 47.9414 638.23 47.8722 638.023 47.8722H637.607ZM638.542 48.0799V48.2875H638.936V48.1837L638.542 48.0799ZM659.246 20.0864H659.35C659.35 20.2249 659.461 20.2941 659.682 20.2941L659.786 23.2222C659.786 23.7344 659.572 24.1567 659.142 24.4889L659.246 24.3643H659.35L659.475 24.4889H659.579V24.1567L659.786 24.3643L659.682 25.2158L659.786 27.8324V29.6183C659.786 30.1859 659.641 30.4697 659.35 30.4697L658.54 30.3659L658.104 30.4697L657.273 30.3659L656.422 30.4697L656.318 29.5145L656.422 28.2685L656.318 27.8324L656.65 27.2301C656.429 27.1609 656.318 26.9463 656.318 26.5864L656.422 25.8388C656.422 25.2019 655.619 24.5443 654.013 23.8659L653.39 23.7621C651.95 23.7621 651.043 24.039 650.67 24.5928H650.566C650.427 27.3894 650.282 28.9607 650.13 29.3068C650.296 29.3068 650.407 29.556 650.462 30.0544L650.254 31.1966L650.462 31.4042L650.358 31.5081L650.462 31.6119V31.7157L650.358 32.3387C650.358 33.1832 650.593 33.6055 651.064 33.6055L651.916 33.294L653.079 33.5017C653.702 33.3217 654.013 32.761 654.013 31.8196C654.013 31.4181 653.771 31.0304 653.286 30.6566V30.4697H653.39C654.788 30.8435 655.487 31.4665 655.487 32.3387L655.612 32.7541V32.8579C655.612 33.827 655.397 34.5331 654.968 34.9761C654.968 35.3084 655.107 35.4745 655.384 35.4745L655.674 36.8659C655.342 38.3195 654.615 39.0464 653.494 39.0464L652.954 39.1502V39.0464C653.605 38.3957 653.93 37.8696 653.93 37.4681C653.93 37.302 653.535 37.1635 652.746 37.0528H652.435L651.708 37.1566L651.604 37.0528V36.9697C650.704 37.0251 650.254 37.2258 650.254 37.5719L650.462 38.008L650.358 40.1885L650.462 40.2924V40.3962L650.254 41.2476V41.5799H650.462V42.1821L650.254 42.8259L650.358 42.9297V43.0336L650.254 43.7604L650.358 44.9233H650.254L650.566 45.8578L650.358 46.0863L650.462 46.3978L650.358 46.5016V46.6054L650.566 47.1038L650.358 47.3115C650.621 47.6299 650.753 47.976 650.753 48.3498L652.248 48.7859C653.466 48.7859 654.823 48.156 656.318 46.8962L656.422 45.754L656.318 45.6502V45.5463L656.422 44.3003L656.318 44.1757V44.0719L656.526 43.4489L656.318 42.6182L656.526 42.4106L656.318 42.0783V41.7876L656.422 41.6837V41.5799L657.564 41.7876L657.896 41.5799L658.956 41.6837H659.579L659.682 41.7876H659.786L659.579 42.4106V42.5144L659.786 43.3658V43.6566L659.579 44.508L659.786 45.1102V45.4425C659.648 45.7194 659.433 45.8578 659.142 45.8578V46.0863L659.682 45.754L659.786 46.5016V46.8962C659.745 47.6576 658.589 49.0213 656.318 50.9872C654.574 51.8317 653.452 52.254 652.954 52.254L652.85 52.1294L652.352 52.254H651.916C650.13 52.254 648.69 51.7279 647.596 50.6757C647.084 51.1741 646.703 51.4233 646.454 51.4233H645.935C644.91 51.4233 643.727 50.8626 642.384 49.7412L642.176 49.5335L641.844 49.0974L641.948 48.9936C642.612 49.4228 643.069 49.6374 643.318 49.6374H643.858C644.467 49.3466 644.772 48.8828 644.772 48.246L644.668 47.8514L644.896 47.6438L644.668 47.1038L644.772 46.3978L644.668 45.5463L644.896 45.3387L644.564 45.0064L644.668 43.6566L644.564 43.3658L644.668 42.4106V41.9745L644.772 41.8706L644.564 41.4761L644.668 39.794V39.3579L644.564 38.7349L644.772 38.3195C644.633 38.3195 644.564 38.2157 644.564 38.008L644.668 37.2604L644.46 37.0528H644.668V36.9697C644.28 36.9697 643.934 36.5821 643.63 35.8068L643.858 35.5783L643.734 35.4745H642.986V35.3707L644.564 33.3978V32.3387L644.668 31.7157L644.564 31.4042L644.772 30.1582C644.633 30.1582 644.564 30.0475 644.564 29.826L644.668 28.3723L644.564 28.2685V28.1646L644.772 27.334L644.564 26.8979L644.668 26.1503C644.613 24.2674 644.543 23.326 644.46 23.326L642.778 22.8068L641.74 23.5544H641.636V23.4506C641.636 22.5507 642.681 21.6439 644.772 20.7302H645.748C646.343 20.7302 646.897 21.0417 647.409 21.6647C648.96 20.7509 650.012 20.2941 650.566 20.2941L652.04 20.3979L653.182 20.1902C653.182 20.3702 653.632 20.481 654.532 20.5225L657.46 21.7685C657.862 21.7685 658.457 21.2078 659.246 20.0864ZM649.382 21.0209C649.382 21.1594 649.493 21.2286 649.714 21.2286H649.818V21.1247L649.382 21.0209ZM651.396 22.08L651.604 22.2877H651.708L651.5 22.08H651.396ZM645.416 22.4123L645.312 22.703V22.8068H645.416L645.644 22.5992V22.5161L645.748 22.5992H646.142V22.5161L645.644 22.4123L645.519 22.5161L645.416 22.4123ZM653.286 22.9107V23.0145L653.93 23.2222H654.013V23.1183L653.39 22.9107H653.286ZM655.612 24.3643L656.11 24.8004V24.5928L655.674 24.3643H655.612ZM658.956 24.6966V25.0081H659.142V24.6966H658.956ZM656.858 26.8979H656.962L657.17 26.6902H657.066L656.858 26.8979ZM658.54 27.1263C658.54 27.2648 658.852 27.4309 659.475 27.6247H659.579V27.5209L658.54 27.1263ZM649.507 32.048V32.1518L649.714 32.3387L649.922 32.1518L649.611 32.048H649.507ZM649.174 32.6502V32.7541H649.507V32.5464L649.174 32.6502ZM648.572 33.1902L648.78 33.3978H649.174L648.988 33.1902H648.572ZM648.136 33.3978V33.6055L648.468 33.5017V33.294L648.136 33.3978ZM654.428 33.917V34.0208L654.864 33.5017V33.3978L654.428 33.917ZM647.202 33.917C647.077 34.1939 646.828 34.3323 646.454 34.3323V34.54L647.492 34.0208V33.917H647.202ZM645.104 34.8723L645 34.9761V35.0799H645.104L645.416 34.9761V34.8723H645.104ZM646.454 35.4745H646.558L646.994 35.2876V35.1838H646.89C646.599 35.2945 646.454 35.3914 646.454 35.4745ZM645.104 36.5336V36.6582H645.416V36.4298L645.104 36.5336ZM658.644 46.1901L658.436 46.3978V46.5016H658.644L658.852 46.1901H658.644ZM657.896 46.6885V46.8962L658.208 46.7923V46.6885H657.896ZM657.066 47.4153H657.17L657.356 47.2077H657.273L657.066 47.4153ZM656.007 48.0591H656.11L656.422 47.7476H656.318L656.007 48.0591ZM655.176 48.5783H655.28L655.487 48.3498H655.384L655.176 48.5783ZM654.221 48.8898V48.9936H654.325L654.968 48.7859V48.5783L654.221 48.8898ZM652.746 50.1358H652.85L653.079 49.9281H652.954L652.746 50.1358ZM651.396 50.9872H651.5L651.708 50.7795H651.604L651.396 50.9872ZM650.67 51.4233V51.5064L651.168 51.1949V51.091H651.064L650.67 51.4233ZM677.479 20.0864H677.583C677.583 20.2249 677.694 20.2941 677.915 20.2941L678.019 23.2222C678.019 23.7344 677.805 24.1567 677.376 24.4889L677.479 24.3643H677.583L677.708 24.4889H677.812V24.1567L678.019 24.3643L677.915 25.2158L678.019 27.8324V29.6183C678.019 30.1859 677.874 30.4697 677.583 30.4697L676.773 30.3659L676.337 30.4697L675.507 30.3659L674.655 30.4697L674.551 29.5145L674.655 28.2685L674.551 27.8324L674.884 27.2301C674.662 27.1609 674.551 26.9463 674.551 26.5864L674.655 25.8388C674.655 25.2019 673.852 24.5443 672.246 23.8659L671.623 23.7621C670.183 23.7621 669.277 24.039 668.903 24.5928H668.799C668.66 27.3894 668.515 28.9607 668.363 29.3068C668.529 29.3068 668.64 29.556 668.695 30.0544L668.487 31.1966L668.695 31.4042L668.591 31.5081L668.695 31.6119V31.7157L668.591 32.3387C668.591 33.1832 668.827 33.6055 669.297 33.6055L670.149 33.294L671.312 33.5017C671.935 33.3217 672.246 32.761 672.246 31.8196C672.246 31.4181 672.004 31.0304 671.519 30.6566V30.4697H671.623C673.021 30.8435 673.721 31.4665 673.721 32.3387L673.845 32.7541V32.8579C673.845 33.827 673.631 34.5331 673.201 34.9761C673.201 35.3084 673.34 35.4745 673.617 35.4745L673.908 36.8659C673.575 38.3195 672.848 39.0464 671.727 39.0464L671.187 39.1502V39.0464C671.838 38.3957 672.163 37.8696 672.163 37.4681C672.163 37.302 671.769 37.1635 670.979 37.0528H670.668L669.941 37.1566L669.837 37.0528V36.9697C668.937 37.0251 668.487 37.2258 668.487 37.5719L668.695 38.008L668.591 40.1885L668.695 40.2924V40.3962L668.487 41.2476V41.5799H668.695V42.1821L668.487 42.8259L668.591 42.9297V43.0336L668.487 43.7604L668.591 44.9233H668.487L668.799 45.8578L668.591 46.0863L668.695 46.3978L668.591 46.5016V46.6054L668.799 47.1038L668.591 47.3115C668.854 47.6299 668.986 47.976 668.986 48.3498L670.481 48.7859C671.699 48.7859 673.056 48.156 674.551 46.8962L674.655 45.754L674.551 45.6502V45.5463L674.655 44.3003L674.551 44.1757V44.0719L674.759 43.4489L674.551 42.6182L674.759 42.4106L674.551 42.0783V41.7876L674.655 41.6837V41.5799L675.797 41.7876L676.13 41.5799L677.189 41.6837H677.812L677.915 41.7876H678.019L677.812 42.4106V42.5144L678.019 43.3658V43.6566L677.812 44.508L678.019 45.1102V45.4425C677.881 45.7194 677.666 45.8578 677.376 45.8578V46.0863L677.915 45.754L678.019 46.5016V46.8962C677.978 47.6576 676.822 49.0213 674.551 50.9872C672.807 51.8317 671.685 52.254 671.187 52.254L671.083 52.1294L670.585 52.254H670.149C668.363 52.254 666.923 51.7279 665.829 50.6757C665.317 51.1741 664.936 51.4233 664.687 51.4233H664.168C663.143 51.4233 661.96 50.8626 660.617 49.7412L660.409 49.5335L660.077 49.0974L660.181 48.9936C660.845 49.4228 661.302 49.6374 661.551 49.6374H662.091C662.7 49.3466 663.005 48.8828 663.005 48.246L662.901 47.8514L663.13 47.6438L662.901 47.1038L663.005 46.3978L662.901 45.5463L663.13 45.3387L662.797 45.0064L662.901 43.6566L662.797 43.3658L662.901 42.4106V41.9745L663.005 41.8706L662.797 41.4761L662.901 39.794V39.3579L662.797 38.7349L663.005 38.3195C662.867 38.3195 662.797 38.2157 662.797 38.008L662.901 37.2604L662.694 37.0528H662.901V36.9697C662.514 36.9697 662.167 36.5821 661.863 35.8068L662.091 35.5783L661.967 35.4745H661.219V35.3707L662.797 33.3978V32.3387L662.901 31.7157L662.797 31.4042L663.005 30.1582C662.867 30.1582 662.797 30.0475 662.797 29.826L662.901 28.3723L662.797 28.2685V28.1646L663.005 27.334L662.797 26.8979L662.901 26.1503C662.846 24.2674 662.777 23.326 662.694 23.326L661.011 22.8068L659.973 23.5544H659.869V23.4506C659.869 22.5507 660.915 21.6439 663.005 20.7302H663.981C664.576 20.7302 665.13 21.0417 665.642 21.6647C667.193 20.7509 668.245 20.2941 668.799 20.2941L670.273 20.3979L671.416 20.1902C671.416 20.3702 671.865 20.481 672.765 20.5225L675.693 21.7685C676.095 21.7685 676.69 21.2078 677.479 20.0864ZM667.615 21.0209C667.615 21.1594 667.726 21.2286 667.947 21.2286H668.051V21.1247L667.615 21.0209ZM669.63 22.08L669.837 22.2877H669.941L669.733 22.08H669.63ZM663.649 22.4123L663.545 22.703V22.8068H663.649L663.877 22.5992V22.5161L663.981 22.5992H664.376V22.5161L663.877 22.4123L663.753 22.5161L663.649 22.4123ZM671.519 22.9107V23.0145L672.163 23.2222H672.246V23.1183L671.623 22.9107H671.519ZM673.845 24.3643L674.344 24.8004V24.5928L673.908 24.3643H673.845ZM677.189 24.6966V25.0081H677.376V24.6966H677.189ZM675.091 26.8979H675.195L675.403 26.6902H675.299L675.091 26.8979ZM676.773 27.1263C676.773 27.2648 677.085 27.4309 677.708 27.6247H677.812V27.5209L676.773 27.1263ZM667.74 32.048V32.1518L667.947 32.3387L668.155 32.1518L667.844 32.048H667.74ZM667.408 32.6502V32.7541H667.74V32.5464L667.408 32.6502ZM666.805 33.1902L667.013 33.3978H667.408L667.221 33.1902H666.805ZM666.369 33.3978V33.6055L666.701 33.5017V33.294L666.369 33.3978ZM672.662 33.917V34.0208L673.098 33.5017V33.3978L672.662 33.917ZM665.435 33.917C665.31 34.1939 665.061 34.3323 664.687 34.3323V34.54L665.725 34.0208V33.917H665.435ZM663.337 34.8723L663.233 34.9761V35.0799H663.337L663.649 34.9761V34.8723H663.337ZM664.687 35.4745H664.791L665.227 35.2876V35.1838H665.123C664.832 35.2945 664.687 35.3914 664.687 35.4745ZM663.337 36.5336V36.6582H663.649V36.4298L663.337 36.5336ZM676.877 46.1901L676.669 46.3978V46.5016H676.877L677.085 46.1901H676.877ZM676.13 46.6885V46.8962L676.441 46.7923V46.6885H676.13ZM675.299 47.4153H675.403L675.59 47.2077H675.507L675.299 47.4153ZM674.24 48.0591H674.344L674.655 47.7476H674.551L674.24 48.0591ZM673.409 48.5783H673.513L673.721 48.3498H673.617L673.409 48.5783ZM672.454 48.8898V48.9936H672.558L673.201 48.7859V48.5783L672.454 48.8898ZM670.979 50.1358H671.083L671.312 49.9281H671.187L670.979 50.1358ZM669.63 50.9872H669.733L669.941 50.7795H669.837L669.63 50.9872ZM668.903 51.4233V51.5064L669.401 51.1949V51.091H669.297L668.903 51.4233ZM713.987 20.0449H714.423C715.074 20.0449 716.202 20.8825 717.808 22.5576L717.912 22.8899H717.58C717.068 22.8899 716.811 22.8138 716.811 22.6615L716.168 22.8899H715.835C715.794 23.3052 715.683 23.6306 715.503 23.8659V23.9698L715.607 24.6343L715.503 25.1742C715.725 25.1742 715.835 25.6173 715.835 26.5033L715.607 26.711C715.815 26.711 716.071 27.6247 716.375 29.4522C716.597 29.6045 716.708 29.7844 716.708 29.9921L716.604 30.0959V30.1998L716.936 31.0927L716.811 31.1966C716.964 31.1966 717.074 31.4873 717.144 32.0688L717.04 32.401L717.248 32.6087L717.144 32.941C717.296 32.941 717.517 33.557 717.808 34.7892C718.653 35.4814 719.38 36.1736 719.989 36.8659V36.9905L718.68 38.631V38.9425L718.784 39.7109H718.556V39.8355L719.553 43.4281L719.324 43.6566C719.546 43.6566 719.878 44.8541 720.321 47.2492C720.847 48.7029 721.394 49.4297 721.962 49.4297H722.273C722.55 49.4297 722.882 49.2843 723.27 48.9936L723.374 49.0974C722.488 50.7034 721.47 51.5064 720.321 51.5064C720.321 51.6033 720.065 51.6794 719.553 51.7348C719.303 51.7348 718.646 51.4441 717.58 50.8626C717.234 51.2364 716.721 51.5964 716.043 51.9425H715.607C714.762 51.7902 713.925 51.3541 713.094 50.6342L712.014 49.0974L712.118 48.9936H712.222L713.53 49.5335H713.759C714.16 49.5335 714.451 49.3189 714.631 48.8898L714.527 48.7859V48.6613L714.631 48.1214L714.299 46.7093V45.9409C714.091 45.6502 713.69 43.9058 713.094 40.7077H713.219L713.323 40.8115H713.426V40.7077L713.094 39.8355V38.7349C712.928 38.7349 712.748 38.2642 712.554 37.3227L712.783 37.0943C712.561 37.0943 712.45 37.0182 712.45 36.8659V36.762L712.554 36.6582C712.264 36.1321 711.938 34.7823 711.578 32.6087H711.474C711.101 33.647 710.914 34.45 710.914 35.0176C710.748 36.8451 710.491 37.7588 710.145 37.7588H710.041V37.8627L710.27 38.1949C709.924 40.5208 709.633 41.6837 709.398 41.6837V42.016C709.398 42.5836 709.142 43.3866 708.629 44.4249L708.837 44.6326L708.629 44.861V45.1725L708.733 45.7332C708.415 47.9068 708.124 48.9936 707.861 48.9936L707.321 49.0974H703.043L702.732 48.7859V47.1454L702.607 46.5016L702.732 46.0655L702.607 46.1693H702.399L702.503 46.0655L702.399 45.9409V44.861L702.171 43.0959L702.067 43.2205H701.963C701.673 40.8946 701.091 37.4335 700.219 32.8371H700.094C699.831 35.0938 699.471 36.2221 699.014 36.2221L699.118 36.762L699.014 37.3227H699.222V37.6342C699.222 37.7865 699.111 37.8627 698.89 37.8627V38.0703H699.118C698.468 42.3067 697.955 44.6741 697.582 45.1725L697.706 45.7332C697.706 46.0932 697.63 46.2732 697.478 46.2732L697.582 46.377V46.5016L697.042 49.3259V49.5335L697.145 49.6581V49.762L697.27 49.6581H697.374L697.706 49.762C697.706 49.6374 697.921 49.492 698.35 49.3259V49.5335C698.35 50.3227 697.658 51.1672 696.273 52.0671H695.629C695.159 52.0671 694.716 51.7694 694.3 51.1741C693.442 51.7694 692.902 52.0671 692.681 52.0671C691.698 52.0671 690.784 51.0772 689.939 49.0974H690.043C690.68 49.5405 691.116 49.762 691.352 49.762H691.684C692.418 49.4851 692.784 48.7929 692.784 47.6853C693.117 47.0761 693.442 45.9132 693.76 44.1965V43.4281L694.3 42.2237L694.093 42.016V41.9122L694.425 41.5799L694.3 41.4761L694.757 39.7109L694.633 39.2748L694.757 38.8387C693.871 37.8419 693.428 37.1497 693.428 36.762C695.034 35.4745 695.837 34.4223 695.837 33.6055C695.837 33.2455 695.982 32.8025 696.273 32.2764V32.1726L696.169 32.0688V31.9649C696.197 31.7434 696.377 31.4873 696.709 31.1966H696.377L697.478 26.6071L697.374 26.2749L697.582 25.2988H697.706L697.81 25.4027H697.914V25.2988L697.81 25.1742V25.0704L697.914 24.4266C697.914 23.2499 697.512 22.6615 696.709 22.6615L695.837 22.8899V22.6615C697.166 21.0694 698.294 20.2733 699.222 20.2733C699.679 20.2733 700.26 20.5225 700.966 21.0209C701.479 20.5225 702.026 20.2733 702.607 20.2733C703.465 20.2733 704.559 21.1109 705.888 22.7861L705.784 22.8899H705.452L705.12 22.6615C704.4 23.0353 704.04 23.6237 704.04 24.4266L704.684 27.8116L704.58 27.9154V28.0193L705.016 28.7876V29.8883L705.12 29.9921V30.0959L704.912 30.3244C705.189 30.3244 705.369 30.7951 705.452 31.7365L705.348 31.8403C705.528 31.8403 705.708 32.7887 705.888 34.6854C706.054 34.6854 706.234 35.5991 706.428 37.4266H706.657C706.657 36.7759 706.802 36.2982 707.093 35.9937V35.4537C707.093 34.72 707.273 34.2493 707.633 34.0416L707.321 33.917C707.57 32.4633 707.819 31.4458 708.069 30.8643L707.965 30.1998L708.401 30.0959V29.8883H708.193V29.4522L708.297 29.3276L708.193 29.2237V29.1199C708.609 26.711 708.969 25.5065 709.273 25.5065L709.065 24.4266L709.169 24.302V24.1982C708.934 23.1876 708.712 22.6753 708.505 22.6615H708.401L707.529 22.8899L707.425 22.7861C708.505 21.0278 709.598 20.1487 710.706 20.1487C711.329 20.1487 711.91 20.481 712.45 21.1455H712.554C712.554 20.9932 712.665 20.9171 712.887 20.9171C713.067 20.3356 713.433 20.0449 713.987 20.0449ZM697.706 22.2254V22.4538H698.018V22.35L697.706 22.2254ZM700.094 22.6615V22.8899L700.53 22.9937V22.7861L700.094 22.6615ZM699.326 22.8899V23.0976H699.658V22.9937L699.326 22.8899ZM699.45 23.326L698.89 23.8659V23.9698L699.658 23.4298V23.326H699.45ZM701.299 23.8659V24.0944H701.631V23.9698L701.299 23.8659ZM702.296 24.302L702.607 24.6343H702.732L702.399 24.302H702.296ZM714.527 25.5065V25.6103L714.735 25.4027V25.2988L714.527 25.5065ZM712.658 26.8148V27.0432L713.323 26.8148V26.711H713.094L712.658 26.8148ZM711.578 27.3755V27.5832L712.014 27.2509H711.91L711.578 27.3755ZM709.502 29.2237V29.3276L709.709 29.1199V29.0161L709.502 29.2237ZM705.12 32.401H705.244L705.452 32.1726H705.348L705.12 32.401ZM704.808 32.7125H704.912L705.12 32.5049H705.016L704.808 32.7125ZM702.067 35.1215H702.171L702.732 34.6854H702.607L702.067 35.1215ZM704.04 35.6822V35.786L704.372 35.8898H704.476V35.786L704.144 35.6822H704.04ZM704.808 35.8898V35.9937H705.244V35.8898H704.808ZM698.454 36.5544V36.762C698.744 36.6513 698.89 36.5405 698.89 36.4298H698.786L698.454 36.5544ZM708.069 36.5544V36.6582H708.505V36.5544H708.069ZM708.733 36.5544V36.762H709.169V36.6582L708.733 36.5544ZM697.478 37.3227H697.582L697.81 37.0943H697.706L697.478 37.3227ZM713.426 37.1981V37.3227H713.863V37.1981H713.426ZM697.042 37.6342H697.145L697.374 37.4266H697.27L697.042 37.6342ZM709.169 40.147H709.273L709.502 39.9393H709.398L709.169 40.147ZM708.629 40.4793H708.733L708.941 40.2716H708.837L708.629 40.4793ZM708.069 40.8115H708.193L708.401 40.5831H708.297L708.069 40.8115ZM706.428 42.016V42.1198L706.76 41.7876H706.657L706.428 42.016ZM705.68 42.4521V42.6598L705.992 42.5559V42.3483L705.68 42.4521ZM704.808 42.8882V43.0959L705.12 42.992V42.7844L704.808 42.8882ZM696.377 47.5815H696.502L696.709 47.353H696.605L696.377 47.5815ZM695.837 48.0176H695.941L696.273 47.6853H696.169L695.837 48.0176ZM694.425 48.9936H694.529L694.757 48.7859H694.633L694.425 48.9936ZM733.279 20.0449H733.591C734.685 20.0449 735.882 20.5225 737.184 21.4778L738.616 23.2222L738.928 23.1183V23.2222C739.731 24.4266 740.312 25.6588 740.672 26.9186C740.908 27.1125 741.143 27.7978 741.378 28.9745L741.295 29.286C741.489 29.286 741.655 29.8675 741.794 31.0304H741.482C741.759 31.4735 741.898 31.8126 741.898 32.048L741.794 32.671C741.918 32.671 742.091 32.9756 742.313 33.5847L742.209 33.4809H742.105V33.5847C742.59 33.654 742.832 33.8616 742.832 34.2077C743.164 34.36 743.504 34.6715 743.85 35.1422L742.313 36.8866L742.001 37.385L742.105 37.6965L742.001 38.008L742.105 38.5272L741.191 43.4489L741.295 43.8642C740.963 45.0272 740.548 45.8786 740.049 46.4185C740.049 47.6784 739.059 49.0421 737.08 50.5096C735.889 51.4925 735.031 52.0117 734.505 52.0671L733.695 51.8594L733.176 51.9632C731.487 51.9632 729.811 50.9664 728.15 48.9728L726.717 46.6262C726.717 46.017 726.509 45.4356 726.094 44.8818L726.198 44.5703L725.907 44.2588L726.094 43.9681V43.8642C725.623 43.8642 725.319 42.5629 725.18 39.9601C725.07 39.9601 725 39.7178 724.973 39.2333V38.631L725.077 38.2157L724.973 37.8004V37.6965L725.077 37.1774L723.332 35.3291V35.1422C724.426 33.9378 724.973 33.2179 724.973 32.9825C724.973 31.7088 725.312 29.8606 725.99 27.4378C726.406 26.8148 726.717 26.0257 726.925 25.0704C727.852 23.4506 728.704 22.53 729.479 22.3084L729.375 22.2046V22.1008C730.054 21.0763 730.843 20.564 731.743 20.564C731.909 20.2179 732.421 20.0449 733.279 20.0449ZM732.677 22.9107V23.0145L733.176 23.1183H733.279V23.0145L732.76 22.9107H732.677ZM733.591 23.1183V23.326L734.11 23.4298H734.318V23.326L733.591 23.1183ZM731.223 24.9666L731.327 25.4857V25.5896L731.12 25.7972L731.223 26.6071L731.12 31.2381L731.037 31.9442L731.12 32.048V32.1518L731.037 32.2557V32.3595L731.12 32.4633V32.5672L731.037 32.671V32.7748C731.133 33.2179 731.708 33.9724 732.76 35.0384V35.1422C731.667 36.3605 731.12 37.1428 731.12 37.4889L731.037 39.4409L731.12 39.8563L730.933 40.0639L731.12 40.2716V40.6662L731.037 40.77L731.12 40.8738V40.9777L731.037 41.4968L731.12 41.8083L731.037 42.2237L731.12 44.778V44.8818C731.12 45.0202 730.988 45.0895 730.725 45.0895V45.2971C731.057 45.2971 731.223 45.6017 731.223 46.2109C731.57 47.6507 732.255 48.3706 733.279 48.3706H733.799C734.865 48.3706 735.654 47.4499 736.166 45.6086C736.124 45.2625 736.021 45.0895 735.854 45.0895L736.062 44.4665L735.854 43.7604L735.958 43.3451L735.854 41.0815L735.958 40.9777H736.062L735.854 40.4793L735.958 39.5448L735.854 38.7141L735.958 37.5927C735.958 37.2881 735.377 36.4713 734.214 35.1422C735.377 33.8409 735.958 33.0517 735.958 32.7748L735.854 32.671V32.5672L736.166 32.1518C735.958 31.9026 735.854 31.6673 735.854 31.4458L735.958 29.8883L735.854 28.663L735.958 28.3515L735.854 27.7493V26.8148L735.958 26.3995C735.889 25.8595 735.578 25.0081 735.024 23.8452H734.92L734.816 23.949C734.512 23.8106 734.069 23.7413 733.487 23.7413H733.383C732.469 23.7413 731.784 24.1498 731.327 24.9666H731.223ZM740.776 30.8228V30.9266H740.984L741.378 30.8228V30.7189H741.191L740.776 30.8228ZM739.136 30.9266V31.1343H739.239L739.634 30.8228H739.551L739.136 30.9266ZM740.257 30.9266V31.0304H740.672V30.9266H740.257ZM738.616 31.4458V31.5496H738.928C738.928 31.4112 739.032 31.3419 739.239 31.3419V31.2381H739.136L738.616 31.4458ZM737.993 31.5496V31.6327L738.097 31.7365V31.8403L737.993 31.9442V32.1518H738.097C738.097 31.9442 738.201 31.8403 738.409 31.8403L738.72 31.9442L738.201 31.5496H737.993ZM737.287 32.048H737.391L737.599 31.8403H737.495L737.287 32.048ZM741.088 32.9825V33.0863L741.482 33.1902H741.586V33.0863L741.191 32.9825H741.088ZM730.31 34.1039V34.3116L730.725 34.2077V34.1039H730.31ZM729.687 34.5192H729.791L729.998 34.3116H729.894L729.687 34.5192ZM728.254 34.8307V34.9346H728.358L728.877 34.8307V34.6231L728.254 34.8307ZM726.821 35.433H726.925L727.548 35.2253V35.1422H727.444C727.029 35.1976 726.821 35.2945 726.821 35.433ZM727.029 44.155L727.236 44.3626H727.34V44.155H727.029ZM729.375 44.6741C729.375 44.8126 729.479 44.8818 729.687 44.8818H729.894V44.778L729.375 44.6741ZM730.206 44.9856C730.206 45.1241 730.31 45.1933 730.517 45.1933H730.621V45.0895L730.206 44.9856ZM736.249 46.9377L736.664 47.2284H736.872V47.1246L736.353 46.9377H736.249ZM736.976 47.2284V47.4361H737.08L737.287 47.2284H736.976ZM738.616 47.8514V47.9553H739.032V47.8514H738.616ZM734.422 49.6997V49.8035H734.608L735.024 49.6997V49.5958H734.816L734.422 49.6997ZM755.977 20.1695C757.597 20.1695 759.106 20.8409 760.504 22.1838C761.917 23.8175 762.623 25.3611 762.623 26.8148C762.581 27.5209 762.512 27.8739 762.415 27.8739L762.623 28.2892C762.623 29.9506 762.062 31.5358 760.941 33.0448C760.761 33.0448 760.269 33.5709 759.466 34.6231V34.8307C761.127 35.5368 762.076 36.2429 762.311 36.9489L762.519 37.3643L762.415 37.6965H762.519C762.727 37.6965 762.83 38.0842 762.83 38.8595V39.2748L762.727 39.8978L762.83 40.0224L762.727 40.7492L762.83 41.9122L762.623 42.3275L762.727 42.6598L762.519 44.0304C762.727 44.7503 762.9 46.0793 763.038 48.0176C763.481 48.516 763.869 48.7652 764.201 48.7652H764.305C764.568 48.7652 764.852 48.6267 765.156 48.3498H765.26V48.4537C765.26 48.8136 765.156 49.0213 764.949 49.0767H764.637L763.993 48.9728H763.889V49.0767L764.949 49.2843C764.533 50.295 763.301 51.2087 761.252 52.0255L760.837 52.1501H760.504C759.688 52.1501 758.989 51.6517 758.407 50.6549C758.102 50.6549 757.646 50.1288 757.036 49.0767L757.14 48.9728V48.869L757.036 48.2252L757.348 48.3498H757.452V48.2252C757.313 48.2252 757.244 48.1214 757.244 47.9137L756.933 47.6022L757.036 47.2907L756.933 46.8754L757.14 45.5048L756.933 45.2971V44.6534L757.14 44.4457L757.036 43.6981L757.14 43.3866L757.036 42.7636V42.4313L757.14 42.016L757.036 41.6007V41.4968L757.14 40.6454L757.036 39.794L757.14 39.6901V39.5863C756.974 39.5863 756.87 39.1294 756.829 38.2157C756.829 37.6619 755.88 37.3435 753.984 37.2604H752.613V40.8531L752.489 42.8674L752.613 43.3866L752.489 43.4904L752.613 44.0304V44.861L752.385 45.0687L752.613 45.8163L752.489 45.9201L752.613 46.024L752.489 46.1278H752.385L752.613 47.1869L752.489 47.2907V47.3946L752.613 47.8099L752.489 48.1214C753.001 49.1874 753.568 49.7204 754.191 49.7204C754.524 49.7204 754.911 49.5058 755.354 49.0767H755.458V49.1805C755.195 49.845 754.842 50.3019 754.399 50.5511C753.873 51.6171 753.167 52.1501 752.281 52.1501C751.339 52.0394 750.46 51.5756 749.644 50.7588C749.007 51.5341 748.411 51.9217 747.858 51.9217H747.65C746.57 51.9217 745.303 51.008 743.85 49.1805V49.0767L745.428 49.492L746.072 49.3882L746.383 49.492L746.279 49.3882V49.2843C746.432 49.2843 746.639 48.8621 746.902 48.0176C746.764 48.0176 746.695 47.9137 746.695 47.7061L746.798 47.6022L746.695 47.0831V46.8754L746.798 46.024L746.695 45.401L746.798 45.0687L746.695 44.4457V43.9265L746.798 43.8019L746.695 43.6981V40.4377L746.902 40.1262L746.695 37.6965L746.798 37.3643L745.22 35.6822L745.116 35.5783V35.4745C746.238 34.187 746.798 33.3078 746.798 32.8371L746.902 32.0895L746.798 31.9857V31.778L746.902 31.3627L746.695 30.7189V30.6151L746.902 30.4074L746.695 29.6598L746.798 29.1407L746.695 28.1854V27.2509L746.798 26.711L746.695 25.9841L746.902 23.4506C746.432 22.9522 745.975 22.703 745.532 22.703L743.85 23.5544V23.4506C744.653 22.2738 745.601 21.4985 746.695 21.1247C746.875 20.834 747.331 20.6886 748.065 20.6886C748.55 20.7856 749.11 21.1732 749.747 21.8516C751.367 20.7994 752.495 20.2733 753.132 20.2733H753.236L753.34 20.3771L755.977 20.1695ZM750.703 21.6439V21.7477H751.243V21.6439H750.703ZM752.717 21.6439V21.7477L753.236 21.8516H753.34V21.7477L752.821 21.6439H752.717ZM753.548 21.8516V21.9554L754.088 22.0592H754.399V21.8516H754.295L753.859 21.9554L753.755 21.8516H753.548ZM755.126 22.1838V22.2877L755.562 22.3915V22.1838H755.126ZM756.497 22.3915V22.4953L757.244 22.5992H757.452V22.4953L756.829 22.3915H756.497ZM757.659 22.5992V22.703H758.096V22.5992H757.659ZM758.303 22.8068V22.9107L759.03 23.0145H759.57V22.9107L758.407 22.8068H758.303ZM759.778 23.0145V23.1183L760.401 23.2222H760.629V23.1183L759.985 23.0145H759.778ZM753.755 23.4506C753.755 23.6583 753.686 23.7621 753.548 23.7621L753.444 23.6583L752.925 23.7621H752.613V24.8212L752.489 25.2365L752.613 25.3404V25.4442L752.489 26.2956L752.613 27.7701L752.489 28.3931L752.613 29.2445V29.9921L752.385 30.3036L752.613 30.9266L752.489 31.6742L752.613 32.0895L752.489 32.5256C752.489 33.1486 752.703 33.4601 753.132 33.4601L754.607 33.564C756.019 33.1763 756.725 32.4772 756.725 31.4665C756.725 30.8989 756.898 30.6151 757.244 30.6151V30.5113C756.967 30.5113 756.829 30.4074 756.829 30.1998V28.0816L757.036 27.8739C756.773 25.4788 756.42 24.2813 755.977 24.2813C755.977 24.0321 755.451 23.8244 754.399 23.6583V23.5544L754.295 23.6583H753.859V23.4506H753.755ZM759.778 31.778V31.8819H759.985L760.401 31.5704H760.297L759.778 31.778ZM747.65 32.0895V32.2972L748.065 32.5256V32.4218L747.65 32.0895ZM758.199 32.6295V32.7333H758.511L758.615 32.6295V32.5256H758.511L758.199 32.6295ZM756.829 33.1486V33.3563L757.14 33.2525V33.1486H756.829ZM755.562 33.7924V34.0001L756.081 33.7924V33.6886H755.874L755.562 33.7924ZM754.399 34.2077L754.503 34.3116V34.4154L754.918 34.3116V34.1039L754.399 34.2077ZM752.717 34.7269V34.8307H753.028L753.755 34.6231V34.5192H753.444L752.717 34.7269ZM754.711 34.6231V34.7269H755.251V34.6231H754.711ZM756.933 35.0592V35.163L757.452 35.2668H757.659V35.163L757.036 35.0592H756.933ZM757.992 35.2668C757.992 35.4053 758.096 35.4745 758.303 35.4745H758.407V35.3707L757.992 35.2668ZM750.183 35.4745V35.6822L750.703 35.5783V35.4745H750.183ZM759.258 35.6822V35.786L759.674 35.8898H759.881V35.786L759.362 35.6822H759.258ZM747.338 35.8898V35.9937H747.858V35.8898H747.338ZM748.273 35.8898C748.273 36.0837 747.851 36.2636 747.006 36.4298V36.5336H747.338C747.934 36.2429 748.391 36.0975 748.709 36.0975V35.8898L748.605 35.9937H748.481L748.377 35.8898H748.273ZM760.941 36.3259V36.5336H761.356V36.4298L760.941 36.3259ZM752.821 36.4298V36.6374H753.132V36.5336L752.821 36.4298ZM758.822 48.3498V48.4537L759.985 48.7652H760.297C760.297 48.6683 759.84 48.5298 758.926 48.3498H758.822ZM760.629 48.6613L760.504 48.7652V48.869H761.46V48.7652L760.629 48.6613ZM762.415 48.869C762.415 49.0074 762.519 49.0767 762.727 49.0767H762.83V48.9728L762.415 48.869ZM782.849 20.0864H782.953C782.953 20.2249 783.064 20.2941 783.286 20.2941L783.389 23.2222C783.389 23.7344 783.175 24.1567 782.746 24.4889L782.849 24.3643H782.953L783.078 24.4889H783.182V24.1567L783.389 24.3643L783.286 25.2158L783.389 27.8324V29.6183C783.389 30.1859 783.244 30.4697 782.953 30.4697L782.143 30.3659L781.707 30.4697L780.877 30.3659L780.025 30.4697L779.921 29.5145L780.025 28.2685L779.921 27.8324L780.254 27.2301C780.032 27.1609 779.921 26.9463 779.921 26.5864L780.025 25.8388C780.025 25.2019 779.222 24.5443 777.616 23.8659L776.993 23.7621C775.553 23.7621 774.647 24.039 774.273 24.5928H774.169C774.03 27.3894 773.885 28.9607 773.733 29.3068C773.899 29.3068 774.01 29.556 774.065 30.0544L773.857 31.1966L774.065 31.4042L773.961 31.5081L774.065 31.6119V31.7157L773.961 32.3387C773.961 33.1832 774.197 33.6055 774.667 33.6055L775.519 33.294L776.682 33.5017C777.305 33.3217 777.616 32.761 777.616 31.8196C777.616 31.4181 777.374 31.0304 776.889 30.6566V30.4697H776.993C778.391 30.8435 779.091 31.4665 779.091 32.3387L779.215 32.7541V32.8579C779.215 33.827 779.001 34.5331 778.571 34.9761C778.571 35.3084 778.71 35.4745 778.987 35.4745L779.278 36.8659C778.945 38.3195 778.218 39.0464 777.097 39.0464L776.557 39.1502V39.0464C777.208 38.3957 777.533 37.8696 777.533 37.4681C777.533 37.302 777.139 37.1635 776.349 37.0528H776.038L775.311 37.1566L775.207 37.0528V36.9697C774.307 37.0251 773.857 37.2258 773.857 37.5719L774.065 38.008L773.961 40.1885L774.065 40.2924V40.3962L773.857 41.2476V41.5799H774.065V42.1821L773.857 42.8259L773.961 42.9297V43.0336L773.857 43.7604L773.961 44.9233H773.857L774.169 45.8578L773.961 46.0863L774.065 46.3978L773.961 46.5016V46.6054L774.169 47.1038L773.961 47.3115C774.224 47.6299 774.356 47.976 774.356 48.3498L775.851 48.7859C777.069 48.7859 778.426 48.156 779.921 46.8962L780.025 45.754L779.921 45.6502V45.5463L780.025 44.3003L779.921 44.1757V44.0719L780.129 43.4489L779.921 42.6182L780.129 42.4106L779.921 42.0783V41.7876L780.025 41.6837V41.5799L781.167 41.7876L781.5 41.5799L782.559 41.6837H783.182L783.286 41.7876H783.389L783.182 42.4106V42.5144L783.389 43.3658V43.6566L783.182 44.508L783.389 45.1102V45.4425C783.251 45.7194 783.036 45.8578 782.746 45.8578V46.0863L783.286 45.754L783.389 46.5016V46.8962C783.348 47.6576 782.192 49.0213 779.921 50.9872C778.177 51.8317 777.056 52.254 776.557 52.254L776.453 52.1294L775.955 52.254H775.519C773.733 52.254 772.293 51.7279 771.199 50.6757C770.687 51.1741 770.306 51.4233 770.057 51.4233H769.538C768.513 51.4233 767.33 50.8626 765.987 49.7412L765.779 49.5335L765.447 49.0974L765.551 48.9936C766.215 49.4228 766.672 49.6374 766.921 49.6374H767.461C768.07 49.3466 768.375 48.8828 768.375 48.246L768.271 47.8514L768.5 47.6438L768.271 47.1038L768.375 46.3978L768.271 45.5463L768.5 45.3387L768.167 45.0064L768.271 43.6566L768.167 43.3658L768.271 42.4106V41.9745L768.375 41.8706L768.167 41.4761L768.271 39.794V39.3579L768.167 38.7349L768.375 38.3195C768.237 38.3195 768.167 38.2157 768.167 38.008L768.271 37.2604L768.064 37.0528H768.271V36.9697C767.884 36.9697 767.537 36.5821 767.233 35.8068L767.461 35.5783L767.337 35.4745H766.589V35.3707L768.167 33.3978V32.3387L768.271 31.7157L768.167 31.4042L768.375 30.1582C768.237 30.1582 768.167 30.0475 768.167 29.826L768.271 28.3723L768.167 28.2685V28.1646L768.375 27.334L768.167 26.8979L768.271 26.1503C768.216 24.2674 768.147 23.326 768.064 23.326L766.381 22.8068L765.343 23.5544H765.239V23.4506C765.239 22.5507 766.285 21.6439 768.375 20.7302H769.351C769.946 20.7302 770.5 21.0417 771.012 21.6647C772.563 20.7509 773.615 20.2941 774.169 20.2941L775.643 20.3979L776.786 20.1902C776.786 20.3702 777.235 20.481 778.135 20.5225L781.063 21.7685C781.465 21.7685 782.06 21.2078 782.849 20.0864ZM772.985 21.0209C772.985 21.1594 773.096 21.2286 773.318 21.2286H773.421V21.1247L772.985 21.0209ZM775 22.08L775.207 22.2877H775.311L775.103 22.08H775ZM769.019 22.4123L768.915 22.703V22.8068H769.019L769.247 22.5992V22.5161L769.351 22.5992H769.746V22.5161L769.247 22.4123L769.123 22.5161L769.019 22.4123ZM776.889 22.9107V23.0145L777.533 23.2222H777.616V23.1183L776.993 22.9107H776.889ZM779.215 24.3643L779.714 24.8004V24.5928L779.278 24.3643H779.215ZM782.559 24.6966V25.0081H782.746V24.6966H782.559ZM780.461 26.8979H780.565L780.773 26.6902H780.669L780.461 26.8979ZM782.143 27.1263C782.143 27.2648 782.455 27.4309 783.078 27.6247H783.182V27.5209L782.143 27.1263ZM773.11 32.048V32.1518L773.318 32.3387L773.525 32.1518L773.214 32.048H773.11ZM772.778 32.6502V32.7541H773.11V32.5464L772.778 32.6502ZM772.175 33.1902L772.383 33.3978H772.778L772.591 33.1902H772.175ZM771.739 33.3978V33.6055L772.072 33.5017V33.294L771.739 33.3978ZM778.032 33.917V34.0208L778.468 33.5017V33.3978L778.032 33.917ZM770.805 33.917C770.68 34.1939 770.431 34.3323 770.057 34.3323V34.54L771.095 34.0208V33.917H770.805ZM768.707 34.8723L768.603 34.9761V35.0799H768.707L769.019 34.9761V34.8723H768.707ZM770.057 35.4745H770.161L770.597 35.2876V35.1838H770.493C770.203 35.2945 770.057 35.3914 770.057 35.4745ZM768.707 36.5336V36.6582H769.019V36.4298L768.707 36.5336ZM782.247 46.1901L782.04 46.3978V46.5016H782.247L782.455 46.1901H782.247ZM781.5 46.6885V46.8962L781.811 46.7923V46.6885H781.5ZM780.669 47.4153H780.773L780.96 47.2077H780.877L780.669 47.4153ZM779.61 48.0591H779.714L780.025 47.7476H779.921L779.61 48.0591ZM778.779 48.5783H778.883L779.091 48.3498H778.987L778.779 48.5783ZM777.824 48.8898V48.9936H777.928L778.571 48.7859V48.5783L777.824 48.8898ZM776.349 50.1358H776.453L776.682 49.9281H776.557L776.349 50.1358ZM775 50.9872H775.103L775.311 50.7795H775.207L775 50.9872ZM774.273 51.4233V51.5064L774.771 51.1949V51.091H774.667L774.273 51.4233Z" fill="#63313A"/>
</svg>
