<?xml version="1.0" encoding="UTF-8"?><svg xmlns="http://www.w3.org/2000/svg" width="1170" height="2532" xmlns:xlink="http://www.w3.org/1999/xlink" viewBox="0 0 1170 2532"><defs><style>.cls-1{fill:url(#linear-gradient-12);}.cls-1,.cls-2,.cls-3,.cls-4,.cls-5,.cls-6,.cls-7,.cls-8,.cls-9,.cls-10,.cls-11,.cls-12,.cls-13,.cls-14,.cls-15,.cls-16,.cls-17,.cls-18,.cls-19,.cls-20,.cls-21,.cls-22,.cls-23,.cls-24,.cls-25,.cls-26,.cls-27,.cls-28,.cls-29,.cls-30,.cls-31{stroke-width:0px;}.cls-2{fill:url(#linear-gradient-17);}.cls-3{fill:url(#linear-gradient-19);}.cls-4{fill:url(#linear-gradient);}.cls-5{fill:#000;}.cls-6{fill:url(#linear-gradient-21);}.cls-7{fill:url(#linear-gradient-6);}.cls-32{fill:#3d1a20;stroke:#3d1a20;stroke-miterlimit:10;}.cls-8{fill:url(#linear-gradient-15);}.cls-9{fill:url(#linear-gradient-11);}.cls-10{fill:url(#linear-gradient-5);}.cls-11{fill:#da604e;}.cls-12{fill:url(#linear-gradient-13);}.cls-13{fill:url(#linear-gradient-23);}.cls-14{fill:url(#linear-gradient-25);}.cls-15{fill:url(#linear-gradient-16);}.cls-16{fill:url(#linear-gradient-22);}.cls-17{fill:url(#linear-gradient-20);}.cls-18{fill:url(#linear-gradient-14);}.cls-19{fill:url(#linear-gradient-2);}.cls-20{fill:url(#linear-gradient-7);}.cls-21{fill:url(#linear-gradient-3);}.cls-22{fill:url(#linear-gradient-9);}.cls-23{fill:url(#linear-gradient-27);}.cls-24{fill:url(#linear-gradient-8);}.cls-25{fill:url(#linear-gradient-24);}.cls-26{fill:url(#linear-gradient-26);}.cls-27{fill:url(#linear-gradient-18);}.cls-28{fill:#be4937;}.cls-29{fill:#f0b921;}.cls-30{fill:url(#linear-gradient-10);}.cls-31{fill:url(#linear-gradient-4);}</style><linearGradient id="linear-gradient" x1="507" y1="1370.88" x2="1069.98" y2="1370.88" gradientUnits="userSpaceOnUse"><stop offset=".08" stop-color="#6ebba4"/><stop offset=".34" stop-color="#d36673"/><stop offset=".58" stop-color="#da604e"/><stop offset=".84" stop-color="#fb9e3c"/><stop offset="1" stop-color="#f0b921"/></linearGradient><linearGradient id="linear-gradient-2" x1="494.36" y1="1370.64" x2="1060.56" y2="1370.64" gradientUnits="userSpaceOnUse"><stop offset="0" stop-color="#73bb9f"/><stop offset=".08" stop-color="#73ba9f"/><stop offset=".16" stop-color="#90a292"/><stop offset=".34" stop-color="#d46671"/><stop offset=".42" stop-color="#d56466"/><stop offset=".58" stop-color="#da604f"/><stop offset=".66" stop-color="#e3724b"/><stop offset=".84" stop-color="#f79e3f"/><stop offset=".92" stop-color="#f0ad33"/><stop offset="1" stop-color="#ebb926"/></linearGradient><linearGradient id="linear-gradient-3" x1="481.66" y1="1370.27" x2="1051.13" y2="1370.27" gradientUnits="userSpaceOnUse"><stop offset="0" stop-color="#78bb9a"/><stop offset=".08" stop-color="#78ba9b"/><stop offset=".16" stop-color="#95a28e"/><stop offset=".34" stop-color="#d46770"/><stop offset=".42" stop-color="#d56465"/><stop offset=".58" stop-color="#da6050"/><stop offset=".66" stop-color="#e3714c"/><stop offset=".84" stop-color="#f29e43"/><stop offset=".92" stop-color="#ebad37"/><stop offset="1" stop-color="#e6b92b"/></linearGradient><linearGradient id="linear-gradient-4" x1="468.89" y1="1369.88" x2="1041.71" y2="1369.88" gradientUnits="userSpaceOnUse"><stop offset="0" stop-color="#7dbb95"/><stop offset=".08" stop-color="#7eb996"/><stop offset=".16" stop-color="#99a28b"/><stop offset=".34" stop-color="#d5676e"/><stop offset=".42" stop-color="#d66464"/><stop offset=".58" stop-color="#d96051"/><stop offset=".66" stop-color="#e2714e"/><stop offset=".84" stop-color="#ee9e46"/><stop offset=".92" stop-color="#e5ae3c"/><stop offset="1" stop-color="#e1b930"/></linearGradient><linearGradient id="linear-gradient-5" x1="456.04" y1="1369.5" x2="1032.29" y2="1369.5" gradientUnits="userSpaceOnUse"><stop offset="0" stop-color="#82bb90"/><stop offset=".08" stop-color="#83b992"/><stop offset=".16" stop-color="#9da187"/><stop offset=".34" stop-color="#d6686d"/><stop offset=".42" stop-color="#d66363"/><stop offset=".58" stop-color="#d96152"/><stop offset=".66" stop-color="#e1704f"/><stop offset=".84" stop-color="#ea9f4a"/><stop offset=".92" stop-color="#e0ae40"/><stop offset="1" stop-color="#dcb935"/></linearGradient><linearGradient id="linear-gradient-6" x1="443.08" y1="1369.11" x2="1022.87" y2="1369.11" gradientUnits="userSpaceOnUse"><stop offset="0" stop-color="#87bb8b"/><stop offset=".08" stop-color="#88b88d"/><stop offset=".16" stop-color="#a1a184"/><stop offset=".34" stop-color="#d6686b"/><stop offset=".42" stop-color="#d66362"/><stop offset=".58" stop-color="#d96153"/><stop offset=".66" stop-color="#e17051"/><stop offset=".84" stop-color="#e69f4d"/><stop offset=".92" stop-color="#dbaf45"/><stop offset="1" stop-color="#d7b93a"/></linearGradient><linearGradient id="linear-gradient-7" x1="430.01" y1="1368.91" x2="1013.45" y2="1368.91" gradientUnits="userSpaceOnUse"><stop offset="0" stop-color="#8cbb86"/><stop offset=".08" stop-color="#8db889"/><stop offset=".16" stop-color="#a6a180"/><stop offset=".34" stop-color="#d76969"/><stop offset=".42" stop-color="#d66361"/><stop offset=".58" stop-color="#d96154"/><stop offset=".66" stop-color="#e06f53"/><stop offset=".84" stop-color="#e19f51"/><stop offset=".92" stop-color="#d6af49"/><stop offset="1" stop-color="#d2b93f"/></linearGradient><linearGradient id="linear-gradient-8" x1="416.78" y1="1368.5" x2="1004.03" y2="1368.5" gradientUnits="userSpaceOnUse"><stop offset="0" stop-color="#91ba81"/><stop offset=".08" stop-color="#92b784"/><stop offset=".16" stop-color="#aaa17d"/><stop offset=".34" stop-color="#d86968"/><stop offset=".42" stop-color="#d66360"/><stop offset=".58" stop-color="#d96155"/><stop offset=".66" stop-color="#df6f54"/><stop offset=".84" stop-color="#dd9f54"/><stop offset=".92" stop-color="#d1b04e"/><stop offset="1" stop-color="#cdba44"/></linearGradient><linearGradient id="linear-gradient-9" x1="403.37" y1="1368.08" x2="994.61" y2="1368.08" gradientUnits="userSpaceOnUse"><stop offset="0" stop-color="#96ba7c"/><stop offset=".08" stop-color="#98b680"/><stop offset=".16" stop-color="#aea17a"/><stop offset=".34" stop-color="#d86a66"/><stop offset=".42" stop-color="#d7635f"/><stop offset=".58" stop-color="#d86156"/><stop offset=".66" stop-color="#df6e56"/><stop offset=".84" stop-color="#d99f57"/><stop offset=".92" stop-color="#cbb152"/><stop offset="1" stop-color="#c8ba49"/></linearGradient><linearGradient id="linear-gradient-10" x1="389.72" y1="1367.87" x2="985.19" y2="1367.87" gradientUnits="userSpaceOnUse"><stop offset="0" stop-color="#9bba77"/><stop offset=".08" stop-color="#9db67b"/><stop offset=".16" stop-color="#b2a176"/><stop offset=".34" stop-color="#d96a64"/><stop offset=".42" stop-color="#d7635e"/><stop offset=".58" stop-color="#d86157"/><stop offset=".66" stop-color="#de6e58"/><stop offset=".84" stop-color="#d59f5b"/><stop offset=".92" stop-color="#c6b157"/><stop offset="1" stop-color="#c3ba4e"/></linearGradient><linearGradient id="linear-gradient-11" x1="375.76" y1="1367.44" x2="975.77" y2="1367.44" gradientUnits="userSpaceOnUse"><stop offset="0" stop-color="#a0ba72"/><stop offset=".08" stop-color="#a2b577"/><stop offset=".16" stop-color="#b7a073"/><stop offset=".34" stop-color="#da6b63"/><stop offset=".42" stop-color="#d7625d"/><stop offset=".58" stop-color="#d86258"/><stop offset=".66" stop-color="#dd6d59"/><stop offset=".84" stop-color="#d0a05e"/><stop offset=".92" stop-color="#c1b25b"/><stop offset="1" stop-color="#beba53"/></linearGradient><linearGradient id="linear-gradient-12" x1="361.4" y1="1367.03" x2="966.36" y2="1367.03" gradientUnits="userSpaceOnUse"><stop offset="0" stop-color="#a5ba6d"/><stop offset=".08" stop-color="#a7b572"/><stop offset=".16" stop-color="#bba06f"/><stop offset=".34" stop-color="#da6b61"/><stop offset=".42" stop-color="#d7625c"/><stop offset=".58" stop-color="#d86259"/><stop offset=".66" stop-color="#dd6d5b"/><stop offset=".84" stop-color="#cca062"/><stop offset=".92" stop-color="#bcb260"/><stop offset="1" stop-color="#b9ba58"/></linearGradient><linearGradient id="linear-gradient-13" x1="346.5" y1="1366.72" x2="956.94" y2="1366.72" gradientUnits="userSpaceOnUse"><stop offset="0" stop-color="#aaba68"/><stop offset=".08" stop-color="#acb46e"/><stop offset=".16" stop-color="#bfa06c"/><stop offset=".34" stop-color="#db6c60"/><stop offset=".42" stop-color="#d7625b"/><stop offset=".58" stop-color="#d8625a"/><stop offset=".66" stop-color="#dc6c5c"/><stop offset=".84" stop-color="#c8a065"/><stop offset=".92" stop-color="#b7b364"/><stop offset="1" stop-color="#b4ba5d"/></linearGradient><linearGradient id="linear-gradient-14" x1="330.84" y1="1366.34" x2="947.52" y2="1366.34" gradientUnits="userSpaceOnUse"><stop offset="0" stop-color="#afba63"/><stop offset=".08" stop-color="#b1b469"/><stop offset=".16" stop-color="#c3a069"/><stop offset=".34" stop-color="#dc6c5e"/><stop offset=".42" stop-color="#d8625b"/><stop offset=".58" stop-color="#d8625a"/><stop offset=".66" stop-color="#dc6c5e"/><stop offset=".84" stop-color="#c4a068"/><stop offset=".92" stop-color="#b2b369"/><stop offset="1" stop-color="#afba62"/></linearGradient><linearGradient id="linear-gradient-15" x1="314.05" y1="1366.05" x2="938.26" y2="1366.05" gradientUnits="userSpaceOnUse"><stop offset="0" stop-color="#b4ba5d"/><stop offset=".08" stop-color="#b7b364"/><stop offset=".16" stop-color="#c8a065"/><stop offset=".34" stop-color="#dc6c5c"/><stop offset=".42" stop-color="#d8625a"/><stop offset=".58" stop-color="#d7625b"/><stop offset=".66" stop-color="#db6c60"/><stop offset=".84" stop-color="#bfa06c"/><stop offset=".92" stop-color="#acb46e"/><stop offset="1" stop-color="#aaba68"/></linearGradient><linearGradient id="linear-gradient-16" x1="295.11" y1="1365.74" x2="929.23" y2="1365.74" gradientUnits="userSpaceOnUse"><stop offset="0" stop-color="#b9ba58"/><stop offset=".08" stop-color="#bcb260"/><stop offset=".16" stop-color="#cca062"/><stop offset=".34" stop-color="#dd6d5b"/><stop offset=".42" stop-color="#d86259"/><stop offset=".58" stop-color="#d7625c"/><stop offset=".66" stop-color="#da6b61"/><stop offset=".84" stop-color="#bba06f"/><stop offset=".92" stop-color="#a7b572"/><stop offset="1" stop-color="#a5ba6d"/></linearGradient><linearGradient id="linear-gradient-17" x1="273.29" y1="1365.34" x2="920.41" y2="1365.34" gradientUnits="userSpaceOnUse"><stop offset="0" stop-color="#beba53"/><stop offset=".08" stop-color="#c1b25b"/><stop offset=".16" stop-color="#d0a05e"/><stop offset=".34" stop-color="#dd6d59"/><stop offset=".42" stop-color="#d86258"/><stop offset=".58" stop-color="#d7625d"/><stop offset=".66" stop-color="#da6b63"/><stop offset=".84" stop-color="#b7a073"/><stop offset=".92" stop-color="#a2b577"/><stop offset="1" stop-color="#a0ba72"/></linearGradient><linearGradient id="linear-gradient-18" x1="250.56" y1="1365.42" x2="911.76" y2="1365.42" gradientUnits="userSpaceOnUse"><stop offset="0" stop-color="#c3ba4e"/><stop offset=".08" stop-color="#c6b157"/><stop offset=".16" stop-color="#d59f5b"/><stop offset=".34" stop-color="#de6e58"/><stop offset=".42" stop-color="#d86157"/><stop offset=".58" stop-color="#d7635e"/><stop offset=".66" stop-color="#d96a64"/><stop offset=".84" stop-color="#b2a176"/><stop offset=".92" stop-color="#9db67b"/><stop offset="1" stop-color="#9bba77"/></linearGradient><linearGradient id="linear-gradient-19" x1="226.95" y1="1366.51" x2="903.25" y2="1366.51" gradientUnits="userSpaceOnUse"><stop offset="0" stop-color="#c8ba49"/><stop offset=".08" stop-color="#cbb152"/><stop offset=".16" stop-color="#d99f57"/><stop offset=".34" stop-color="#df6e56"/><stop offset=".42" stop-color="#d86156"/><stop offset=".58" stop-color="#d7635f"/><stop offset=".66" stop-color="#d86a66"/><stop offset=".84" stop-color="#aea17a"/><stop offset=".92" stop-color="#98b680"/><stop offset="1" stop-color="#96ba7c"/></linearGradient><linearGradient id="linear-gradient-20" x1="202.66" y1="1367.85" x2="894.85" y2="1367.85" gradientUnits="userSpaceOnUse"><stop offset="0" stop-color="#cdba44"/><stop offset=".08" stop-color="#d1b04e"/><stop offset=".16" stop-color="#dd9f54"/><stop offset=".34" stop-color="#df6f54"/><stop offset=".42" stop-color="#d96155"/><stop offset=".58" stop-color="#d66360"/><stop offset=".66" stop-color="#d86968"/><stop offset=".84" stop-color="#aaa17d"/><stop offset=".92" stop-color="#92b784"/><stop offset="1" stop-color="#91ba81"/></linearGradient><linearGradient id="linear-gradient-21" x1="177.83" y1="1369.25" x2="886.55" y2="1369.25" gradientUnits="userSpaceOnUse"><stop offset="0" stop-color="#d2b93f"/><stop offset=".08" stop-color="#d6af49"/><stop offset=".16" stop-color="#e19f51"/><stop offset=".34" stop-color="#e06f53"/><stop offset=".42" stop-color="#d96154"/><stop offset=".58" stop-color="#d66361"/><stop offset=".66" stop-color="#d76969"/><stop offset=".84" stop-color="#a6a180"/><stop offset=".92" stop-color="#8db889"/><stop offset="1" stop-color="#8cbb86"/></linearGradient><linearGradient id="linear-gradient-22" x1="152.6" y1="1370.7" x2="878.31" y2="1370.7" gradientUnits="userSpaceOnUse"><stop offset="0" stop-color="#d7b93a"/><stop offset=".08" stop-color="#dbaf45"/><stop offset=".16" stop-color="#e69f4d"/><stop offset=".34" stop-color="#e17051"/><stop offset=".42" stop-color="#d96153"/><stop offset=".58" stop-color="#d66362"/><stop offset=".66" stop-color="#d6686b"/><stop offset=".84" stop-color="#a1a184"/><stop offset=".92" stop-color="#88b88d"/><stop offset="1" stop-color="#87bb8b"/></linearGradient><linearGradient id="linear-gradient-23" x1="127" y1="1371.99" x2="870.14" y2="1371.99" gradientUnits="userSpaceOnUse"><stop offset="0" stop-color="#dcb935"/><stop offset=".08" stop-color="#e0ae40"/><stop offset=".16" stop-color="#ea9f4a"/><stop offset=".34" stop-color="#e1704f"/><stop offset=".42" stop-color="#d96152"/><stop offset=".58" stop-color="#d66363"/><stop offset=".66" stop-color="#d6686d"/><stop offset=".84" stop-color="#9da187"/><stop offset=".92" stop-color="#83b992"/><stop offset="1" stop-color="#82bb90"/></linearGradient><linearGradient id="linear-gradient-24" x1="101.2" y1="1373.51" x2="862.01" y2="1373.51" gradientUnits="userSpaceOnUse"><stop offset="0" stop-color="#e1b930"/><stop offset=".08" stop-color="#e5ae3c"/><stop offset=".16" stop-color="#ee9e46"/><stop offset=".34" stop-color="#e2714e"/><stop offset=".42" stop-color="#d96051"/><stop offset=".58" stop-color="#d66464"/><stop offset=".66" stop-color="#d5676e"/><stop offset=".84" stop-color="#99a28b"/><stop offset=".92" stop-color="#7eb996"/><stop offset="1" stop-color="#7dbb95"/></linearGradient><linearGradient id="linear-gradient-25" x1="75.22" y1="1375.14" x2="853.92" y2="1375.14" gradientUnits="userSpaceOnUse"><stop offset="0" stop-color="#e6b92b"/><stop offset=".08" stop-color="#ebad37"/><stop offset=".16" stop-color="#f29e43"/><stop offset=".34" stop-color="#e3714c"/><stop offset=".42" stop-color="#da6050"/><stop offset=".58" stop-color="#d56465"/><stop offset=".66" stop-color="#d46770"/><stop offset=".84" stop-color="#95a28e"/><stop offset=".92" stop-color="#78ba9b"/><stop offset="1" stop-color="#78bb9a"/></linearGradient><linearGradient id="linear-gradient-26" x1="49.08" y1="1377.02" x2="845.87" y2="1377.02" gradientUnits="userSpaceOnUse"><stop offset="0" stop-color="#ebb926"/><stop offset=".08" stop-color="#f0ad33"/><stop offset=".16" stop-color="#f79e3f"/><stop offset=".34" stop-color="#e3724b"/><stop offset=".42" stop-color="#da604f"/><stop offset=".58" stop-color="#d56466"/><stop offset=".66" stop-color="#d46671"/><stop offset=".84" stop-color="#90a292"/><stop offset=".92" stop-color="#73ba9f"/><stop offset="1" stop-color="#73bb9f"/></linearGradient><linearGradient id="linear-gradient-27" x1="21.56" y1="1378.42" x2="837.84" y2="1378.42" gradientUnits="userSpaceOnUse"><stop offset="0" stop-color="#f0b921"/><stop offset=".16" stop-color="#fb9e3c"/><stop offset=".42" stop-color="#da604e"/><stop offset=".66" stop-color="#d36673"/><stop offset=".92" stop-color="#6ebba4"/></linearGradient></defs><g id="Layer_12"><rect class="cls-32" width="1170" height="2532"/></g><g id="Layer_13"><path class="cls-5" d="M699.33,250.73c1.93,0,1.93-3,0-3s-1.93,3,0,3h0Z"/><path class="cls-4" d="M659.99,212.9c42.57,16.34,60.7,62.98,69.04,104.41,9.54,47.42,9.54,98.11,2.78,145.93-8.57,60.64-35.9,117.67-70.62,167.56-18.33,26.33-39.1,50.9-61.65,73.7-21.31,21.55-43.71,42.21-62.54,66.05-14.9,18.87-28.38,40.51-31.36,64.86-2.9,23.65,6.09,45,20.92,63.07,19.24,23.45,44.19,43.4,67.78,62.27,23.44,18.75,47.92,36.21,73.29,52.26,27.15,17.17,55.33,32.54,84.19,46.62,28.79,14.05,58.1,27.39,85.07,44.8,50.13,32.38,88.82,82.94,83.97,145.33s-44.71,116.93-81.11,164.76c-38.35,50.39-80.2,98.65-106.24,157.05-20.51,46.01-31.32,101.44,1.4,144.65,7.34,9.69,16.11,18.16,25.46,25.9,9.93,8.22,21.52,14.67,31.15,23.15,10.14,8.93,11.18,23.66,10.72,36.28-1.31,36.01-14.11,71.45-22.55,106.2-6.01,24.76-16.34,59.18-4.33,83.75,6.18,12.65,20.55,18.85,28.96,30.08,13.73,18.35,23.27,39.98,31.79,61.13s15.85,42.87,22.55,64.7c6.31,20.57,11.75,39.75,2.12,60.12-9.8,20.73-20.44,39.76-26.19,62.27-4.48,17.54-7.12,35.99-4.74,54.06,3.5,26.66,19.08,47.38,40.79,62.42,53.42,37,122.25,46.08,166.83,96.8,12.79,14.55,22.24,31.49,28.69,49.72,1.28,3.62,7.08,2.06,5.79-1.6-11.96-33.83-34.03-61.14-63.5-81.4-27.35-18.8-58.42-30.85-88.58-44.25-25.95-11.53-54.79-24.59-71.41-48.76-21.34-31.03-13.95-72.32-1.95-105.47,7.01-19.38,21.76-37.38,25.3-57.87,3.2-18.53-4.05-37.16-9.53-54.59-13.04-41.51-27.35-87.37-54.26-122.26-4.76-6.17-10.04-11.68-16.4-16.22-5.41-3.86-9.34-7.4-11.88-13.78-5.41-13.57-3.33-30.06-1.15-44.05,5.66-36.35,17.95-71.31,25.16-107.34,4.49-22.42,11.61-56.54-7.99-74.17-8.61-7.75-19.29-13.6-28.35-20.88-12.73-10.22-24.72-21.73-33.35-35.71-15.21-24.65-16.94-54.04-11.27-81.86,12.64-61.96,52.8-116.39,91.05-165.1,37.9-48.27,78.88-97.38,100.84-155.45,19.54-51.69,15.92-106.68-17.82-151.58-35.74-47.54-92-71.51-143.86-96.91-58.41-28.61-113.63-63.26-163.83-104.69-23.13-19.09-49.73-39.57-66.04-65.1-16.95-26.54-14.01-56.29.65-83.01,14.77-26.92,37.09-49.23,58.64-70.74,21.48-21.43,42.78-42.81,61.77-66.53,37.3-46.59,68.15-99.63,84.54-157.29,13.46-47.33,15.9-98.62,11.96-147.51-3.33-41.31-11.72-86.45-37.55-120.13-10.89-14.2-24.82-25.01-41.56-31.44-3.61-1.39-5.17,4.41-1.6,5.79h0Z"/><path class="cls-19" d="M640.17,216.04c33.69,14.35,50.36,49.01,59.17,82.63,10.32,39.42,11.85,81.12,9.73,121.65-2.57,49.02-12.98,95.98-33.03,140.91-21.78,48.82-52.1,93.74-87.42,133.77-30.67,34.76-69.21,66.72-87.9,110.21-7.81,18.18-11.06,38.37-5.49,57.68,6.71,23.24,24.2,41.04,41.29,57.24,39.5,37.46,82.12,71.85,127.74,101.59,45.97,29.97,97.15,51.16,142.49,81.95,40.34,27.39,73.49,67.02,79.35,116.94,6.36,54.23-19.81,106.94-47.79,151.53-28.74,45.8-63.97,87.11-92.55,132.99-24.33,39.06-47.2,83.7-49.41,130.57-2.08,44.15,20.01,77.93,54.01,104.16,8.54,6.59,19.12,11.97,26.75,19.56,7.79,7.75,9.79,19.23,10.16,29.77.88,24.6-5.6,49.41-11.08,73.19s-11.22,46.06-14.07,69.56c-1.96,16.17-3.37,35.48,5.3,50.14,3.59,6.07,8.78,9.18,14.09,13.5,9.24,7.52,16.04,17.85,21.99,28.04,14.64,25.08,24.76,52.83,33.66,80.38,6.58,20.37,15.8,43.32,16.43,64.93.51,17.7-9.16,31.85-16.49,47.2-17.1,35.83-27.36,82.71-7.84,119.73,17.81,33.79,57.39,54.17,89.59,71.71,35.77,19.48,74.44,36.51,103.55,65.82,15.61,15.71,26.99,34.38,34.31,55.24,1.27,3.62,7.07,2.06,5.79-1.6-28.54-81.39-114.78-105.7-180.81-148.58-17.6-11.43-35.17-24.48-45.82-43.03-12.2-21.26-12.95-47.03-8.56-70.62,4.24-22.79,13.72-42.71,23.93-63.24,6.7-13.48,9.68-26.57,7.5-41.63-3.19-22.09-11.31-44.33-18.39-65.41-8.49-25.32-18.17-50.8-31.67-73.93-4.78-8.19-10.11-16.22-16.57-23.2-6.05-6.54-14.88-10.63-19.51-18.34-11.09-18.48-5.19-46.11-1.5-65.79,4.58-24.47,11.11-48.53,16.11-72.92,4.2-20.45,8.76-42.87,4.73-63.72-3.51-18.16-15.53-25.08-29.61-35.28-20.48-14.84-40.54-32.11-51.23-55.6-21.08-46.35-1.78-100.57,20.01-142.87,24.47-47.51,58.18-88.89,88.77-132.42,29.56-42.06,58.6-87.68,69.3-138.7,9.28-44.25.05-88.59-27.07-124.87-29.64-39.65-74.25-62.95-117.15-85.48-50.07-26.3-97.7-56.01-141.96-91.33-22.63-18.07-44.54-37.11-65.42-57.18-20.02-19.25-39.46-41.54-39.24-70.96.39-50.5,46.76-91.51,78.66-125.41,67.93-72.17,123.75-162.24,135.24-262.4,4.59-40.01,5.22-80.92-.17-120.88-4.5-33.38-13.23-68.83-34.54-95.76-9.2-11.62-20.7-20.81-34.36-26.63-3.51-1.5-6.57,3.67-3.03,5.18h0Z"/><path class="cls-21" d="M621.07,219.49c31.72,15.06,46.21,49.75,53.81,82.08,9.05,38.49,10.01,78.87,7.73,118.19-5.92,102.03-48.9,194.42-112.71,273.35-28.07,34.73-63.58,66.2-81.53,107.94-8.01,18.63-11.52,39.45-5.95,59.29,6.25,22.3,22.53,39.8,38.71,55.55,37.3,36.31,76.86,70.72,119.1,101.2,43.52,31.41,92.38,54.15,135.96,85.24,40.49,28.89,72.1,70.27,76.14,121.25,4.12,52.02-19.53,102.99-45.04,146.82-26.25,45.09-58.58,86.28-84.73,131.4-22.47,38.76-43.23,82.76-43.97,128.42-.71,43.5,21.71,76.54,55.33,102.23,8.74,6.68,19.53,12.15,27.4,19.8,8.13,7.9,10.42,19.61,11.02,30.49,1.37,24.76-4.66,49.79-9.54,73.89-4.4,21.72-9.23,43.5-11.13,65.61-1.37,15.93-1.84,34.67,7.05,48.75,3.85,6.09,9.31,9.33,14.61,13.98,8.55,7.51,14.91,17.43,20.49,27.23,13.76,24.16,23.22,50.82,31.32,77.33,6.44,21.07,15.4,44.92,15.58,67.17.13,16.63-8.32,30.15-15.19,44.68-16.97,35.91-25.39,80.43-6.43,117.35,8.75,17.04,22.86,30.33,37.75,42.01,16.77,13.16,34.21,25.8,51.98,37.56,35.24,23.32,75.02,42.16,105.08,72.43,15.21,15.31,26.37,33.33,33.38,53.73,1.25,3.63,7.05,2.07,5.79-1.6-12.78-37.16-38.99-63.69-70.92-85.42-36.83-25.06-75.27-46.99-111.19-73.49-17.22-12.7-34.6-26.52-45.21-45.51-12.08-21.6-13.69-48.07-9.11-72,4.07-21.27,13.42-39.77,22.51-59.13,6.06-12.91,8.68-25.71,6.86-39.97-2.91-22.79-10.68-45.89-17.67-67.69-7.75-24.15-16.75-48.4-29.34-70.5-4.67-8.19-9.88-16.23-16.23-23.24-6.11-6.76-14.81-11.04-19.5-18.97-10.66-17.98-6.29-43.94-3.3-63.36,3.77-24.46,9.66-48.53,13.94-72.89,3.38-19.27,6.81-39.89,3.11-59.36-3.57-18.76-14.96-25.98-29.65-36.44-20.26-14.41-40.13-30.91-51.68-53.41-23.3-45.39-6.41-99.84,14.1-142.86,21.99-46.11,52.76-86.9,80.54-129.54,50.13-76.96,100.24-176.72,39.83-262.43-28.4-40.3-72.25-64.02-114.03-88.03-47.56-27.33-91.92-59.06-133.53-94.8-20.59-17.69-40.81-35.92-60.11-55.01-19.63-19.43-37.52-41.82-36.81-70.88,1.21-49.48,44.72-89.71,74.9-124.45,63.54-73.13,114.02-163.38,125.18-260.81,4.47-38.97,5.51-78.73.89-117.73-3.86-32.61-11.39-67.51-31.32-94.41-8.28-11.17-18.66-20.25-31.25-26.23-3.47-1.65-6.52,3.52-3.03,5.18h0Z"/><path class="cls-31" d="M601.97,222.94c30.07,16.02,42.37,51.35,48.74,82.79,7.9,39.01,8,79.66,5.09,119.23-7.32,99.47-48.27,190.38-107.59,269.74-26.83,35.9-62.22,69.14-76.39,112.78-6.24,19.22-6.87,39.98.74,58.91,8.47,21.08,25.23,37.44,41.19,53,38.06,37.1,77.27,73.36,119.64,105.52,41,31.11,88.59,53.99,127.3,87.96,35.42,31.08,58.41,74.26,57.86,122.07-.61,52.63-25.01,103.41-50.41,148.28s-53.74,84.07-75.96,128.74c-19.29,38.79-36.08,83.28-30.41,127.35s34.32,71.24,68.11,94.76c8.14,5.67,16.95,10.23,21.81,19.27,5.06,9.41,5.99,20.68,6.04,31.17.1,24.23-5.02,48.32-9.1,72.1-3.63,21.17-7.57,42.7-7.56,64.25,0,14.59,1.76,31.03,11.59,42.59,4.88,5.74,11.51,9.58,16.52,15.28,8.39,9.55,14.68,20.98,20.24,32.34,11.62,23.73,19.83,49.11,26.71,74.57,5.46,20.17,13.69,43.44,11.41,64.57-1.76,16.26-11.31,30.36-17.5,45.15-15.64,37.34-18.8,81.45,4.51,116.46,10.59,15.9,25.21,28.42,39.96,40.32,17.31,13.97,34.19,28.53,51.93,41.96,33.59,25.42,72.39,46.07,101.63,76.78,13.58,14.27,23.55,30.78,29.81,49.45,1.22,3.64,7.02,2.08,5.79-1.6-11.72-34.99-36.34-59.75-65.5-81.19-17.36-12.76-35.43-24.52-52.94-37.06-20.29-14.53-39.12-30.71-58.58-46.28-16.13-12.9-33.02-25.83-45.11-42.82-13.56-19.06-19.28-42.68-17.98-65.92,1.28-22.96,9.97-44.27,19.86-64.7,6.44-13.32,11.22-26.38,10.32-41.44-1.23-20.56-7.93-41.57-13.46-61.28-6.71-23.92-14.74-47.66-25.66-70.01-4.78-9.78-10.14-19.35-16.71-28.04-5.49-7.25-12.19-11.95-18.55-18.16-13.84-13.53-13.01-36.66-11.73-54.43,3.22-44.8,20.89-90.9,15.36-136.04-1.92-15.65-7.9-27.39-20.95-36.28-19.64-13.38-39.52-27.27-54.03-46.41-30.78-40.62-23.12-93.4-6.3-138.09,17.82-47.34,46.37-89.3,72.61-132.19,46.47-75.96,98.88-173.75,50.5-261.18-22.27-40.25-60.19-66.07-98.25-89.95-46.77-29.35-90.5-61.77-131.56-98.75-19.9-17.92-39.46-36.23-58.6-54.96-19.67-19.25-40.45-40.55-43.17-69.39-4.63-49.13,36.2-91.52,64.7-126.63,60.04-74,108.23-163.62,120.53-259.15,5.04-39.14,6.76-79.09,3.17-118.43-3.02-33.01-9.32-68.86-28.57-96.66-7.34-10.61-16.61-19.46-28.03-25.54-3.41-1.81-6.44,3.36-3.03,5.18h0Z"/><path class="cls-10" d="M582.86,226.38c28.79,17.31,38.8,54.13,43.89,85.19,6.41,39.19,5.63,79.66,2.09,119.09-8.82,98.45-48.96,189.59-105.34,270.03-24.94,35.59-58.72,70.34-67.51,114.39-9.56,47.9,21.92,79.86,53.42,110.92,37.37,36.85,74.84,73.89,115.79,106.81,39.36,31.63,86.73,55.78,120.02,94.31,32.18,37.24,44.53,85.62,36.46,133.93-8.47,50.68-31.29,97.69-55.79,142.36-22.96,41.86-48.62,82.49-65.86,127.2-14.88,38.58-24.83,83.17-10.55,123.46,6.79,19.15,18.83,35.41,33.73,49.06,6.87,6.29,14.22,12.03,21.75,17.5,9.54,6.92,22.29,12.67,29.22,22.4,11.83,16.6,9.56,41.35,7.8,60.46-2.15,23.33-6.39,46.4-8.98,69.68-2.1,18.9-3.9,38.95.62,57.66,1.56,6.48,4.03,12.87,7.92,18.31,4.49,6.29,11.11,10.2,16.28,15.85,16.17,17.67,25.81,41.74,33.68,63.97,8.29,23.4,14.31,47.55,19.37,71.84,3.93,18.87,6.28,36.31-1.08,54.59-6.51,16.18-14.71,31.13-19.24,48.12-10.5,39.35-.44,79.18,27.09,109.08,13.67,14.84,29.85,27.07,44.89,40.43,18.04,16.02,35.21,32.79,54,47.97,29.06,23.48,62.24,43.73,87.16,71.87,11.24,12.69,19.51,27.17,24.73,43.29,1.19,3.66,6.98,2.09,5.79-1.6-10.01-30.9-31.12-53.38-56-73.36-35.06-28.15-70.8-54.47-103.65-85.32-31.4-29.48-69.53-53.01-79.71-97.85-5.38-23.69-1.67-47.11,6.84-69.6,5.66-14.96,14.85-28.96,18-44.8,3.3-16.61-.61-33.17-4.09-49.41-5.28-24.62-11.64-49.08-20.44-72.69-7.31-19.61-15.96-39.65-29.13-56.1-5.21-6.51-12.14-10.89-17.53-17.06-6.55-7.5-9.24-17.53-10.54-27.19-5.98-44.61,9.84-89.7,11.06-134.23.45-16.46-.54-35.52-11.21-49.01-4.83-6.1-11.49-9.82-17.84-14.12-9.82-6.65-19.51-13.56-28.49-21.33-84.98-73.52-22.59-186.36,21.73-264.24,44.31-77.85,102.8-177.35,65.06-268.87-16.79-40.7-49.06-69.05-84.3-93.88-43.96-30.97-85.83-62.97-124.91-100.03-19.74-18.72-39.24-37.72-58.59-56.84-18.56-18.34-39.69-37.35-47.36-63.17-14.15-47.63,21.66-92.64,48.34-128.27,58.55-78.2,106.7-168.62,120.03-266.55,5.2-38.26,7.44-77.25,4.93-115.81-2.14-32.87-7.11-68.51-24.59-97.13-6.57-10.76-15.1-19.97-25.94-26.49-3.32-1.99-6.34,3.19-3.03,5.18h0Z"/><path class="cls-7" d="M563.76,229.83c27.88,19.1,35.52,58.6,39.18,89.86,4.64,39.63,2.95,80.07-1.42,119.64-10.79,97.89-50.79,190.7-105.33,272.13-23.55,35.16-54.18,72.73-55.08,117.15-.96,46.99,38.15,78.23,68.32,108.73,36.19,36.59,71.5,74.14,110.82,107.45,37.64,31.89,82.53,57.87,108,101.57,52.87,90.7-2.42,197.92-44.89,281.03-36.03,70.52-91.71,171.53-36.51,246.8,12.4,16.91,28.92,30.18,46.02,42.08,8,5.57,18.11,10.39,24.42,17.95,7.47,8.96,9.94,21.2,10.94,32.5,3.85,43.28-9.52,86.3-7.25,129.65.77,14.65,3.25,30.45,12.46,42.37,4.94,6.39,11.88,10.78,17.05,17.03,7.18,8.68,12.71,18.76,17.57,28.88,11.42,23.78,18.97,49.37,24.83,75.03,4.64,20.29,11.29,43.09,8.99,64.03-1.75,15.98-10.25,29.94-16.13,44.61-7.89,19.68-13.06,41-10.31,62.26,5.14,39.68,30.69,67.16,59.42,92.56,33.51,29.63,63.18,63.04,97.42,91.97,22.97,19.4,48.77,37.3,67.7,60.93,8.62,10.75,14.95,22.8,19.04,35.95,1.14,3.68,6.94,2.11,5.79-1.6-7.92-25.45-24.3-44.97-43.96-62.42-28.18-25.02-58.16-47.73-85.27-74-16.9-16.38-32.56-33.85-50.17-49.5-15.32-13.62-31.42-26.95-43.55-43.65-13.09-18.03-21.33-40.57-21.24-62.99.09-22.83,9.1-44.11,18.27-64.56,5.92-13.21,9.96-26.4,9.29-41.05-.96-20.72-6.47-42.03-11.38-62.09-5.74-23.45-13.09-46.71-23.56-68.52-4.32-8.99-9.19-17.77-15.15-25.78-5.05-6.79-11.35-11.59-17.15-17.57-13.7-14.14-14.45-36.81-14.15-55.29.37-23.29,3.75-46.43,5.99-69.59,1.9-19.67,3.81-40.29-.42-59.81-3.54-16.35-11.91-26.1-25.53-35.12-20.58-13.62-41.35-28.46-55.84-48.8s-20.69-44.52-20.68-69.09c.03-50.06,22.04-97.98,43.94-141.87,20.96-42,43.39-83.38,59.76-127.47,16.31-43.94,28.48-92.21,18.47-139-9.1-42.54-34.91-76.64-67.86-104.01-20.19-16.78-41.64-31.94-61.63-48.97-18.85-16.05-36.87-33.05-54.44-50.5-19.01-18.88-37.58-38.2-56.42-57.24-18.52-18.72-39.98-36.94-53.53-59.79-27.54-46.44,1.03-95.58,27.56-134.86,54.84-81.23,102.12-169.83,117.47-267.84,5.98-38.16,8.93-77.13,7.72-115.75-1.06-33.77-4.58-70.39-20.56-100.78-5.82-11.07-13.63-20.77-23.99-27.87-3.19-2.19-6.2,3.01-3.03,5.18h0Z"/><path class="cls-20" d="M544.05,232.81c25.42,20.05,31.27,58.11,34.09,88.29,3.76,40.17,1.39,80.97-3.44,120.95-11.94,98.75-51.11,192.75-102.89,277.14-22.08,35.98-49.1,76-42.89,120.43,3.09,22.13,15.1,40.45,29.67,56.83,16.98,19.1,35.53,36.86,53.02,55.49,34.3,36.54,67.13,74.46,104.68,107.79,35.36,31.39,72.45,60.22,89.41,106.08,17.72,47.91,9.32,98.1-5.13,145.68-14.34,47.23-35.78,91.54-55.52,136.63-33.55,76.64-68.65,174.77,4.79,240.25,7.11,6.34,14.69,12.13,22.47,17.63,9.19,6.5,20.77,11.89,28.45,20.18,14.43,15.57,14.25,40.77,13.76,60.62-.97,39.71-11.74,84.29,1.03,123.01,5.35,16.23,17.43,23.67,27.23,36.71,14.71,19.58,23.48,43.7,30.33,66.98,6.53,22.2,10.9,45,14.39,67.87,2.97,19.51,1.92,36.3-5.8,54.49-7.03,16.55-13.97,32.66-17.16,50.51-3.61,20.18.06,39.77,8.13,58.42,15.92,36.77,50.06,59.25,77.04,87.16,16.51,17.08,31.38,35.67,48.03,52.66,13.31,13.59,27.15,26.65,41.31,39.35,19.21,17.23,40.9,33.52,56.18,54.57,6.49,8.94,11.24,18.73,14.37,29.32,1.09,3.69,6.89,2.12,5.79-1.6-6.23-21.03-19.03-37.73-34.61-52.79-23.21-22.43-48.35-42.73-71.27-65.51-16.91-16.81-32.55-34.64-48.35-52.47-13.78-15.56-29.8-28.81-44.86-43.06-16.04-15.17-30.74-31.81-39.19-52.48-9.77-23.89-9.54-47.24-1.87-71.76,4.78-15.3,13.06-29.33,17.41-44.74,4.7-16.64,2.36-33.28-.34-50.05-6.99-43.38-16.93-91.04-42.67-127.67-10.45-14.87-24.51-23.06-29.51-41.62-5.46-20.3-4.15-42.32-2.9-63.09,1.37-22.84,4.07-45.75,3.3-68.67-.54-16.08-2.64-33.8-12.66-47.02-4.65-6.13-10.65-9.88-17-14.02-11.22-7.33-22.34-14.91-32.6-23.56-18.49-15.59-33.2-34.46-40.6-57.72-14.6-45.83-.81-95.81,15.86-139.1,17.39-45.16,39.78-88.21,57.32-133.32,17.36-44.65,33.79-94.22,31.05-142.76-2.27-40.11-18.31-77.77-45.03-107.66-16.09-18-35.1-33.07-53.2-48.96-18.21-15.98-35.44-33.03-52.19-50.54-18.36-19.19-35.99-39.06-54.14-58.44-17.51-18.7-35.97-36.57-53.15-55.57-18.9-20.9-31.95-44.59-29.94-73.56,1.72-24.9,13.12-47.95,25.38-69.22,24.48-42.49,49.85-83.74,69.83-128.68,20.15-45.3,36.51-92.63,45.51-141.47,7.31-39.65,11.03-80.44,10.92-120.75-.09-33.53-2.22-69.51-15.53-100.75-5.01-11.77-11.93-22.7-22.06-30.69-3-2.37-7.27,1.85-4.24,4.24h0Z"/><path class="cls-24" d="M524.95,236.26c23.97,22.09,27.27,62.09,28.86,92.52,2.21,42.16-1.35,84.72-7.4,126.43-14.34,99.01-54.66,191.52-102.02,278.85-20.4,37.62-40.3,81.29-22.76,124,8.26,20.12,23.58,36.14,38.39,51.61,17.85,18.64,35.46,37.51,52.28,57.09,31.9,37.13,62.96,74.55,98.03,108.78s61.12,67.29,69.23,114.73c8.61,50.38-6.18,102.51-21.8,150.11-14.75,44.92-33.82,88.22-49.63,132.75-14.11,39.76-25.83,82.86-20.06,125.39,5.89,43.39,31.9,74.84,66.78,99.39,8.8,6.19,18.84,11.28,27.11,18.16s12.43,16.33,15.02,26.2c5.49,20.98,4.1,43.57,3.38,65.03-1.14,33.69-7.35,79.95,15.27,108.52,5.37,6.79,12.37,11.85,17.55,18.9,6.81,9.26,12.06,19.65,16.6,30.18,10.26,23.8,16.63,49.11,21.09,74.58,3.65,20.82,8.84,43.75,4.32,64.79-3.37,15.66-11.61,29.8-16.63,44.95-6.39,19.31-9.7,39.54-4.62,59.53,4.45,17.5,13.52,33.9,24.66,47.98,12.58,15.89,27.96,29.2,42.74,42.96,16.52,15.38,30.41,32.22,44.69,49.64,24.11,29.43,50.1,57.11,77.74,83.24,15.59,14.74,33.13,28.94,45.25,46.85,5.06,7.48,8.72,15.57,11.14,24.26,1.04,3.71,6.83,2.14,5.79-1.6-4.87-17.46-14.98-31.63-27.44-44.54-18.9-19.59-39.65-37.34-58.67-56.85-14.49-14.86-28.39-30.29-41.74-46.17-14.82-17.62-28.41-36-45.04-52.02-30.17-29.05-66.11-56.68-74.45-100.36-4.37-22.86,3.03-46.3,11.82-67.25,5.96-14.21,11.76-28,12.36-43.63.78-20.21-3.84-41.78-7.63-61.52-4.44-23.08-10.69-45.94-20.03-67.55-7.65-17.69-17.14-32.26-30.83-45.66-14.69-14.38-17.47-36.88-18.48-56.39-1.16-22.53.5-45.1.96-67.63.38-19.05.55-39.31-5.73-57.56-6-17.46-17.63-25.16-32.41-34.91-19.74-13.03-39.39-27.58-53.27-47.04-28.15-39.48-26.08-89.77-14.85-134.74,23.35-93.49,75.96-178,86.43-275.17,4.33-40.13-3.52-81.62-24.63-116.25-12.09-19.83-28.27-36.47-44.77-52.64-17.1-16.75-33.78-33.74-49.66-51.66-34.12-38.53-66.46-78.37-102.12-115.54-18.3-19.08-37.44-38.95-43.09-65.72-5.4-25.57,1.51-51.34,11.95-74.68,9.67-21.6,22.17-41.77,32.8-62.88,10.98-21.8,21.52-43.86,31.19-66.28,19.83-45.97,36.5-93.54,46.88-142.58,8.73-41.22,13.43-83.79,14.65-125.89,1.02-35.05.47-72.93-11.81-106.26-4.23-11.47-10.1-22.35-19.17-30.71-2.84-2.61-7.09,1.62-4.24,4.24h0Z"/><path class="cls-22" d="M505.84,239.7c22.24,24.38,22.92,66.07,23.32,97.02.55,42.26-3.89,84.65-10.53,126.33-15.81,99.22-56.1,190.58-97.44,281.27-17.41,38.21-29.38,81.3-8.09,120.66,10.94,20.22,28.16,36.31,43.64,52.97,17.79,19.14,34.78,38.94,50.82,59.56,29.6,38.05,59.49,75.23,90.91,111.79,31.01,36.09,49.26,77.51,49.74,125.57.51,50.04-15.73,101.15-30.6,148.47-13.62,43.33-29.95,85.98-40.9,130.11-10.11,40.72-15.4,85.27.12,125.38,7.39,19.08,19.01,35.78,33.91,49.76,16.32,15.32,35.54,25.73,53.42,38.88,18.17,13.36,21.52,38.03,22.87,58.98,1.4,21.67.49,43.41,1.28,65.1.67,18.51,2,37.89,8.71,55.34,6.22,16.2,19.18,25.02,28.55,38.98,26.25,39.11,34.05,90.59,38.06,136.52,3.28,37.54-20.47,67.37-23.86,103.95-3.78,40.77,25.71,75.51,53.31,101.66,15.67,14.85,32.15,28.99,45.88,45.74,14.92,18.2,28.19,37.76,43.06,56.03,20.14,24.75,41.67,48.2,64.34,70.65,12.46,12.34,26.46,24.38,35.91,39.33,3.89,6.15,6.64,12.73,8.46,19.77.96,3.74,6.75,2.15,5.79-1.6-3.7-14.33-11.6-26.16-21.45-37.02-15.15-16.69-32-31.82-47.49-48.2-28.95-30.62-54.11-63.88-79.69-97.29-26.02-33.99-64.6-57.12-86.91-94.08-13.3-22.03-18.34-44.28-12.69-69.69,3.75-16.86,11.42-32.01,16.92-48.25,5.89-17.39,5.22-34.38,3.24-52.41-2.53-22.97-6.03-45.91-12.21-68.21-5.76-20.76-13.43-41.92-25.48-59.94-10.21-15.27-24.19-24.79-29.87-43.13-12.68-40.92-3.68-85.3-9.15-127.21-2.1-16.1-6.41-33.09-18.19-44.98-6.12-6.18-14.11-10.22-21.34-14.94-11.48-7.49-22.76-15.38-33.06-24.47-37.01-32.66-49.66-78.32-45.03-126.42,4.44-46.15,20.85-90.71,35.46-134.39,15.63-46.74,30.62-93.83,39.63-142.38,7.7-41.47,6.79-83.75-9.62-123.11-17.9-42.95-54.23-74.58-82.68-110.39-30.64-38.57-59.52-78.27-92.96-114.54-16.85-18.28-36.38-35.76-47.45-58.41-12-24.55-10.86-52.36-3.07-77.96,7.25-23.86,19.28-45.81,29.61-68.39,9.51-20.78,18.44-41.89,27.04-63.07,18.78-46.26,35.11-93.72,46.24-142.44,9.77-42.77,15.48-86.84,17.92-130.63,2-35.76,2.74-73.95-7.51-108.66-3.43-11.62-8.41-22.85-16.64-31.88-2.61-2.86-6.84,1.39-4.24,4.24h0Z"/><path class="cls-30" d="M486.27,242.54c19.49,26.06,18.5,66.38,18.02,97.24-.66,42.87-5.86,85.73-13.03,127.96-16.8,98.94-55.94,190.24-90.61,283.67-15.81,42.61-19.45,87.31,8.79,125.64,13.84,18.78,31.06,34.93,46.35,52.5,17.36,19.95,33.1,41.03,48.18,62.73,13.19,18.97,25.95,38.23,39.27,57.11,13.57,19.23,28.93,37.26,41.63,57.1,24.81,38.75,33.05,84.99,28.19,130.41-10.15,94.83-52.23,183.35-63.96,277.8-5.15,41.47-1.41,84.77,22.2,120.4,11.29,17.04,26.59,30.73,43.01,42.71s39.58,21.14,49.37,41.01c9.55,19.4,10.31,42.52,11.42,63.69,1.06,20.31,1.54,40.73,4.53,60.88,2.56,17.18,6.93,35.25,17.89,49.18,5.48,6.96,12.22,12.51,17.3,19.87,6.65,9.65,11.72,20.47,15.96,31.36,9.33,23.96,14.55,49.31,17.59,74.78,2.48,20.71,5.75,42.72.42,63.22-4.2,16.17-12.2,31.06-16.51,47.23-5.23,19.64-6.69,39.22.91,58.44,15.19,38.4,48.97,63.65,77.39,91.77,31.43,31.11,53.56,70.87,81.07,105.42,17.05,21.42,35.2,41.84,54.26,61.48,10.09,10.4,21.5,20.59,29,33.13,3.01,5.03,5.07,10.38,6.39,16.09.87,3.76,6.66,2.17,5.79-1.6-6.86-29.59-36.71-50.92-56.16-72.2-24.59-26.9-47.07-55.66-68.23-85.32-13.03-18.26-24.86-37.22-40.34-53.57-14.7-15.53-31.16-29.24-46.22-44.41-15.4-15.51-29.96-33.23-37.77-53.91-8.54-22.59-3.65-46.41,4.37-68.42,5.33-14.65,12.09-28.62,14.09-44.25,2.58-20.17-.82-41.8-3.57-61.81-5.8-42.22-17.51-85.25-47.36-116.78-14.42-15.23-18.87-37.12-21.28-57.29-2.55-21.27-2.71-42.72-4.15-64.07-1.21-17.93-2.97-36.67-10.37-53.28-8.05-18.08-22.79-25.67-38.66-36.11-20.26-13.33-40.01-28.48-53.87-48.68-13.91-20.26-21.55-43.95-23.81-68.32-4.14-44.71,7.37-89.99,18.85-132.85,12.28-45.86,25.82-91.38,36.02-137.78,9.99-45.41,16.97-90.84,5.21-136.66-11.2-43.63-40.06-75.73-65.43-111.69-27.19-38.54-52.25-78.59-82.84-114.61-16.56-19.5-35.76-37.13-50.96-57.73-15.73-21.32-22.81-46.23-20.42-72.67,2.22-24.61,11.76-47.9,21.03-70.55s17.82-45.44,26.34-68.3c17.5-46.93,33.46-94.55,45.2-143.28,10.47-43.46,17.16-87.99,21.01-132.52,3.19-36.93,5.27-75.63-2.27-112.19-2.54-12.33-6.44-24.81-14.06-35-2.29-3.06-7.5-.07-5.18,3.03h0Z"/><path class="cls-9" d="M467.17,245.99c16.73,28.3,13.66,68.84,12.09,100.28-2.23,44.59-8.4,89.14-16.66,132.99-9.39,49.86-23.38,98.74-38.68,147.07-14.18,44.81-31.25,89.16-43.46,134.53-5.62,20.87-8.61,42.55-5.17,64.07,3.6,22.59,14.14,41.77,28.6,59.22,15.72,18.97,33.24,36.32,48.62,55.61,16.55,20.77,30.85,43.09,44.55,65.81,11.51,19.1,22.36,38.6,34.08,57.58,13.38,21.67,28.17,42.66,37.09,66.7,16.56,44.66,14.27,91.92,5.4,137.92-9.25,47.96-20.76,95.43-31.03,143.17-8.83,41.04-17.69,83.71-16.4,125.9,1.24,40.7,14.35,80.3,43.21,109.83,15,15.34,32.98,27.55,51.1,38.87,9.78,6.11,18.87,11.49,25.32,21.37,5.59,8.57,8.82,18.49,11.12,28.39,9.52,41.07,4.48,85.35,20.18,125.09,6.73,17.02,19.62,27.02,29.21,41.99,13.17,20.55,20.65,44.8,25.45,68.57,4.68,23.18,6.98,47.39,7.36,71.05.3,18.92-5.53,35.29-12.12,52.68-6.89,18.17-12.98,38.48-10.88,58.12,2,18.6,11.85,35.27,22.98,49.89,25.67,33.71,62.65,56.86,87.35,91.42,24.14,33.77,45.3,69.35,70.79,102.23,14.66,18.9,30.21,37.02,46.59,54.44,8.12,8.64,17.46,17.13,23.37,27.54,2.3,4.05,3.78,8.33,4.68,12.89.75,3.78,6.54,2.18,5.79-1.6-4.88-24.55-29.95-42.89-45.64-60.58-20.93-23.6-40.07-48.72-58.17-74.54-13.91-19.84-26.55-40.5-40.2-60.5-11.35-16.64-25.62-30.91-40.29-44.6-30.02-27.99-74.09-62.43-71.55-108.15,1.13-20.34,8.97-38.86,15.84-57.69,6.24-17.09,7.99-33.55,7-51.67-2.4-44.15-8.17-91.07-31.42-129.69-10.23-17-25.23-28.49-32.01-47.78-7.15-20.37-9.16-42.3-11.18-63.65-3.15-33.2-2.81-78.39-31.89-100.99-18.78-14.6-40.17-24.73-57.94-40.98-18.18-16.63-31.85-37.38-39.57-60.81-13.97-42.41-8.47-88.05-.86-131.11,7.91-44.8,18.72-88.98,28.42-133.41,10.54-48.28,22.88-97.46,16.98-147.2-2.26-19.06-6.77-37.86-14.19-55.58-9.03-21.55-22.47-40.75-34.69-60.54-24.71-39.97-46.33-81.84-75.23-119.09-31.23-40.26-78.22-74.07-81.16-128.95-1.33-24.85,5.55-49.04,13.29-72.38,7.4-22.33,14.62-44.72,21.99-67.06,15.64-47.45,30.84-95.1,42.7-143.65,10.84-44.37,18.4-89.56,23.41-134.95,4.17-37.75,7.48-76.92,2.16-114.72-1.77-12.57-4.61-25.32-11.13-36.36-1.96-3.32-7.15-.31-5.18,3.03h0Z"/><path class="cls-1" d="M448.06,249.44c6.21,14.05,7.31,30.17,7.86,45.32.72,19.96-.38,39.99-2.08,59.87-3.87,45.1-10.87,90.11-19.81,134.48-10.19,50.58-24.09,100.3-38.2,149.9-6.27,22.06-12.66,44.08-18.25,66.32-5.78,23.01-13.11,45.73-16.43,69.28-3.22,22.85-2.05,46.2,6.01,67.99,7.64,20.66,21.59,37.38,36.17,53.53,17.38,19.25,34.39,38.67,48.91,60.23,13.36,19.83,24.71,41.05,35.4,62.42,10.23,20.44,19.91,41.14,30.26,61.53s20.01,41.94,24.75,65.02c9.97,48.52,1.65,95.75-7.6,143.62-8.89,46-18.07,92.02-24.45,138.45-5.52,40.17-9.99,82.24-3.2,122.52,7.27,43.08,29.54,79.48,64.08,106.1,8.34,6.43,17.08,12.33,25.97,17.97,10.28,6.52,21.71,11.9,29.71,21.34,13.54,15.98,17.75,38.24,21.03,58.32,6.19,37.95,6.57,83.46,30.97,115.33,5.44,7.1,11.99,13.01,16.88,20.6,6.97,10.81,12.1,22.76,16.2,34.92,8.3,24.59,12.01,50.3,13.48,76.14,1.19,20.79,2.16,41.35-4.15,61.46-5.5,17.53-13.11,34-16.09,52.29-3.21,19.71-.74,37.68,9.37,55.04s22.91,30.88,36.63,44.08c14.99,14.43,30.99,27.81,45.48,42.77,17.15,17.7,29.13,37.93,41.96,58.78,19.79,32.16,40.52,63.83,63.43,93.88,12,15.74,24.69,30.91,38.09,45.48,6.49,7.06,14.3,14.05,18.83,22.63,1.66,3.16,2.66,6.48,3.21,10.01.59,3.8,6.37,2.19,5.79-1.6-3.1-20.09-24.43-35.76-36.89-50.16-18-20.8-34.4-42.93-49.95-65.61-11.81-17.22-23.14-34.78-34.15-52.53-11.95-19.27-22.71-39.13-37.79-56.2-28-31.7-65.24-55.43-87.8-91.85-13.68-22.08-13.64-45.09-6.76-69.56,4.7-16.71,12.73-32.39,15.92-49.54,3.73-20.02,1.74-41.4.05-61.56-1.98-23.52-6.14-46.91-14.1-69.19-6.51-18.2-15.36-34.26-28.29-48.61-14.68-16.29-20.93-37.41-25.17-58.51-7.58-37.69-5.19-84.6-28.72-116.99-11.66-16.05-31.24-24-47.21-34.99-20.67-14.22-39.26-30.85-52.51-52.37-24.45-39.71-26.94-86.91-23.37-132.22,3.5-44.51,11.05-88.45,19.24-132.3,9.11-48.76,22.8-98.21,22.77-148.09-.02-42.53-11.3-80.24-30.44-117.92-21.14-41.63-39.49-85.09-65.66-123.95-13.33-19.78-28.63-38.07-44.65-55.72-17.66-19.46-34.98-38.89-42.48-64.69-14.14-48.67,6-101.7,18.97-148.63,13.21-47.81,27.51-95.31,39.3-143.5,11.17-45.65,19.68-91.89,25.93-138.46,5.29-39.44,10.1-80.19,6.69-120.01-1.05-12.26-2.94-24.58-7.95-35.9-1.56-3.52-6.73-.47-5.18,3.03h0Z"/><path class="cls-12" d="M428.66,252.17c9.72,32.4,3.94,70.86.25,103.76-5.22,46.55-13.16,92.96-22.66,138.83-10.37,50.1-23.5,99.55-35.74,149.21-5.4,21.92-10.49,43.85-14.69,66.03-4.26,22.48-9.61,44.86-10.97,67.77-1.35,22.74,1.75,45.7,10.8,66.73,9.03,21,24.34,37.86,39.44,54.67,35.2,39.18,60.67,81.97,79.88,130.94,16.36,41.7,35.18,83.65,38.79,128.77,4.11,51.31-8.12,100.56-16.68,150.74-7.49,43.92-14.35,88.63-15.68,133.24-1.21,40.87-2.05,82.44,11.33,121.66,14.18,41.58,42.78,72.23,78.96,96.07,19.79,13.04,39.93,21.85,50.9,44.09,9.19,18.64,12.64,39.83,16.52,60.04,4.02,20.94,7.78,42.16,15.15,62.25,3.01,8.2,6.59,16.24,11.24,23.65,5.1,8.12,12.12,14.47,17.66,22.22,28.53,39.9,31.75,94.02,31.22,141.33-.44,38.98-27.61,73.85-21.77,113.31,5.64,38.14,42.71,66.57,69.47,90.63,16.57,14.89,33.14,30.15,46.21,48.32,13.7,19.04,24.04,40.71,36.04,60.85,17.84,29.92,36.48,59.46,57.15,87.53,10.56,14.34,21.71,28.22,33.67,41.41,5.27,5.81,12.11,11.62,15.7,18.72,1.15,2.26,1.87,4.61,2.1,7.14.35,3.81,6.35,3.85,6,0-1.51-16.54-19.32-29.46-29.29-41.16-44-51.61-74.63-111.57-110.31-168.76-22.44-35.98-58.05-60.12-87.12-90.14-14.3-14.77-29.15-31.99-33.26-52.75-4.41-22.33,3.99-45.51,11.49-66.25,14.27-39.48,12.36-84.24,4.41-125.06-4.05-20.78-10.57-41.74-21.34-60.08-4.36-7.42-9.63-13.53-15.23-20-7.87-9.1-13.44-19.76-17.71-30.96-14.64-38.49-14.11-81.33-30.13-119.28-6.95-16.45-17.29-28.66-32.55-37.83-21.17-12.72-42.36-25.93-60.01-43.4-34.19-33.84-48.25-79.96-50.74-126.98-2.23-42.17,1.14-84.75,6.43-126.57,11.66-92.14,45.11-186.21,12.47-277.65-15.58-43.66-31.6-88.47-54.11-129.11-11.7-21.13-26.12-40.63-41.83-58.94-16.18-18.86-34.85-36.37-46.13-58.84-24.2-48.2-9.56-101.95.45-151.82,9.58-47.71,23.09-94.65,34.45-141.95s20.97-95.39,28.51-143.67c6.27-40.09,12.12-80.97,11.65-121.65-.15-12.94-.89-26.23-4.63-38.69-1.11-3.69-6.9-2.12-5.79,1.6h0Z"/><path class="cls-18" d="M409.55,255.61c5.73,34.93-1.36,73.3-6.4,107.86-6.79,46.58-15.43,92.97-25.16,139.01-10.47,49.53-22.76,98.66-32.89,148.25-4.39,21.47-7.95,42.95-10.7,64.68-3.03,23.98-6.72,48.07-5.19,72.31,1.38,21.83,6.92,43.55,17.28,62.88,11.65,21.74,29.64,39.03,45.45,57.65,33.01,38.86,53.92,83.18,67.66,132.05,12.37,43.97,23.97,87.03,22.91,133.07-1.16,50.51-14.57,99.29-21.28,149.14-5.96,44.25-8.4,88.51-6.41,133.11,1.85,41.3,7.04,83.18,26.29,120.39,21.31,41.18,57.02,67.74,96.14,90.77,41.05,24.17,45.28,73.8,56.69,115.85,5.08,18.72,11.07,37.74,21.24,54.4,4.87,7.98,11.3,14.38,16.86,21.82,7.22,9.66,12.54,20.79,16.73,32.05,8.99,24.19,12.7,49.86,13.46,75.56.66,22.54,1.05,45.74-5.34,67.56-10.82,36.95-28.1,73.48-4.27,109.46,22.3,33.68,57.95,56.47,85.92,84.95,32.42,33.02,50.27,77.18,73.35,116.73,15.54,26.64,31.78,52.97,49.86,77.98,8.86,12.26,18.21,24.17,28.38,35.38,4.04,4.45,9.83,9.03,12.42,14.59.66,1.43.98,2.96.97,4.8-.02,3.86,5.98,3.87,6,0,.05-13-16.08-24.38-23.58-33.29-38.14-45.34-67.54-98.49-95.76-150.27-10.95-20.1-20.93-40.22-35.91-57.71-13.26-15.49-28.65-28.94-43.94-42.37s-31.95-27.93-45.41-44.29c-17.23-20.94-21.83-43.2-16.24-69.66,3.87-18.33,12.21-35.3,16.32-53.55,4.82-21.43,4.03-44.63,3.01-66.43-1.1-23.55-4.85-47.05-12.83-69.3-6.53-18.2-16.16-32.41-28.09-47.31-27.59-34.46-30.27-83.13-43.41-123.76-5.66-17.51-13.55-35.15-27.58-47.59-16.11-14.28-37.36-23.08-54.74-35.91-40.21-29.69-64.81-71.83-74.24-120.64-8.1-41.92-8.58-86.19-6.17-128.7,2.91-51.29,13.07-100.85,21.47-151.36,7.01-42.18,9.47-86.3.78-128.42-9.18-44.55-21.69-90.77-40.68-132.18-9.67-21.08-21.94-40.56-36.24-58.8-16.47-21.02-36.83-39.38-50.84-62.24-27.76-45.29-20.37-96.22-14.13-146.07,6.07-48.53,18.29-96.29,29.15-143.9,11.09-48.62,21.31-97.38,29.95-146.49,7.21-41,14.18-82.49,16.25-124.12.65-13.17.83-26.48-1.31-39.53-.62-3.8-6.41-2.19-5.79,1.6h0Z"/><path class="cls-8" d="M390.34,258.26c1.25,36.66-6.46,74.12-12.76,110.04-8.2,46.77-17.57,93.36-27.41,139.81-10.52,49.64-22.07,99.16-29.99,149.31-6.78,42.93-12.19,89.66-5.97,132.93,3.34,23.22,11.13,46.14,23.82,65.95,12.9,20.14,30.44,36.78,45.37,55.34,31.96,39.72,49.62,85.68,58.22,135.63,7.94,46.12,12.63,90.84,7.94,137.56-5.06,50.43-18.8,99.37-23.21,149.92-3.78,43.4-2.27,86.29,3.6,129.41,5.66,41.54,16.09,82.79,39.92,117.9,12.57,18.53,28.12,34.59,45.95,48.11,9.51,7.22,19.5,13.78,29.67,20.03,10.58,6.5,22.38,11.89,31.75,20.12,16.25,14.28,24.65,35.08,31.35,55.12,7.15,21.38,12.76,43.27,20.67,64.4,6.96,18.61,15.7,35.87,28.45,51.18,15.15,18.2,23.51,40.77,28.35,63.75,5.43,25.81,5.26,52.13,4.02,78.34-1,21.16-6.32,39.69-13.01,59.59-5.94,17.66-11.09,37.34-8.6,56.11,2.51,18.96,13.73,34.57,26.58,48.11,30.11,31.73,68.28,55.47,94.6,90.86,14.1,18.95,23.37,41.22,34.25,62.08,9.98,19.12,20.2,38.12,30.84,56.88,13.72,24.2,28.02,48.16,44.02,70.93,7.82,11.14,16.08,22.03,25.28,32.07,3.11,3.39,8.21,7.45,9.91,11.01.18.38.36,1.59.25,2.22-.63,3.78,5.15,5.4,5.79,1.6,1.69-10.13-12.33-19.5-17.97-26.2-33.66-39.91-58.94-87.59-83.37-133.4-11.64-21.81-21.76-44.74-34.34-66-10.53-17.81-24.59-33.22-39.64-47.3-15.72-14.7-32.6-28.09-48.49-42.59-15.87-14.48-33.42-30.69-39.81-51.88-6.64-22.03.71-46.1,7.91-67.07,6.28-18.3,10.77-35.86,11.72-55.25,2.19-44.91.56-92.82-22.93-132.67-4.81-8.16-11.12-14.76-16.72-22.32-6.66-9.01-11.9-19.05-16.35-29.31-9.39-21.6-15.41-44.48-22.44-66.9-5.92-18.88-12.42-38.27-24.19-54.42-12.46-17.1-30.74-25.41-48.25-36.35-43.51-27.18-76.97-63.12-94.09-112.08-13.94-39.85-19.22-84.03-20.64-126.07-1.68-49.84,3.61-99.61,13.76-148.38,9.2-44.24,16.11-90.11,13.48-135.43-1.34-23.05-5.42-45.95-9.11-68.71-3.6-22.18-8.42-44.12-15.9-65.34-7.97-22.58-18.73-43.68-32.59-63.22-13.89-19.57-30.73-36.55-45.72-55.22-34.04-42.4-38.06-92.51-34.93-144.74,2.97-49.42,11.9-97.58,22.07-145.97,19.1-90.84,41.02-181.89,52.07-274.17,1.8-15,3.37-30.19,2.85-45.32-.13-3.85-6.13-3.87-6,0h0Z"/><path class="cls-15" d="M371.24,261.71c-3.39,37.45-11.82,74.65-19.35,111.43-9.75,47.6-19.98,95.11-29.97,142.67-10.36,49.31-20.87,98.83-26.23,148.98-4.68,43.8-5.8,91.95,5.47,134.87,5.98,22.75,15.99,44.61,30.13,63.46,15.35,20.46,33.86,38.28,48.6,59.25,29.51,41.97,40.16,89.93,42.77,140.42,2.43,46.87-.34,92.17-8.21,138.44-8.56,50.33-21.15,99.06-22,150.43-.7,42.25,5.17,83.62,15.19,124.59,10.09,41.27,26.61,80.61,54.64,113.02,15.51,17.94,33.89,32.62,53.74,45.47s44.54,22.93,59.55,43.36c26.35,35.87,33.17,83.09,53.66,122.2,9.73,18.56,24.93,33.31,33.81,52.27,11.02,23.54,15.79,49.85,16.41,75.7.58,23.94-.04,49.81-5.95,73.09-4.92,19.39-13.27,37.67-16.19,57.59-2.86,19.49-.94,37.74,9.92,54.53,10.47,16.17,25.78,29.01,40.31,41.39,32.6,27.77,68.42,54.02,88.25,93.12,31.56,62.22,59.96,126.51,99.64,184.23,6.74,9.8,13.82,19.51,21.97,28.19,2.26,2.41,6.95,6.57,7.97,8-.22-.31.09-1.04-.27-.32-1.75,3.43,3.42,6.47,5.18,3.03,3.67-7.19-9.1-15.29-13-19.85-29.93-34.93-51.61-77.98-72.74-118.45-10.67-20.43-20.96-41.05-31.02-61.79-10.06-20.74-19.44-40.85-34.36-58.64-27.43-32.69-64.24-55.33-93.68-85.91-17.37-18.05-25.71-38.01-22.72-63.19,2.49-20.96,11.4-40.04,16.55-60.33,5.44-21.42,6.16-44.54,6.24-66.55.09-23.68-2.87-47.49-10.51-69.98-3.18-9.36-7.13-18.52-12.15-27.04s-12.06-15.98-17.81-24.29c-13.78-19.92-22.47-42.94-30.79-65.52-14.27-38.76-26.54-79.66-64.39-101.51-44.76-25.83-84.5-54.98-109.77-101.28-20.61-37.76-31.1-81.98-37.26-124.32-7.09-48.72-5.6-98.71,3.07-147.12,8.26-46.06,18.97-91.26,22.86-138.04,2.01-24.16,1.22-48.37,0-72.55-1.11-21.86-2.98-43.61-7.93-64.98-5.38-23.19-13.92-45.53-26.25-65.92-12.58-20.81-28.56-38.75-44.4-57.07-18.06-20.89-32.22-43.09-40.61-69.6-7.52-23.76-9.69-48.51-10.2-73.3-1.03-49.69,5.13-97.91,14.26-146.7,17.62-94.06,40.92-187.03,57.32-281.33,2.55-14.64,4.94-29.34,6.28-44.14.35-3.84-5.65-3.82-6,0h0Z"/><path class="cls-2" d="M352.24,264.36c-18.06,85.97-40.41,170.98-58.1,257.05-9.91,48.24-19.22,97.05-22.1,146.3-2.64,45.2.86,94.6,16.38,137.45,7.68,21.23,18.4,41.33,32.4,59.06,16.41,20.79,35.26,39.39,49.64,61.79,27.96,43.55,33.44,92.76,30.51,143.34s-12.09,96.87-22.44,144.77c-10.69,49.49-21.11,97.32-18.26,148.34,2.32,41.61,12.27,82.07,26.21,121.25,14.92,41.91,37.33,80.5,69.91,111.16,17.19,16.18,36.94,29.29,57.22,41.26,21.47,12.67,40.48,23.26,54.44,44.73,24.84,38.22,35.26,84.02,60.44,122.17,5.72,8.67,12.81,16.35,18.21,25.21,6.35,10.42,10.94,21.8,14.33,33.5,7.41,25.6,8.34,52.05,6.44,78.48-1.69,23.55-5.26,45.71-12.64,68.15-6.43,19.53-12.69,40.16-10.67,61,3.88,40.19,45.5,65.63,73.91,88.74,16.33,13.29,32.48,27,46.34,42.91,16.53,18.98,26.2,40.48,36.62,63.13,26.82,58.3,54.1,118.07,90.01,171.51,5.88,8.75,12.05,17.65,19.47,25.2,1.52,1.54,6.48,5.97,6.68,5.79-.06.05-1.12-4.45.41-4.27-.19-.02-.7.38-.86.47-3.33,1.95-.31,7.14,3.03,5.18,6.86-4.02-4.41-10.66-7.34-13.91-26.63-29.5-44.92-68.29-62.86-103.24-9.3-18.12-18.26-36.41-27.01-54.79-10.85-22.77-20.09-46.76-32.28-68.83-20.54-37.19-55.21-62.85-87.48-89.17-16.55-13.5-35.04-27.45-45.49-46.51-12.43-22.67-7.04-49.2.36-72.62,6.32-20,12.05-39.07,14.14-60.04,2.37-23.74,3.95-47.62.72-71.36-3.01-22.16-9.45-44.64-21.47-63.69-5.27-8.34-11.97-15.63-17.4-23.87-6.69-10.15-12.4-20.93-17.67-31.87-18.55-38.52-30.45-86.83-64.34-115.43-17.38-14.66-39.56-23.72-58.43-36.42-21.1-14.2-40.01-31.06-55.97-50.89-29.41-36.54-44.87-79.95-57.79-124.43-12.93-44.51-16.48-91.65-11.86-137.72,5.11-51.09,20.42-101.16,29.6-151.65,8.26-45.42,14.42-93.92,9.23-140.04-5.46-48.61-27.17-88.61-58.84-125.12-17.82-20.54-34.64-40.59-46.2-65.44-10.81-23.26-16.96-48.18-20.09-73.57-6.1-49.49-3.33-97.78,4.33-146.94,15.06-96.76,39.64-192.01,61.79-287.31,3.65-15.71,7.29-31.44,10.61-47.22.79-3.77-4.99-5.38-5.79-1.6h0Z"/><path class="cls-27" d="M333.14,267.81c-28.78,88.6-51.75,180.12-69.15,271.61-18.19,95.7-27.39,199.02,20.92,287.97,25.41,46.77,70.92,79.38,88.86,130.65,17.94,51.27,7.94,105.98-3.76,157.43-11.24,49.43-26.54,97.92-36.8,147.58-9.63,46.61-8.95,95.03,2.13,141.32,9.91,41.41,27.36,83.49,49.78,119.7,25.63,41.41,60.83,73.93,102.36,99.01,21.45,12.95,44,22.83,60.42,42.46,15.17,18.14,25.57,40.02,36.06,61.04,10.96,21.95,21.66,44.2,35.32,64.64,6.1,9.12,13.43,17.37,18.88,26.91,6.05,10.6,10.39,22.1,13.47,33.89,13.36,50.98,2.49,104.11-12.51,153.25-5.97,19.54-10.7,41.92-4.83,62.05,5.54,18.98,19.59,33.37,34.34,45.74,33.83,28.37,72.65,52.57,98.66,89.04,14.48,20.3,22.85,44.17,32.87,66.82,9.38,21.21,18.98,42.32,28.92,63.27,19.49,41.07,39.07,85.34,67.54,121.26,2.77,3.5,6.89,9.73,11.4,11.35,3.57,1.28,7.82-1.21,4.58-4.99-.9-1.05-2.51-1.36-3.8-1.5-3.83-.41-3.81,5.59,0,6,.45.05-.93.01-.68-.59-.08.21,1.96-5.14,1.7-4.11,0,0,.66-.14.65-.09,0-.01.36.06.37.02.09-.5-.08.75-.76-.51-2.06-3.79-9.11-9.54-12.29-13.92-28.89-39.62-49.65-86.05-70.24-130.25-9.82-21.09-19.33-42.31-28.65-63.63-8.89-20.35-17.06-40.29-30.77-57.99-25.55-33-60.9-56.04-92.74-82.33-16.53-13.65-33.04-29.53-36.82-51.65s4.33-46.03,11.19-67.52c13.91-43.52,19.28-94.9,8.09-139.55-4.89-19.53-13.28-36.78-25.39-52.8-14.26-18.86-25.29-39.82-35.88-60.89-18.41-36.64-35.52-79.09-72.23-101.24-21.15-12.76-43.03-23.86-62.99-38.56-20.85-15.34-39.53-33.91-55.2-54.51-26.45-34.77-44.94-76.05-58.34-117.46-13.97-43.18-18.54-89.24-13.32-134.32,5.71-49.29,21.54-98.03,34.01-145.96,11.76-45.22,23.93-93.57,20.78-140.67-3.24-48.41-25.28-87.67-56.52-123.66-17.76-20.46-34.19-40.66-46.48-64.97-11.14-22.04-18.69-45.54-23.58-69.71-9.63-47.6-9.4-94.42-3.29-142.45,12.36-97.16,37.77-193.39,64.86-287.37,4.65-16.13,9.44-32.23,14.63-48.2,1.2-3.68-4.6-5.26-5.79-1.6h0Z"/><path class="cls-3" d="M314.34,270.54c-16.96,38.98-29.53,79.99-41.31,120.77-14.61,50.57-27.36,101.8-36.57,153.65-8.86,49.91-15.77,102.26-9.14,152.87,6.22,47.54,22.49,94.15,47.94,134.77,27.59,44.03,71.47,76.53,85.82,128.41,14.86,53.73-2.33,108.28-19.36,159.28-16.15,48.36-34.06,96.7-43.81,146.89-9.23,47.51-5.65,96.83,9.71,142.69,13.55,40.47,34.77,80.5,60.15,114.76,30.29,40.88,69.02,71.88,113.03,96.9,22.63,12.86,43.25,24.31,59.74,45.04,15.54,19.54,27.48,41.87,39.77,63.5,12.72,22.37,25.87,44.15,41.04,64.96,14.78,20.29,22.21,45.29,24.52,70.08,2.57,27.64-1.22,56.43-6.67,83.54-4.49,22.33-14.19,43.29-17.83,65.81-3.36,20.75-1.83,41.1,10.26,58.82,11.28,16.54,27.98,28.32,43.77,40.22,35.91,27.08,74.49,54.13,95.73,95.07,12.35,23.81,21.16,49.9,31.76,74.57,8.45,19.65,17.09,39.22,26.04,58.64,17.5,37.98,34.91,79.8,61.23,112.84,2.24,2.81,6.37,8.98,10.48,9.4s5.45-3.23,3.6-6.51c-.7-1.25-2.08-2.31-3.32-2.96-3.42-1.79-6.45,3.38-3.03,5.18.71.37,1.45,1.25,1.45,1.25-1.75.41,2.91-3.53,2.84-2.76-.03.36-7.38-7.31-8.91-9.33-25.77-33.98-43.33-75.57-60.95-114.03-8.82-19.25-17.34-38.63-25.68-58.08-9.69-22.61-17.98-46.16-28.82-68.24-18.3-37.28-51.06-63.81-83.54-88.31-16.7-12.6-34.9-24.42-49.24-39.79-18.87-20.23-22.23-44.59-16.63-71.07,4.5-21.31,13.38-41.38,17.29-62.86,4.51-24.75,8.12-50.53,6.6-75.71-1.28-21.15-6.01-42.37-15.34-61.46-9.66-19.77-24.79-36.87-36.11-55.77-23-38.38-41.93-84.19-77.39-113.12-18.72-15.27-42.01-24.81-62.41-37.65-22.3-14.03-42.85-30.45-61.16-49.42-31.46-32.61-54.04-71.32-73.05-112.16-19.72-42.35-30.09-88.12-27.69-134.99,2.61-50.86,20.19-101.41,36.38-149.34,15.12-44.78,33.52-90.42,36.88-138.01,3.38-47.79-12.78-90.31-42.59-127.14-16.29-20.12-34.32-38.46-48.28-60.41s-24.81-44.41-32.83-68.58c-15.25-45.97-19.95-92.71-16.34-140.88,4.03-53.75,14.99-106.96,27.8-159.24,11.35-46.34,24.45-92.35,39.85-137.52,5.93-17.38,12.17-34.7,19.5-51.54,1.52-3.51-3.64-6.56-5.18-3.03h0Z"/><path class="cls-17" d="M295.23,273.98c-20.82,38.48-35.35,80.61-48.5,122.2-16.37,51.78-29.92,104.71-38.36,158.39-7.65,48.67-12.41,100.23-2.17,148.9,10.51,49.97,32.99,97.14,62.98,138.28,15.58,21.39,34.87,39.73,50.4,61.14s27.47,47.09,30.41,74.55c5.94,55.62-20.12,108.4-41.82,157.9-20.26,46.22-40.16,95.35-47,145.64-6.19,45.52,1.23,91.62,19.48,133.65,17.76,40.91,43.71,80.25,73.3,113.54,35.01,39.38,77.37,68.29,123.47,93.19,22.81,12.32,41.25,27.04,57.39,47.42,16.62,20.98,30.6,43.99,44.97,66.53,13.28,20.83,30.03,40.67,41.16,62.7,12.34,24.43,16.25,52.59,14.61,79.68-1.64,27.01-6.78,54.62-14.75,80.47-7.01,22.72-15.2,45.77-12.89,69.96,4.09,42.7,48.29,65.3,79.11,88.04,17.91,13.21,35.44,27.15,50.54,43.58,18.05,19.65,28.64,41.53,38.33,66.12,16.54,41.98,33.63,83.78,52.08,124.97,11.03,24.61,22.45,49.12,35.4,72.79,6.04,11.05,12.28,22.41,20.28,32.2,2.09,2.56,6.33,8.49,10.45,7.18s2.8-5.72,1.28-8.4c-.81-1.43-2-2.74-3.28-3.77-2.98-2.4-7.25,1.82-4.24,4.24,1.59,1.28,1.51,1.78,2.54,2.9s-.03.92.5.84c-.19.03,2.62-2.78,2.6-1.61,0-.23-.48.36-.98-.62s-3.7-3.85-4.96-5.43c-7.71-9.72-13.77-20.94-19.68-31.79-12.67-23.29-23.9-47.37-34.73-71.56-18.24-40.72-35.12-82.04-51.48-123.54-7.98-20.26-16.1-39.29-29.59-56.62s-28.33-30.52-44.64-43.42c-15.95-12.61-32.66-24.2-49.07-36.2-18.91-13.84-38.51-29.73-43.55-53.94s4-49.54,11.22-72.64c7.23-23.14,11.73-47.22,14.4-71.31,2.71-24.4,1.7-49.22-5.47-72.82-6.4-21.08-18.45-37.4-30.67-55.39-26.74-39.37-48.9-84.41-83.48-117.76-17.57-16.94-39.05-26.91-60.04-38.85-22.82-12.97-44.63-27.31-64.66-44.33-36.33-30.86-65.61-68.37-89.43-109.5-23.25-40.14-39.81-82.41-41.59-129.29-2-52.67,15.98-104.68,35.26-153,18.18-45.56,42.8-89.85,52.62-138.3,9.53-47.05-.07-92.23-28.21-131.04-15.18-20.93-33.99-38.87-49.33-59.67s-27.91-41.66-38.5-64.28c-21.48-45.91-31.56-94.53-30.09-145.13,1.56-53.85,11.8-107.35,24.85-159.49,11.89-47.49,26.33-94.54,44.2-140.13,7.24-18.45,15.09-36.71,24.53-54.16,1.84-3.4-3.34-6.43-5.18-3.03h0Z"/><path class="cls-6" d="M276.13,277.43c-25.1,39.04-42.26,83.49-57.07,127.28-17.6,52.04-31.43,105.71-38.6,160.23-6.63,50.47-8.28,103.68,7.92,152.59,15.76,47.58,41.81,90.8,73.15,129.72,17.89,22.22,38.87,41.96,53.65,66.57,14.68,24.44,21.76,51.66,19.97,80.19-3.47,55.36-36.02,103.89-60.76,151.8-23.12,44.76-44.54,94.46-48.74,145.16-3.84,46.33,8.48,92.46,31.33,132.63,23.06,40.55,53.36,78.46,87.39,110.29,18.04,16.87,37.51,32.38,58.08,46.07,22.85,15.21,47.29,27.3,71.17,40.71,46.45,26.09,76.75,75.2,106.2,117.91,14.84,21.51,31.54,41.88,39.16,67.28,8.65,28.82,7.06,58.48,1.64,87.72-4.8,25.92-12.84,50.35-19.75,75.69-5.53,20.3-8.77,43.15-.79,63.25,7.27,18.28,22.11,31.72,37.77,42.92,19.3,13.81,39.28,26.64,58.01,41.23,18.28,14.24,35.58,30.17,48.93,49.24,15.38,21.98,23.09,47.83,32.58,72.66,15.47,40.49,31.46,80.8,48.78,120.53,10,22.94,20.35,45.79,32.15,67.87,5.46,10.21,11.05,21.01,18.6,29.89,2.23,2.62,6.7,7.92,10.42,4.47,2.65-2.46.51-7.18-.89-9.68-1.01-1.81-2.32-3.49-3.78-4.95-2.73-2.74-6.97,1.5-4.24,4.24,1.55,1.55,4.09,6.85,4.11,6.85-.52-.22,2.58-1.73,2.62-1.25-.02-.25-3.2-2.97-4-3.92-7.29-8.67-12.68-19.32-17.97-29.25-11.48-21.55-21.6-43.82-31.36-66.19-17.04-39.02-32.75-78.62-47.96-118.39-8.53-22.3-15.42-45.89-27.76-66.46-10.57-17.62-24.49-32.97-39.84-46.54-16.03-14.17-33.55-26.55-51.13-38.72-18.44-12.76-39.22-24.69-52.26-43.47-15.14-21.8-12.87-48.3-6.21-72.74s14.27-47.19,18.99-71.71c9.06-47.07,7.73-94.35-20.62-134.77-28.24-40.27-54.47-83.56-89.3-118.63-16.8-16.92-35.76-28.43-56.64-39.61-23.43-12.55-46.52-25.75-68.02-41.44-39.64-28.92-74.08-64.15-102.62-104.03-26.61-37.19-48.72-76.81-55.39-122.7-8-54.99,9.38-109.18,31.79-158.83,20.26-44.87,48.28-86.24,64.96-132.72,16.32-45.5,15.78-93.56-9.45-135.65-12.83-21.41-30.31-39.25-46.49-58.07-17.81-20.7-33.84-43.28-47.76-66.78-25.98-43.83-42.33-91.53-44.08-142.64-1.88-54.97,7.66-110.17,21.05-163.3,12.48-49.52,28.57-98.55,49.48-145.18,8.39-18.72,17.64-37.1,28.74-54.36,2.09-3.26-3.1-6.27-5.18-3.03h0Z"/><path class="cls-16" d="M257.03,280.88c-28.85,38.92-48.68,84.61-65.06,129.95-18.65,51.64-32.6,105.41-38.57,160.06-5.63,51.55-3.96,104.62,16.23,153.02,20.42,48.96,52.84,92.61,87.88,132.09,18.43,20.76,37.88,40.9,50.19,66.12,12.91,26.44,15.67,55.84,9.58,84.52-11.66,54.96-49.09,99.93-76.81,147.39-25.47,43.62-48.09,93.54-49.53,144.81-1.28,45.27,14.43,89.31,39.65,126.49,27.73,40.86,62.43,77.79,100.66,108.94,20.04,16.33,41.2,31.36,63.35,44.69,23.78,14.31,49.45,25.49,72.93,40.2,47.34,29.65,82.62,78.85,114.27,123.78,15.19,21.56,27.31,42.56,31.33,69.07,4.56,30.12-1.66,59.84-8.63,89.07-10.38,43.52-37.91,94.27-6.45,135.43,12.97,16.97,31.62,27.9,49.16,39.49,19.84,13.11,39.68,26.43,57.56,42.17,17.56,15.46,33.09,33.33,43.73,54.29,12.39,24.39,19.81,51.89,29.31,77.53,14.45,39.01,29.4,77.85,45.65,116.15,9.24,21.79,18.8,43.52,29.8,64.48,4.81,9.17,9.75,19.48,16.85,27.19,2.53,2.74,7.2,6.57,9.79,1.66,1.65-3.12-.95-8.16-2.4-10.84-1.18-2.18-2.64-4.2-4.26-6.07-2.53-2.92-6.76,1.33-4.24,4.24,2.64,3.05,3.21,6.95,5.24,9.83-.27-.38-.04,1.05.05,1.1-.94-.52,1.99-1.87,1.98-1.83.2-.7.44.84.1-.23-.07-.21-1.54-1.51-2.03-2.09-6.51-7.7-11.26-17.11-15.91-25.98-10.65-20.3-19.95-41.32-28.92-62.41-15.9-37.37-30.51-75.29-44.65-113.35-16.31-43.9-27.89-89.15-61.09-123.8-14.08-14.7-30.19-27.31-46.77-39.05-18.85-13.34-39.53-24.68-57.46-39.24-19.53-15.87-31.06-35.82-30.26-61.46.84-26.96,12.52-52.05,19.12-77.83,12.17-47.6,20.44-98.09-3.68-143.52-11.71-22.06-28.43-42.47-43.59-62.22-15.29-19.91-31.41-39.27-49.2-57.01-17.33-17.27-36.32-31.71-58.02-43.03-24.17-12.6-48.34-25.3-71.2-40.2-42.46-27.67-81-61.07-113.94-99.61-30.2-35.32-57.03-73.8-67.35-119.85-12.16-54.2,3.36-107.74,27.28-156.46,40.49-82.48,132.32-170.75,84.19-269.43-11.29-23.15-28.59-42.3-45.68-61.27-18.68-20.73-36.28-42.5-52.32-65.34-30.2-43-52.6-90.47-57.08-143.33-4.66-54.97,3.95-110.81,17.55-163.99,12.9-50.47,30.49-100.28,53.99-146.82,9.57-18.95,20.22-37.37,32.87-54.43,2.3-3.1-2.9-6.1-5.18-3.03h0Z"/><path class="cls-13" d="M238.39,283.72c-31.84,38.08-54.43,83.53-72.35,129.57-20.04,51.47-34.46,105.84-39.37,160.95-4.62,51.81-.25,104.53,22.85,151.75,23.58,48.21,59.82,89.78,95.86,129.05,20.05,21.85,40.85,43.83,52.08,71.78,11.03,27.45,10.38,57.24,1.63,85.23-17.15,54.84-58.76,97.55-89.87,144.52-28.56,43.12-53.33,93.95-52.5,146.82.71,45.15,19.77,87.68,47.34,122.77,31.34,39.89,69.38,74.8,110.23,104.73,22.72,16.64,46.48,31.89,71.08,45.6,24.54,13.68,50.77,24.88,74.31,40.23,47.8,31.18,87.74,77.25,119.68,124.05,15.92,23.32,24.8,49.1,24.99,77.52s-8.29,59.7-16.91,87.87c-7.35,24.01-16.88,47.98-16.38,73.5.42,21.55,9.66,40.13,25.23,54.82s36.84,25.84,55.46,38c19.82,12.95,39.26,26.75,56.16,43.43s31.55,37.55,40.15,60.68c9.93,26.69,18.56,53.9,28.18,80.71,13.85,38.6,28.16,77.07,43.83,114.97,8.52,20.61,17.3,41.18,27.5,61.02,4.23,8.23,8.66,18.54,15.46,25.1,2.89,2.78,7.27,4.84,8.98-.32,1.24-3.77-1.87-9.55-3.53-12.69-1.32-2.5-2.9-4.8-4.64-7.02-2.38-3.03-6.6,1.24-4.24,4.24,2.99,3.81,4.8,7.79,6.23,12.11.72,2.16.04,1.8.44,1.84.69.06,2.51-2.04,2.53-1.01,0-.17-.92-.61-1.52-1.38-18.75-24.14-29.89-55.57-41.42-83.48-14.78-35.76-28.34-72.01-41.46-108.41-9.11-25.26-17.97-50.6-26.66-76.01-7.11-20.79-16.05-39.89-29.85-57.17-27.66-34.65-66.51-57.7-103.45-81.07-19.38-12.26-38.51-27.61-44.96-50.66-7.17-25.61,1.91-52.5,9.71-76.82,15.63-48.73,31.13-102.22,12-152.22-8.48-22.16-23.69-41.46-38.18-59.99-16.94-21.65-35.4-42.12-55.48-60.89-18.08-16.92-37.52-32.6-59.25-44.61-24.34-13.45-49.53-25.23-73.54-39.33-44.08-25.9-85.53-56.68-122.02-92.53-34.31-33.7-66.96-71.48-81.77-118.08-17.15-53.96-3.9-108.08,21.8-156.97,25.16-47.87,62.46-87.51,89.89-133.89,24.78-41.9,39.36-91.44,19.94-138.45-9.06-21.94-23.72-40.59-39.47-58.11-18.81-20.93-37.83-41.58-55.68-63.34-33.36-40.68-62.7-85.8-72.05-138.41-9.95-56.03-2.53-114.68,11.18-169.41,12.83-51.24,31.52-101.43,56.94-147.79,11.31-20.62,24.06-40.49,39.16-58.56,2.46-2.94-1.76-7.21-4.24-4.24h0Z"/><path class="cls-25" d="M219.29,287.16c-34.69,37.4-60.09,82.85-79.58,129.74-21.73,52.27-36.67,108.32-39.89,164.98-2.93,51.69,4.88,102.91,30.89,148.21,28.12,48.96,69.69,89.06,108.09,129.85,19.52,20.73,38.38,42.98,47.35,70.49,9.16,28.09,5.55,57.84-5.31,84.9-21.25,52.95-64.38,92.9-98.39,137.45-31.93,41.83-60.35,92.13-59.99,146.26.32,46.42,21.91,89.34,51.76,123.88,33.99,39.32,75.46,72.61,118.54,101.4,23.93,15.99,48.7,30.77,74.07,44.36,27.25,14.6,55.97,26.9,82.09,43.5,48.11,30.56,92.37,72.39,123.52,120.23,15.95,24.49,23.19,52.75,21.21,81.94-2.05,30.25-12.41,60.14-21.79,88.77-7.63,23.28-15.54,47.45-12.33,72.28,2.88,22.3,16.52,40.16,33.94,53.58,18.53,14.27,40.02,24.79,59.54,37.65s38.89,27.45,54.95,45.01c18.84,20.61,29.69,43.87,38.32,70.15,8.65,26.34,17.47,52.63,26.54,78.83,13.11,37.85,26.67,75.58,41.51,112.79,8.22,20.61,16.7,41.21,26.61,61.08,3.86,7.73,7.97,18.11,14.54,24.09,3.45,3.14,7.71,3.4,8.51-2.01.64-4.32-2.42-10.09-4.26-13.75-1.4-2.79-3.03-5.46-4.88-7.98-2.26-3.08-7.47-.09-5.18,3.03,3.24,4.43,6.03,9.38,7.56,14.59.56,1.9.9,3.81.82,3.77.51.26,2.24-1.24,2.22-1.35-.54-1.92-3.89-4.93-5.02-6.73-2.85-4.52-5.36-9.27-7.78-14.03-9.54-18.7-17.64-38.16-25.47-57.62-13.93-34.6-26.68-69.69-39-104.89-8.82-25.2-17.39-50.49-25.79-75.84-7.57-22.84-14.13-45.58-27.45-65.89-24.04-36.68-61.45-61.48-98.26-83.86-20.93-12.73-43.89-24.43-57.1-46.04-14.55-23.8-9.96-52.11-2.43-77.46,14.99-50.47,37.91-102.57,22.88-155.87-6.67-23.63-20.64-43.76-35.72-62.82-16.82-21.26-35.85-40.78-56.36-58.5-19.85-17.15-40.91-33.12-63.74-46.11-24.92-14.18-51.26-25.88-76.43-39.64-48.22-26.36-94.63-56.88-135.98-93.19-36.52-32.06-72.19-68.61-88.77-115.3-19.13-53.88-5.2-108.31,23.12-156.17,27.76-46.93,67.81-84.45,98.66-129.11,27.42-39.7,47.99-88.6,32.3-136.96-7.37-22.73-21.33-42.35-36.98-60.13-18.91-21.48-39.26-41.74-58.57-62.87-36.43-39.85-71.16-83.39-83.97-136.98-13.22-55.33-7.35-114.52,6.24-169.17,12.99-52.23,33.24-103.09,61.05-149.22,12.69-21.05,27.09-41.03,43.82-59.06,2.62-2.83-1.61-7.08-4.24-4.24h0Z"/><path class="cls-14" d="M200.18,290.61c-38.03,37.42-66.85,83.68-88.01,132.45-22.2,51.17-36.92,106.46-38.77,162.39-1.8,54.39,10.16,106.55,41.06,151.78,32.74,47.94,78.3,85.07,117.61,127.27,19.52,20.96,37.1,44.65,43.13,73.21,6.17,29.2-1.65,58.92-15.18,84.9-27.94,53.65-76.08,92.35-113.77,138.61-32.76,40.2-61.08,89.42-57.84,143.04,2.84,46.84,28.56,88.52,61.04,121.03,39.02,39.06,84.88,71.11,132.26,99.12,26.16,15.46,52.96,29.8,80.13,43.39,26.83,13.43,54.25,25.82,79.82,41.58,48.04,29.61,96.69,67.74,125.31,117.36,15.2,26.35,19.65,57.09,14.68,86.94-5.11,30.66-17.19,59.71-26.42,89.24-7.52,24.05-13.26,50.98-3.73,75.34,7.86,20.09,24.55,34.98,42.54,46.07,41.96,25.87,87.35,47.92,117.53,88.52,16.76,22.54,24.26,48.02,32.65,74.43,8.26,26.01,16.68,51.96,25.35,77.84,12.49,37.28,25.42,74.44,39.59,111.12,7.85,20.3,15.94,40.61,25.49,60.18,3.37,6.9,7.2,17.41,13.44,22.44,4.06,3.27,7.61,1.56,7.8-3.58s-2.96-11.19-5.13-15.59c-1.55-3.14-3.33-6.16-5.32-9.04-2.18-3.15-7.39-.16-5.18,3.03,3.56,5.14,6.64,10.82,8.49,16.81.45,1.45.86,5.06,1.17,5.38-.06-.06,2.87-1.23,2.88-.83-.03-.96-3.72-4.66-4.36-5.67-2.75-4.32-5.1-8.91-7.38-13.49-9.05-18.13-16.65-37-24.02-55.85-13.27-33.95-25.38-68.35-37.09-102.87-8.2-24.18-16.16-48.44-23.96-72.74-7.92-24.68-13.95-50.78-26.09-73.82-20.68-39.23-57.05-66.31-94.16-88.88-20.66-12.56-43.95-22.79-61.28-40-21.24-21.11-25.19-48.57-18.93-77.05,11.92-54.23,43.38-105.44,31.29-162.73-10.37-49.16-50.58-89.4-88.37-119.77-20.52-16.5-42.35-31.62-65.16-44.76-25.74-14.83-53.04-26.9-79.5-40.36-49.83-25.35-98.72-53.41-143.4-87.15-39.86-30.1-80-65.03-101.63-111.03-24.55-52.22-14.52-107.56,14.72-155.64,30.51-50.17,76.33-87.68,112.4-133.42,29.86-37.85,56.16-85.59,44.73-135.38-11.95-52.05-58.81-89.33-94.92-125.19-39.4-39.14-79.33-81.03-95.85-135.44-16.56-54.52-12.39-114.15.96-168.87,12.85-52.69,34.5-103.58,64.11-149.04,14.34-22.02,30.76-42.59,49.5-61.04,2.76-2.71-1.49-6.95-4.24-4.24h0Z"/><path class="cls-26" d="M181.08,294.06c-80.58,73.13-133.06,185.73-133.99,294.88-.48,55.82,15.23,107.79,49.62,152.03,36.55,47.01,85.82,81.63,125.95,125.24,21.02,22.84,38.77,50.13,40.59,81.97,1.69,29.45-9.96,57.67-25.56,82.05-33.15,51.8-83.62,88.57-124.01,134.13-34.66,39.1-64.54,88.02-59.16,142.33,4.75,47.96,34.75,88.9,69.89,120,43.15,38.19,92.65,68.46,143.39,95.4,55.07,29.23,113.21,52.86,167.12,84.19,49.07,28.51,102.71,64.45,127.35,117.72,29.04,62.78-9.2,120.97-23.91,181.49-5.84,24.04-6.47,49.75,7.08,71.41,11.91,19.03,30.65,31.14,49.94,41.65,43.07,23.48,88.33,49.38,115.38,91.81,15.88,24.92,22.31,54.01,30.89,81.94,7.9,25.71,15.95,51.38,24.25,76.97,12.02,37.06,24.46,74.01,38.16,110.49,7.4,19.71,15.03,39.45,24.12,58.46,2.9,6.07,6.55,16.78,12.43,20.86,12.79,8.87,2.6-19.54,1.15-22.52-1.69-3.48-3.61-6.84-5.75-10.06s-7.32-.2-5.18,3.03c3.9,5.88,7.23,12.28,9.41,19.01.57,1.76,1.23,5.36,1.55,6.07.54,1.2-.04,1.27.08,1.34-.83-.44,3.19-1.9,3.02-1.11-.05.22-2.64-3.18-3.41-4.37-2.51-3.88-4.59-8.06-6.63-12.19-8.78-17.81-16.01-36.4-23.06-54.95-12.67-33.35-24.2-67.14-35.33-101.02-8.02-24.41-15.81-48.91-23.43-73.45-7.91-25.47-14.05-52.24-24.29-76.87-17.74-42.7-53.25-72.74-91.73-96.49-41.54-25.63-99.22-45.03-96.66-103.8,1.34-30.75,15.4-60.31,25.19-89.02,8.91-26.16,16.21-53.14,13.23-81.02-5.46-51.14-42.72-91.61-81.82-121.71-46.4-35.71-99.31-60.53-151.79-85.75-52.14-25.07-104.11-51.19-152.45-83.12-43.74-28.9-88.99-62.98-114.63-109.87-12.47-22.81-19.41-48.38-18.02-74.47,1.56-29.44,13.62-57.27,29.6-81.67,31.84-48.61,78.75-83.91,117.57-126.4,33.86-37.06,68.06-84.89,61.32-137.92-6.97-54.87-55.01-93.52-93.24-128.4-42.28-38.57-87.2-78.74-107.65-133.8-39.21-105.53,1.66-232.34,64.4-320.24,15.59-21.84,33.39-41.97,53.26-60,2.87-2.6-1.39-6.83-4.24-4.24h0Z"/><path class="cls-23" d="M161.98,297.5C84.79,362.58,31,459.04,22.03,560.17c-3.87,43.69,1.28,88.88,19.97,128.89,23.9,51.14,68.46,87.94,110.77,123.47,42.68,35.84,99.02,78.66,96.75,140.65-2.3,62.82-57.39,113.76-101.28,152.33-43.13,37.91-91.93,76.43-116,130.16-22.75,50.78-11.79,104.18,21.74,147.2,34.61,44.41,85.59,76.05,134.23,102.94,54.39,30.06,111.61,54.5,167.84,80.81,52.95,24.77,109.68,50.02,153.67,89.37,20.01,17.9,37.53,39.51,46.64,65.05,10.02,28.1,7.9,57.08-.68,85.24-14.57,47.85-52.62,106.99-22.87,156.34,13.22,21.93,35.07,34.41,57.08,45.96,24.47,12.85,48.88,26.42,70.62,43.6,20.48,16.19,38.35,35.72,50.27,59.1,14.6,28.63,20.83,62.06,29.98,92.74,14.51,48.61,29.52,97.08,45.97,145.07,9.06,26.42,18.42,52.82,29.39,78.52,4.03,9.45,8.08,22.57,15.49,30.15,4.12,4.22,8.27,2.44,8.14-3.43-.14-6.7-3.8-14.11-6.57-20.02-1.94-4.13-4.14-8.14-6.6-11.98-2.08-3.24-7.27-.24-5.18,3.03,4.44,6.94,8.21,14.46,10.69,22.34.64,2.03,1.2,6.15,1.7,7.08.9,1.68-.59.6.18.78.92.21,2.99-1.92,2.94-.89.05-.94-3.88-5.5-4.66-6.89-3.1-5.51-5.74-11.3-8.3-17.07-10.29-23.17-18.87-47.13-27.24-71.05-15.21-43.51-29.07-87.5-42.46-131.6-9.26-30.51-17.86-61.23-27.09-91.74-7-23.15-18.83-44.33-34.82-62.48-15.78-17.91-34.99-32.53-55.08-45.25-21.79-13.8-45.7-23.99-67.36-37.87-24.94-15.97-42.55-39.76-41.92-70.34.59-28.78,13.06-56.37,23.09-82.85,9.8-25.88,19.11-52.63,18.16-80.69-.79-23.32-8.4-45.82-20.9-65.44-27.5-43.16-73.04-70.58-117.1-94.17-105.49-56.47-222.27-94.05-318.51-166.81-44.11-33.35-87.06-79.36-87.17-138.18-.12-61.55,46.31-110.1,88.86-148.9,42.92-39.14,90.95-75.26,120.71-126.27,12.74-21.85,21.59-46.78,20.35-72.38s-12.42-48.9-27.85-68.87c-34.11-44.12-83.04-74.88-122.88-113.37-37.02-35.77-64.56-77.49-73.88-128.64-17.81-97.73,21.37-202.43,82.38-278.04,15.88-19.68,33.63-37.73,52.96-54.03,2.96-2.49-1.31-6.72-4.24-4.24h0Z"/></g><g id="Layer_3"><path class="cls-11" d="M664.97,230.51s62.43,879.02,376.14,1152.68c0,0-233.46-557.66-231.99-1152.68h-144.15Z"/><path class="cls-28" d="M809.12,172.47s-37.62,795.25,231.99,1210.72h38.09s-122.57-431.17-125.93-1210.72h-144.15Z"/><path class="cls-11" d="M950.24,230.51s-60.8,667.56,128.96,1152.68l24.72-7.46s-34.75-184.1,6.68-1175.92l-160.36,30.7Z"/><path class="cls-28" d="M1097.42,224.58s-68,578.95,6.5,1151.15l65.48-17.41.14-1059.82-72.13-73.92Z"/><path class="cls-11" d="M837.99,2532s-86.86-135.43,172.39-1050.12h15.41s-73.54,728.62-30.11,1050.12h-157.69Z"/><path class="cls-28" d="M1010.37,1481.88s-96.22,789.98-14.7,1050.12h148.34l-64.81-1050.12h-68.82Z"/><path class="cls-11" d="M1070.51,1481.88s-16.04,469.05,48.78,1050.12h50.11v-567.48l-36.08-492.59-62.81,9.95Z"/><path class="cls-28" d="M1119.08,1474.18s19.2,564.97,50.46,664.49l-.14-678.35-50.32,13.87Z"/><path class="cls-29" d="M1041.11,1383.19s-4.01,9.12,128.29-24.88v102s-59.47,40.63-159.03,21.56c0,0,11.53-47.47,30.74-98.68Z"/><path class="cls-28" d="M1032.63,1406.92s88.05.6,136.91-28.42v44.15s-53.56,34.07-150.24,26.47l13.33-42.2Z"/><path class="cls-11" d="M504.68,230.51s-62.43,879.02-376.14,1152.68c0,0,233.46-557.66,231.99-1152.68h144.15Z"/><path class="cls-28" d="M360.53,172.47s37.62,795.25-231.99,1210.72h-38.09s122.57-431.17,125.93-1210.72h144.15Z"/><path class="cls-11" d="M219.41,230.51s60.8,667.56-128.96,1152.68l-24.72-7.46s34.75-184.1-6.68-1175.92l160.36,30.7Z"/><path class="cls-28" d="M72.23,224.58s68,578.95-6.5,1151.15L.25,1358.31.11,298.49l72.13-73.92Z"/><path class="cls-11" d="M331.66,2532s86.86-135.43-172.39-1050.12h-15.41s73.54,728.62,30.11,1050.12h157.69Z"/><path class="cls-28" d="M159.28,1481.88s96.22,789.98,14.7,1050.12H25.64s64.81-1050.12,64.81-1050.12h68.82Z"/><path class="cls-11" d="M99.14,1481.88s16.04,469.05-48.78,1050.12H.25v-567.48s36.08-492.59,36.08-492.59l62.81,9.95Z"/><path class="cls-28" d="M50.57,1474.18S31.37,2039.15.11,2138.67l.14-678.35,50.32,13.87Z"/><path class="cls-29" d="M128.54,1383.19s4.01,9.12-128.29-24.88v102s59.47,40.63,159.03,21.56c0,0-11.53-47.47-30.74-98.68Z"/><path class="cls-28" d="M137.02,1406.92s-88.05.6-136.91-28.42v44.15s53.56,34.07,150.24,26.47l-13.33-42.2Z"/></g><g id="Layer_2"><path class="cls-5" d="M665.1,224.43c0,1.96-.03,3.88-.13,5.8v-11.73c.1,1.96.13,3.94.13,5.93Z"/><path class="cls-11" d="M664.97,0v229.31c-2.04,55.96-33.51,100.44-72.02,100.44s-69.96-44.48-72-100.44c-.1-1.94-.13-3.88-.13-5.86V0h144.15Z"/><path class="cls-28" d="M809.25,0v229.31c-2.04,55.96-33.51,100.44-72.02,100.44s-69.96-44.48-72-100.44c-.1-1.94-.13-3.88-.13-5.86V0h144.15Z"/><path class="cls-11" d="M953.4,0v229.31c-2.04,55.96-33.51,100.44-72.02,100.44s-69.96-44.48-72-100.44c-.1-1.94-.13-3.88-.13-5.86V0h144.15Z"/><path class="cls-28" d="M1097.54,0v229.31c-2.04,55.96-33.51,100.44-72.02,100.44s-69.96-44.48-72-100.44c-.1-1.94-.13-3.88-.13-5.86V0h144.15Z"/><path class="cls-11" d="M1169.67,329.75c-38.51,0-69.96-44.48-72-100.44-.1-1.94-.13-3.88-.13-5.86V0h72.07"/><path class="cls-28" d="M520.83,0v229.31c-2.04,55.96-33.51,100.44-72.02,100.44s-69.96-44.48-72-100.44c-.1-1.94-.13-3.88-.13-5.86V0h144.15Z"/><path class="cls-11" d="M376.68,0v229.31c-2.04,55.96-33.51,100.44-72.02,100.44s-69.96-44.48-72-100.44c-.1-1.94-.13-3.88-.13-5.86V0h144.15Z"/><path class="cls-28" d="M232.53,0v229.31c-2.04,55.96-33.51,100.44-72.02,100.44s-69.96-44.48-72-100.44c-.1-1.94-.13-3.88-.13-5.86V0h144.15Z"/><path class="cls-11" d="M.11,0h88.27v229.31c-2.04,55.96-33.51,100.44-72.02,100.44-5.59,0-11.03-.94-16.25-2.71"/><path class="cls-5" d="M520.95,230.23h-.13v-5.8c0,1.96.03,3.88.13,5.8Z"/></g></svg>