<svg width="390" height="53" viewBox="0 0 390 53" fill="none" xmlns="http://www.w3.org/2000/svg">
<line y1="26" x2="390" y2="26" stroke="#FFE9C3" stroke-width="2"/>
<rect x="109" width="186.333" height="52.5556" fill="#DA604E"/>
<rect x="295.334" y="7.16602" width="10.75" height="39.4167" fill="#DA604E"/>
<rect x="98.25" y="7.16602" width="10.75" height="39.4167" fill="#DA604E"/>
<ellipse cx="306.083" cy="26.8748" rx="15.5278" ry="13.7361" fill="#DA604E"/>
<ellipse cx="98.2504" cy="26.8748" rx="15.5278" ry="13.7361" fill="#DA604E"/>
<path d="M146.651 11.6289L146.944 11.7266L147.218 11.6289L147.413 11.8242L147.628 11.6289C148.474 11.7852 148.898 11.9805 148.898 12.2148L149.386 12.1367C149.386 12.2669 149.842 12.625 150.753 13.2109V13.3867L150.655 13.3086H150.284V13.3867C150.649 13.3867 150.974 13.4844 151.261 13.6797C151.782 13.3281 152.107 12.9701 152.237 12.6055C152.381 12.6055 152.713 12.3451 153.234 11.8242L153.331 11.9219V12.5078L153.234 13.1133L153.331 13.2109V13.3086L153.234 13.582L153.331 13.9922L153.234 14.0898L153.331 14.5586V15.0664L153.234 15.4766L153.331 15.9453L153.116 16.8633L153.331 17.0391L153.234 17.4297L153.331 17.5273L153.234 18.2109V18.4062L153.331 19.2852L153.234 19.3828V19.5L153.331 19.8906L153.234 20.7695L153.331 22.6641C153.331 23.0417 153.194 23.2305 152.921 23.2305H152.745V23.1328L152.042 23.2305H150.284L150.089 23.0352L150.187 22.5469C150.056 22.5469 149.991 22.4492 149.991 22.2539C149.991 21.9154 150.056 21.7461 150.187 21.7461L150.089 21.2773V20.6719C150.089 20.5677 150.219 20.4701 150.48 20.3789L150.558 20.3008V20.2031H150.48L150.187 20.3789L149.991 19.5977L150.187 19.1875C150.187 17.1823 149.366 15.7109 147.726 14.7734L147.316 14.9688L146.944 14.8711C145.903 14.8711 145.174 15.5547 144.757 16.9219L144.855 17.332L144.679 17.5273L144.757 19.1094L144.484 19.8906L144.581 20.5742V21.4727C144.581 23.569 144.809 24.6172 145.265 24.6172L146.241 25.7891V25.9062C145.239 26.8177 144.718 27.5013 144.679 27.957L144.757 28.0547L144.679 28.7383V28.8359L144.757 29.7148L144.581 31.6094H144.757L144.679 32.5859V32.9766L144.757 33.5625L144.679 33.9531L144.757 34.9492L144.679 35.0469V35.1445C144.861 36.8893 145.056 37.7617 145.265 37.7617C145.72 38.1654 146.28 38.3672 146.944 38.3672L147.413 38.1719L147.726 38.2695C148.181 38.2695 148.54 37.5534 148.8 36.1211L149.21 36.0234L148.8 35.5156V34.832C148.8 34.0378 148.995 33.5104 149.386 33.25L149.581 33.0742V32.9766L148.898 33.5625H148.8V33.1523L148.898 32.5859L148.8 32.0781H148.898L148.8 31.8047L148.995 31.3945C148.878 31.3945 148.78 31.1016 148.702 30.5156L148.605 30.6133H148.507L148.409 30.5156H148.292L148.019 30.6133C147.576 30.0143 147.153 29.5911 146.749 29.3438L146.144 28.6406H146.437L146.944 28.7383L147.12 28.543L147.413 28.6406L150.655 28.4648L151.261 28.543C151.261 28.4258 151.782 28.263 152.823 28.0547C153.292 27.651 153.722 27.4492 154.112 27.4492V27.5469L154.698 27.3516H155.187C155.825 27.3516 156.385 27.8789 156.866 28.9336L156.573 29.0312V29.1289C156.769 29.1289 156.866 29.2005 156.866 29.3438C156.866 29.6953 156.73 29.9167 156.456 30.0078H156.359C156.215 29.5 155.89 29.2461 155.382 29.2461H154.698C153.917 29.4935 153.526 30.3464 153.526 31.8047V33.0742L153.429 33.1523H153.331L153.429 33.25V33.3672L153.331 34.0703L153.429 34.168H153.526L153.331 35.7109L153.429 36.0234H153.331L153.526 37.5859L153.429 38.2695L153.526 39.1484L153.331 39.6562H153.526V40.5352H153.331V40.6328L153.526 41.043C153.461 41.5638 153.364 41.8242 153.234 41.8242H153.019L152.823 41.6094L151.359 41.8242L151.066 41.707L150.187 41.8242C149.601 41.7852 149.308 41.7135 149.308 41.6094L148.702 41.707L147.413 41.6094L146.339 41.8242V41.707L146.241 41.6094L145.46 41.707C145.46 41.6159 144.933 41.4271 143.878 41.1406C142.107 39.5651 141.196 38.3802 141.144 37.5859C140.545 36.6875 140.115 35.7695 139.855 34.832L139.054 31.4922H139.151L139.464 31.6094C139.125 31.2318 138.956 30.6979 138.956 30.0078H139.054L138.78 28.8359V28.7383L138.878 28.1523L138.585 27.4492L138.683 27.3516V27.2734C138.553 26.9479 138.351 26.7852 138.077 26.7852C138.077 26.4987 137.882 26.2969 137.491 26.1797V26.1016C137.635 25.8281 137.83 25.6914 138.077 25.6914V25.5938H137.882L137.394 25.9062H137.198V25.7891L138.78 24.0117C138.885 23.4258 139.008 23.1328 139.151 23.1328V22.4492L139.366 21.6484L139.249 21.5508V21.4727C139.249 21.056 139.418 20.7565 139.757 20.5742L139.659 20.3008C140.024 18.3867 140.349 17.4297 140.636 17.4297C140.766 16.4401 141.456 15.2617 142.706 13.8945C142.888 13.6862 143.09 13.582 143.312 13.582L143.194 13.4844V13.3867C143.976 12.8138 144.373 12.4557 144.386 12.3125L146.651 11.6289ZM145.87 13.0156V13.1133H145.948L146.651 13.0156V12.918H146.241L145.87 13.0156ZM149.21 13.0156V13.1133L150.089 13.3086C150.089 13.1784 149.829 13.0807 149.308 13.0156H149.21ZM145.069 13.3086V13.3867H145.46V13.3086H145.069ZM152.237 13.582V13.6797H152.648V13.582H152.237ZM142.706 14.0898V14.1875H143.097V14.0898H142.706ZM151.944 19.3828V19.5H152.042C152.042 19.2396 152.4 18.9792 153.116 18.7188V18.6211H153.019C152.355 18.9336 151.997 19.1875 151.944 19.3828ZM151.261 19.8906H151.359L151.573 19.6953H151.456L151.261 19.8906ZM150.655 20.0859L150.753 20.2031V20.3008L150.655 20.3789L150.753 20.4766H150.968L150.87 20.3789V20.3008L150.968 19.9883L150.655 20.0859ZM152.14 20.3008V20.3789H152.55V20.3008H152.14ZM150.655 20.8672H150.753L150.968 20.6719H150.87L150.655 20.8672ZM143.507 22.5469L143.585 22.6641V22.7227L143.878 22.6641V22.4492H143.78L143.507 22.5469ZM142.999 22.9375L142.804 23.3281H142.901L143.312 22.9375H142.999ZM142.218 23.3281V23.4453H142.316L142.706 23.1328H142.609L142.218 23.3281ZM141.515 23.6406L141.417 23.7383V23.8164H141.515L141.827 23.7383V23.6406H141.515ZM140.948 23.9141V24.1094L141.241 24.0117V23.9141H140.948ZM139.366 24.6172H139.464L139.659 24.4219H139.562L139.366 24.6172ZM138.175 25.3984V25.4961H138.487V25.3008L138.175 25.3984ZM154.913 27.7617L154.698 28.1523H154.816C155.024 28.0872 155.148 27.957 155.187 27.7617H154.913ZM152.452 30.0078L152.745 30.3203C153.279 29.4609 153.605 29.0312 153.722 29.0312L153.819 29.1289H154.112V29.0312H153.819V28.9336L154.308 28.3672H154.21C153.22 29.4609 152.635 30.0078 152.452 30.0078ZM154.913 28.7383V28.8359H155.48V28.7383H154.913ZM154.21 29.0312V29.1289H154.405L154.503 29.0312V28.9336L154.21 29.0312ZM151.847 30.7305H151.944L152.14 30.5156H152.042L151.847 30.7305ZM152.042 30.7891C152.042 30.9323 151.944 31.0039 151.749 31.0039V31.1016H151.944L152.14 30.7891H152.042ZM151.066 31.4922C151.066 31.7005 150.961 31.8047 150.753 31.8047L150.655 31.9023V31.9805H150.753L151.261 31.4922H151.066ZM150.187 32.3711V32.4883H150.284L150.558 32.3711V32.1758L150.187 32.3711ZM140.069 32.2734V32.3711L140.245 32.5859V32.4883L140.069 32.2734ZM151.359 32.4883V32.5859H151.749V32.4883H151.359ZM151.944 32.4883V32.5859H152.355V32.4883H151.944ZM141.241 33.7578V33.8555C141.541 34.3112 141.769 34.5391 141.925 34.5391V34.4414L141.241 33.7578ZM143.194 35.8281V36.0234L144.073 36.9023H144.191L143.312 35.8281H143.194ZM151.359 36.4141H151.456L151.671 36.2188V36.1211L151.359 36.4141ZM150.382 37.0977H150.48L150.655 36.9023H150.558L150.382 37.0977ZM149.679 37.1953V37.293H149.991V37.0977L149.679 37.1953ZM148.898 37.5859V37.7031H149.308V37.4883L148.898 37.5859ZM149.679 37.7617V37.8789H150.089V37.7617H149.679ZM143.78 39.2461H143.878C144.165 39.0508 144.431 38.9531 144.679 38.9531V38.875H144.484C144.015 39.0312 143.78 39.1549 143.78 39.2461ZM142.394 39.3438V39.4609H142.804L143.097 39.2461H143.585V39.0508H143.507L142.394 39.3438ZM171.398 11.8047H171.691C172.394 11.8047 173.155 12.4948 173.976 13.875L174.21 14.5977H174.073C173.722 14.0378 173.207 13.7578 172.53 13.7578C172.179 13.7578 171.899 13.9661 171.691 14.3828L172.12 16.668C171.99 16.668 171.925 16.7721 171.925 16.9805L171.827 16.8633H171.691V17.3906H171.827L171.925 16.9805H172.12C172.693 22.0846 173.279 24.6367 173.878 24.6367L174.073 25.2617C174.308 25.2617 174.731 25.5677 175.343 26.1797V26.2969C174.77 26.974 174.347 27.599 174.073 28.1719L175.968 39.1484C176.176 39.6953 176.482 39.9688 176.886 39.9688H177.198C177.589 39.9688 178.006 39.6953 178.448 39.1484L178.546 39.2461C177.348 40.8997 176.209 41.7266 175.128 41.7266L173.878 41.0039H173.683C172.849 41.5508 172.263 41.8242 171.925 41.8242H171.495C170.532 41.8242 169.64 41.1276 168.819 39.7344H168.917C169.672 40.0859 170.258 40.2617 170.675 40.2617C171.092 40.2227 171.3 39.9492 171.3 39.4414L171.007 37.7812L171.593 37.3711H171.495L171.007 37.5859L170.87 37.4688V36.2383C170.532 36.2383 170.291 35.2031 170.148 33.1328L170.05 33.0352V32.9375H169.015L167.882 32.8398L167.569 32.9375L166.105 32.6055C166.105 32.7747 165.831 32.8854 165.284 32.9375C164.881 35.2422 164.503 36.9284 164.151 37.9961L164.054 39.5391C164.184 39.9557 164.457 40.1641 164.874 40.1641C165.2 40.1641 165.545 40.0208 165.909 39.7344V39.9688C165.623 40.6068 164.939 41.2253 163.859 41.8242H163.429C162.856 41.8242 162.27 41.5182 161.671 40.9062H161.573C160.961 41.4531 160.408 41.7266 159.913 41.7266H159.484C157.83 41.3099 157.003 40.6458 157.003 39.7344C157.459 40.0208 157.908 40.1641 158.351 40.1641C159.119 40.1641 159.672 39.5456 160.011 38.3086H160.109L160.011 38.1914V37.8789L160.948 35.3203L160.831 35.2227V34.9883L161.241 33.2305L161.144 33.1328L162.062 29.832L161.964 29.7148V29.6172C162.081 29.474 162.192 28.9922 162.296 28.1719C162.114 27.6641 161.697 27.0391 161.046 26.2969C161.163 25.9844 161.678 25.4635 162.589 24.7344L163.331 23.6992C163.331 23.0872 163.67 22.638 164.347 22.3516V22.2539L164.054 22.1562C164.002 22.5078 163.891 22.6836 163.722 22.6836H163.624V22.4492C164.523 19.1289 164.972 17.0977 164.972 16.3555L165.187 15.5352C165.187 14.5586 164.809 14.0703 164.054 14.0703L163.116 14.4805V14.3828C163.937 13.0156 164.698 12.332 165.401 12.332C165.401 12.1758 165.571 12.0977 165.909 12.0977V12.2148L166.007 12.0977H166.241V12.332H166.437V12.0977C167.309 12.0977 168.201 12.5469 169.112 13.4453C169.985 12.3516 170.747 11.8047 171.398 11.8047ZM166.632 12.918V13.0547H166.73L167.062 12.918V12.8203H166.925L166.632 12.918ZM165.812 13.9727V14.0703H165.909L166.339 13.6602H166.241C165.955 13.7773 165.812 13.8815 165.812 13.9727ZM170.362 18.6406V18.8359C170.675 18.7448 171.085 18.4388 171.593 17.918H171.495C171.209 17.9961 170.903 18.237 170.577 18.6406H170.362ZM169.64 19.3633H169.737L170.148 19.1484V18.9336H170.05L169.64 19.3633ZM168.292 20.2031H168.39C168.702 20.0599 168.878 19.9167 168.917 19.7734V19.6758C168.5 19.8841 168.292 20.0599 168.292 20.2031ZM168.097 19.9688L167.882 20.3984H168.097L168.194 20.0664V19.9688H168.097ZM169.21 20.3008L169.542 20.5938L170.148 20.4961V20.6914H170.48C170.48 20.4961 170.304 20.3984 169.952 20.3984V20.3008L169.835 20.3984H169.737L169.21 20.3008ZM165.812 21.4336V21.6289L167.569 20.5938V20.4961H167.355L165.812 21.4336ZM168.097 20.4961C167.941 21.7331 167.693 22.3516 167.355 22.3516L167.452 22.4492L167.159 24.0117L167.257 24.3242C166.905 25.1445 166.489 26.6289 166.007 28.7773L165.909 28.8945C166.131 28.8945 166.241 28.9987 166.241 29.207L166.339 29.3047H166.437L166.827 29.207L168.917 29.4023C168.917 29.2721 169.125 29.207 169.542 29.207L168.917 24.6367L169.015 24.3242C168.468 22.6055 168.194 21.3294 168.194 20.4961H168.097ZM170.675 20.6914L171.007 21.0234L171.105 20.9258V20.7891L170.675 20.6914ZM171.398 21.1211L171.691 21.4336V21.3164L171.495 21.1211H171.398ZM171.925 21.5312V21.6289L172.335 21.7461C172.335 21.6029 172.231 21.5312 172.023 21.5312H171.925ZM164.874 21.9414V22.2539L165.284 21.9414V21.8438L164.874 21.9414ZM162.901 34.3828V34.5977L163.214 34.4805V34.3828H162.901ZM162.179 34.5977V34.6953H162.296L162.687 34.5977V34.4805H162.491L162.179 34.5977ZM161.573 34.6953L161.476 34.793V34.8906H161.573L161.866 34.793V34.6953H161.573ZM173.37 36.043V36.2383L173.683 36.1406V35.9453L173.37 36.043ZM173.058 36.7656H173.155L173.878 36.5508V36.3359C173.331 36.4531 173.058 36.5964 173.058 36.7656ZM172.12 36.9609V37.0586H172.335V36.7656L172.12 36.9609ZM171.827 37.0586L171.691 37.3711H171.925V37.0586H171.827ZM172.335 37.9961L172.648 38.3086V38.1914L172.433 37.9961H172.335ZM172.648 38.4062V38.5234L173.058 38.7188V38.4062H172.648ZM173.253 38.8164L173.585 39.3438H173.78V39.0117L173.37 38.8164H173.253ZM175.128 40.0664V40.1641C175.31 40.5156 175.59 40.6914 175.968 40.6914L175.128 40.0664ZM186.066 11.6484C187.576 11.6484 188.826 12.5599 189.816 14.3828H189.718C189.301 14.0443 188.891 13.875 188.487 13.875H188.292C187.524 13.875 187.081 14.2852 186.964 15.1055L187.081 15.9062L186.964 18.0547L186.769 18.25L186.866 18.3477V18.4453L186.671 18.6602L186.866 18.9531L186.769 19.4609L186.964 19.6758L186.769 19.8711L186.964 20.5938L186.769 21.1016L186.964 21.2969V21.4922L186.866 21.9023L186.964 22.3125V22.4102L186.769 22.7227V22.8203L187.374 24.5391C187.609 24.5391 188.012 24.9167 188.585 25.6719C187.439 27.013 186.866 27.8529 186.866 28.1914L186.769 28.8164L186.964 29.6172L186.866 31.043L186.964 32.1562L186.769 32.3711V32.4688L186.964 32.7617L186.866 33.3867L186.964 34.6953V34.9102L186.769 35.2031L186.964 35.418L186.866 35.5156V35.6133L187.081 35.8086V36.7266C187.081 38.0807 187.719 38.7578 188.995 38.7578C190.167 38.7578 191.183 37.6445 192.042 35.418L192.14 34.2852L191.944 33.6797V33.582H192.452V33.3867L192.355 33.4844H192.237L191.847 33.2695L191.944 32.6641L191.847 30.8477C191.886 30.431 191.984 30.2227 192.14 30.2227H192.648L192.862 30.4375L192.96 30.3398L193.976 30.4375L195.597 30.2227L195.694 30.3398L195.597 32.3711V32.8789L195.382 33.0742C195.59 33.8685 195.694 34.7148 195.694 35.6133C195.382 37.0977 194.978 38.0742 194.484 38.543C193.728 39.832 193.084 40.4766 192.55 40.4766C192.55 40.8021 192.01 41.043 190.929 41.1992L190.616 41.082C190.616 41.4987 189.64 41.707 187.687 41.707C186.749 41.707 185.564 41.2969 184.132 40.4766L183.917 40.6914L183.819 40.5742H183.722L183.019 40.7891C181.704 40.7891 180.213 40.2096 178.546 39.0508L178.448 38.9531V38.7578H178.546L180.167 39.0508C180.909 38.8034 181.28 38.3672 181.28 37.7422C181.28 37.4688 181.352 37.332 181.495 37.332L181.398 36.8242L181.593 36.5312L181.398 36.2188V35.8086L181.495 35.3008L181.398 35.2031H181.28L181.398 34.1875V32.4688L181.495 32.3711L181.398 32.0586L181.28 30.2227L181.398 29.6172L181.28 29.1094L181.398 28.3086C181.398 27.6706 180.89 26.8568 179.874 25.8672C180.72 24.9297 181.293 24.0508 181.593 23.2305C181.385 22.7487 181.28 22.2734 181.28 21.8047L181.495 20.6914L181.28 19.4609L181.495 18.1523L181.398 17.7422V17.6445L181.495 17.5469V17.4297L181.28 17.2344V16.0234C181.072 14.5911 180.603 13.875 179.874 13.875H179.659C179.36 13.875 178.989 14.0833 178.546 14.5L178.448 14.3828C178.735 13.6146 179.243 13.0091 179.972 12.5664H180.069L180.48 12.7617H180.577V12.6641L180.167 12.5664C180.766 12.0195 181.515 11.7461 182.413 11.7461C183.051 11.7461 183.657 12.0521 184.23 12.6641C184.829 11.987 185.441 11.6484 186.066 11.6484ZM181.398 13.0742L181.593 13.2695H181.691L181.495 13.0742H181.398ZM182.198 13.3672V13.582L182.511 13.6797V13.4844L182.198 13.3672ZM183.214 13.875V13.9922L183.526 14.0898V13.875H183.214ZM183.819 14.0898V14.1875H184.23V14.0898H183.819ZM185.851 18.7578H185.948L186.163 18.5625H186.066L185.851 18.7578ZM184.737 19.7734V19.8711L184.933 19.6758V19.5781L184.737 19.7734ZM183.917 20.2812V20.3789L184.23 20.0859H184.132L183.917 20.2812ZM184.327 20.9844V21.1016L184.64 20.7891H184.542L184.327 20.9844ZM182.921 21.2969L182.706 21.6094H182.921L183.019 21.2969H182.921ZM182.198 22.1172V22.2148L182.413 22V21.9023L182.198 22.1172ZM182.511 22.3125H182.609L182.804 22.1172H182.706L182.511 22.3125ZM195.187 31.2383V31.3555L195.382 31.1406V31.043L195.187 31.2383ZM193.253 31.1406V31.3555L193.566 31.2383V31.1406H193.253ZM193.976 32.3711V32.5664C194.64 32.319 195.011 32.0846 195.089 31.8633H194.991C194.627 32.2018 194.288 32.3711 193.976 32.3711ZM185.148 36.4336V36.5312H185.245C185.766 36.4401 186.241 36.2383 186.671 35.9258H186.573C185.87 36.2643 185.395 36.4336 185.148 36.4336ZM184.425 36.7266V36.8242H184.64L184.933 36.7266V36.6289H184.737L184.425 36.7266ZM183.819 36.9414L183.722 37.0195V37.1367H184.034L183.819 36.9414ZM183.312 37.0195L183.214 37.1367V37.2344H183.312L183.624 37.1367V37.0195H183.312ZM182.804 37.332H182.921L183.116 37.1367H183.019L182.804 37.332ZM190.421 38.7578L190.616 38.9531H190.714L190.519 38.7578H190.421ZM191.124 39.0508L191.339 39.2656H191.437L191.222 39.0508H191.124ZM192.355 39.6758V39.7734L193.058 39.8711V39.6758H192.355ZM203.448 11.6484C204.959 11.6484 206.209 12.5599 207.198 14.3828H207.101C206.684 14.0443 206.274 13.875 205.87 13.875H205.675C204.907 13.875 204.464 14.2852 204.347 15.1055L204.464 15.9062L204.347 18.0547L204.151 18.25L204.249 18.3477V18.4453L204.054 18.6602L204.249 18.9531L204.151 19.4609L204.347 19.6758L204.151 19.8711L204.347 20.5938L204.151 21.1016L204.347 21.2969V21.4922L204.249 21.9023L204.347 22.3125V22.4102L204.151 22.7227V22.8203L204.757 24.5391C204.991 24.5391 205.395 24.9167 205.968 25.6719C204.822 27.013 204.249 27.8529 204.249 28.1914L204.151 28.8164L204.347 29.6172L204.249 31.043L204.347 32.1562L204.151 32.3711V32.4688L204.347 32.7617L204.249 33.3867L204.347 34.6953V34.9102L204.151 35.2031L204.347 35.418L204.249 35.5156V35.6133L204.464 35.8086V36.7266C204.464 38.0807 205.102 38.7578 206.378 38.7578C207.55 38.7578 208.566 37.6445 209.425 35.418L209.523 34.2852L209.327 33.6797V33.582H209.835V33.3867L209.737 33.4844H209.62L209.23 33.2695L209.327 32.6641L209.23 30.8477C209.269 30.431 209.366 30.2227 209.523 30.2227H210.03L210.245 30.4375L210.343 30.3398L211.359 30.4375L212.98 30.2227L213.077 30.3398L212.98 32.3711V32.8789L212.765 33.0742C212.973 33.8685 213.077 34.7148 213.077 35.6133C212.765 37.0977 212.361 38.0742 211.866 38.543C211.111 39.832 210.467 40.4766 209.933 40.4766C209.933 40.8021 209.392 41.043 208.312 41.1992L207.999 41.082C207.999 41.4987 207.023 41.707 205.069 41.707C204.132 41.707 202.947 41.2969 201.515 40.4766L201.3 40.6914L201.202 40.5742H201.105L200.401 40.7891C199.086 40.7891 197.595 40.2096 195.929 39.0508L195.831 38.9531V38.7578H195.929L197.55 39.0508C198.292 38.8034 198.663 38.3672 198.663 37.7422C198.663 37.4688 198.735 37.332 198.878 37.332L198.78 36.8242L198.976 36.5312L198.78 36.2188V35.8086L198.878 35.3008L198.78 35.2031H198.663L198.78 34.1875V32.4688L198.878 32.3711L198.78 32.0586L198.663 30.2227L198.78 29.6172L198.663 29.1094L198.78 28.3086C198.78 27.6706 198.273 26.8568 197.257 25.8672C198.103 24.9297 198.676 24.0508 198.976 23.2305C198.767 22.7487 198.663 22.2734 198.663 21.8047L198.878 20.6914L198.663 19.4609L198.878 18.1523L198.78 17.7422V17.6445L198.878 17.5469V17.4297L198.663 17.2344V16.0234C198.455 14.5911 197.986 13.875 197.257 13.875H197.042C196.743 13.875 196.372 14.0833 195.929 14.5L195.831 14.3828C196.118 13.6146 196.625 13.0091 197.355 12.5664H197.452L197.862 12.7617H197.96V12.6641L197.55 12.5664C198.149 12.0195 198.898 11.7461 199.796 11.7461C200.434 11.7461 201.04 12.0521 201.612 12.6641C202.211 11.987 202.823 11.6484 203.448 11.6484ZM198.78 13.0742L198.976 13.2695H199.073L198.878 13.0742H198.78ZM199.581 13.3672V13.582L199.894 13.6797V13.4844L199.581 13.3672ZM200.597 13.875V13.9922L200.909 14.0898V13.875H200.597ZM201.202 14.0898V14.1875H201.612V14.0898H201.202ZM203.234 18.7578H203.331L203.546 18.5625H203.448L203.234 18.7578ZM202.12 19.7734V19.8711L202.316 19.6758V19.5781L202.12 19.7734ZM201.3 20.2812V20.3789L201.612 20.0859H201.515L201.3 20.2812ZM201.71 20.9844V21.1016L202.023 20.7891H201.925L201.71 20.9844ZM200.304 21.2969L200.089 21.6094H200.304L200.401 21.2969H200.304ZM199.581 22.1172V22.2148L199.796 22V21.9023L199.581 22.1172ZM199.894 22.3125H199.991L200.187 22.1172H200.089L199.894 22.3125ZM212.569 31.2383V31.3555L212.765 31.1406V31.043L212.569 31.2383ZM210.636 31.1406V31.3555L210.948 31.2383V31.1406H210.636ZM211.359 32.3711V32.5664C212.023 32.319 212.394 32.0846 212.472 31.8633H212.374C212.01 32.2018 211.671 32.3711 211.359 32.3711ZM202.53 36.4336V36.5312H202.628C203.149 36.4401 203.624 36.2383 204.054 35.9258H203.956C203.253 36.2643 202.778 36.4336 202.53 36.4336ZM201.808 36.7266V36.8242H202.023L202.316 36.7266V36.6289H202.12L201.808 36.7266ZM201.202 36.9414L201.105 37.0195V37.1367H201.417L201.202 36.9414ZM200.694 37.0195L200.597 37.1367V37.2344H200.694L201.007 37.1367V37.0195H200.694ZM200.187 37.332H200.304L200.499 37.1367H200.401L200.187 37.332ZM207.804 38.7578L207.999 38.9531H208.097L207.901 38.7578H207.804ZM208.507 39.0508L208.722 39.2656H208.819L208.605 39.0508H208.507ZM209.737 39.6758V39.7734L210.441 39.8711V39.6758H209.737ZM229.776 11.6875H229.874C229.874 11.8177 229.978 11.8828 230.187 11.8828L230.284 14.6367C230.284 15.1185 230.082 15.5156 229.679 15.8281L229.776 15.7109H229.874L229.991 15.8281H230.089V15.5156L230.284 15.7109L230.187 16.5117L230.284 18.9727V20.6523C230.284 21.1862 230.148 21.4531 229.874 21.4531L229.112 21.3555L228.702 21.4531L227.921 21.3555L227.12 21.4531L227.023 20.5547L227.12 19.3828L227.023 18.9727L227.335 18.4062C227.127 18.3411 227.023 18.1393 227.023 17.8008L227.12 17.0977C227.12 16.4987 226.365 15.8802 224.855 15.2422L224.269 15.1445C222.915 15.1445 222.062 15.4049 221.71 15.9258H221.612C221.482 18.556 221.345 20.0339 221.202 20.3594C221.359 20.3594 221.463 20.5938 221.515 21.0625L221.319 22.1367L221.515 22.332L221.417 22.4297L221.515 22.5273V22.625L221.417 23.2109C221.417 24.0052 221.638 24.4023 222.081 24.4023L222.882 24.1094L223.976 24.3047C224.562 24.1354 224.855 23.6081 224.855 22.7227C224.855 22.3451 224.627 21.9805 224.171 21.6289V21.4531H224.269C225.584 21.8047 226.241 22.3906 226.241 23.2109L226.359 23.6016V23.6992C226.359 24.6107 226.157 25.2747 225.753 25.6914C225.753 26.0039 225.883 26.1602 226.144 26.1602L226.417 27.4688C226.105 28.8359 225.421 29.5195 224.366 29.5195L223.859 29.6172V29.5195C224.47 28.9076 224.776 28.4128 224.776 28.0352C224.776 27.8789 224.405 27.7487 223.663 27.6445H223.37L222.687 27.7422L222.589 27.6445V27.5664C221.743 27.6185 221.319 27.8073 221.319 28.1328L221.515 28.543L221.417 30.5938L221.515 30.6914V30.7891L221.319 31.5898V31.9023H221.515V32.4688L221.319 33.0742L221.417 33.1719V33.2695L221.319 33.9531L221.417 35.0469H221.319L221.612 35.9258L221.417 36.1406L221.515 36.4336L221.417 36.5312V36.6289L221.612 37.0977L221.417 37.293C221.665 37.5924 221.788 37.918 221.788 38.2695L223.194 38.6797C224.34 38.6797 225.616 38.0872 227.023 36.9023L227.12 35.8281L227.023 35.7305V35.6328L227.12 34.4609L227.023 34.3438V34.2461L227.218 33.6602L227.023 32.8789L227.218 32.6836L227.023 32.3711V32.0977L227.12 32V31.9023L228.194 32.0977L228.507 31.9023L229.503 32H230.089L230.187 32.0977H230.284L230.089 32.6836V32.7812L230.284 33.582V33.8555L230.089 34.6562L230.284 35.2227V35.5352C230.154 35.7956 229.952 35.9258 229.679 35.9258V36.1406L230.187 35.8281L230.284 36.5312V36.9023C230.245 37.6185 229.158 38.901 227.023 40.75C225.382 41.5443 224.327 41.9414 223.859 41.9414L223.761 41.8242L223.292 41.9414H222.882C221.202 41.9414 219.848 41.4466 218.819 40.457C218.338 40.9258 217.98 41.1602 217.745 41.1602H217.257C216.293 41.1602 215.18 40.6328 213.917 39.5781L213.722 39.3828L213.409 38.9727L213.507 38.875C214.132 39.2786 214.562 39.4805 214.796 39.4805H215.304C215.877 39.207 216.163 38.7708 216.163 38.1719L216.066 37.8008L216.28 37.6055L216.066 37.0977L216.163 36.4336L216.066 35.6328L216.28 35.4375L215.968 35.125L216.066 33.8555L215.968 33.582L216.066 32.6836V32.2734L216.163 32.1758L215.968 31.8047L216.066 30.2227V29.8125L215.968 29.2266L216.163 28.8359C216.033 28.8359 215.968 28.7383 215.968 28.543L216.066 27.8398L215.87 27.6445H216.066V27.5664C215.701 27.5664 215.375 27.2018 215.089 26.4727L215.304 26.2578L215.187 26.1602H214.484V26.0625L215.968 24.207V23.2109L216.066 22.625L215.968 22.332L216.163 21.1602C216.033 21.1602 215.968 21.056 215.968 20.8477L216.066 19.4805L215.968 19.3828V19.2852L216.163 18.5039L215.968 18.0938L216.066 17.3906C216.013 15.6198 215.948 14.7344 215.87 14.7344L214.288 14.2461L213.312 14.9492H213.214V14.8516C213.214 14.0052 214.197 13.1523 216.163 12.293H217.081C217.641 12.293 218.162 12.5859 218.644 13.1719C220.102 12.3125 221.092 11.8828 221.612 11.8828L222.999 11.9805L224.073 11.7852C224.073 11.9544 224.497 12.0586 225.343 12.0977L228.097 13.2695C228.474 13.2695 229.034 12.7422 229.776 11.6875ZM220.499 12.5664C220.499 12.6966 220.603 12.7617 220.812 12.7617H220.909V12.6641L220.499 12.5664ZM222.394 13.5625L222.589 13.7578H222.687L222.491 13.5625H222.394ZM216.769 13.875L216.671 14.1484V14.2461H216.769L216.984 14.0508V13.9727L217.081 14.0508H217.452V13.9727L216.984 13.875L216.866 13.9727L216.769 13.875ZM224.171 14.3438V14.4414L224.776 14.6367H224.855V14.5391L224.269 14.3438H224.171ZM226.359 15.7109L226.827 16.1211V15.9258L226.417 15.7109H226.359ZM229.503 16.0234V16.3164H229.679V16.0234H229.503ZM227.53 18.0938H227.628L227.823 17.8984H227.726L227.53 18.0938ZM229.112 18.3086C229.112 18.4388 229.405 18.5951 229.991 18.7773H230.089V18.6797L229.112 18.3086ZM220.616 22.9375V23.0352L220.812 23.2109L221.007 23.0352L220.714 22.9375H220.616ZM220.304 23.5039V23.6016H220.616V23.4062L220.304 23.5039ZM219.737 24.0117L219.933 24.207H220.304L220.128 24.0117H219.737ZM219.327 24.207V24.4023L219.64 24.3047V24.1094L219.327 24.207ZM225.245 24.6953V24.793L225.655 24.3047V24.207L225.245 24.6953ZM218.448 24.6953C218.331 24.9557 218.097 25.0859 217.745 25.0859V25.2812L218.722 24.793V24.6953H218.448ZM216.476 25.5938L216.378 25.6914V25.7891H216.476L216.769 25.6914V25.5938H216.476ZM217.745 26.1602H217.843L218.253 25.9844V25.8867H218.155C217.882 25.9909 217.745 26.082 217.745 26.1602ZM216.476 27.1562V27.2734H216.769V27.0586L216.476 27.1562ZM229.21 36.2383L229.015 36.4336V36.5312H229.21L229.405 36.2383H229.21ZM228.507 36.707V36.9023L228.8 36.8047V36.707H228.507ZM227.726 37.3906H227.823L227.999 37.1953H227.921L227.726 37.3906ZM226.73 37.9961H226.827L227.12 37.7031H227.023L226.73 37.9961ZM225.948 38.4844H226.046L226.241 38.2695H226.144L225.948 38.4844ZM225.05 38.7773V38.875H225.148L225.753 38.6797V38.4844L225.05 38.7773ZM223.663 39.9492H223.761L223.976 39.7539H223.859L223.663 39.9492ZM222.394 40.75H222.491L222.687 40.5547H222.589L222.394 40.75ZM221.71 41.1602V41.2383L222.179 40.9453V40.8477H222.081L221.71 41.1602ZM241.769 11.7656C243.292 11.7656 244.711 12.3971 246.026 13.6602C247.355 15.1966 248.019 16.6484 248.019 18.0156C247.98 18.6797 247.915 19.0117 247.823 19.0117L248.019 19.4023C248.019 20.9648 247.491 22.4557 246.437 23.875C246.267 23.875 245.805 24.3698 245.05 25.3594V25.5547C246.612 26.2188 247.504 26.8828 247.726 27.5469L247.921 27.9375L247.823 28.25H247.921C248.116 28.25 248.214 28.6146 248.214 29.3438V29.7344L248.116 30.3203L248.214 30.4375L248.116 31.1211L248.214 32.2148L248.019 32.6055L248.116 32.918L247.921 34.207C248.116 34.8841 248.279 36.1341 248.409 37.957C248.826 38.4258 249.191 38.6602 249.503 38.6602H249.601C249.848 38.6602 250.115 38.5299 250.401 38.2695H250.499V38.3672C250.499 38.7057 250.401 38.901 250.206 38.9531H249.913L249.308 38.8555H249.21V38.9531L250.206 39.1484C249.816 40.099 248.657 40.9583 246.73 41.7266L246.339 41.8438H246.026C245.258 41.8438 244.601 41.375 244.054 40.4375C243.767 40.4375 243.338 39.9427 242.765 38.9531L242.862 38.8555V38.7578L242.765 38.1523L243.058 38.2695H243.155V38.1523C243.025 38.1523 242.96 38.0547 242.96 37.8594L242.667 37.5664L242.765 37.2734L242.667 36.8828L242.862 35.5938L242.667 35.3984V34.793L242.862 34.5977L242.765 33.8945L242.862 33.6016L242.765 33.0156V32.7031L242.862 32.3125L242.765 31.9219V31.8242L242.862 31.0234L242.765 30.2227L242.862 30.125V30.0273C242.706 30.0273 242.609 29.5977 242.569 28.7383C242.569 28.2174 241.678 27.918 239.894 27.8398H238.605V31.2188L238.487 33.1133L238.605 33.6016L238.487 33.6992L238.605 34.207V34.9883L238.39 35.1836L238.605 35.8867L238.487 35.9844L238.605 36.082L238.487 36.1797H238.39L238.605 37.1758L238.487 37.2734V37.3711L238.605 37.7617L238.487 38.0547C238.969 39.0573 239.503 39.5586 240.089 39.5586C240.401 39.5586 240.766 39.3568 241.183 38.9531H241.28V39.0508C241.033 39.6758 240.701 40.1055 240.284 40.3398C239.79 41.3424 239.125 41.8438 238.292 41.8438C237.407 41.7396 236.58 41.3034 235.812 40.5352C235.213 41.2643 234.653 41.6289 234.132 41.6289H233.937C232.921 41.6289 231.73 40.7695 230.362 39.0508V38.9531L231.847 39.3438L232.452 39.2461L232.745 39.3438L232.648 39.2461V39.1484C232.791 39.1484 232.986 38.7513 233.234 37.957C233.103 37.957 233.038 37.8594 233.038 37.6641L233.136 37.5664L233.038 37.0781V36.8828L233.136 36.082L233.038 35.4961L233.136 35.1836L233.038 34.5977V34.1094L233.136 33.9922L233.038 33.8945V30.8281L233.234 30.5352L233.038 28.25L233.136 27.9375L231.651 26.3555L231.554 26.2578V26.1602C232.609 24.9492 233.136 24.1224 233.136 23.6797L233.234 22.9766L233.136 22.8789V22.6836L233.234 22.293L233.038 21.6875V21.5898L233.234 21.3945L233.038 20.6914L233.136 20.2031L233.038 19.3047V18.4258L233.136 17.918L233.038 17.2344L233.234 14.8516C232.791 14.3828 232.361 14.1484 231.944 14.1484L230.362 14.9492V14.8516C231.118 13.7448 232.01 13.0156 233.038 12.6641C233.207 12.3906 233.637 12.2539 234.327 12.2539C234.783 12.3451 235.31 12.7096 235.909 13.3477C237.433 12.3581 238.494 11.8633 239.093 11.8633H239.191L239.288 11.9609L241.769 11.7656ZM236.808 13.1523V13.25H237.316V13.1523H236.808ZM238.702 13.1523V13.25L239.191 13.3477H239.288V13.25L238.8 13.1523H238.702ZM239.484 13.3477V13.4453L239.991 13.543H240.284V13.3477H240.187L239.776 13.4453L239.679 13.3477H239.484ZM240.968 13.6602V13.7578L241.378 13.8555V13.6602H240.968ZM242.257 13.8555V13.9531L242.96 14.0508H243.155V13.9531L242.569 13.8555H242.257ZM243.351 14.0508V14.1484H243.761V14.0508H243.351ZM243.956 14.2461V14.3438L244.64 14.4414H245.148V14.3438L244.054 14.2461H243.956ZM245.343 14.4414V14.5391L245.929 14.6367H246.144V14.5391L245.538 14.4414H245.343ZM239.679 14.8516C239.679 15.0469 239.614 15.1445 239.484 15.1445L239.386 15.0469L238.898 15.1445H238.605V16.1406L238.487 16.5312L238.605 16.6289V16.7266L238.487 17.5273L238.605 18.9141L238.487 19.5L238.605 20.3008V21.0039L238.39 21.2969L238.605 21.8828L238.487 22.5859L238.605 22.9766L238.487 23.3867C238.487 23.9727 238.689 24.2656 239.093 24.2656L240.48 24.3633C241.808 23.9987 242.472 23.3411 242.472 22.3906C242.472 21.8568 242.635 21.5898 242.96 21.5898V21.4922C242.7 21.4922 242.569 21.3945 242.569 21.1992V19.207L242.765 19.0117C242.517 16.7591 242.185 15.6328 241.769 15.6328C241.769 15.3984 241.274 15.2031 240.284 15.0469V14.9492L240.187 15.0469H239.776V14.8516H239.679ZM245.343 22.6836V22.7812H245.538L245.929 22.4883H245.831L245.343 22.6836ZM233.937 22.9766V23.1719L234.327 23.3867V23.2891L233.937 22.9766ZM243.859 23.4844V23.582H244.151L244.249 23.4844V23.3867H244.151L243.859 23.4844ZM242.569 23.9727V24.168L242.862 24.0703V23.9727H242.569ZM241.378 24.5781V24.7734L241.866 24.5781V24.4805H241.671L241.378 24.5781ZM240.284 24.9688L240.382 25.0664V25.1641L240.773 25.0664V24.8711L240.284 24.9688ZM238.702 25.457V25.5547H238.995L239.679 25.3594V25.2617H239.386L238.702 25.457ZM240.577 25.3594V25.457H241.085V25.3594H240.577ZM242.667 25.7695V25.8672L243.155 25.9648H243.351V25.8672L242.765 25.7695H242.667ZM243.663 25.9648C243.663 26.0951 243.761 26.1602 243.956 26.1602H244.054V26.0625L243.663 25.9648ZM236.319 26.1602V26.3555L236.808 26.2578V26.1602H236.319ZM244.855 26.3555V26.4531L245.245 26.5508H245.441V26.4531L244.952 26.3555H244.855ZM233.644 26.5508V26.6484H234.132V26.5508H233.644ZM234.523 26.5508C234.523 26.7331 234.125 26.9023 233.331 27.0586V27.1562H233.644C234.204 26.8828 234.633 26.7461 234.933 26.7461V26.5508L234.835 26.6484H234.718L234.62 26.5508H234.523ZM246.437 26.9609V27.1562H246.827V27.0586L246.437 26.9609ZM238.8 27.0586V27.2539H239.093V27.1562L238.8 27.0586ZM244.444 38.2695V38.3672L245.538 38.6602H245.831C245.831 38.569 245.401 38.4388 244.542 38.2695H244.444ZM246.144 38.5625L246.026 38.6602V38.7578H246.925V38.6602L246.144 38.5625ZM247.823 38.7578C247.823 38.888 247.921 38.9531 248.116 38.9531H248.214V38.8555L247.823 38.7578ZM257.98 11.668C258.761 11.668 259.301 11.9154 259.601 12.4102C260.187 12.4102 260.734 13.2891 261.241 15.0469L261.105 15.1641L260.109 14.6758L259.112 15.0469C259.112 15.5807 259.321 16.1667 259.737 16.8047C259.737 17.1432 259.907 17.638 260.245 18.2891H259.737V18.4258C260.154 18.4258 260.362 18.5104 260.362 18.6797L261.105 20.3008C261.248 20.3008 261.71 19.2982 262.491 17.293L262.98 16.4141L262.862 16.2969V16.1602L263.234 15.1641C263.116 14.7474 262.823 14.5391 262.355 14.5391C262.146 14.5391 262.023 14.7083 261.984 15.0469L261.866 15.1641H261.612V14.9102C261.977 13.8034 262.641 13.0156 263.605 12.5469L264.737 12.0391C265.102 12.0521 265.519 12.2214 265.987 12.5469H266.241L266.866 12.0391H266.984C267.296 12.0391 267.674 12.2083 268.116 12.5469L267.999 12.6641V12.918L268.116 12.8008H268.487C269.49 13.9206 269.991 14.7083 269.991 15.1641C269.64 14.8385 269.308 14.6758 268.995 14.6758L267.862 16.043H267.491V16.1602H267.745V16.2969L267.12 17.0391C267.12 17.2474 266.997 17.4557 266.749 17.6641L266.984 17.918L265.987 19.5391L265.87 19.9297L265.987 20.3008C265.766 20.3008 265.473 20.7174 265.109 21.5508C264.9 21.5508 264.607 22.2148 264.23 23.543V23.9141C264.23 24.3177 264.646 24.9883 265.48 25.9258V26.043C264.151 27.3711 263.487 28.25 263.487 28.6797L263.37 29.4219L263.487 32.5469L263.37 32.6836H263.234L263.487 33.4258L263.37 33.543V33.6797L263.487 33.7969V33.9336L263.37 34.5586L263.487 35.0469L263.37 36.4336V37.293L263.234 37.8008C263.663 38.7122 264.165 39.168 264.737 39.168L265.87 38.9141V39.168C264.542 40.5872 263.579 41.2969 262.98 41.2969L262.862 41.1602C262.862 41.4987 262.322 41.7135 261.241 41.8047L260.362 41.1602C260.063 41.4206 259.562 41.5508 258.859 41.5508H258.741C257.947 41.5508 257.068 41.0885 256.105 40.1641L255.987 40.3008H255.851C255.017 39.6367 254.523 39.0508 254.366 38.543H254.484L256.241 39.0508H256.866C257.166 38.8945 257.374 38.6406 257.491 38.2891L257.355 36.1797L257.491 35.6719L257.237 35.418V35.3008L257.355 34.6758L257.237 33.9336V33.1719H257.355L257.862 33.543H257.98L257.101 32.6836L257.237 32.293L257.101 31.5508L257.237 29.0508C257.237 28.1393 256.528 27.1367 255.109 26.043V25.9258L256.241 24.4219L254.366 19.4219C254.236 19.4219 254.106 19.2526 253.976 18.9141L254.112 18.2891L253.976 18.4258H253.859L253.605 18.0547C253.605 17.8854 253.728 17.8008 253.976 17.8008V17.6641C253.403 17.6641 252.986 17.0846 252.726 15.9258L251.984 14.6758L250.48 15.0469V14.9102C250.662 14.3893 251.665 13.4323 253.487 12.0391L254.737 11.9219L255.734 12.5469C256.046 12.5469 256.547 12.2539 257.237 11.668H257.98ZM265.616 16.668L265.48 16.8047V16.9219H265.616L265.987 16.8047V16.668H265.616ZM258.234 18.543L258.116 18.9141H258.487L258.605 18.543H258.234ZM255.362 19.3047L255.109 19.5391L254.737 19.4219V19.6758H254.855C255.193 19.6758 255.655 19.5065 256.241 19.168V19.4219H256.359C256.671 19.1354 257.088 18.9661 257.609 18.9141V18.7969H257.491L255.362 19.3047ZM263.605 23.0547V23.1719L264.112 22.6641V22.5469L263.605 23.0547ZM262.237 23.6797L262.355 23.7969V23.9141L262.237 24.0508V24.168H262.355L262.491 24.0508H262.609L262.491 23.543L262.355 23.6797H262.237ZM261.495 24.3047C261.495 24.4609 261.202 24.6237 260.616 24.793V25.0469C261.046 24.7083 261.547 24.5391 262.12 24.5391V24.4219L261.495 24.3047ZM258.487 25.9258H258.605C259.021 25.8216 259.23 25.6979 259.23 25.5547H259.112C258.696 25.6589 258.487 25.7826 258.487 25.9258ZM257.491 26.043V26.2969L257.862 26.1797V26.043H257.491ZM256.359 26.668V26.8047H256.73V26.5508L256.359 26.668ZM258.487 33.9336L259.112 34.4219V34.168L258.605 33.9336H258.487ZM257.355 34.0508V34.168L257.862 34.3047H257.98V34.168L257.491 34.0508H257.355ZM261.105 35.8086L261.359 36.043H261.495L261.241 35.8086H261.105ZM261.612 36.1797L261.984 36.5508H262.355V36.4336C262.029 36.4336 261.866 36.349 261.866 36.1797H261.612Z" fill="#FFE9C3"/>
</svg>
