<svg width="1439" height="88" viewBox="0 0 1439 88" fill="none" xmlns="http://www.w3.org/2000/svg">
<line y1="43" x2="1440" y2="43" stroke="#FFE9C3" stroke-width="2"/>
<rect x="576" width="312" height="88" fill="#DA604E"/>
<rect x="888" y="12" width="18" height="66" fill="#DA604E"/>
<rect x="558" y="12" width="18" height="66" fill="#DA604E"/>
<ellipse cx="906" cy="45" rx="26" ry="23" fill="#DA604E"/>
<ellipse cx="558" cy="45" rx="26" ry="23" fill="#DA604E"/>
<path d="M660.833 26.2861L661.199 26.4082L661.541 26.2861L661.785 26.5303L662.054 26.2861C663.112 26.4814 663.641 26.7256 663.641 27.0186L664.251 26.9209C664.251 27.0837 664.821 27.5312 665.96 28.2637V28.4834L665.838 28.3857H665.374V28.4834C665.83 28.4834 666.237 28.6055 666.595 28.8496C667.246 28.4102 667.653 27.9626 667.815 27.5068C667.994 27.5068 668.41 27.1813 669.061 26.5303L669.183 26.6523V27.3848L669.061 28.1416L669.183 28.2637V28.3857L669.061 28.7275L669.183 29.2402L669.061 29.3623L669.183 29.9482V30.583L669.061 31.0957L669.183 31.6816L668.914 32.8291L669.183 33.0488L669.061 33.5371L669.183 33.6592L669.061 34.5137V34.7578L669.183 35.8564L669.061 35.9785V36.125L669.183 36.6133L669.061 37.7119L669.183 40.0801C669.183 40.5521 669.012 40.7881 668.67 40.7881H668.45V40.666L667.571 40.7881H665.374L665.13 40.5439L665.252 39.9336C665.089 39.9336 665.008 39.8115 665.008 39.5674C665.008 39.1442 665.089 38.9326 665.252 38.9326L665.13 38.3467V37.5898C665.13 37.4596 665.293 37.3376 665.618 37.2236L665.716 37.126V37.0039H665.618L665.252 37.2236L665.008 36.2471L665.252 35.7344C665.252 33.2279 664.227 31.3887 662.176 30.2168L661.663 30.4609L661.199 30.3389C659.897 30.3389 658.986 31.1934 658.465 32.9023L658.587 33.415L658.367 33.6592L658.465 35.6367L658.123 36.6133L658.245 37.4678V38.5908C658.245 41.2113 658.53 42.5215 659.1 42.5215L660.32 43.9863V44.1328C659.067 45.2721 658.416 46.1266 658.367 46.6963L658.465 46.8184L658.367 47.6729V47.7949L658.465 48.8936L658.245 51.2617H658.465L658.367 52.4824V52.9707L658.465 53.7031L658.367 54.1914L658.465 55.4365L658.367 55.5586V55.6807C658.595 57.8617 658.839 58.9521 659.1 58.9521C659.669 59.4567 660.369 59.709 661.199 59.709L661.785 59.4648L662.176 59.5869C662.745 59.5869 663.193 58.6917 663.519 56.9014L664.031 56.7793L663.519 56.1445V55.29C663.519 54.2972 663.763 53.638 664.251 53.3125L664.495 53.0928V52.9707L663.641 53.7031H663.519V53.1904L663.641 52.4824L663.519 51.8477H663.641L663.519 51.5059L663.763 50.9932C663.616 50.9932 663.494 50.627 663.396 49.8945L663.274 50.0166H663.152L663.03 49.8945H662.884L662.542 50.0166C661.989 49.2679 661.46 48.7389 660.955 48.4297L660.198 47.5508H660.564L661.199 47.6729L661.419 47.4287L661.785 47.5508L665.838 47.3311L666.595 47.4287C666.595 47.2822 667.246 47.0788 668.548 46.8184C669.134 46.3138 669.671 46.0615 670.159 46.0615V46.1836L670.892 45.9395H671.502C672.299 45.9395 672.999 46.5986 673.602 47.917L673.235 48.0391V48.1611C673.479 48.1611 673.602 48.2507 673.602 48.4297C673.602 48.8691 673.431 49.1458 673.089 49.2598H672.967C672.788 48.625 672.381 48.3076 671.746 48.3076H670.892C669.915 48.6169 669.427 49.6829 669.427 51.5059V53.0928L669.305 53.1904H669.183L669.305 53.3125V53.459L669.183 54.3379L669.305 54.46H669.427L669.183 56.3887L669.305 56.7793H669.183L669.427 58.7324L669.305 59.5869L669.427 60.6855L669.183 61.3203H669.427V62.4189H669.183V62.541L669.427 63.0537C669.345 63.7048 669.223 64.0303 669.061 64.0303H668.792L668.548 63.7617L666.717 64.0303L666.351 63.8838L665.252 64.0303C664.52 63.9814 664.153 63.8919 664.153 63.7617L663.396 63.8838L661.785 63.7617L660.442 64.0303V63.8838L660.32 63.7617L659.344 63.8838C659.344 63.7699 658.685 63.5339 657.366 63.1758C655.153 61.2064 654.013 59.7253 653.948 58.7324C653.2 57.6094 652.662 56.4619 652.337 55.29L651.336 51.1152H651.458L651.849 51.2617C651.425 50.7897 651.214 50.1224 651.214 49.2598H651.336L650.994 47.7949V47.6729L651.116 46.9404L650.75 46.0615L650.872 45.9395V45.8418C650.709 45.4349 650.457 45.2314 650.115 45.2314C650.115 44.8734 649.871 44.6211 649.383 44.4746V44.377C649.562 44.0352 649.806 43.8643 650.115 43.8643V43.7422H649.871L649.261 44.1328H649.017V43.9863L650.994 41.7646C651.124 41.0322 651.279 40.666 651.458 40.666V39.8115L651.727 38.8105L651.58 38.6885V38.5908C651.58 38.07 651.792 37.6956 652.215 37.4678L652.093 37.126C652.549 34.7334 652.955 33.5371 653.313 33.5371C653.476 32.3001 654.339 30.8271 655.901 29.1182C656.129 28.8577 656.382 28.7275 656.658 28.7275L656.512 28.6055V28.4834C657.488 27.7673 657.985 27.3197 658.001 27.1406L660.833 26.2861ZM659.856 28.0195V28.1416H659.954L660.833 28.0195V27.8975H660.32L659.856 28.0195ZM664.031 28.0195V28.1416L665.13 28.3857C665.13 28.223 664.804 28.1009 664.153 28.0195H664.031ZM658.855 28.3857V28.4834H659.344V28.3857H658.855ZM667.815 28.7275V28.8496H668.328V28.7275H667.815ZM655.901 29.3623V29.4844H656.39V29.3623H655.901ZM667.449 35.9785V36.125H667.571C667.571 35.7995 668.019 35.474 668.914 35.1484V35.0264H668.792C667.962 35.417 667.514 35.7344 667.449 35.9785ZM666.595 36.6133H666.717L666.985 36.3691H666.839L666.595 36.6133ZM665.838 36.8574L665.96 37.0039V37.126L665.838 37.2236L665.96 37.3457H666.229L666.106 37.2236V37.126L666.229 36.7354L665.838 36.8574ZM667.693 37.126V37.2236H668.206V37.126H667.693ZM665.838 37.834H665.96L666.229 37.5898H666.106L665.838 37.834ZM656.902 39.9336L657 40.0801V40.1533L657.366 40.0801V39.8115H657.244L656.902 39.9336ZM656.268 40.4219L656.023 40.9102H656.146L656.658 40.4219H656.268ZM655.291 40.9102V41.0566H655.413L655.901 40.666H655.779L655.291 40.9102ZM654.412 41.3008L654.29 41.4229V41.5205H654.412L654.803 41.4229V41.3008H654.412ZM653.704 41.6426V41.8867L654.07 41.7646V41.6426H653.704ZM651.727 42.5215H651.849L652.093 42.2773H651.971L651.727 42.5215ZM650.237 43.498V43.6201H650.628V43.376L650.237 43.498ZM671.16 46.4521L670.892 46.9404H671.038C671.299 46.859 671.453 46.6963 671.502 46.4521H671.16ZM668.084 49.2598L668.45 49.6504C669.118 48.5762 669.524 48.0391 669.671 48.0391L669.793 48.1611H670.159V48.0391H669.793V47.917L670.403 47.209H670.281C669.044 48.5762 668.312 49.2598 668.084 49.2598ZM671.16 47.6729V47.7949H671.868V47.6729H671.16ZM670.281 48.0391V48.1611H670.525L670.647 48.0391V47.917L670.281 48.0391ZM667.327 50.1631H667.449L667.693 49.8945H667.571L667.327 50.1631ZM667.571 50.2363C667.571 50.4154 667.449 50.5049 667.205 50.5049V50.627H667.449L667.693 50.2363H667.571ZM666.351 51.1152C666.351 51.3757 666.22 51.5059 665.96 51.5059L665.838 51.6279V51.7256H665.96L666.595 51.1152H666.351ZM665.252 52.2139V52.3604H665.374L665.716 52.2139V51.9697L665.252 52.2139ZM652.605 52.0918V52.2139L652.825 52.4824V52.3604L652.605 52.0918ZM666.717 52.3604V52.4824H667.205V52.3604H666.717ZM667.449 52.3604V52.4824H667.962V52.3604H667.449ZM654.07 53.9473V54.0693C654.445 54.639 654.729 54.9238 654.925 54.9238V54.8018L654.07 53.9473ZM656.512 56.5352V56.7793L657.61 57.8779H657.757L656.658 56.5352H656.512ZM666.717 57.2676H666.839L667.107 57.0234V56.9014L666.717 57.2676ZM665.496 58.1221H665.618L665.838 57.8779H665.716L665.496 58.1221ZM664.617 58.2441V58.3662H665.008V58.1221L664.617 58.2441ZM663.641 58.7324V58.8789H664.153V58.6104L663.641 58.7324ZM664.617 58.9521V59.0986H665.13V58.9521H664.617ZM657.244 60.8076H657.366C657.724 60.5635 658.058 60.4414 658.367 60.4414V60.3438H658.123C657.537 60.5391 657.244 60.6937 657.244 60.8076ZM655.511 60.9297V61.0762H656.023L656.39 60.8076H657V60.5635H656.902L655.511 60.9297ZM691.766 26.5059H692.132C693.011 26.5059 693.963 27.3685 694.988 29.0938L695.281 29.9971H695.11C694.671 29.2972 694.028 28.9473 693.182 28.9473C692.742 28.9473 692.392 29.2077 692.132 29.7285L692.669 32.585C692.506 32.585 692.425 32.7152 692.425 32.9756L692.303 32.8291H692.132V33.4883H692.303L692.425 32.9756H692.669C693.385 39.3558 694.118 42.5459 694.866 42.5459L695.11 43.3271C695.403 43.3271 695.932 43.7096 696.697 44.4746V44.6211C695.981 45.4674 695.452 46.2487 695.11 46.9648L697.479 60.6855C697.739 61.3691 698.121 61.7109 698.626 61.7109H699.017C699.505 61.7109 700.026 61.3691 700.579 60.6855L700.701 60.8076C699.204 62.8747 697.78 63.9082 696.429 63.9082L694.866 63.0049H694.622C693.58 63.6885 692.848 64.0303 692.425 64.0303H691.888C690.683 64.0303 689.568 63.1595 688.543 61.418H688.665C689.609 61.8574 690.341 62.0771 690.862 62.0771C691.383 62.0283 691.644 61.6865 691.644 61.0518L691.277 58.9766L692.01 58.4639H691.888L691.277 58.7324L691.106 58.5859V57.0479C690.683 57.0479 690.382 55.7539 690.203 53.166L690.081 53.0439V52.9219H688.787L687.371 52.7998L686.98 52.9219L685.149 52.5068C685.149 52.7184 684.808 52.8568 684.124 52.9219C683.619 55.8027 683.147 57.9105 682.708 59.2451L682.586 61.1738C682.749 61.6947 683.09 61.9551 683.611 61.9551C684.018 61.9551 684.45 61.776 684.905 61.418V61.7109C684.547 62.5085 683.693 63.2816 682.342 64.0303H681.805C681.089 64.0303 680.356 63.6478 679.607 62.8828H679.485C678.72 63.5664 678.029 63.9082 677.41 63.9082H676.873C674.806 63.3874 673.772 62.5573 673.772 61.418C674.342 61.776 674.904 61.9551 675.457 61.9551C676.417 61.9551 677.109 61.182 677.532 59.6357H677.654L677.532 59.4893V59.0986L678.704 55.9004L678.558 55.7783V55.4854L679.07 53.2881L678.948 53.166L680.096 49.04L679.974 48.8936V48.7715C680.12 48.5924 680.258 47.9902 680.389 46.9648C680.161 46.3301 679.64 45.5488 678.826 44.6211C678.973 44.2305 679.616 43.5794 680.755 42.668L681.683 41.374C681.683 40.609 682.106 40.0475 682.952 39.6895V39.5674L682.586 39.4453C682.521 39.8848 682.382 40.1045 682.171 40.1045H682.049V39.8115C683.172 35.6611 683.733 33.1221 683.733 32.1943L684.002 31.1689C684.002 29.9482 683.53 29.3379 682.586 29.3379L681.414 29.8506V29.7285C682.439 28.0195 683.392 27.165 684.271 27.165C684.271 26.9697 684.482 26.8721 684.905 26.8721V27.0186L685.027 26.8721H685.32V27.165H685.564V26.8721C686.655 26.8721 687.77 27.4336 688.909 28.5566C690 27.1895 690.952 26.5059 691.766 26.5059ZM685.809 27.8975V28.0684H685.931L686.346 27.8975V27.7754H686.175L685.809 27.8975ZM684.783 29.2158V29.3379H684.905L685.442 28.8252H685.32C684.962 28.9717 684.783 29.1019 684.783 29.2158ZM690.472 35.0508V35.2949C690.862 35.181 691.375 34.7985 692.01 34.1475H691.888C691.53 34.2451 691.147 34.5462 690.74 35.0508H690.472ZM689.568 35.9541H689.69L690.203 35.6855V35.417H690.081L689.568 35.9541ZM687.884 37.0039H688.006C688.396 36.8249 688.616 36.6458 688.665 36.4668V36.3447C688.144 36.6051 687.884 36.8249 687.884 37.0039ZM687.64 36.7109L687.371 37.248H687.64L687.762 36.833V36.7109H687.64ZM689.031 37.126L689.446 37.4922L690.203 37.3701V37.6143H690.618C690.618 37.3701 690.398 37.248 689.959 37.248V37.126L689.812 37.248H689.69L689.031 37.126ZM684.783 38.542V38.7861L686.98 37.4922V37.3701H686.712L684.783 38.542ZM687.64 37.3701C687.444 38.9163 687.135 39.6895 686.712 39.6895L686.834 39.8115L686.468 41.7646L686.59 42.1553C686.15 43.1807 685.63 45.0361 685.027 47.7217L684.905 47.8682C685.182 47.8682 685.32 47.9984 685.32 48.2588L685.442 48.3809H685.564L686.053 48.2588L688.665 48.5029C688.665 48.3402 688.925 48.2588 689.446 48.2588L688.665 42.5459L688.787 42.1553C688.104 40.0068 687.762 38.4118 687.762 37.3701H687.64ZM690.862 37.6143L691.277 38.0293L691.399 37.9072V37.7363L690.862 37.6143ZM691.766 38.1514L692.132 38.542V38.3955L691.888 38.1514H691.766ZM692.425 38.6641V38.7861L692.938 38.9326C692.938 38.7536 692.807 38.6641 692.547 38.6641H692.425ZM683.611 39.1768V39.5674L684.124 39.1768V39.0547L683.611 39.1768ZM681.146 54.7285V54.9971L681.536 54.8506V54.7285H681.146ZM680.242 54.9971V55.1191H680.389L680.877 54.9971V54.8506H680.633L680.242 54.9971ZM679.485 55.1191L679.363 55.2412V55.3633H679.485L679.852 55.2412V55.1191H679.485ZM694.231 56.8037V57.0479L694.622 56.9258V56.6816L694.231 56.8037ZM693.841 57.707H693.963L694.866 57.4385V57.1699C694.183 57.3164 693.841 57.4954 693.841 57.707ZM692.669 57.9512V58.0732H692.938V57.707L692.669 57.9512ZM692.303 58.0732L692.132 58.4639H692.425V58.0732H692.303ZM692.938 59.2451L693.328 59.6357V59.4893L693.06 59.2451H692.938ZM693.328 59.7578V59.9043L693.841 60.1484V59.7578H693.328ZM694.085 60.2705L694.5 60.9297H694.744V60.5146L694.231 60.2705H694.085ZM696.429 61.833V61.9551C696.657 62.3945 697.007 62.6143 697.479 62.6143L696.429 61.833ZM710.101 26.3105C711.989 26.3105 713.551 27.4499 714.788 29.7285H714.666C714.145 29.3053 713.632 29.0938 713.128 29.0938H712.884C711.924 29.0938 711.37 29.6064 711.224 30.6318L711.37 31.6328L711.224 34.3184L710.979 34.5625L711.102 34.6846V34.8066L710.857 35.0752L711.102 35.4414L710.979 36.0762L711.224 36.3447L710.979 36.5889L711.224 37.4922L710.979 38.127L711.224 38.3711V38.6152L711.102 39.1279L711.224 39.6406V39.7627L710.979 40.1533V40.2754L711.736 42.4238C712.029 42.4238 712.534 42.8958 713.25 43.8398C711.818 45.5163 711.102 46.5661 711.102 46.9893L710.979 47.7705L711.224 48.7715L711.102 50.5537L711.224 51.9453L710.979 52.2139V52.3359L711.224 52.7021L711.102 53.4834L711.224 55.1191V55.3877L710.979 55.7539L711.224 56.0225L711.102 56.1445V56.2666L711.37 56.5107V57.6582C711.37 59.3509 712.168 60.1973 713.763 60.1973C715.228 60.1973 716.497 58.8057 717.571 56.0225L717.693 54.6064L717.449 53.8496V53.7275H718.084V53.4834L717.962 53.6055H717.815L717.327 53.3369L717.449 52.5801L717.327 50.3096C717.376 49.7887 717.498 49.5283 717.693 49.5283H718.328L718.597 49.7969L718.719 49.6748L719.988 49.7969L722.015 49.5283L722.137 49.6748L722.015 52.2139V52.8486L721.746 53.0928C722.007 54.0856 722.137 55.1436 722.137 56.2666C721.746 58.1221 721.242 59.3428 720.623 59.9287C719.679 61.54 718.873 62.3457 718.206 62.3457C718.206 62.7526 717.531 63.0537 716.18 63.249L715.789 63.1025C715.789 63.6234 714.568 63.8838 712.127 63.8838C710.955 63.8838 709.474 63.3711 707.684 62.3457L707.415 62.6143L707.293 62.4678H707.171L706.292 62.7363C704.648 62.7363 702.785 62.012 700.701 60.5635L700.579 60.4414V60.1973H700.701L702.728 60.5635C703.655 60.2542 704.119 59.709 704.119 58.9277C704.119 58.5859 704.209 58.415 704.388 58.415L704.266 57.7803L704.51 57.4141L704.266 57.0234V56.5107L704.388 55.876L704.266 55.7539H704.119L704.266 54.4844V52.3359L704.388 52.2139L704.266 51.8232L704.119 49.5283L704.266 48.7715L704.119 48.1367L704.266 47.1357C704.266 46.3382 703.631 45.321 702.361 44.084C703.419 42.9121 704.135 41.8135 704.51 40.7881C704.249 40.1859 704.119 39.5918 704.119 39.0059L704.388 37.6143L704.119 36.0762L704.388 34.4404L704.266 33.9277V33.8057L704.388 33.6836V33.5371L704.119 33.293V31.7793C703.859 29.9889 703.273 29.0938 702.361 29.0938H702.093C701.718 29.0938 701.255 29.3542 700.701 29.875L700.579 29.7285C700.937 28.7682 701.572 28.0114 702.483 27.458H702.605L703.118 27.7021H703.24V27.5801L702.728 27.458C703.476 26.7744 704.412 26.4326 705.535 26.4326C706.333 26.4326 707.09 26.8151 707.806 27.5801C708.554 26.7337 709.319 26.3105 710.101 26.3105ZM704.266 28.0928L704.51 28.3369H704.632L704.388 28.0928H704.266ZM705.267 28.459V28.7275L705.657 28.8496V28.6055L705.267 28.459ZM706.536 29.0938V29.2402L706.927 29.3623V29.0938H706.536ZM707.293 29.3623V29.4844H707.806V29.3623H707.293ZM709.832 35.1973H709.954L710.223 34.9531H710.101L709.832 35.1973ZM708.44 36.4668V36.5889L708.685 36.3447V36.2227L708.44 36.4668ZM707.415 37.1016V37.2236L707.806 36.8574H707.684L707.415 37.1016ZM707.928 37.9805V38.127L708.318 37.7363H708.196L707.928 37.9805ZM706.17 38.3711L705.901 38.7617H706.17L706.292 38.3711H706.17ZM705.267 39.3965V39.5186L705.535 39.25V39.1279L705.267 39.3965ZM705.657 39.6406H705.779L706.023 39.3965H705.901L705.657 39.6406ZM721.502 50.7979V50.9443L721.746 50.6758V50.5537L721.502 50.7979ZM719.085 50.6758V50.9443L719.476 50.7979V50.6758H719.085ZM719.988 52.2139V52.458C720.818 52.1488 721.282 51.8558 721.38 51.5791H721.258C720.802 52.0023 720.379 52.2139 719.988 52.2139ZM708.953 57.292V57.4141H709.075C709.726 57.3001 710.32 57.0479 710.857 56.6572H710.735C709.856 57.0804 709.262 57.292 708.953 57.292ZM708.05 57.6582V57.7803H708.318L708.685 57.6582V57.5361H708.44L708.05 57.6582ZM707.293 57.9268L707.171 58.0244V58.1709H707.562L707.293 57.9268ZM706.658 58.0244L706.536 58.1709V58.293H706.658L707.049 58.1709V58.0244H706.658ZM706.023 58.415H706.17L706.414 58.1709H706.292L706.023 58.415ZM715.545 60.1973L715.789 60.4414H715.911L715.667 60.1973H715.545ZM716.424 60.5635L716.692 60.832H716.814L716.546 60.5635H716.424ZM717.962 61.3447V61.4668L718.841 61.5889V61.3447H717.962ZM731.829 26.3105C733.717 26.3105 735.28 27.4499 736.517 29.7285H736.395C735.874 29.3053 735.361 29.0938 734.856 29.0938H734.612C733.652 29.0938 733.099 29.6064 732.952 30.6318L733.099 31.6328L732.952 34.3184L732.708 34.5625L732.83 34.6846V34.8066L732.586 35.0752L732.83 35.4414L732.708 36.0762L732.952 36.3447L732.708 36.5889L732.952 37.4922L732.708 38.127L732.952 38.3711V38.6152L732.83 39.1279L732.952 39.6406V39.7627L732.708 40.1533V40.2754L733.465 42.4238C733.758 42.4238 734.262 42.8958 734.979 43.8398C733.546 45.5163 732.83 46.5661 732.83 46.9893L732.708 47.7705L732.952 48.7715L732.83 50.5537L732.952 51.9453L732.708 52.2139V52.3359L732.952 52.7021L732.83 53.4834L732.952 55.1191V55.3877L732.708 55.7539L732.952 56.0225L732.83 56.1445V56.2666L733.099 56.5107V57.6582C733.099 59.3509 733.896 60.1973 735.491 60.1973C736.956 60.1973 738.226 58.8057 739.3 56.0225L739.422 54.6064L739.178 53.8496V53.7275H739.812V53.4834L739.69 53.6055H739.544L739.056 53.3369L739.178 52.5801L739.056 50.3096C739.104 49.7887 739.227 49.5283 739.422 49.5283H740.057L740.325 49.7969L740.447 49.6748L741.717 49.7969L743.743 49.5283L743.865 49.6748L743.743 52.2139V52.8486L743.475 53.0928C743.735 54.0856 743.865 55.1436 743.865 56.2666C743.475 58.1221 742.97 59.3428 742.352 59.9287C741.408 61.54 740.602 62.3457 739.935 62.3457C739.935 62.7526 739.259 63.0537 737.908 63.249L737.518 63.1025C737.518 63.6234 736.297 63.8838 733.855 63.8838C732.684 63.8838 731.202 63.3711 729.412 62.3457L729.144 62.6143L729.021 62.4678H728.899L728.021 62.7363C726.377 62.7363 724.513 62.012 722.43 60.5635L722.308 60.4414V60.1973H722.43L724.456 60.5635C725.384 60.2542 725.848 59.709 725.848 58.9277C725.848 58.5859 725.937 58.415 726.116 58.415L725.994 57.7803L726.238 57.4141L725.994 57.0234V56.5107L726.116 55.876L725.994 55.7539H725.848L725.994 54.4844V52.3359L726.116 52.2139L725.994 51.8232L725.848 49.5283L725.994 48.7715L725.848 48.1367L725.994 47.1357C725.994 46.3382 725.359 45.321 724.09 44.084C725.148 42.9121 725.864 41.8135 726.238 40.7881C725.978 40.1859 725.848 39.5918 725.848 39.0059L726.116 37.6143L725.848 36.0762L726.116 34.4404L725.994 33.9277V33.8057L726.116 33.6836V33.5371L725.848 33.293V31.7793C725.587 29.9889 725.001 29.0938 724.09 29.0938H723.821C723.447 29.0938 722.983 29.3542 722.43 29.875L722.308 29.7285C722.666 28.7682 723.3 28.0114 724.212 27.458H724.334L724.847 27.7021H724.969V27.5801L724.456 27.458C725.205 26.7744 726.141 26.4326 727.264 26.4326C728.061 26.4326 728.818 26.8151 729.534 27.5801C730.283 26.7337 731.048 26.3105 731.829 26.3105ZM725.994 28.0928L726.238 28.3369H726.36L726.116 28.0928H725.994ZM726.995 28.459V28.7275L727.386 28.8496V28.6055L726.995 28.459ZM728.265 29.0938V29.2402L728.655 29.3623V29.0938H728.265ZM729.021 29.3623V29.4844H729.534V29.3623H729.021ZM731.561 35.1973H731.683L731.951 34.9531H731.829L731.561 35.1973ZM730.169 36.4668V36.5889L730.413 36.3447V36.2227L730.169 36.4668ZM729.144 37.1016V37.2236L729.534 36.8574H729.412L729.144 37.1016ZM729.656 37.9805V38.127L730.047 37.7363H729.925L729.656 37.9805ZM727.898 38.3711L727.63 38.7617H727.898L728.021 38.3711H727.898ZM726.995 39.3965V39.5186L727.264 39.25V39.1279L726.995 39.3965ZM727.386 39.6406H727.508L727.752 39.3965H727.63L727.386 39.6406ZM743.23 50.7979V50.9443L743.475 50.6758V50.5537L743.23 50.7979ZM740.813 50.6758V50.9443L741.204 50.7979V50.6758H740.813ZM741.717 52.2139V52.458C742.547 52.1488 743.011 51.8558 743.108 51.5791H742.986C742.531 52.0023 742.107 52.2139 741.717 52.2139ZM730.682 57.292V57.4141H730.804C731.455 57.3001 732.049 57.0479 732.586 56.6572H732.464C731.585 57.0804 730.991 57.292 730.682 57.292ZM729.778 57.6582V57.7803H730.047L730.413 57.6582V57.5361H730.169L729.778 57.6582ZM729.021 57.9268L728.899 58.0244V58.1709H729.29L729.021 57.9268ZM728.387 58.0244L728.265 58.1709V58.293H728.387L728.777 58.1709V58.0244H728.387ZM727.752 58.415H727.898L728.143 58.1709H728.021L727.752 58.415ZM737.273 60.1973L737.518 60.4414H737.64L737.396 60.1973H737.273ZM738.152 60.5635L738.421 60.832H738.543L738.274 60.5635H738.152ZM739.69 61.3447V61.4668L740.569 61.5889V61.3447H739.69ZM764.739 26.3594H764.861C764.861 26.5221 764.992 26.6035 765.252 26.6035L765.374 30.0459C765.374 30.6481 765.122 31.1445 764.617 31.5352L764.739 31.3887H764.861L765.008 31.5352H765.13V31.1445L765.374 31.3887L765.252 32.3896L765.374 35.4658V37.5654C765.374 38.2327 765.203 38.5664 764.861 38.5664L763.909 38.4443L763.396 38.5664L762.42 38.4443L761.419 38.5664L761.297 37.4434L761.419 35.9785L761.297 35.4658L761.688 34.7578C761.427 34.6764 761.297 34.4242 761.297 34.001L761.419 33.1221C761.419 32.3734 760.475 31.6003 758.587 30.8027L757.854 30.6807C756.162 30.6807 755.096 31.0062 754.656 31.6572H754.534C754.371 34.945 754.201 36.7923 754.021 37.1992C754.217 37.1992 754.347 37.4922 754.412 38.0781L754.168 39.4209L754.412 39.665L754.29 39.7871L754.412 39.9092V40.0312L754.29 40.7637C754.29 41.7565 754.567 42.2529 755.12 42.2529L756.121 41.8867L757.488 42.1309C758.221 41.9193 758.587 41.2601 758.587 40.1533C758.587 39.6813 758.302 39.2256 757.732 38.7861V38.5664H757.854C759.498 39.0059 760.32 39.7383 760.32 40.7637L760.467 41.252V41.374C760.467 42.5133 760.215 43.3434 759.71 43.8643C759.71 44.2549 759.873 44.4502 760.198 44.4502L760.54 46.0859C760.149 47.7949 759.295 48.6494 757.977 48.6494L757.342 48.7715V48.6494C758.107 47.8844 758.489 47.266 758.489 46.7939C758.489 46.5986 758.025 46.4359 757.098 46.3057H756.731L755.877 46.4277L755.755 46.3057V46.208C754.697 46.2731 754.168 46.5091 754.168 46.916L754.412 47.4287L754.29 49.9922L754.412 50.1143V50.2363L754.168 51.2373V51.6279H754.412V52.3359L754.168 53.0928L754.29 53.2148V53.3369L754.168 54.1914L754.29 55.5586H754.168L754.534 56.6572L754.29 56.9258L754.412 57.292L754.29 57.4141V57.5361L754.534 58.1221L754.29 58.3662C754.599 58.7406 754.754 59.1475 754.754 59.5869L756.512 60.0996C757.944 60.0996 759.539 59.359 761.297 57.8779L761.419 56.5352L761.297 56.4131V56.291L761.419 54.8262L761.297 54.6797V54.5576L761.541 53.8252L761.297 52.8486L761.541 52.6045L761.297 52.2139V51.8721L761.419 51.75V51.6279L762.762 51.8721L763.152 51.6279L764.397 51.75H765.13L765.252 51.8721H765.374L765.13 52.6045V52.7266L765.374 53.7275V54.0693L765.13 55.0703L765.374 55.7783V56.1689C765.211 56.4945 764.959 56.6572 764.617 56.6572V56.9258L765.252 56.5352L765.374 57.4141V57.8779C765.325 58.7731 763.966 60.3763 761.297 62.6875C759.246 63.6803 757.928 64.1768 757.342 64.1768L757.22 64.0303L756.634 64.1768H756.121C754.021 64.1768 752.329 63.5583 751.043 62.3213C750.441 62.9072 749.993 63.2002 749.7 63.2002H749.09C747.885 63.2002 746.494 62.541 744.915 61.2227L744.671 60.9785L744.28 60.4658L744.402 60.3438C745.184 60.8483 745.721 61.1006 746.014 61.1006H746.648C747.365 60.7588 747.723 60.2135 747.723 59.4648L747.601 59.001L747.869 58.7568L747.601 58.1221L747.723 57.292L747.601 56.291L747.869 56.0469L747.479 55.6562L747.601 54.0693L747.479 53.7275L747.601 52.6045V52.0918L747.723 51.9697L747.479 51.5059L747.601 49.5283V49.0156L747.479 48.2832L747.723 47.7949C747.56 47.7949 747.479 47.6729 747.479 47.4287L747.601 46.5498L747.356 46.3057H747.601V46.208C747.145 46.208 746.738 45.7523 746.38 44.8408L746.648 44.5723L746.502 44.4502H745.623V44.3281L747.479 42.0088V40.7637L747.601 40.0312L747.479 39.665L747.723 38.2002C747.56 38.2002 747.479 38.07 747.479 37.8096L747.601 36.1006L747.479 35.9785V35.8564L747.723 34.8799L747.479 34.3672L747.601 33.4883C747.535 31.2747 747.454 30.168 747.356 30.168L745.379 29.5576L744.158 30.4365H744.036V30.3145C744.036 29.2565 745.265 28.1904 747.723 27.1162H748.87C749.57 27.1162 750.221 27.4824 750.823 28.2148C752.646 27.1406 753.883 26.6035 754.534 26.6035L756.268 26.7256L757.61 26.4814C757.61 26.693 758.139 26.8232 759.197 26.8721L762.64 28.3369C763.112 28.3369 763.812 27.6777 764.739 26.3594ZM753.143 27.458C753.143 27.6208 753.273 27.7021 753.533 27.7021H753.655V27.5801L753.143 27.458ZM755.511 28.7031L755.755 28.9473H755.877L755.633 28.7031H755.511ZM748.479 29.0938L748.357 29.4355V29.5576H748.479L748.748 29.3135V29.2158L748.87 29.3135H749.334V29.2158L748.748 29.0938L748.602 29.2158L748.479 29.0938ZM757.732 29.6797V29.8018L758.489 30.0459H758.587V29.9238L757.854 29.6797H757.732ZM760.467 31.3887L761.053 31.9014V31.6572L760.54 31.3887H760.467ZM764.397 31.7793V32.1455H764.617V31.7793H764.397ZM761.932 34.3672H762.054L762.298 34.123H762.176L761.932 34.3672ZM763.909 34.6357C763.909 34.7985 764.275 34.9938 765.008 35.2217H765.13V35.0996L763.909 34.6357ZM753.289 40.4219V40.5439L753.533 40.7637L753.777 40.5439L753.411 40.4219H753.289ZM752.898 41.1299V41.252H753.289V41.0078L752.898 41.1299ZM752.19 41.7646L752.435 42.0088H752.898L752.679 41.7646H752.19ZM751.678 42.0088V42.2529L752.068 42.1309V41.8867L751.678 42.0088ZM759.075 42.6191V42.7412L759.588 42.1309V42.0088L759.075 42.6191ZM750.579 42.6191C750.433 42.9447 750.14 43.1074 749.7 43.1074V43.3516L750.921 42.7412V42.6191H750.579ZM748.113 43.7422L747.991 43.8643V43.9863H748.113L748.479 43.8643V43.7422H748.113ZM749.7 44.4502H749.822L750.335 44.2305V44.1084H750.213C749.871 44.2386 749.7 44.3525 749.7 44.4502ZM748.113 45.6953V45.8418H748.479V45.5732L748.113 45.6953ZM764.031 57.0479L763.787 57.292V57.4141H764.031L764.275 57.0479H764.031ZM763.152 57.6338V57.8779L763.519 57.7559V57.6338H763.152ZM762.176 58.4883H762.298L762.518 58.2441H762.42L762.176 58.4883ZM760.931 59.2451H761.053L761.419 58.8789H761.297L760.931 59.2451ZM759.954 59.8555H760.076L760.32 59.5869H760.198L759.954 59.8555ZM758.831 60.2217V60.3438H758.953L759.71 60.0996V59.8555L758.831 60.2217ZM757.098 61.6865H757.22L757.488 61.4424H757.342L757.098 61.6865ZM755.511 62.6875H755.633L755.877 62.4434H755.755L755.511 62.6875ZM754.656 63.2002V63.2979L755.242 62.9316V62.8096H755.12L754.656 63.2002ZM779.729 26.457C781.634 26.457 783.408 27.2464 785.052 28.8252C786.712 30.7458 787.542 32.5605 787.542 34.2695C787.493 35.0996 787.412 35.5146 787.298 35.5146L787.542 36.0029C787.542 37.9561 786.883 39.8197 785.564 41.5938C785.353 41.5938 784.775 42.2122 783.831 43.4492V43.6934C785.784 44.5234 786.899 45.3535 787.176 46.1836L787.42 46.6719L787.298 47.0625H787.42C787.664 47.0625 787.786 47.5182 787.786 48.4297V48.918L787.664 49.6504L787.786 49.7969L787.664 50.6514L787.786 52.0186L787.542 52.5068L787.664 52.8975L787.42 54.5088C787.664 55.3551 787.868 56.9176 788.03 59.1963C788.551 59.7822 789.007 60.0752 789.397 60.0752H789.52C789.829 60.0752 790.162 59.9124 790.521 59.5869H790.643V59.709C790.643 60.1322 790.521 60.3763 790.276 60.4414H789.91L789.153 60.3193H789.031V60.4414L790.276 60.6855C789.788 61.8737 788.34 62.9479 785.931 63.9082L785.442 64.0547H785.052C784.091 64.0547 783.27 63.4688 782.586 62.2969C782.228 62.2969 781.691 61.6784 780.975 60.4414L781.097 60.3193V60.1973L780.975 59.4404L781.341 59.5869H781.463V59.4404C781.3 59.4404 781.219 59.3184 781.219 59.0742L780.853 58.708L780.975 58.3418L780.853 57.8535L781.097 56.2422L780.853 55.998V55.2412L781.097 54.9971L780.975 54.1182L781.097 53.752L780.975 53.0195V52.6289L781.097 52.1406L780.975 51.6523V51.5303L781.097 50.5293L780.975 49.5283L781.097 49.4062V49.2842C780.901 49.2842 780.779 48.7471 780.73 47.6729C780.73 47.0218 779.616 46.6475 777.386 46.5498H775.774V50.7734L775.628 53.1416L775.774 53.752L775.628 53.874L775.774 54.5088V55.4854L775.506 55.7295L775.774 56.6084L775.628 56.7305L775.774 56.8525L775.628 56.9746H775.506L775.774 58.2197L775.628 58.3418V58.4639L775.774 58.9521L775.628 59.3184C776.23 60.5716 776.897 61.1982 777.63 61.1982C778.021 61.1982 778.476 60.946 778.997 60.4414H779.119V60.5635C778.81 61.3447 778.395 61.8818 777.874 62.1748C777.256 63.4281 776.425 64.0547 775.384 64.0547C774.277 63.9245 773.243 63.3792 772.283 62.4189C771.535 63.3304 770.835 63.7861 770.184 63.7861H769.939C768.67 63.7861 767.181 62.7119 765.472 60.5635V60.4414L767.327 60.9297L768.084 60.8076L768.45 60.9297L768.328 60.8076V60.6855C768.507 60.6855 768.751 60.1891 769.061 59.1963C768.898 59.1963 768.816 59.0742 768.816 58.8301L768.938 58.708L768.816 58.0977V57.8535L768.938 56.8525L768.816 56.1201L768.938 55.7295L768.816 54.9971V54.3867L768.938 54.2402L768.816 54.1182V50.2852L769.061 49.9189L768.816 47.0625L768.938 46.6719L767.083 44.6943L766.961 44.5723V44.4502C768.279 42.9365 768.938 41.903 768.938 41.3496L769.061 40.4707L768.938 40.3486V40.1045L769.061 39.6162L768.816 38.8594V38.7373L769.061 38.4932L768.816 37.6143L768.938 37.0039L768.816 35.8809V34.7822L768.938 34.1475L768.816 33.293L769.061 30.3145C768.507 29.7285 767.97 29.4355 767.449 29.4355L765.472 30.4365V30.3145C766.416 28.931 767.531 28.0195 768.816 27.5801C769.028 27.2383 769.565 27.0674 770.428 27.0674C770.997 27.1813 771.657 27.637 772.405 28.4346C774.31 27.1976 775.636 26.5791 776.385 26.5791H776.507L776.629 26.7012L779.729 26.457ZM773.528 28.1904V28.3125H774.163V28.1904H773.528ZM775.896 28.1904V28.3125L776.507 28.4346H776.629V28.3125L776.019 28.1904H775.896ZM776.873 28.4346V28.5566L777.508 28.6787H777.874V28.4346H777.752L777.239 28.5566L777.117 28.4346H776.873ZM778.729 28.8252V28.9473L779.241 29.0693V28.8252H778.729ZM780.34 29.0693V29.1914L781.219 29.3135H781.463V29.1914L780.73 29.0693H780.34ZM781.707 29.3135V29.4355H782.22V29.3135H781.707ZM782.464 29.5576V29.6797L783.318 29.8018H783.953V29.6797L782.586 29.5576H782.464ZM784.197 29.8018V29.9238L784.93 30.0459H785.198V29.9238L784.441 29.8018H784.197ZM777.117 30.3145C777.117 30.5586 777.036 30.6807 776.873 30.6807L776.751 30.5586L776.141 30.6807H775.774V31.9258L775.628 32.4141L775.774 32.5361V32.6582L775.628 33.6592L775.774 35.3926L775.628 36.125L775.774 37.126V38.0049L775.506 38.3711L775.774 39.1035L775.628 39.9824L775.774 40.4707L775.628 40.9834C775.628 41.7158 775.88 42.082 776.385 42.082L778.118 42.2041C779.778 41.7484 780.608 40.9264 780.608 39.7383C780.608 39.071 780.812 38.7373 781.219 38.7373V38.6152C780.893 38.6152 780.73 38.4932 780.73 38.249V35.7588L780.975 35.5146C780.665 32.6989 780.25 31.291 779.729 31.291C779.729 30.998 779.111 30.7539 777.874 30.5586V30.4365L777.752 30.5586H777.239V30.3145H777.117ZM784.197 40.1045V40.2266H784.441L784.93 39.8604H784.808L784.197 40.1045ZM769.939 40.4707V40.7148L770.428 40.9834V40.8613L769.939 40.4707ZM782.342 41.1055V41.2275H782.708L782.83 41.1055V40.9834H782.708L782.342 41.1055ZM780.73 41.7158V41.96L781.097 41.8379V41.7158H780.73ZM779.241 42.4727V42.7168L779.852 42.4727V42.3506H779.607L779.241 42.4727ZM777.874 42.9609L777.996 43.083V43.2051L778.484 43.083V42.8389L777.874 42.9609ZM775.896 43.5713V43.6934H776.263L777.117 43.4492V43.3271H776.751L775.896 43.5713ZM778.24 43.4492V43.5713H778.875V43.4492H778.24ZM780.853 43.9619V44.084L781.463 44.2061H781.707V44.084L780.975 43.9619H780.853ZM782.098 44.2061C782.098 44.3688 782.22 44.4502 782.464 44.4502H782.586V44.3281L782.098 44.2061ZM772.918 44.4502V44.6943L773.528 44.5723V44.4502H772.918ZM783.587 44.6943V44.8164L784.075 44.9385H784.319V44.8164L783.709 44.6943H783.587ZM769.573 44.9385V45.0605H770.184V44.9385H769.573ZM770.672 44.9385C770.672 45.1663 770.175 45.3779 769.183 45.5732V45.6953H769.573C770.273 45.3535 770.81 45.1826 771.185 45.1826V44.9385L771.062 45.0605H770.916L770.794 44.9385H770.672ZM785.564 45.4512V45.6953H786.053V45.5732L785.564 45.4512ZM776.019 45.5732V45.8174H776.385V45.6953L776.019 45.5732ZM783.074 59.5869V59.709L784.441 60.0752H784.808C784.808 59.9613 784.271 59.7985 783.196 59.5869H783.074ZM785.198 59.9531L785.052 60.0752V60.1973H786.175V60.0752L785.198 59.9531ZM787.298 60.1973C787.298 60.36 787.42 60.4414 787.664 60.4414H787.786V60.3193L787.298 60.1973ZM799.993 26.335C800.97 26.335 801.645 26.6442 802.02 27.2627C802.752 27.2627 803.436 28.3613 804.07 30.5586L803.899 30.7051L802.654 30.0947L801.409 30.5586C801.409 31.2259 801.67 31.9583 802.19 32.7559C802.19 33.179 802.402 33.7975 802.825 34.6113H802.19V34.7822C802.711 34.7822 802.972 34.888 802.972 35.0996L803.899 37.126C804.078 37.126 804.656 35.8727 805.633 33.3662L806.243 32.2676L806.097 32.1211V31.9502L806.561 30.7051C806.414 30.1842 806.048 29.9238 805.462 29.9238C805.201 29.9238 805.047 30.1354 804.998 30.5586L804.852 30.7051H804.534V30.3877C804.99 29.0042 805.82 28.0195 807.024 27.4336L808.44 26.7988C808.896 26.8151 809.417 27.0267 810.003 27.4336H810.32L811.102 26.7988H811.248C811.639 26.7988 812.111 27.0104 812.664 27.4336L812.518 27.5801V27.8975L812.664 27.751H813.128C814.381 29.1507 815.008 30.1354 815.008 30.7051C814.568 30.2982 814.153 30.0947 813.763 30.0947L812.347 31.8037H811.883V31.9502H812.2V32.1211L811.419 33.0488C811.419 33.3092 811.264 33.5697 810.955 33.8301L811.248 34.1475L810.003 36.1738L809.856 36.6621L810.003 37.126C809.726 37.126 809.36 37.6468 808.904 38.6885C808.644 38.6885 808.278 39.5186 807.806 41.1787V41.6426C807.806 42.1471 808.326 42.9854 809.368 44.1572V44.3037C807.708 45.9639 806.878 47.0625 806.878 47.5996L806.731 48.5273L806.878 52.4336L806.731 52.6045H806.561L806.878 53.5322L806.731 53.6787V53.8496L806.878 53.9961V54.167L806.731 54.9482L806.878 55.5586L806.731 57.292V58.3662L806.561 59.001C807.098 60.1403 807.724 60.71 808.44 60.71L809.856 60.3926V60.71C808.196 62.484 806.992 63.3711 806.243 63.3711L806.097 63.2002C806.097 63.6234 805.421 63.8919 804.07 64.0059L802.972 63.2002C802.597 63.5257 801.971 63.6885 801.092 63.6885H800.945C799.952 63.6885 798.854 63.1107 797.649 61.9551L797.503 62.126H797.332C796.29 61.2959 795.672 60.5635 795.477 59.9287H795.623L797.82 60.5635H798.602C798.976 60.3682 799.236 60.0508 799.383 59.6113L799.212 56.9746L799.383 56.3398L799.065 56.0225V55.876L799.212 55.0947L799.065 54.167V53.2148H799.212L799.847 53.6787H799.993L798.895 52.6045L799.065 52.1162L798.895 51.1885L799.065 48.0635C799.065 46.9242 798.178 45.6709 796.404 44.3037V44.1572L797.82 42.2773L795.477 36.0273C795.314 36.0273 795.151 35.8158 794.988 35.3926L795.159 34.6113L794.988 34.7822H794.842L794.524 34.3184C794.524 34.1068 794.679 34.001 794.988 34.001V33.8301C794.272 33.8301 793.751 33.1058 793.426 31.6572L792.498 30.0947L790.618 30.5586V30.3877C790.846 29.7367 792.099 28.5404 794.378 26.7988L795.94 26.6523L797.186 27.4336C797.576 27.4336 798.203 27.0674 799.065 26.335H799.993ZM809.539 32.585L809.368 32.7559V32.9023H809.539L810.003 32.7559V32.585H809.539ZM800.311 34.9287L800.164 35.3926H800.628L800.774 34.9287H800.311ZM796.722 35.8809L796.404 36.1738L795.94 36.0273V36.3447H796.087C796.51 36.3447 797.088 36.1331 797.82 35.71V36.0273H797.967C798.357 35.6693 798.878 35.4577 799.529 35.3926V35.2461H799.383L796.722 35.8809ZM807.024 40.5684V40.7148L807.659 40.0801V39.9336L807.024 40.5684ZM805.315 41.3496L805.462 41.4961V41.6426L805.315 41.8135V41.96H805.462L805.633 41.8135H805.779L805.633 41.1787L805.462 41.3496H805.315ZM804.388 42.1309C804.388 42.3262 804.021 42.5296 803.289 42.7412V43.0586C803.826 42.6354 804.453 42.4238 805.169 42.4238V42.2773L804.388 42.1309ZM800.628 44.1572H800.774C801.295 44.027 801.556 43.8724 801.556 43.6934H801.409C800.888 43.8236 800.628 43.9782 800.628 44.1572ZM799.383 44.3037V44.6211L799.847 44.4746V44.3037H799.383ZM797.967 45.085V45.2559H798.431V44.9385L797.967 45.085ZM800.628 54.167L801.409 54.7773V54.46L800.774 54.167H800.628ZM799.212 54.3135V54.46L799.847 54.6309H799.993V54.46L799.383 54.3135H799.212ZM803.899 56.5107L804.217 56.8037H804.388L804.07 56.5107H803.899ZM804.534 56.9746L804.998 57.4385H805.462V57.292C805.055 57.292 804.852 57.1862 804.852 56.9746H804.534Z" fill="#FFE9C3"/>
</svg>
