<?xml version="1.0" encoding="UTF-8"?><svg id="Layer_13" xmlns="http://www.w3.org/2000/svg" width="286" height="96" viewBox="0 0 286 96"><defs><style>.cls-1{fill:#6ebba4;}.cls-1,.cls-2{stroke-width:0px;}.cls-2{fill:#3d1a20;}</style></defs><path class="cls-1" d="M285.89,20.5v55c-11.05,0-20,8.96-20,20H20.11c0-11.04-8.95-20-20-20V20.5c11.05,0,20-8.95,20-20h245.78c0,11.05,8.95,20,20,20Z"/><path class="cls-2" d="M77.83,23.04c2.15.68,3.22,1.56,3.22,2.64h-.15l.15.15v.29l-.15.15v.15l.44.44c0,.76-.29,1.69-.88,2.78.68,1.09,1.03,2.12,1.03,3.08,0,1.46-1.17,2.39-3.52,2.78v-.15c.47-.47.76-1.01.88-1.61,0-.68-.63-1.03-1.9-1.03l-1.17-.15-1.61.29-.73-.15-1.46.15h-.29l-.88-.15-.59.15h-.29v-.15l-1.03.15h-1.46l-.15,1.46v1.17l-.15.15v.15l-.88-.59h-.15c0,.18.39.47,1.17.88l.15.15v.15l-.15,1.17.15.59-.15,1.03.15.15-.29,2.78.29.29-.15.44.15,1.61v.15l-.15.15.15.44-.29,1.17c0,1.33.88,2.73,2.64,4.22v.44c-1.66,1.95-2.49,3.12-2.49,3.52l.15,1.61c-.06.98-.16,1.46-.29,1.46l.15.15v.15l-.15.59.15.15v.15l-.15.44.15.15-.15.59.29,3.22-.29,2.78,1.32,1.61.88.29h.15c.51,0,1.09-.2,1.76-.59l.15.15v.15c-2.25,2.34-4.15,3.52-5.71,3.52-.86-.16-1.64-.6-2.34-1.32-.55.68-1.66,1.03-3.34,1.03-1.25,0-2.86-1.17-4.83-3.52l.15-.15c.49.29.98.44,1.46.44h1.03c.98,0,1.46-.88,1.46-2.64l.15-1.76-.15-.59.15-1.17-.15-4.54.29-.29-.29-1.61.15-.15c0-1-.78-2.31-2.34-3.96.14-.33.92-1.11,2.34-2.34h-.29l.44-1.73c-.2-.43-.29-1.21-.29-2.34l.44-.59-.44-.44.29-1.46-.29-2.2.44-.15-.44-1.9.15-.44-.15-2.05.15-.59-.15-.59h.15l-.15-.15v-1.03c-.68,0-1.03-.19-1.03-.59l-1.17.44-.15-.15-.29.29-1.76-.15-1.32.15-.44-.15-.59.15-1.03-.15-1.03.15-.88-.15c-.78.06-1.17.16-1.17.29l-.15.59c0,.78.29,1.42.88,1.9v.15c-1.7,0-2.97-.93-3.81-2.78,0-.49.29-1.32.88-2.49-.78-.55-1.17-1.28-1.17-2.2v-.44c0-1.72,1.27-2.84,3.81-3.37v.15c-.49.51-.73.95-.73,1.32v.44c0,.68.54,1.03,1.61,1.03l.88-.15h.29c.98,0,1.46.15,1.46.44h.15c0-.29.1-.44.29-.44h.15l1.03.15,1.17-.15,2.93.29,2.05-.29.73.29,4.66-.29.44.15.59-.15.59.15,2.05-.15h1.46l1.32.15.15-.15h.15l2.93.29c2.05-.23,3.08-.62,3.08-1.17.29-.37.44-.76.44-1.17-.12-1.17-.41-1.76-.88-1.76v-.29ZM48.71,31.97v.15l.88.15.15-.15v-.15h-1.03ZM54.28,31.1v.15h.59v-.15h-.59ZM56.77,30.8v.15h.59v-.15h-.59ZM57.5,30.66v.15h1.03v-.15h-1.03ZM58.82,31.24v.15l.59.15h.15v-.15l-.59-.15h-.15ZM59.26,30.51v.15h1.03v-.29l-1.03.15ZM59.99,66.66v.15h.44v-.29l-.44.15ZM60.43,44.28v.15l1.03.59v-.29c-.25,0-.5-.15-.73-.44h-.29ZM61.45,65.93v.15h.44v-.29l-.44.15ZM62.62,45.6l.7.59v-.29l-.56-.29h-.15ZM63.06,29.92v.15h.85v-.15h-.85ZM63.06,44.72h.15l.26-.29h-.15l-.26.29ZM63.77,44.28h.15l.29-.29h-.15l-.29.29ZM63.91,46.48c0,.2.15.29.44.29h.15v-.15l-.59-.15ZM63.91,61.39l.29.29h.15l-.29-.29h-.15ZM64.5,61.83v.15l.44.15h.15v-.15l-.44-.15h-.15ZM64.65,29.63v.15h.59v-.15h-.59ZM64.65,46.77v.15l.44.41h.15l-.59-.56ZM64.94,43.55v.15h.15l.44-.15v-.15h-.15l-.44.15ZM65.67,47.47l-.15.59.44.15.44-.15v-.15l-.73-.44ZM65.53,62.41v.29h.29c0,.29.1.44.29.44v-.15l-.59-.59ZM66.11,29.34v.15h.73v-.15h-.73ZM67.87,29.04v.15h.59v-.15h-.59ZM69.19,28.9v.15h.59v-.15h-.59ZM70.21,28.75v.15h1.03v-.29l-1.03.15ZM72.7,28.31v.15h.59v-.15h-.59Z"/><path class="cls-2" d="M88.11,25.88c.59,0,1.37.47,2.34,1.41.64-.84,1.27-1.26,1.88-1.26,3.36,0,5.53,1.3,6.5,3.9l-2.17-.62c-1.45.12-2.17.53-2.17,1.23l.15,4.04v.94l-.15,1.23.15,1.23-.15,1.08.15,1.41v3.57l2.49,3.11v.32c-.72,1.04-1.3,1.55-1.73,1.55l.18.15v.15c-.63.55-.99,1.27-1.08,2.17l.15,2.96v2.64h-.32v1.41l.18.94-.18.15v.15l.32,1.88-.15,3.54.15.47-.15.62c1.07,1.25,1.8,1.88,2.17,1.88.6,0,1.28-.26,2.02-.79h.15c0,1.17-1.14,2.11-3.43,2.81l-.15-.18h-.15c-.9.74-1.62,1.11-2.17,1.11-1.07,0-1.95-.42-2.64-1.26,0,.45-.88.71-2.64.79-2.54-.45-4.31-1.23-5.3-2.34l-.76-.94.15-.15,1.88.94c1.66-.49,2.49-1.27,2.49-2.34l-.18-.15v-.94l.32-.47-.32-1.23.18-.15-.18-1.85v-.32c0-3.18.11-5.36.32-6.53l-.32-.91.18-.94-.18-1.55v-.47l-2.31-2.96c1.66-2.03,2.49-3.38,2.49-4.04l.15-2.78-.32-1.41v-.44l.47-4.22c-.35,0-.56-.98-.62-2.93l.15-.47c0-.92-.77-1.54-2.31-1.88h-.15c-.64,0-1.22.26-1.73.79v-.32c.98-1.68,2.69-2.92,5.13-3.72h1.23ZM86.88,30.22c0,.22.16.32.47.32h.15v-.15l-.62-.18ZM86.88,50.72v.15h.32l.47-.62v-.15l-.64.62h-.15ZM87.67,49.79v.15h.29l.47-.62v-.15c-.16,0-.31.21-.47.62h-.29ZM88.76,51.02v.18h.62v-.32l-.62.15ZM89.05,47.91l-.15.47h.32v-.47h-.18ZM89.84,46.68l-.32.62v.32h.15l.32-.79v-.15h-.15ZM89.67,29.92v.15l1.11-.15v-.18h-.64l-.47.18ZM90.46,63.15v.15l.62.15c0-.19-.16-.29-.47-.29h-.15ZM90.78,62.06v.29h.44v-.15l-.44-.15ZM91.07,44.81l-.15.47h.29v-.47h-.15ZM91.07,29.6l.32.32h.15v-.32h-.47ZM91.39,44.19l-.18.47h.32l.15-.47h-.29ZM91.69,62.53v.15l.64.15h.15v-.15l-.62-.15h-.18ZM91.86,43.43v.15l.29-.32v-.15l-.29.32ZM92.01,29.31v.29l.62-.15v-.15h-.62ZM92.01,48.7v.15l.47-.47h-.15l-.32.32ZM92.01,63.91v.29l.62.18-.62-.47ZM92.62,42.02l-.15.47v.15h.15l.32-.62h-.32ZM92.95,41.09v.32l.47-.15v-.32l-.47.15ZM92.95,62.97v.32h.76l.15.15h.18v-.29h-.79l-.15-.18h-.15Z"/><path class="cls-2" d="M112.96,26.06h1.9c.76.29,1.45.44,2.08.44,0,.31.43.51,1.29.59l2.23,1.64c1.21-.88,2-1.67,2.37-2.37h.15v1.61l.15.15v.18c-.16,0-.3.2-.44.59.29,0,.44.09.44.26v.44l-.15.18.15.15v.15l-.15.15.15.15v.76l-.15.85.15.15v.15l-.15.47.15.44-.29.26.29.29-.15.76.15.44-.29.59.29.29-.15.15.15.15v.15l-.15,2.81v.15l-.15.18v.09l.29.32v.73l-.44.62.44.7v.29l-.29.32h-3.98l-.15-.18-.15.18h-.73l-.15-.18h-.15l-.15.18-.15-.47.15-2.34-.15-.18v-.09l.29-.91-.29-.29v-.62h.29v-.15l-.29-.41v-.15l.29-.32c0-2.17-.63-3.69-1.9-4.57,0-.25-.89-.5-2.67-.73v-.12l-.76.26v-.15c-1.27,1-1.9,2.42-1.9,4.28l-.26.29v.29l.12,1.05-.12.15.26.26v1.64h-.26l.12.73v.44l-.12.91.26.85-.15.15.15.18v.29l-.26,1.32.12.59h-.12l.26,1.17v.59l-.15.62c0,.25.84,1.28,2.52,3.08-.39.64-1.08,1.39-2.08,2.23l-.56,2.2v.76l.12.56-.12.59.26.62-.26,1.17.26,1.05-.26.29-.76-.29h-.15v.15c.68.08,1.03.31,1.03.7l-.12.91.26,1.17-.15.15v.15c.62,2.54,1.56,3.81,2.81,3.81h.91c2.44-1.04,3.66-2.49,3.66-4.37l.15-.18.41.18h.47v-.18c-.78,0-1.17-.4-1.17-1.2l.15-.15-.15-.85.15-1.76-.15-.91.15-.15h.29l.26.29.47-.15,4.28-.15v.44h-.15l.29,2.52v1.76l-.29.47.29.41-.15.73v.47h-.47v-.32h-.26c0,.31.19.47.59.47l.15.15v.15c-.72,2.15-2,3.76-3.84,4.83-1.23,1.58-3.4,2.37-6.5,2.37-.72,0-2.24-.74-4.54-2.23-1.31-1.56-2.34-2.94-3.11-4.13v-.29l.15-.47h-.15c-.2,0-.63-.97-1.32-2.9l.15-.15-.73-.91-.76-3.08-.26-1.76.12-.15v-.15c0-1.46-.88-2.9-2.64-4.31l-.44-.59,2.05-2.49.47-2.49-.15-.18c.1-1.17.24-1.86.44-2.05l-.15-.62.29-.59-.15-.41c.9-4.2,1.73-6.82,2.49-7.85.06-.57.25-.85.59-.85v-.32c0-.72.35-1.31,1.05-1.76.27-1.11,1.25-2.05,2.93-2.81.1-.33.63-.62,1.61-.85,0-.51.84-.76,2.52-.76ZM103.85,60.1v.44l.56-.29-.15-.15v-.15l-.41.15ZM105.46,58.93c-.22.45-.42.7-.62.76v-.15l-.44.15v.26l.15-.12h.29l.15.12h.15c0-.37.25-.6.76-.7v-.18l-.44-.15ZM105.75,32.24h.26v-.29c.29,0,.44-.1.44-.29h-.15l-.56.59ZM107.36,57.46c0,.25-.3.5-.91.73v.29l1.05-.88v-.15h-.15ZM107.36,30.19l-.15.15v.15h.15l.44-.15v-.15h-.44ZM107.65,58.34l-.15.44h1.03v-.15l-.59-.29h-.29ZM109.12,58.49l-.15.15v.15l.76.29h.15v-.15l-.76-.44ZM113.54,30.48l-.15.15v.15h.47l-.32-.29ZM114.13,30.04l-.12.15v.29h.12l.15-.44h-.15ZM114.13,29.57v.18h.59v-.18h-.59ZM115.92,28.11v.47h.15l.12-.47h-.26ZM117.23,28.11v.18h.15c0-.31.15-.47.44-.47l.15-.44h-.15c-.2.04-.39.28-.59.73ZM117.38,32.09v.15l.7.32v-.32l-.56-.15h-.15ZM118.41,34.03v.29h.44v-.15l-.44-.15ZM118.99,61.59v.15h.44v-.29l-.44.15ZM119.28,33.85l.62.91v.15h.26l-.12-.15v-.15l.12-.15v-.15c-.25,0-.55-.16-.88-.47ZM119.61,62.18v.15l.44.15v-.29h-.44ZM120.16,62.33v.29h.73v-.15l-.73-.15ZM120.31,35.05v.26h.29c0,.31.16.47.47.47v.29h.29l-.76-1.03h-.29ZM122.21,36.37v.62h.32c.19,0,.29-.16.29-.47v-.15h-.15v.32h-.32v-.32h-.15Z"/><path class="cls-2" d="M134.67,25.68l1.82.76c.78.22,1.69.93,2.72,2.14.59,0,1,.45,1.23,1.35h-.15c-.61-.51-1.32-.76-2.14-.76-1.21,0-1.82.51-1.82,1.52l-.15,2.75.15.15h.15l-.29,2.43.29,1.05h-.15l.15.15v.15l-.29,4.72.29.32v1.49c2.77-4.73,5-8.16,6.68-10.31l1.23-3.34c0-.57-.25-.93-.76-1.08l-1.38.47v-.15c.66-1.35,1.47-2.27,2.43-2.75h1.05c.82,0,1.48.16,1.99.47,0-.31.45-.57,1.35-.76,1.52,0,2.95,1.11,4.28,3.34l.29.91v.32h-.15c-.88-.82-1.69-1.23-2.43-1.23h-.15c-.35.04-1.52,1.91-3.52,5.62-1.07,2.64-1.93,3.96-2.58,3.96l.15.62c-.37.88-.67,1.33-.91,1.35l-.15-.15h-.15v.15l.15.76-.29.32c0,1.29,1.21,2.45,3.63,3.49l-1.52,3.81v.29l1.23,4.57,2.29,7.88c.21.04.57.9,1.05,2.58.74.92,1.76,1.38,3.05,1.38v.15c-1.39.94-2.96,1.65-4.72,2.14,0,.23-.97.59-2.9,1.05-.74.92-1.6,1.38-2.58,1.38l-1.05-4.28c-.23-.08-.74-1.59-1.52-4.54l-3.05-10.49h-.15c-.7,1.17-1.05,2.39-1.05,3.66l.15.15v.15c-.18,0-.33,1.92-.47,5.77l.18.15v.18l-.18.44c0,2.42.51,3.84,1.52,4.25h1.23l.44-.29h.47v.15c-2.15,1.95-3.82,2.96-5.01,3.02-.78,0-1.59-.15-2.43-.44,0,.25-.56.51-1.67.76-1.82,0-3.8-.71-5.95-2.14l-.91-.91v-.15l.32-.29,1.49.15c1.62-.27,2.43-.58,2.43-.91l-.15-.47.32-2.72-.18-.62.18-.91-.18-1.96.18-1.05-.18-.94.32-.29-.32-1.96.47-3.52-.47-.29.18-.76v-.47c-.57-.88-1.38-1.79-2.43-2.72,1.62-1.48,2.43-2.65,2.43-3.49v-.76l-.18-.62.32-2.9-.32-.29v-1.67l.18-.91-.18-.15v-.15l.32-3.19c-.22-2.25-1.13-3.37-2.75-3.37l-1.82.62-.15-.15c1.86-2.64,3.88-3.96,6.06-3.96h.47c.47,0,1.28.46,2.43,1.38.23-.49.95-1,2.14-1.52ZM129.19,62.15v.15l1.05.15h.32v-.15l-.94-.15h-.44ZM130.1,51.37h.15l.32-.32h-.18l-.29.32ZM132.82,51.81c0,.41-.35.62-1.05.62-.57.51-.97.76-1.2.76v.15h.15l2.29-1.2.15-.18v-.15h-.32ZM130.71,62.3v.15h.62v-.15h-.62ZM131,50.61v.15h.15l.76-.15v-.32l-.91.32ZM131.47,49.52v.18c.51,0,.76.15.76.44l.59-.15v-.29l-1.05-.18h-.29ZM132.23,32.68l.29.29h.15l-.29-.29h-.15ZM133,65.02h.15l.76-.47v-.15h-.15c-.47.19-.72.4-.76.62ZM133.29,49.38v.47l1.05.15v-.29h-.59v-.18l.15-.15v-.15h-.15l-.47.15ZM133.76,33.26v.18l.44.15v-.32h-.44ZM134.2,62.91v.15h.76v-.15h-.76ZM134.34,33.44v.29l.62.15v-.29l-.62-.15ZM134.34,49.08h.15l.32-.32h-.15l-.32.32ZM134.81,49.7v.15l.62.15h.15v-.15l-.47-.15h-.29ZM138.3,49.99v.29h.76v-.15l-.76-.15ZM139.21,46.8h.15l.32-.29h-.15l-.32.29ZM139.53,50.29v.18h.91v-.18h-.91ZM140.73,45.74h.15l.32-.32h-.18l-.29.32ZM142.11,64.11v.15l.76.15c0-.2-.16-.29-.47-.29h-.29ZM142.87,44.51h.15l.76-.29v-.15h-.32l-.59.44ZM143.02,50.9v.15h1.05v-.15l-.44-.15-.62.15ZM144.98,32.36v.15h.47v-.29l-.47.15ZM145.59,34.35v.29l.15.47h.15v-.32l-.15-.44h-.15ZM145.59,64.73v.29h.62v-.15l-.62-.15ZM146.21,31.92h.15l.29-.32h-.15l-.29.32ZM147.12,31.59l-.62,1.08v.15h.15l.76-1.23h-.29ZM147.73,31.15h.29l.29-.32v-.29l-.59.62ZM148.79,30.25v.15h.15c.41-.16.62-.31.62-.47l-.76.32Z"/><path class="cls-2" d="M178.52,25.94h.15c0,.2.16.29.47.29l.15,4.13c0,.72-.3,1.32-.91,1.79l.15-.18h.15l.18.18h.15v-.47l.29.29-.15,1.2.15,3.69v2.52c0,.8-.21,1.2-.62,1.2l-1.14-.15-.62.15-1.17-.15-1.2.15-.15-1.35.15-1.76-.15-.62.47-.85c-.31-.1-.47-.4-.47-.91l.15-1.05c0-.9-1.13-1.83-3.4-2.78l-.88-.15c-2.03,0-3.31.39-3.84,1.17h-.15c-.2,3.95-.4,6.16-.62,6.65.23,0,.39.35.47,1.05l-.29,1.61.29.29-.15.15.15.15v.15l-.15.88c0,1.19.33,1.79,1,1.79l1.2-.44,1.64.29c.88-.25,1.32-1.04,1.32-2.37,0-.57-.34-1.11-1.03-1.64v-.26h.15c1.97.53,2.96,1.41,2.96,2.64l.18.59v.15c0,1.37-.3,2.36-.91,2.99,0,.47.19.7.59.7l.41,1.96c-.47,2.05-1.49,3.08-3.08,3.08l-.76.15v-.15c.92-.92,1.38-1.66,1.38-2.23,0-.23-.56-.43-1.67-.59h-.44l-1.03.15-.15-.15v-.12c-1.27.08-1.9.36-1.9.85l.29.62-.15,3.08.15.15v.15l-.29,1.2v.47h.29v.85l-.29.91.15.15v.15l-.15,1.03.15,1.64h-.15l.44,1.32-.29.32.15.44-.15.15v.15l.29.7-.29.29c.37.45.56.94.56,1.46l2.11.62c1.72,0,3.63-.89,5.74-2.67l.15-1.61-.15-.15v-.15l.15-1.76-.15-.18v-.15l.29-.88-.29-1.17.29-.29-.29-.47v-.41l.15-.15v-.15l1.61.29.47-.29,1.49.15h.88l.15.15h.15l-.29.88v.15l.29,1.2v.41l-.29,1.2.29.85v.47c-.2.39-.5.59-.91.59v.32l.76-.47.15,1.05v.56c-.06,1.07-1.69,3-4.89,5.77-2.46,1.19-4.04,1.79-4.75,1.79l-.15-.18-.7.18h-.62c-2.52,0-4.55-.74-6.09-2.23-.72.7-1.26,1.05-1.61,1.05h-.73c-1.45,0-3.12-.79-5.01-2.37l-.29-.29-.47-.62.15-.15c.94.6,1.58.91,1.93.91h.76c.86-.41,1.29-1.06,1.29-1.96l-.15-.56.32-.29-.32-.76.15-1-.15-1.2.32-.29-.47-.47.15-1.9-.15-.41.15-1.35v-.62l.15-.15-.29-.56.15-2.37v-.62l-.15-.88.29-.59c-.2,0-.29-.15-.29-.44l.15-1.05-.29-.29h.29v-.12c-.55,0-1.04-.55-1.46-1.64l.32-.32-.18-.15h-1.05v-.15l2.23-2.78v-1.49l.15-.88-.15-.44.29-1.76c-.2,0-.29-.16-.29-.47l.15-2.05-.15-.15v-.15l.29-1.17-.29-.62.15-1.05c-.08-2.66-.18-3.98-.29-3.98l-2.37-.73-1.46,1.05h-.15v-.15c0-1.27,1.47-2.55,4.42-3.84h1.38c.84,0,1.62.44,2.34,1.32,2.19-1.29,3.67-1.93,4.45-1.93l2.08.15,1.61-.29c0,.25.63.41,1.9.47l4.13,1.76c.57,0,1.41-.79,2.52-2.37ZM158.57,46.8l-.15.15v.15h.15l.44-.15v-.15h-.44ZM158.57,49.14v.18h.44v-.32l-.44.15ZM159.01,29.22l-.15.41v.15h.15l.32-.29v-.12l.15.12h.56v-.12l-.7-.15-.18.15-.15-.15ZM161.53,45.45c-.18.39-.53.59-1.05.59v.29l1.46-.73v-.15h-.41ZM160.48,47.65h.15l.62-.26v-.15h-.15c-.41.16-.62.29-.62.41ZM162.85,44.72v.29l.47-.15v-.29l-.47.15ZM163.46,44.43l.29.29h.56l-.26-.29h-.59ZM164.31,43.66v.15h.47v-.29l-.47.15ZM164.61,27.26c0,.2.16.29.47.29h.15v-.15l-.62-.15ZM164.78,42.81v.15l.29.26.29-.26-.44-.15h-.15ZM166.42,70.15v.12l.7-.44v-.15h-.15l-.56.47ZM167.45,28.75l.29.29h.15l-.29-.29h-.15ZM167.45,69.53h.15l.29-.29h-.15l-.29.29ZM169.35,68.33h.15l.32-.29h-.18l-.29.29ZM170.11,29.92v.15l.91.29h.12v-.15l-.88-.29h-.15ZM171.43,66.57v.15h.15l.91-.29v-.29l-1.05.44ZM171.73,45.45v.15l.62-.73v-.15l-.62.73ZM172.78,66.13h.15l.29-.32h-.15l-.29.32ZM173.4,31.97l.7.62v-.29l-.62-.32h-.09ZM173.95,65.4h.15l.44-.44h-.15l-.44.44ZM175.15,35.55h.15l.29-.29h-.15l-.29.29ZM175.45,64.49h.15l.26-.29h-.12l-.29.29ZM176.62,63.47v.29l.44-.15v-.15h-.44ZM177.67,62.77l-.29.29v.15h.29l.29-.44h-.29ZM177.53,35.87c0,.2.44.43,1.32.7h.15v-.15l-1.46-.56ZM178.11,32.44v.44h.26v-.44h-.26Z"/><path class="cls-2" d="M212.16,23.04c2.15.68,3.22,1.56,3.22,2.64h-.15l.15.15v.29l-.15.15v.15l.44.44c0,.76-.29,1.69-.88,2.78.68,1.09,1.03,2.12,1.03,3.08,0,1.46-1.17,2.39-3.52,2.78v-.15c.47-.47.76-1.01.88-1.61,0-.68-.63-1.03-1.9-1.03l-1.17-.15-1.61.29-.73-.15-1.46.15h-.29l-.88-.15-.59.15h-.29v-.15l-1.03.15h-1.46l-.15,1.46v1.17l-.15.15v.15l-.88-.59h-.15c0,.18.39.47,1.17.88l.15.15v.15l-.15,1.17.15.59-.15,1.03.15.15-.29,2.78.29.29-.15.44.15,1.61v.15l-.15.15.15.44-.29,1.17c0,1.33.88,2.73,2.64,4.22v.44c-1.66,1.95-2.49,3.12-2.49,3.52l.15,1.61c-.06.98-.16,1.46-.29,1.46l.15.15v.15l-.15.59.15.15v.15l-.15.44.15.15-.15.59.29,3.22-.29,2.78,1.32,1.61.88.29h.15c.51,0,1.09-.2,1.76-.59l.15.15v.15c-2.25,2.34-4.15,3.52-5.71,3.52-.86-.16-1.64-.6-2.34-1.32-.55.68-1.66,1.03-3.34,1.03-1.25,0-2.86-1.17-4.83-3.52l.15-.15c.49.29.98.44,1.46.44h1.03c.98,0,1.46-.88,1.46-2.64l.15-1.76-.15-.59.15-1.17-.15-4.54.29-.29-.29-1.61.15-.15c0-1-.78-2.31-2.34-3.96.14-.33.92-1.11,2.34-2.34h-.29l.44-1.73c-.2-.43-.29-1.21-.29-2.34l.44-.59-.44-.44.29-1.46-.29-2.2.44-.15-.44-1.9.15-.44-.15-2.05.15-.59-.15-.59h.15l-.15-.15v-1.03c-.68,0-1.03-.19-1.03-.59l-1.17.44-.15-.15-.29.29-1.76-.15-1.32.15-.44-.15-.59.15-1.03-.15-1.03.15-.88-.15c-.78.06-1.17.16-1.17.29l-.15.59c0,.78.29,1.42.88,1.9v.15c-1.7,0-2.97-.93-3.81-2.78,0-.49.29-1.32.88-2.49-.78-.55-1.17-1.28-1.17-2.2v-.44c0-1.72,1.27-2.84,3.81-3.37v.15c-.49.51-.73.95-.73,1.32v.44c0,.68.54,1.03,1.61,1.03l.88-.15h.29c.98,0,1.46.15,1.46.44h.15c0-.29.1-.44.29-.44h.15l1.03.15,1.17-.15,2.93.29,2.05-.29.73.29,4.66-.29.44.15.59-.15.59.15,2.05-.15h1.46l1.32.15.15-.15h.15l2.93.29c2.05-.23,3.08-.62,3.08-1.17.29-.37.44-.76.44-1.17-.12-1.17-.41-1.76-.88-1.76v-.29ZM183.03,31.97v.15l.88.15.15-.15v-.15h-1.03ZM188.6,31.1v.15h.59v-.15h-.59ZM191.09,30.8v.15h.59v-.15h-.59ZM191.82,30.66v.15h1.03v-.15h-1.03ZM193.14,31.24v.15l.59.15h.15v-.15l-.59-.15h-.15ZM193.58,30.51v.15h1.03v-.29l-1.03.15ZM194.31,66.66v.15h.44v-.29l-.44.15ZM194.75,44.28v.15l1.03.59v-.29c-.25,0-.5-.15-.73-.44h-.29ZM195.78,65.93v.15h.44v-.29l-.44.15ZM196.95,45.6l.7.59v-.29l-.56-.29h-.15ZM197.39,29.92v.15h.85v-.15h-.85ZM197.39,44.72h.15l.26-.29h-.15l-.26.29ZM198.09,44.28h.15l.29-.29h-.15l-.29.29ZM198.24,46.48c0,.2.15.29.44.29h.15v-.15l-.59-.15ZM198.24,61.39l.29.29h.15l-.29-.29h-.15ZM198.83,61.83v.15l.44.15h.15v-.15l-.44-.15h-.15ZM198.97,29.63v.15h.59v-.15h-.59ZM198.97,46.77v.15l.44.41h.15l-.59-.56ZM199.27,43.55v.15h.15l.44-.15v-.15h-.15l-.44.15ZM200,47.47l-.15.59.44.15.44-.15v-.15l-.73-.44ZM199.85,62.41v.29h.29c0,.29.1.44.29.44v-.15l-.59-.59ZM200.44,29.34v.15h.73v-.15h-.73ZM202.19,29.04v.15h.59v-.15h-.59ZM203.51,28.9v.15h.59v-.15h-.59ZM204.54,28.75v.15h1.03v-.29l-1.03.15ZM207.03,28.31v.15h.59v-.15h-.59Z"/><path class="cls-2" d="M230.23,25.76c1.23,0,2.79.59,4.69,1.76v.44c-.7,0-1.24.24-1.61.73h.15c.53-.39,1.02-.59,1.46-.59l.15-.15v-.15c.51.12,1.14.51,1.9,1.17.86,0,1.29-.44,1.29-1.32h.59l-.15-.15v-.15c.8-1.07,1.29-1.61,1.46-1.61l.15.15v.73l-.29.29.29,1.17-.29,2.17.29,2.2-.15.59.15.15-.15,1.61.15,2.2-.29.26.15.15v.15l-.15.15v.15l.29,2.05v.59c0,.72-.15,1.11-.44,1.17l-.15-.15h-.15l-.59.15-.15-.15-.73.15h-2.9c-.29-.1-.44-.39-.44-.88v-2.05l.15-.73-.29-.29v-.29l.59-.7h-.29v-2.2l-.15-.15v-.15c.21,0,.36-.24.44-.73l-.44.29h-.15c0-.51-.39-1.19-1.17-2.05v-.15l.15-.15v-.15h-.15l-.15.15h-.15c-1.02-.29-2.04-.44-3.08-.44-2.25,0-3.6,1.51-4.07,4.54,0,2.99,1.65,5.52,4.95,7.59l1.46-.15h1.46c.29,0,.44.54.44,1.61h-.15l.88,2.02c3.69,3.36,5.54,5.74,5.54,7.15.19,0,.39.49.59,1.46l-.15.59v.44l.29.44-.15.88.15.73-.29.73.15.15h.15c-.16,2.03-.5,3.05-1.03,3.05l.15.59c-1.43,3.5-2.88,5.54-4.37,6.12-.55.88-1.96,1.56-4.25,2.05-.37.19-.91.29-1.61.29h-1.32c-1.15,0-3.05-.78-5.68-2.34l-2.05-2.2c-.22-.41-.74-.9-1.58-1.46-.88-1.93-1.32-3.14-1.32-3.63l.15-.59-.15-.59.15-.85-.15-.15v-.15l.15-.59-.15-.44c.16,0,.3-.34.44-1.03-.29-1.37-.63-2.05-1.03-2.05h-.44c-.35,0-.74.2-1.17.59h-.15v-.29c.51-1.66,1.34-2.49,2.49-2.49l2.17.59v-.15c.86-.68,1.49-1.03,1.9-1.03h1.03c.86,0,1.54.88,2.05,2.64v.44h-.29c0-.39-.29-.63-.88-.73l-.44.15.15.15v1.17l-.29.44v.15l.29.44v.59l-.29,1.03.15.15h.15l-.15.73.15,1c-.2,0-.29.15-.29.44.23,1.07,1.06,2.29,2.49,3.63,1.15.78,2.02,1.17,2.61,1.17h1.76c.45,0,1.18-.59,2.2-1.76l.88.29h.15v-.15l-.88-.15v-.29c.51-1.05.85-2.6,1.03-4.63-.29-1.27-.98-2.64-2.05-4.1-1.15-1.37-1.93-2.05-2.34-2.05l-2.46-.15-1.46.15-.15-.15v-.15l.15-.15v-.15l-.29-1.14v-1.03c-.64-1.25-1.52-2.18-2.64-2.78-1.02-1.27-1.89-2.15-2.61-2.64l-1.32-2.61.15-.44-.44-1.17.15-.15-.59-2.49v-.29l.73-4.07.15-.15-.15-.15v-.15c.66-2.29,2.31-4.28,4.95-5.98l3.81-1.46,2.61-.15ZM219.01,35.55v.15h.59v-.15h-.59ZM220.3,59.78v.12h.73v-.12h-.73ZM221.33,33.94l-.15.15v.15h.15l.44-.15v-.15h-.44ZM221.33,43.58h.15l.29-.29h-.15l-.29.29ZM222.35,60.63v.29l1.03.29c0-.16-.34-.35-1.03-.59ZM222.64,32.62h.15l.88-.29v-.15h-.15c-.59.1-.88.24-.88.44ZM223.08,32.91l-.15.15v.15h.15l.44-.15v-.15h-.44ZM222.94,42.84h.15l.29-.29v-.15l-.44.44ZM223.82,42.4h.15l.29-.29h-.15l-.29.29ZM224.84,41.67v.29l.44-.15v-.15h-.44ZM225.43,41.38v.15h.29l.44-.15v-.15h-.29l-.44.15ZM227.62,30.28v.15h.29l.44-.15v-.15h-.15l-.59.15ZM229.06,29.69v.29l.44-.15v-.15h-.44ZM231.11,29.28v.26l.44-.12v-.15h-.44ZM234.33,64.55v.15l.59.15h.29v-.15l-.73-.15h-.15ZM235.36,36.43v.15h.29l.59-.44h-.15l-.73.29ZM235.8,65.14v.15l1.03.15c0-.2-.15-.29-.44-.29h-.59ZM236.82,35.55v.29l1.14-.59v-.29l-1.14.59ZM237.12,65.43v.29h.56v-.15l-.56-.15ZM239.58,34.23h.15l.29-.29h-.15l-.29.29Z"/></svg>