<?xml version="1.0" encoding="UTF-8"?><svg xmlns="http://www.w3.org/2000/svg" width="1920" height="1080" xmlns:xlink="http://www.w3.org/1999/xlink" viewBox="0 0 1920 1080"><defs><style>.cls-1{fill:url(#linear-gradient-12);}.cls-1,.cls-2,.cls-3,.cls-4,.cls-5,.cls-6,.cls-7,.cls-8,.cls-9,.cls-10,.cls-11,.cls-12,.cls-13,.cls-14,.cls-15,.cls-16,.cls-17,.cls-18,.cls-19,.cls-20,.cls-21,.cls-22,.cls-23,.cls-24,.cls-25,.cls-26,.cls-27,.cls-28,.cls-29,.cls-30,.cls-31{stroke-width:0px;}.cls-2{fill:url(#linear-gradient-17);}.cls-3{fill:url(#linear-gradient-19);}.cls-4{fill:url(#linear-gradient);}.cls-5{fill:#000;}.cls-6{fill:url(#linear-gradient-21);}.cls-7{fill:url(#linear-gradient-6);}.cls-32{fill:#3d1a20;stroke:#3d1a20;stroke-miterlimit:10;}.cls-8{fill:url(#linear-gradient-15);}.cls-9{fill:url(#linear-gradient-11);}.cls-10{fill:url(#linear-gradient-5);}.cls-11{fill:#da604e;}.cls-12{fill:url(#linear-gradient-13);}.cls-13{fill:url(#linear-gradient-23);}.cls-14{fill:url(#linear-gradient-25);}.cls-15{fill:url(#linear-gradient-16);}.cls-16{fill:url(#linear-gradient-22);}.cls-17{fill:url(#linear-gradient-20);}.cls-18{fill:url(#linear-gradient-14);}.cls-19{fill:url(#linear-gradient-2);}.cls-20{fill:url(#linear-gradient-7);}.cls-21{fill:url(#linear-gradient-3);}.cls-22{fill:url(#linear-gradient-9);}.cls-23{fill:url(#linear-gradient-27);}.cls-24{fill:url(#linear-gradient-8);}.cls-25{fill:url(#linear-gradient-24);}.cls-26{fill:url(#linear-gradient-26);}.cls-27{fill:url(#linear-gradient-18);}.cls-28{fill:#be4937;}.cls-29{fill:#f0b921;}.cls-30{fill:url(#linear-gradient-10);}.cls-31{fill:url(#linear-gradient-4);}</style><linearGradient id="linear-gradient" x1="293.31" y1="529.66" x2="1897.52" y2="529.66" gradientUnits="userSpaceOnUse"><stop offset=".08" stop-color="#6ebba4"/><stop offset=".34" stop-color="#d36673"/><stop offset=".58" stop-color="#da604e"/><stop offset=".84" stop-color="#fb9e3c"/><stop offset="1" stop-color="#f0b921"/></linearGradient><linearGradient id="linear-gradient-2" x1="284.63" y1="533.31" x2="1889.87" y2="533.31" gradientUnits="userSpaceOnUse"><stop offset="0" stop-color="#73bb9f"/><stop offset=".08" stop-color="#73ba9f"/><stop offset=".16" stop-color="#90a292"/><stop offset=".34" stop-color="#d46671"/><stop offset=".42" stop-color="#d56466"/><stop offset=".58" stop-color="#da604f"/><stop offset=".66" stop-color="#e3724b"/><stop offset=".84" stop-color="#f79e3f"/><stop offset=".92" stop-color="#f0ad33"/><stop offset="1" stop-color="#ebb926"/></linearGradient><linearGradient id="linear-gradient-3" x1="275.96" y1="536.93" x2="1882.23" y2="536.93" gradientUnits="userSpaceOnUse"><stop offset="0" stop-color="#78bb9a"/><stop offset=".08" stop-color="#78ba9b"/><stop offset=".16" stop-color="#95a28e"/><stop offset=".34" stop-color="#d46770"/><stop offset=".42" stop-color="#d56465"/><stop offset=".58" stop-color="#da6050"/><stop offset=".66" stop-color="#e3714c"/><stop offset=".84" stop-color="#f29e43"/><stop offset=".92" stop-color="#ebad37"/><stop offset="1" stop-color="#e6b92b"/></linearGradient><linearGradient id="linear-gradient-4" x1="267.29" y1="540.51" x2="1874.58" y2="540.51" gradientUnits="userSpaceOnUse"><stop offset="0" stop-color="#7dbb95"/><stop offset=".08" stop-color="#7eb996"/><stop offset=".16" stop-color="#99a28b"/><stop offset=".34" stop-color="#d5676e"/><stop offset=".42" stop-color="#d66464"/><stop offset=".58" stop-color="#d96051"/><stop offset=".66" stop-color="#e2714e"/><stop offset=".84" stop-color="#ee9e46"/><stop offset=".92" stop-color="#e5ae3c"/><stop offset="1" stop-color="#e1b930"/></linearGradient><linearGradient id="linear-gradient-5" x1="258.63" y1="543.9" x2="1866.93" y2="543.9" gradientUnits="userSpaceOnUse"><stop offset="0" stop-color="#82bb90"/><stop offset=".08" stop-color="#83b992"/><stop offset=".16" stop-color="#9da187"/><stop offset=".34" stop-color="#d6686d"/><stop offset=".42" stop-color="#d66363"/><stop offset=".58" stop-color="#d96152"/><stop offset=".66" stop-color="#e1704f"/><stop offset=".84" stop-color="#ea9f4a"/><stop offset=".92" stop-color="#e0ae40"/><stop offset="1" stop-color="#dcb935"/></linearGradient><linearGradient id="linear-gradient-6" x1="249.97" y1="547.39" x2="1859.28" y2="547.39" gradientUnits="userSpaceOnUse"><stop offset="0" stop-color="#87bb8b"/><stop offset=".08" stop-color="#88b88d"/><stop offset=".16" stop-color="#a1a184"/><stop offset=".34" stop-color="#d6686b"/><stop offset=".42" stop-color="#d66362"/><stop offset=".58" stop-color="#d96153"/><stop offset=".66" stop-color="#e17051"/><stop offset=".84" stop-color="#e69f4d"/><stop offset=".92" stop-color="#dbaf45"/><stop offset="1" stop-color="#d7b93a"/></linearGradient><linearGradient id="linear-gradient-7" x1="241.31" y1="550.83" x2="1851.63" y2="550.83" gradientUnits="userSpaceOnUse"><stop offset="0" stop-color="#8cbb86"/><stop offset=".08" stop-color="#8db889"/><stop offset=".16" stop-color="#a6a180"/><stop offset=".34" stop-color="#d76969"/><stop offset=".42" stop-color="#d66361"/><stop offset=".58" stop-color="#d96154"/><stop offset=".66" stop-color="#e06f53"/><stop offset=".84" stop-color="#e19f51"/><stop offset=".92" stop-color="#d6af49"/><stop offset="1" stop-color="#d2b93f"/></linearGradient><linearGradient id="linear-gradient-8" x1="232.66" y1="554.18" x2="1843.98" y2="554.18" gradientUnits="userSpaceOnUse"><stop offset="0" stop-color="#91ba81"/><stop offset=".08" stop-color="#92b784"/><stop offset=".16" stop-color="#aaa17d"/><stop offset=".34" stop-color="#d86968"/><stop offset=".42" stop-color="#d66360"/><stop offset=".58" stop-color="#d96155"/><stop offset=".66" stop-color="#df6f54"/><stop offset=".84" stop-color="#dd9f54"/><stop offset=".92" stop-color="#d1b04e"/><stop offset="1" stop-color="#cdba44"/></linearGradient><linearGradient id="linear-gradient-9" x1="224.02" y1="557.47" x2="1836.33" y2="557.47" gradientUnits="userSpaceOnUse"><stop offset="0" stop-color="#96ba7c"/><stop offset=".08" stop-color="#98b680"/><stop offset=".16" stop-color="#aea17a"/><stop offset=".34" stop-color="#d86a66"/><stop offset=".42" stop-color="#d7635f"/><stop offset=".58" stop-color="#d86156"/><stop offset=".66" stop-color="#df6e56"/><stop offset=".84" stop-color="#d99f57"/><stop offset=".92" stop-color="#cbb152"/><stop offset="1" stop-color="#c8ba49"/></linearGradient><linearGradient id="linear-gradient-10" x1="215.39" y1="560.68" x2="1828.69" y2="560.68" gradientUnits="userSpaceOnUse"><stop offset="0" stop-color="#9bba77"/><stop offset=".08" stop-color="#9db67b"/><stop offset=".16" stop-color="#b2a176"/><stop offset=".34" stop-color="#d96a64"/><stop offset=".42" stop-color="#d7635e"/><stop offset=".58" stop-color="#d86157"/><stop offset=".66" stop-color="#de6e58"/><stop offset=".84" stop-color="#d59f5b"/><stop offset=".92" stop-color="#c6b157"/><stop offset="1" stop-color="#c3ba4e"/></linearGradient><linearGradient id="linear-gradient-11" x1="206.67" y1="563.82" x2="1821.04" y2="563.82" gradientUnits="userSpaceOnUse"><stop offset="0" stop-color="#a0ba72"/><stop offset=".08" stop-color="#a2b577"/><stop offset=".16" stop-color="#b7a073"/><stop offset=".34" stop-color="#da6b63"/><stop offset=".42" stop-color="#d7625d"/><stop offset=".58" stop-color="#d86258"/><stop offset=".66" stop-color="#dd6d59"/><stop offset=".84" stop-color="#d0a05e"/><stop offset=".92" stop-color="#c1b25b"/><stop offset="1" stop-color="#beba53"/></linearGradient><linearGradient id="linear-gradient-12" x1="197.89" y1="567" x2="1813.39" y2="567" gradientUnits="userSpaceOnUse"><stop offset="0" stop-color="#a5ba6d"/><stop offset=".08" stop-color="#a7b572"/><stop offset=".16" stop-color="#bba06f"/><stop offset=".34" stop-color="#da6b61"/><stop offset=".42" stop-color="#d7625c"/><stop offset=".58" stop-color="#d86259"/><stop offset=".66" stop-color="#dd6d5b"/><stop offset=".84" stop-color="#cca062"/><stop offset=".92" stop-color="#bcb260"/><stop offset="1" stop-color="#b9ba58"/></linearGradient><linearGradient id="linear-gradient-13" x1="189.09" y1="570.11" x2="1805.74" y2="570.11" gradientUnits="userSpaceOnUse"><stop offset="0" stop-color="#aaba68"/><stop offset=".08" stop-color="#acb46e"/><stop offset=".16" stop-color="#bfa06c"/><stop offset=".34" stop-color="#db6c60"/><stop offset=".42" stop-color="#d7625b"/><stop offset=".58" stop-color="#d8625a"/><stop offset=".66" stop-color="#dc6c5c"/><stop offset=".84" stop-color="#c8a065"/><stop offset=".92" stop-color="#b7b364"/><stop offset="1" stop-color="#b4ba5d"/></linearGradient><linearGradient id="linear-gradient-14" x1="180.3" y1="573.21" x2="1798.09" y2="573.21" gradientUnits="userSpaceOnUse"><stop offset="0" stop-color="#afba63"/><stop offset=".08" stop-color="#b1b469"/><stop offset=".16" stop-color="#c3a069"/><stop offset=".34" stop-color="#dc6c5e"/><stop offset=".42" stop-color="#d8625b"/><stop offset=".58" stop-color="#d8625a"/><stop offset=".66" stop-color="#dc6c5e"/><stop offset=".84" stop-color="#c4a068"/><stop offset=".92" stop-color="#b2b369"/><stop offset="1" stop-color="#afba62"/></linearGradient><linearGradient id="linear-gradient-15" x1="171.49" y1="576.42" x2="1790.44" y2="576.42" gradientUnits="userSpaceOnUse"><stop offset="0" stop-color="#b4ba5d"/><stop offset=".08" stop-color="#b7b364"/><stop offset=".16" stop-color="#c8a065"/><stop offset=".34" stop-color="#dc6c5c"/><stop offset=".42" stop-color="#d8625a"/><stop offset=".58" stop-color="#d7625b"/><stop offset=".66" stop-color="#db6c60"/><stop offset=".84" stop-color="#bfa06c"/><stop offset=".92" stop-color="#acb46e"/><stop offset="1" stop-color="#aaba68"/></linearGradient><linearGradient id="linear-gradient-16" x1="162.68" y1="579.49" x2="1782.79" y2="579.49" gradientUnits="userSpaceOnUse"><stop offset="0" stop-color="#b9ba58"/><stop offset=".08" stop-color="#bcb260"/><stop offset=".16" stop-color="#cca062"/><stop offset=".34" stop-color="#dd6d5b"/><stop offset=".42" stop-color="#d86259"/><stop offset=".58" stop-color="#d7625c"/><stop offset=".66" stop-color="#da6b61"/><stop offset=".84" stop-color="#bba06f"/><stop offset=".92" stop-color="#a7b572"/><stop offset="1" stop-color="#a5ba6d"/></linearGradient><linearGradient id="linear-gradient-17" x1="153.88" y1="582.73" x2="1775.14" y2="582.73" gradientUnits="userSpaceOnUse"><stop offset="0" stop-color="#beba53"/><stop offset=".08" stop-color="#c1b25b"/><stop offset=".16" stop-color="#d0a05e"/><stop offset=".34" stop-color="#dd6d59"/><stop offset=".42" stop-color="#d86258"/><stop offset=".58" stop-color="#d7625d"/><stop offset=".66" stop-color="#da6b63"/><stop offset=".84" stop-color="#b7a073"/><stop offset=".92" stop-color="#a2b577"/><stop offset="1" stop-color="#a0ba72"/></linearGradient><linearGradient id="linear-gradient-18" x1="145.09" y1="585.78" x2="1767.49" y2="585.78" gradientUnits="userSpaceOnUse"><stop offset="0" stop-color="#c3ba4e"/><stop offset=".08" stop-color="#c6b157"/><stop offset=".16" stop-color="#d59f5b"/><stop offset=".34" stop-color="#de6e58"/><stop offset=".42" stop-color="#d86157"/><stop offset=".58" stop-color="#d7635e"/><stop offset=".66" stop-color="#d96a64"/><stop offset=".84" stop-color="#b2a176"/><stop offset=".92" stop-color="#9db67b"/><stop offset="1" stop-color="#9bba77"/></linearGradient><linearGradient id="linear-gradient-19" x1="136.31" y1="589.04" x2="1759.84" y2="589.04" gradientUnits="userSpaceOnUse"><stop offset="0" stop-color="#c8ba49"/><stop offset=".08" stop-color="#cbb152"/><stop offset=".16" stop-color="#d99f57"/><stop offset=".34" stop-color="#df6e56"/><stop offset=".42" stop-color="#d86156"/><stop offset=".58" stop-color="#d7635f"/><stop offset=".66" stop-color="#d86a66"/><stop offset=".84" stop-color="#aea17a"/><stop offset=".92" stop-color="#98b680"/><stop offset="1" stop-color="#96ba7c"/></linearGradient><linearGradient id="linear-gradient-20" x1="127.55" y1="595.53" x2="1752.19" y2="595.53" gradientUnits="userSpaceOnUse"><stop offset="0" stop-color="#cdba44"/><stop offset=".08" stop-color="#d1b04e"/><stop offset=".16" stop-color="#dd9f54"/><stop offset=".34" stop-color="#df6f54"/><stop offset=".42" stop-color="#d96155"/><stop offset=".58" stop-color="#d66360"/><stop offset=".66" stop-color="#d86968"/><stop offset=".84" stop-color="#aaa17d"/><stop offset=".92" stop-color="#92b784"/><stop offset="1" stop-color="#91ba81"/></linearGradient><linearGradient id="linear-gradient-21" x1="118.81" y1="603.6" x2="1744.54" y2="603.6" gradientUnits="userSpaceOnUse"><stop offset="0" stop-color="#d2b93f"/><stop offset=".08" stop-color="#d6af49"/><stop offset=".16" stop-color="#e19f51"/><stop offset=".34" stop-color="#e06f53"/><stop offset=".42" stop-color="#d96154"/><stop offset=".58" stop-color="#d66361"/><stop offset=".66" stop-color="#d76969"/><stop offset=".84" stop-color="#a6a180"/><stop offset=".92" stop-color="#8db889"/><stop offset="1" stop-color="#8cbb86"/></linearGradient><linearGradient id="linear-gradient-22" x1="110.08" y1="611.55" x2="1736.89" y2="611.55" gradientUnits="userSpaceOnUse"><stop offset="0" stop-color="#d7b93a"/><stop offset=".08" stop-color="#dbaf45"/><stop offset=".16" stop-color="#e69f4d"/><stop offset=".34" stop-color="#e17051"/><stop offset=".42" stop-color="#d96153"/><stop offset=".58" stop-color="#d66362"/><stop offset=".66" stop-color="#d6686b"/><stop offset=".84" stop-color="#a1a184"/><stop offset=".92" stop-color="#88b88d"/><stop offset="1" stop-color="#87bb8b"/></linearGradient><linearGradient id="linear-gradient-23" x1="101.36" y1="619.57" x2="1729.24" y2="619.57" gradientUnits="userSpaceOnUse"><stop offset="0" stop-color="#dcb935"/><stop offset=".08" stop-color="#e0ae40"/><stop offset=".16" stop-color="#ea9f4a"/><stop offset=".34" stop-color="#e1704f"/><stop offset=".42" stop-color="#d96152"/><stop offset=".58" stop-color="#d66363"/><stop offset=".66" stop-color="#d6686d"/><stop offset=".84" stop-color="#9da187"/><stop offset=".92" stop-color="#83b992"/><stop offset="1" stop-color="#82bb90"/></linearGradient><linearGradient id="linear-gradient-24" x1="92.65" y1="627.64" x2="1721.59" y2="627.64" gradientUnits="userSpaceOnUse"><stop offset="0" stop-color="#e1b930"/><stop offset=".08" stop-color="#e5ae3c"/><stop offset=".16" stop-color="#ee9e46"/><stop offset=".34" stop-color="#e2714e"/><stop offset=".42" stop-color="#d96051"/><stop offset=".58" stop-color="#d66464"/><stop offset=".66" stop-color="#d5676e"/><stop offset=".84" stop-color="#99a28b"/><stop offset=".92" stop-color="#7eb996"/><stop offset="1" stop-color="#7dbb95"/></linearGradient><linearGradient id="linear-gradient-25" x1="83.95" y1="635.69" x2="1713.94" y2="635.69" gradientUnits="userSpaceOnUse"><stop offset="0" stop-color="#e6b92b"/><stop offset=".08" stop-color="#ebad37"/><stop offset=".16" stop-color="#f29e43"/><stop offset=".34" stop-color="#e3714c"/><stop offset=".42" stop-color="#da6050"/><stop offset=".58" stop-color="#d56465"/><stop offset=".66" stop-color="#d46770"/><stop offset=".84" stop-color="#95a28e"/><stop offset=".92" stop-color="#78ba9b"/><stop offset="1" stop-color="#78bb9a"/></linearGradient><linearGradient id="linear-gradient-26" x1="75.15" y1="643.82" x2="1706.29" y2="643.82" gradientUnits="userSpaceOnUse"><stop offset="0" stop-color="#ebb926"/><stop offset=".08" stop-color="#f0ad33"/><stop offset=".16" stop-color="#f79e3f"/><stop offset=".34" stop-color="#e3724b"/><stop offset=".42" stop-color="#da604f"/><stop offset=".58" stop-color="#d56466"/><stop offset=".66" stop-color="#d46671"/><stop offset=".84" stop-color="#90a292"/><stop offset=".92" stop-color="#73ba9f"/><stop offset="1" stop-color="#73bb9f"/></linearGradient><linearGradient id="linear-gradient-27" x1="65.74" y1="652.07" x2="1698.64" y2="652.07" gradientUnits="userSpaceOnUse"><stop offset="0" stop-color="#f0b921"/><stop offset=".16" stop-color="#fb9e3c"/><stop offset=".42" stop-color="#da604e"/><stop offset=".66" stop-color="#d36673"/><stop offset=".92" stop-color="#6ebba4"/></linearGradient></defs><g id="Layer_12"><rect class="cls-32" y="0" width="1920" height="1080"/></g><g id="Layer_13"><path class="cls-5" d="M337.89,53.44c1.93,0,1.93-3,0-3s-1.93,3,0,3h0Z"/><path class="cls-4" d="M294.49,55.09c31.25-12.48,65.41-2,93.86,12.92,30.29,15.88,57.52,37.71,81.56,61.92,53.65,54.02,73.6,128.47,74.6,202.85.4,29.59-.64,63.66,15.8,89.68,19.8,31.35,57.13,31.08,90.15,29.25,42.36-2.35,84.55-8.35,125.89-17.88,41.9-9.65,82.06-25.47,123.94-35.03,37.72-8.62,79.3-10.29,114.42,8.49,31.63,16.92,50.03,48.02,60.77,81.21,20.52,63.38,17.15,132.9,48.43,193.04,12.78,24.57,31.82,46.63,58.39,56.4,19.25,7.08,40.17,6.47,60.21,3.89,20.57-2.65,41.02-6.59,61.44-10.23,42.93-7.66,85.32-17.96,128.18-25.82,20.68-3.79,42.67-5.6,62.8,1.78,17.39,6.37,31.19,19.31,42.51,33.61,21.47,27.1,36.49,58.63,58.02,85.78s45.68,49.92,72.49,70.52c54.8,42.11,117.68,72.06,181.08,98.75,15.71,6.61,31.5,13.04,47.31,19.42,3.58,1.44,5.14-4.36,1.6-5.79-65.19-26.31-130.63-53.54-189.99-91.64-29.59-18.99-57.48-40.71-82.09-65.88-25.62-26.19-44.97-55.9-64.35-86.76-16.69-26.58-36.41-54.58-67.65-64.72-38.56-12.52-81.85,3.36-119.77,11.22-43.62,9.04-87.76,18.09-131.96,23.8-21.15,2.73-43.35,3.2-63.2-5.75-13.43-6.06-24.83-15.73-34.07-27.12-42.96-53-41.75-127.01-56.5-190.3-7.32-31.42-18.6-63.44-40.86-87.55s-55.93-36.93-89.47-38.45c-40.68-1.85-80.01,11.3-118.29,23.35-41.65,13.11-83.94,23.44-127.21,29.58-22.62,3.21-45.4,5.34-68.22,6.41-18.89.88-39.39,1.8-56.85-6.72-33.05-16.14-35.86-57.83-36.68-90.04-.9-35.33-1.97-69.73-10.8-104.19-8.97-34.99-24.02-68.73-46.25-97.34-19.92-25.65-45.51-47.83-72.07-66.36s-55.71-34.05-87.61-37.39c-14-1.47-28.06.09-41.16,5.33-3.54,1.41-2,7.22,1.6,5.79h0Z"/><path class="cls-19" d="M285.79,66.27c29.21-10.82,60.75-.71,87.11,13.16,29,15.27,55.02,36.23,78.19,59.28,51.13,50.87,75.66,120.57,78.73,191.85,1.26,29.32-.21,61.04,12.11,88.41,13.39,29.75,42,39.28,72.76,39.25,39.89-.04,80.25-5.22,119.41-12.52,41.25-7.69,80.91-20.17,121.3-31.22,36.61-10.01,75.5-16.97,112.88-6.76,35.22,9.62,60.93,34.22,76.09,66.94,28.2,60.83,23.85,130.91,48.77,192.92,10.12,25.17,24.65,49.76,47.13,65.75,28.47,20.25,63.06,18.38,95.96,12.96,41.68-6.87,83.22-14.92,124.52-23.75,38.22-8.17,82.99-24.76,121.34-9.29,36.58,14.76,54.77,54.14,74.86,85.31,20.25,31.43,46.26,58.58,75.49,81.79,59.85,47.52,130.9,78.66,201,107.73,18.38,7.63,36.83,15.1,55.25,22.65,3.57,1.46,5.13-4.34,1.6-5.79-74.22-30.42-150.26-59.45-217.87-103.29-31.98-20.73-61.83-45.17-86.64-74.2-25.12-29.39-40.27-66.05-66.44-94.49-11.29-12.27-25.03-22.37-41.06-27.44-16.98-5.37-35.07-5.02-52.53-2.6-19.85,2.75-39.33,7.91-58.9,12.16-20.51,4.45-41.08,8.63-61.69,12.6-21.07,4.06-42.18,7.91-63.33,11.58-20.78,3.6-42.38,7.14-63.41,3.49-31.5-5.45-54.29-27.95-69.24-55.07-32.67-59.23-29.58-129.07-50.27-192.12-9.81-29.88-25.51-58.33-51.85-76.61s-61.75-24.38-94.26-21.63c-40.1,3.39-78.09,17.52-116.66,27.99-40.85,11.09-82.55,19.09-124.67,23.41-19.64,2.01-39.56,3.69-59.32,3.47-18.56-.21-37.99-3.36-51.82-16.83-23.35-22.73-23.01-60.6-24.01-90.81-2.23-67.64-18.12-135.82-61.83-189.29-19.96-24.42-44.63-45.94-70.51-63.87-24.15-16.74-51.78-31.66-81.39-35.12-13.01-1.52-26.08-.37-38.4,4.2-3.59,1.33-2.04,7.13,1.6,5.79h0Z"/><path class="cls-21" d="M277.09,77.44c29.09-9.86,60.17,1.84,85.63,16.2,28.79,16.24,54.55,37.99,77.4,61.76,49.52,51.52,71.73,121.11,75.6,191.36,1.57,28.57,1.41,60.82,16.89,86.04,16.87,27.49,47.81,31.92,77.56,30.96,39.92-1.29,79.75-6.2,118.93-13.81,40.88-7.95,80.37-20.87,120.92-30.06,36.48-8.27,75.68-11.79,111.11,2.79,33.44,13.76,54.7,42.4,66.95,75.52,22.82,61.72,20.34,130.03,49.62,189.78,11.9,24.3,29.36,47.34,54.23,59.37,32.72,15.82,69.58,8.2,103.69,1.96,40.94-7.49,81.75-15.71,122.36-24.81,37.59-8.42,81.01-22.37,117.37-2.44,32.06,17.58,48.07,53.11,67.31,82.39,20.2,30.75,47.2,56.04,76.92,77.49,62.38,45.03,136,72.99,206.84,101.62,18.23,7.37,36.47,14.73,54.63,22.28,3.56,1.48,5.11-4.32,1.6-5.79-73.86-30.71-150.23-57.54-219.8-97.49-33.12-19.02-64.59-41.73-90.61-69.85s-40.01-62.56-64.25-90.93c-10.22-11.96-22.52-22.33-37.1-28.53-16.68-7.1-34.99-8.29-52.86-6.54-18.8,1.84-37.16,6.48-55.53,10.64-20.31,4.59-40.67,8.97-61.07,13.14-20.38,4.17-40.8,8.13-61.26,11.91-20.29,3.75-40.79,8.15-61.49,8.43-34.79.47-63.3-15.35-82.91-43.7-37.85-54.74-37.55-124.01-54.23-186.15-8.23-30.68-21.01-61.84-45.26-83.39s-56.26-30.66-88.09-30.95c-40.35-.36-79.21,12.51-117.73,22.87-40.52,10.9-81.75,19.29-123.46,24.03-20.1,2.28-40.35,3.92-60.58,4.34-17.49.36-36.41-.57-51.54-10.38-28.14-18.25-30.66-56.4-32.4-86.62-1.96-34-5.22-67.17-15.16-99.93-9.72-32.03-24.45-62.78-45.04-89.27-19.26-24.77-43.36-46.55-68.61-65.05-23.89-17.51-51.48-33.65-81.27-37.9-12.44-1.77-24.95-1.1-36.9,2.95-3.64,1.23-2.08,7.03,1.6,5.79h0Z"/><path class="cls-31" d="M268.39,88.62c28.57-8.7,58.77,4.22,83.09,18.74,28.04,16.74,53.09,38.65,75.33,62.46,47.94,51.33,69.54,119.58,74.72,188.5,2.07,27.56,2.92,58.79,18.99,82.49,18.77,27.67,51.67,29.72,82.21,28.44,40.61-1.7,81.04-7.02,120.89-14.99,39.39-7.89,77.8-20.38,117.31-27.55,35.69-6.48,74.18-7.1,107.21,9.93,32.05,16.53,50.39,47.09,61.17,80.44,19.86,61.45,18.92,128.82,51.39,186.15,13.12,23.17,31.83,43.85,57.11,53.66,34.72,13.48,73.69,3.48,108.77-3.26,40.88-7.86,81.6-16.54,122.17-25.86,37.6-8.64,80.19-20.39,115.62,1.47,31.63,19.52,46.42,56.03,66.92,85.36s48.75,52.14,78.67,71.11c64.49,40.89,138.84,65.43,209.48,93.31,18.06,7.13,36.07,14.38,53.96,21.93,3.55,1.5,5.1-4.31,1.6-5.79-73.34-30.92-149.68-55.71-220.89-91.52-33.26-16.72-65.44-36.77-92.35-62.69-27.34-26.33-41.93-60.85-65.24-90.17-21.73-27.33-51.03-41.51-86.12-39.92-18.8.85-37.25,5.13-55.52,9.35-20.55,4.75-41.13,9.36-61.75,13.78-20.09,4.3-40.21,8.43-60.37,12.36s-40.63,8.46-61.19,10.34c-19.42,1.78-39.42.67-57.28-7.82-12.93-6.14-23.99-15.49-33.16-26.4-42.97-51.16-44.41-122.62-59.68-184.51-7.52-30.49-18.67-61.84-40.97-84.81-21.95-22.62-52.36-33.96-83.38-36.26-39.18-2.91-77.62,7.99-115.15,17.69-39.92,10.32-80.3,18.84-121.25,23.87-20.79,2.55-41.71,4.29-62.65,4.99-17.67.59-36.62.5-52.65-7.97-29.82-15.75-34.3-53-36.78-83.12-2.69-32.68-5.96-64.61-15.49-96.16-9.87-32.69-24.76-64.13-45.58-91.29-18.49-24.12-41.41-45.49-65.5-63.92-23.4-17.9-50.48-34.88-80.01-39.87-11.81-1.99-23.72-1.76-35.22,1.74-3.68,1.12-2.11,6.91,1.6,5.79h0Z"/><path class="cls-10" d="M259.7,99.79c28.05-7.48,57.32,6.66,80.53,21.32,27.27,17.22,51.62,39.33,73.25,63.17,47.81,52.68,67.57,120.83,74.42,190.19,2.64,26.76,5.41,56.93,23.76,78.18,21.64,25.06,56.88,23.53,87.01,21.88,39.77-2.17,79.33-7.8,118.35-15.73,38.92-7.9,77.32-20.31,116.81-25.03,34.8-4.16,71.47-1.48,101.68,17.87,29.94,19.18,45.29,51.51,54.73,84.64,17.42,61.19,18.28,128.29,54.6,182.84,14.93,22.43,35.91,40.98,62.5,47.7,36.28,9.17,75.71-2.03,111.37-9.24,39.96-8.09,79.75-17.01,119.46-26.28,37.11-8.66,78.69-18.3,113.07,3.96,30.93,20.03,45,56.18,65.73,85.08,20.92,29.17,50.84,50.67,81.89,67.99,31.78,17.72,65.85,30.94,99.83,43.75,36.7,13.84,73.67,26.96,110.29,41.03,18.81,7.23,37.52,14.71,56.05,22.63,3.51,1.5,6.57-3.67,3.03-5.18-72.55-31-148.24-54.05-220.66-85.28-34.04-14.68-67.51-32.28-95.88-56.43-14.53-12.37-26.56-26.65-36.88-42.66-9.84-15.28-18.59-31.29-29.44-45.9-20.31-27.32-47.66-44.28-82.26-44.84-18.88-.3-37.62,3.47-55.94,7.64-19.29,4.38-38.54,8.96-57.84,13.29-40,8.96-80.2,18.13-120.69,24.66-36.71,5.92-73.08,3.38-100.91-23.63-46.98-45.6-51.95-116.88-65.18-177.12-6.73-30.66-15.76-62.43-35.26-87.65-19.64-25.4-49-40.29-80.45-44.89-36.61-5.35-73.35,2.4-108.83,10.98-39.51,9.55-79.09,18.5-119.41,24.02-20.35,2.78-40.81,4.78-61.33,5.85-18.15.95-37.33,2.2-54.94-3.26-33.99-10.54-42.98-45.45-46.78-76.92-3.9-32.32-6.65-64.03-15.97-95.42-9.57-32.28-23.83-63.5-43.64-90.82-18.57-25.6-42.03-48.33-66.8-67.89-22.62-17.86-48.62-35.1-77.35-40.85-11.16-2.23-22.5-2.39-33.54.55-3.73.99-2.15,6.78,1.6,5.79h0Z"/><path class="cls-7" d="M251,110.97c28.28-6.36,57.46,9.94,79.98,25.33,26.24,17.93,49.81,40.22,70.62,64.18,23.54,27.11,40.77,59.36,52.62,93.14,11.29,32.19,16.13,64.95,20.6,98.59,3.53,26.54,9.15,56.37,31.46,73.91,25.82,20.29,63.88,15.46,94.33,13.14,38.85-2.96,77.39-9.11,115.51-17.06,38.14-7.95,76.3-19.49,115.45-20.75,34.52-1.11,69.96,6.77,96.16,30.52,26.37,23.9,37.54,59.2,45.34,92.85,13.86,59.79,18.85,126.01,60.6,174.66,18.6,21.68,43.49,34.98,72.13,36.96,18.45,1.28,36.96-1.58,55.05-4.96,20.03-3.74,39.98-7.94,59.89-12.24,39.19-8.47,78.08-18.19,117.23-26.8,38.06-8.37,78.75-11.31,109.84,16.51,26.65,23.85,38.92,58.91,61.7,85.9,22.34,26.47,53.84,44.83,84.93,59.16,32.3,14.89,66.28,25.81,99.95,37.09,36.07,12.08,72.16,24.15,107.77,37.54,18.56,6.98,36.98,14.34,55.18,22.22,3.51,1.52,6.57-3.65,3.03-5.18-69.81-30.22-142.64-51.78-214.16-77.36-34.72-12.42-68.91-26.89-99.29-48.07-15.67-10.93-29.61-23.85-40.74-39.44-10.43-14.61-18.92-30.48-28.8-45.45-18.33-27.76-42.52-49.81-76.65-54.2-36.96-4.75-74.78,7.93-110.36,16.21-40.18,9.36-80.45,18.39-120.93,26.35-36.02,7.08-75.06,13.46-107.84-7.5-54.87-35.09-65.83-109.55-77.45-168-6.38-32.1-13.48-65.45-30.55-93.84-16.42-27.32-42.75-46.13-73.48-54.11-34.02-8.83-69.69-4.53-103.6,2.51-38.9,8.07-77.38,17.58-116.69,23.6-20.16,3.09-40.43,5.48-60.78,6.99-18.42,1.36-37.51,2.99-55.92.68s-33.68-9.54-44.15-24.15c-8.84-12.34-12.98-27.38-15.73-42.11-5.96-31.9-7.82-63.89-16.77-95.3-9.34-32.78-23.23-64.59-42.52-92.77-17.99-26.27-41.02-49.56-65.41-69.92-22.16-18.49-47.52-36.53-75.93-43.66-10.95-2.75-22.19-3.45-33.25-.97-3.77.85-2.17,6.63,1.6,5.79h0Z"/><path class="cls-20" d="M242.3,122.14c27.31-4.88,55.12,12.16,76.33,27.36,26.27,18.82,50.01,41.99,70.62,66.84,22.3,26.89,38.78,58.47,50.47,91.28,11.13,31.24,16.17,63.08,21.49,95.63,4.27,26.15,11.4,54.76,34.48,70.74,27.72,19.18,68.4,13.08,99.83,10.33,39.06-3.41,77.73-10.03,116.12-17.9,39.31-8.06,78.98-18.72,119.47-15.43,34.79,2.83,68.33,17.86,89.37,46.48,19.93,27.11,27.63,61.55,34.31,93.9,11.96,57.97,21.62,124.64,68.67,166.14,23.13,20.4,51.95,27.6,82.38,25.44,38.46-2.73,76.96-13.35,114.45-21.9,38.47-8.77,76.75-19.63,115.57-26.7,19.02-3.46,39-5.26,58.04-.89,18.18,4.17,33.98,14.15,46.61,27.73,23.05,24.79,34.67,57.92,57.86,82.63,23.13,24.64,55.08,40.42,86.15,52.56,33.65,13.15,68.77,22.27,103.36,32.57s71.59,21.93,106.71,34.86c18.59,6.85,36.99,14.18,55.14,22.14,3.5,1.54,6.56-3.63,3.03-5.18-68.66-30.1-140.57-50.59-212.25-72.01-35.67-10.66-71.18-22.57-103.21-41.93-15.51-9.38-29.83-20.6-41.24-34.79-11.03-13.72-19.45-29.36-28.74-44.26-17.19-27.59-38.79-52.53-71.83-60.1-35.81-8.21-73.06,3.13-107.77,11.4-39.32,9.37-78.66,18.68-118.21,27.01-36.54,7.69-77.62,18.94-113.92,4.54-59.83-23.74-78.42-97.71-89.69-154.17-6.5-32.61-12.11-66.05-25.78-96.61-13.01-29.1-34.97-52.28-64.64-64.54-31.68-13.09-66.86-12.73-100.22-7.59-40.66,6.26-80.56,16.82-121.21,23.29-38.17,6.08-78.57,11.92-117.32,9.39-17.69-1.16-35.1-6.35-47.34-19.83-10.45-11.51-15.66-26.71-19.08-41.61-7.17-31.22-9.42-63.01-18.59-93.89-9.44-31.75-22.93-62.56-41.3-90.18-17.73-26.67-40.42-50.4-64.55-71.35-21.25-18.45-45.36-36.5-72.66-44.71-10.61-3.19-21.56-4.42-32.52-2.46-3.79.68-2.19,6.46,1.6,5.79h0Z"/><path class="cls-24" d="M232.81,133.43c26.79-3.42,53.11,13.94,73.48,29.28,25.6,19.29,48.85,42.64,68.94,67.59,22.2,27.56,38.72,59.62,50.61,92.85,10.98,30.68,15.89,62.02,22.43,93.76,5.43,26.33,15.38,54.36,41.15,67.04,13.81,6.79,29.42,8.4,44.62,8.49,19.05.11,38.18-1.34,57.13-3.22,38.79-3.85,77.12-10.78,115.34-18.29,38.71-7.61,78.41-16.45,117.88-9,33.45,6.31,63.19,24.96,80.7,54.56,17.23,29.14,23.5,63.68,30.06,96.44,11.3,56.4,25.21,121.46,74.74,157.55,25.93,18.89,57.2,21.86,88.28,17.81,39.3-5.13,78.26-15.42,116.78-24.56,19.66-4.67,39.29-9.44,58.93-14.19,19.58-4.73,39.21-10,59.24-12.49,18.7-2.32,38.15-2.18,56.07,4.28,16.55,5.97,30.49,17.11,41.55,30.62,21.16,25.84,32.87,58.56,57.67,81.55,24.73,22.92,57.94,36.28,89.69,46.2,34.19,10.69,69.39,17.92,104,27.08,35.61,9.42,70.96,19.95,105.61,32.49,18.35,6.64,36.48,13.88,54.32,21.79,3.5,1.55,6.55-3.62,3.03-5.18-67.38-29.91-138.34-49.49-209.75-67.08-35.78-8.81-71.86-17.76-104.94-34.45-16.16-8.15-31.5-17.97-43.93-31.27-11.61-12.43-20.15-27.35-28.89-41.84-16.07-26.66-33.97-52.83-64.09-64.69-34.49-13.57-72.66-4.48-107.23,3.82-39.79,9.56-79.52,19.41-119.47,28.32-37.87,8.45-80.31,21.6-119.15,12.65-62.6-14.43-88.42-84.88-100.64-140.57-13.45-61.32-19.63-136.32-80.76-170.31-29.09-16.17-63.46-19.44-96.11-16.3-38.62,3.72-76.55,13.74-114.76,20.24-39.12,6.66-78.95,11.83-118.7,12.02-17.5.09-36.05-1.51-50.96-11.56-13.33-8.99-21.27-23.33-26.17-38.29-9.64-29.42-11.56-60.93-20.1-90.73-9.35-32.63-22.75-64.37-40.9-93.1-16.89-26.74-38.48-50.56-61.62-72.02-20.87-19.35-44.36-38.33-71.28-48.48-10.46-3.94-21.66-6.25-32.84-4.83-3.78.48-3.83,6.49,0,6h0Z"/><path class="cls-22" d="M224.11,144.6c27.49-1.92,54.15,18.32,74.14,34.83,25.27,20.88,48.83,45.32,68.19,71.81,20.54,28.11,36.05,59.78,47.44,92.62,10.34,29.83,14.54,60.76,23.03,91.01,7.56,26.94,22.23,50.91,50.48,59.2,16.16,4.75,33.41,4.37,50.07,3.72,20.05-.78,40.06-2.56,59.98-5,38.49-4.72,76.44-12.36,114.61-19.05,36.47-6.39,74.4-10.36,110.1,2.12,33.41,11.69,57.85,37.16,70.93,69.72,12.54,31.21,17.37,64.93,24.34,97.65,11.42,53.65,32.66,116.51,85.56,142.67,30.63,15.15,65.21,11.56,97.65,5.22,39.16-7.65,77.95-17.27,116.68-26.8,36.44-8.97,73.92-21.33,111.56-23.62,18.82-1.14,37.99,1.01,54.98,9.63,15.53,7.88,27.92,20.17,37.95,34.25,19.21,26.95,31.83,58.6,58.66,79.37,26.17,20.26,59.73,30.79,91.49,38.4,34.33,8.23,69.26,13.76,103.64,21.83,35.33,8.29,70.33,18.12,104.54,30.25,18.38,6.52,36.5,13.74,54.29,21.72,3.49,1.57,6.55-3.6,3.03-5.18-66-29.64-136.21-48.63-207.03-62.66-35.59-7.05-71.65-13.22-105.47-26.83-16.63-6.69-33.04-15.01-46.54-26.96-13.04-11.55-22.39-26.17-31.32-40.96-16.59-27.5-33.18-56.14-63.64-70.07-31.29-14.31-66.66-9.1-99.02-1.71-38.4,8.77-76.5,18.85-114.83,27.93-19.44,4.61-38.92,9.04-58.48,13.15-19.69,4.13-39.66,8.1-59.87,7.87-32.92-.38-60.98-14.66-81.95-39.78s-32.08-53.52-39.98-83.27c-16.03-60.39-16.44-136.74-70.13-178.5-57.44-44.67-133.44-23.79-198.29-12.17-40.29,7.22-80.92,13.01-121.86,14.71-17.91.74-36.72,1.43-53.86-4.68-15.8-5.63-27.28-17.42-34.59-32.28-13.54-27.54-15.34-60.09-23.65-89.35-9.24-32.56-22.25-64.28-39.61-93.37-16.39-27.47-37.3-51.95-60.04-74.35-20.93-20.61-44.56-41.29-71.91-52.84-9.91-4.18-20.46-7.01-31.28-6.25-3.83.27-3.86,6.27,0,6h0Z"/><path class="cls-30" d="M215.41,155.78c27.22-.14,53.11,21.75,72.3,38.68,24.47,21.59,47.35,46.29,66.09,73.03,19.93,28.44,35.21,60.05,46.72,92.77,5.49,15.63,10.09,31.54,13.9,47.66,3.35,14.18,6.32,28.54,11.34,42.25,9.89,27.03,28.47,46.68,57.64,51.74,16.47,2.86,33.43,2.05,50.04,1.17,19.9-1.06,39.74-3.06,59.49-5.65,38.56-5.05,76.62-13.11,115.11-18.52,35.69-5.01,73.33-5.19,106.25,11.43,65.58,33.1,68.9,111.39,83.88,174.49,12.38,52.16,38.41,110.86,92.04,131.5,33.41,12.86,70.2,5.78,104.02-1.48,38.34-8.24,76.38-17.83,114.4-27.4,36.18-9.1,73.75-21.63,111.33-22.29,18.91-.33,37.74,3.19,54.17,12.88,15.51,9.15,27.22,22.73,37.03,37.62,17.46,26.51,30.47,56.21,57.26,74.95,27.46,19.22,62.26,27.49,94.76,33.21,35.26,6.2,70.81,10.24,105.9,17.5s70.61,16.73,104.83,28.74c17.92,6.29,35.56,13.34,52.85,21.19,3.49,1.58,6.54-3.58,3.03-5.18-65.74-29.86-136.28-48.24-207.49-59.26-35.94-5.57-72.45-9.3-107.15-20.74-17.17-5.66-34.29-12.91-48.56-24.23-13.59-10.77-23.3-25-32.24-39.67-16.42-26.95-31.64-55.72-60.56-71.19-30.64-16.4-66.38-12.93-99.13-5.85-37.5,8.11-74.57,18.39-111.82,27.57-38.7,9.54-78.63,21.34-118.51,24.25-33.76,2.46-64.6-6.55-88.9-30.57-21.7-21.46-35.76-49.88-44.85-78.72-18.77-59.53-15.9-134.69-63.4-181.18-21.14-20.69-49.01-31.84-78.08-35.4-37.36-4.58-75.09,3.76-111.75,10.17-40,7-80.2,13.27-120.78,15.63-34.51,2.01-74.76,3.91-95.74-29.05-16.2-25.46-18.82-57.91-27.17-86.35-9.48-32.3-22.41-63.8-39.32-92.94-16.16-27.87-36.61-52.85-59-75.94-20.28-20.92-43.01-42.06-69.5-54.86-9.54-4.61-19.74-8.04-30.43-7.99-3.86.02-3.87,6.02,0,6h0Z"/><path class="cls-9" d="M206.71,166.95c26.53,1.82,51.1,24.64,69.45,41.8,24.13,22.57,46.69,47.95,65.15,75.38,19.38,28.8,34.5,60.41,46.19,93.04,10.17,28.38,14.82,59.1,27.29,86.57,12.56,27.65,35.47,42.54,65.52,45.2,35.84,3.18,73.28-2.12,108.75-7,39.42-5.42,78.6-14.32,118.29-17.43,34.62-2.71,70.56,2.39,99.5,22.79,58.09,40.95,55.62,121.18,73.55,182.95,14.74,50.78,47.45,104.93,102.82,117.09,34.76,7.63,70.93-1.35,104.85-9.05,39.24-8.91,78.14-19.19,117.12-29.13,35.66-9.1,73.09-21.33,110.32-19.02,18.76,1.16,36.88,7.03,52.03,18.3,13.94,10.37,24.1,24.47,33.14,39.1,17.31,28.03,31.91,57.04,62.09,73.29,29.04,15.64,62.99,21,95.38,24.6,35.14,3.9,70.25,6.62,105.08,12.99s69.96,15.3,103.76,27.02c17.7,6.14,35.08,13.11,52.11,20.93,3.48,1.6,6.54-3.57,3.03-5.18-63.43-29.14-131.83-46.6-200.97-55.26-36.7-4.6-74.01-5.65-110.12-14.19-16.81-3.98-33.74-9.29-48.73-18.04-15.59-9.1-27.14-22-36.93-36.98-17.72-27.13-31.1-58-59.09-76.44-28.34-18.68-62.91-18.56-95.2-12.84-38.31,6.79-76,18.17-113.68,27.78-37.37,9.53-75,19.77-113.1,25.96-34.46,5.6-69.2,3.88-98.2-17.32-24.08-17.61-40.76-44.15-51.77-71.48-12.55-31.14-17.55-64.57-24.37-97.26-6.46-30.99-14.37-63.01-34.24-88.42-18.23-23.31-44.3-38.52-73.01-44.94-36.17-8.09-73.05-1.89-109.06,3.99-39.25,6.42-78.47,13.05-118.17,16.07-33.25,2.53-76.26,7.93-101.43-19.1-20.83-22.37-24.64-56.21-33.21-84.33-9.77-32.06-22.66-63.33-39.12-92.55s-36.19-54.23-58.39-78.21c-19.9-21.5-41.99-43.27-67.97-57.35-8.92-4.84-18.45-8.63-28.65-9.33-3.85-.26-3.84,5.74,0,6h0Z"/><path class="cls-1" d="M197.22,178.02c25.91,3.96,48.63,26.64,66.42,44.19,23.51,23.18,45.47,48.82,63.65,76.4,19.6,29.73,35.11,62.11,47.42,95.48,10.09,27.35,15.26,57.81,29.98,83.22,15.65,27.02,42.28,37.1,72.46,37.88,37.52.97,75.39-4.02,112.45-9.39,68.56-9.93,152.53-34.18,208.85,20.8,24.76,24.17,34.74,57.03,41.84,89.95,7,32.5,11.4,65.85,22.87,97.21,18.71,51.14,57.31,97.83,114.76,102.66,37.41,3.14,75.55-7.94,111.54-16.71,38.31-9.34,76.34-19.75,114.54-29.49,35.28-9,73.12-20.51,109.79-13.66,36,6.73,57.91,32.15,75.77,62.18,16.37,27.53,31.84,54.41,62.15,68.42,30.35,14.03,64.94,17.19,97.91,18.96,35.9,1.93,71.55,3.37,107.12,9.08,35.31,5.66,70.2,14.17,104.01,25.84,17.24,5.95,34.15,12.77,50.7,20.45,3.48,1.62,6.53-3.55,3.03-5.18-63.25-29.37-132.02-46.31-201.38-52.57-66.35-5.99-155.57,5.67-199.04-56.65-18.07-25.9-30.04-56.64-55.43-76.72-26.39-20.86-59.77-24.27-92.18-19.95-36.11,4.81-71.64,15.89-106.81,25.11-38,9.96-76,20.02-114.43,28.23-35.01,7.47-73.02,12.67-106.2-4.18-25.96-13.18-45.3-36.33-58.7-61.74-15.32-29.05-22.05-61.14-28.28-93.11s-11.45-65.24-27.49-93.77c-14.15-25.17-36.37-44.55-63.21-55.16-32.96-13.03-67.98-11.19-102.42-6.54-39.16,5.29-78,12.59-117.35,16.58-19.53,1.98-39.2,3.45-58.84,3.42-17.93-.03-36.7-1.85-52.02-12.01-26.24-17.39-32.73-51.53-41.56-79.52-10.01-31.71-22.75-62.7-38.61-91.94s-35.04-55.28-56.64-80.06c-19.64-22.53-41.09-45.07-66.4-61.31-8.73-5.6-18.31-10.6-28.66-12.18-3.78-.58-5.41,5.2-1.6,5.79h0Z"/><path class="cls-12" d="M188.52,189.2c25.08,6.29,46.31,29.43,63.48,47.42,23.04,24.14,44.57,50.38,62.54,78.51s34.17,61.2,46.83,93.79c10.34,26.62,16.44,57.02,33.37,80.51,18.47,25.62,47.36,31.73,77.41,31.52,38.27-.27,76.42-5.26,114.22-10.77,37.66-5.5,76.82-14.23,115.03-10.18,33.18,3.51,64.43,19.2,85.19,45.57,21.13,26.84,28.22,60.83,34.53,93.62,6.12,31.82,11.32,64.16,24.32,94.08,10.89,25.07,26.89,48.49,48.6,65.4s49.65,25.52,78.23,24.95c37.62-.75,75.18-11.83,111.4-21.07,38.14-9.74,76.04-20.37,114.2-30.05,35.33-8.96,73.7-19.23,109.9-9,35.39,10,54.23,38.58,71.81,68.57,15.79,26.94,32.65,50.39,62.91,61.87,32.11,12.17,67.8,12.65,101.68,12.57,35.57-.08,70.82.39,106.12,5.32,34.93,4.89,69.47,12.94,102.86,24.32,17.26,5.88,34.15,12.71,50.66,20.45,3.48,1.63,6.53-3.54,3.03-5.18-62.7-29.41-131.38-45.82-200.44-49.97-35.84-2.15-71.83.63-107.63-2.25-36.26-2.92-72.93-11.75-95.99-42.06-18.86-24.79-29.75-55.43-53.06-76.83-24.12-22.16-55.97-28.92-87.93-26.35-36.35,2.93-72.13,14.3-107.21,23.64-38,10.12-75.94,20.51-114.26,29.35-35.37,8.16-73.86,16.87-109.42,5.02-27.93-9.3-50.32-30.23-65.96-54.69-17.39-27.2-25.91-58.05-32.22-89.41-6.48-32.23-10.62-65.8-23.75-96.22-11.74-27.19-32.3-50.17-58.83-63.57-30.95-15.63-64.94-16.61-98.77-13-38.2,4.08-76,11.32-114.19,15.56-19.78,2.19-39.65,3.8-59.55,4.23-17.47.38-35.89.06-52.11-7.24-29.28-13.18-39.07-45.43-48.61-73.43-10.73-31.52-23.65-62.36-39.41-91.72-15.67-29.19-34.62-56.04-55.81-81.46-19.3-23.16-40.15-46.32-64.78-63.97-8.14-5.84-17-11.18-26.8-13.64-3.75-.94-5.34,4.85-1.6,5.79h0Z"/><path class="cls-18" d="M179.82,200.37c11.29,4.13,21.09,12.17,29.99,20.02,11.57,10.19,22.23,21.41,32.46,32.93,22.83,25.72,44.15,53.16,62.05,82.56s33.27,61.28,46.27,93.55c10.14,25.16,17.59,53.86,36.9,73.91,22.65,23.52,55.8,24.14,86.31,22.95,38.1-1.48,75.9-6.87,113.6-12.27,36.86-5.28,76.67-12.8,113.38-2.92,31.25,8.41,57.46,28.46,73.72,56.45,17.11,29.46,21.67,64.45,27.76,97.43,5.73,30.99,12.4,62.04,27.5,90.01,12.58,23.31,30.42,44.28,53.2,58.14,26.47,16.1,56.79,19.4,87.15,15.94,37.73-4.3,74.98-15.14,111.58-24.92,37.12-9.91,74.08-20.47,111.37-29.72,34.94-8.66,73.54-16.73,108.36-3.23,33.74,13.08,49.97,43.69,67.47,73.05,7.51,12.6,15.62,25.3,26.53,35.28,11.64,10.64,25.96,17.53,41.12,21.58,33.78,9.02,69.34,6.9,103.86,5.06,70.09-3.74,138.95,2.68,205.75,25.29,17.05,5.77,33.72,12.54,49.98,20.25,3.47,1.65,6.52-3.53,3.03-5.18-61.47-29.14-129.19-44.98-197.12-47.53-36.05-1.35-71.91,3.01-107.93,2.77s-73.9-4.4-99-30.98c-22.08-23.39-32.13-55.46-53.87-79.19s-52.16-33.98-83.9-33.47c-36.29.58-72.13,11.85-106.91,21.17-37.73,10.11-75.3,20.79-113.24,30.13-36.95,9.09-77.11,20.38-115.29,12.66-27.74-5.61-51.62-22.02-69.41-43.69-43.43-52.89-39.55-122.42-59.83-184.38-9.06-27.69-25.41-52.64-49.34-69.66-26.72-19-58.94-24.95-91.2-23.58-38.43,1.64-76.54,9.36-114.66,14.03-19.04,2.33-38.15,4.23-57.31,5.2-17.98.9-36.7,1.84-54.38-2.2-33.62-7.68-48.55-35.8-59.97-65.57-11.7-30.49-24.16-60.56-39.4-89.49-15.82-30.03-34.52-57.98-55.58-84.57-19.29-24.36-39.91-48.85-64.28-68.33-7.69-6.15-15.84-11.85-25.15-15.25-3.63-1.33-5.2,4.47-1.6,5.79h0Z"/><path class="cls-8" d="M170.41,211.25c23.7,11.89,42.53,35.84,59.21,55.74,22.15,26.43,42.95,54.23,60.78,83.77s33.25,60.72,47.08,92.4c11.18,25.61,20.54,54.78,43.53,72.53,26.54,20.5,63.66,17.55,95.14,15.5,37.85-2.46,75.3-8.4,112.89-13.19,36.83-4.69,75.99-8.85,110.7,7.39,29.6,13.85,51.34,39.8,62.8,70.14,11.64,30.83,14.68,64.38,21.09,96.51,5.99,30.01,14.89,59.4,32.32,84.89,15.12,22.11,35.71,40.59,60.59,50.93,28.89,12.01,60.47,10.64,90.75,5.34,75.24-13.18,147.64-39.75,221.96-56.95,34.71-8.03,73.7-13.15,106.59,4.06,30.53,15.98,44.35,46.71,61.6,74.66,7.76,12.58,16.5,24.82,28.31,33.93,12.46,9.62,27.37,15.08,42.74,17.93,34.62,6.42,69.87,2.08,104.55-1.36,69.66-6.92,138.86-1.26,205.5,21.06,17.06,5.72,33.72,12.5,49.95,20.27,3.47,1.66,6.51-3.51,3.03-5.18-60.98-29.19-128.58-44.56-196.15-45.44-35.36-.46-70.19,5-105.38,7.22-34.9,2.2-76.72,2.07-104.51-22.46-23.81-21.01-34.03-53.21-53.4-77.78-19.3-24.47-47.04-37.96-77.97-40.01-35.56-2.36-70.93,8.01-104.93,17.04-37.5,9.96-74.75,20.85-112.29,30.68-36.56,9.58-74.68,20.83-112.78,20.32-30.38-.41-58.63-11.34-81.06-31.91s-37.58-48.46-46.17-77.74c-9.51-32.4-12.67-66.17-20.23-99.01-6.75-29.34-18.53-57.45-40.3-78.9s-50.69-33.33-81.03-35.41c-37.09-2.54-74.66,5.01-111.29,9.84-37.12,4.89-75.47,10.27-112.99,7.95-18.25-1.13-36.34-5.74-50.2-18.25-11.02-9.94-18.39-23.02-24.6-36.33-13.72-29.39-25.63-59.41-40.7-88.19-16.15-30.84-34.71-60.01-55.69-87.77-18.78-24.86-38.52-49.64-61.44-70.85-7.57-7.01-15.68-13.9-24.95-18.56-3.44-1.73-6.48,3.45-3.03,5.18h0Z"/><path class="cls-15" d="M161.71,222.42c22.63,15.08,40.37,39.3,56.93,60.42,21.53,27.46,41.88,55.94,59.72,85.94,17.51,29.47,33.04,60.07,47.69,91.04,11.88,25.12,23.82,52.75,49.26,66.97,29.3,16.38,67.76,11.88,99.8,9.23,38.26-3.16,76.11-9.71,114.31-13.34,35.65-3.38,71.89-3.11,102.93,17.08,27.26,17.73,44.67,46.7,53.24,77.57,16.6,59.76,13.64,125.21,54.34,175.98,16.57,20.67,38.68,36.84,64.05,44.85,30.87,9.75,64.06,5.82,95.18-.63,75.48-15.64,148.07-42.93,223.5-58.62,35.16-7.31,74.27-9.67,105.77,10.61,28.84,18.56,40.89,51.23,59.26,78.56,8.27,12.31,18.08,23.51,30.97,31.14,12.31,7.29,26.35,10.91,40.45,12.62,35.43,4.3,70.8-2.32,105.79-7.32,69.44-9.91,139.24-5.15,206.01,17.08,17.07,5.68,33.72,12.48,49.92,20.31,3.46,1.67,6.51-3.5,3.03-5.18-60.89-29.43-128.85-44.48-196.49-43.59-35.26.46-69.67,7.08-104.55,11.36-33.13,4.06-72.56,7.08-102.27-11.16s-39.83-52.23-58.29-78.5c-18.1-25.76-44.05-42.22-75.45-46.16-34.55-4.33-69.15,4.64-102.32,13.31-37.97,9.92-75.59,21.15-113.45,31.49-63.58,17.38-140.77,44.13-199.96,1.44-24.42-17.61-42.1-43.6-52.28-71.72-11.27-31.13-14.71-64.36-20.62-96.74-5.53-30.29-13.94-59.87-33.18-84.53-18.21-23.34-44.55-39.65-73.82-44.69-35.36-6.09-72.07.37-107.23,4.95-37.61,4.9-75.47,9.96-113.47,9.88-18.22-.03-37.16-1.72-53.23-11.06-13.51-7.85-23.18-20.31-30.83-33.67-16.15-28.2-28.33-58.76-43.67-87.44-16.26-30.41-34.32-59.61-54.51-87.57-18.54-25.67-37.83-51.22-59.75-74.13-7.29-7.62-14.95-15.09-23.75-20.96-3.22-2.15-6.23,3.05-3.03,5.18h0Z"/><path class="cls-2" d="M152.41,233.13c21.23,18.45,38.14,42.64,54.67,65.16,20.35,27.72,39.89,56.03,57.49,85.58s34.15,60.98,50.35,91.94c13,24.84,27.92,49.88,55.21,60.73,15.32,6.09,32.1,7.25,48.43,7.24,18.88-.02,37.77-1.37,56.55-3.21,37.69-3.69,75.19-10.47,113.04-12.3,36.12-1.75,71.26,4.28,98.34,29.99,23.77,22.57,35.66,53.42,41.89,84.96,11.83,59.89,13.37,124.5,60.06,169.84,18.85,18.3,42.88,31.13,68.82,35.68,34.91,6.12,70.83-1.56,104.73-9.81,36.81-8.96,73.16-19.63,109.56-30.1,36.36-10.46,73.17-22.25,110.64-27.99,35.29-5.41,73.49-3.04,101.69,21.24,24.8,21.36,35.17,53.69,54.7,79.16,43.25,56.4,123.08,32.02,181.84,21.49,68.07-12.2,137.75-7.65,203.49,14.16,16.87,5.6,33.31,12.35,49.29,20.14,3.46,1.69,6.5-3.49,3.03-5.18-59.77-29.15-126.75-43.78-193.25-41.93-34.2.95-67.38,7.77-100.9,14.03s-72.41,12.84-105.3-.08c-32.68-12.84-46-47.01-63.24-74.77-15.96-25.69-37.67-45.46-67.56-52.99-33.05-8.32-67.83-1.76-100.25,6.25-37.7,9.31-74.9,20.53-112.22,31.19s-72.87,21.14-110.1,27.55c-33.33,5.74-67.85,6.12-98.68-9.4-25.99-13.08-46.52-34.92-59.85-60.62-15.24-29.38-19.99-62.78-24.94-95.11-4.76-31.07-9.57-62.45-25.01-90.32-13.95-25.18-35.53-45.5-62.6-55.82-32.81-12.51-70.1-7.96-104.09-3.89-38.09,4.56-76.15,10.16-114.54,11.54-18.03.65-36.67.99-54.17-4.06s-30.42-15.41-40.79-29.34c-8.76-11.77-15.33-25.01-22.09-37.97-7.75-14.84-15.55-29.65-23.58-44.33-32.36-59.17-69.7-116.31-113.03-168.1-7.27-8.69-14.78-17.34-23.35-24.79-2.9-2.52-7.16,1.7-4.24,4.24h0Z"/><path class="cls-27" d="M143.71,244.3c19.01,21.39,35.15,45.56,51.36,69.08,20.21,29.33,39.89,58.98,58.14,89.57s34.04,59.98,51.79,89.53c15.3,25.47,34.49,47.03,64.63,53.76,34.53,7.72,72.77,2.3,107.49-1.52,37.85-4.16,76.26-11.41,114.46-9.72,35.75,1.58,67.3,16.52,88.22,46.03,18.74,26.44,25.66,57.8,30.32,89.3,4.94,33.41,8.09,67.8,21.08,99.31,10.1,24.5,26.46,46.31,47.86,62.04,54.6,40.14,122.2,24.66,182.7,8.8,36.42-9.55,72.43-20.58,108.6-31.02,36.27-10.47,73.53-22.57,111.32-25.74,34.73-2.91,70.03,4.13,94.75,30.32,21.18,22.44,30.92,52.92,50.6,76.5,45.41,54.39,128.56,22.83,185.82,10.52,67.57-14.53,137.72-10.76,203.41,10.88,16.89,5.56,33.32,12.33,49.26,20.18,3.45,1.7,6.5-3.47,3.03-5.18-59.74-29.4-127.02-43.6-193.57-40.35-33.67,1.64-66.13,9.13-98.82,16.87-33.98,8.05-72.05,17.16-106.69,7.74-34.87-9.48-49.71-41.28-66.5-69.99-14.88-25.43-33.41-46.98-61.86-57.21-31.19-11.22-65.77-7.26-97.42-.23-36.96,8.21-73.29,19.38-109.6,30.03-36.46,10.7-72.98,21.49-110.08,29.78-33.38,7.46-69.13,12.67-102.55,2.65-28.18-8.46-52.69-26.74-69.46-50.85-18.8-27.03-26.06-59.13-31-91.17-4.88-31.65-7.21-64.35-19.11-94.39-10.29-25.98-27.01-49.54-51.08-64.36-29.85-18.38-65.73-18.11-99.51-15.16-38.5,3.36-76.69,9.67-115.29,12.1-35.06,2.21-74.84,4.41-102.18-21.61-11.04-10.51-19.15-23.59-26.79-36.66-8.58-14.68-16.92-29.51-25.37-44.27-34.31-59.87-71.45-118.14-112.73-173.49-6.71-8.99-13.53-17.94-20.99-26.33-2.57-2.89-6.8,1.36-4.24,4.24h0Z"/><path class="cls-3" d="M134.54,254.87c36.07,52.6,70.59,106.61,103.73,161.09,18.05,29.67,35.26,60.07,54.93,88.71,17.41,25.35,39.16,43.92,70.38,48.64,35.71,5.39,73.41.23,109.02-3.77s74.75-11.07,111.78-6.81c34.74,4,63,23.34,80.39,53.51,16.77,29.1,21.37,62.05,25.47,94.83,3.94,31.46,7.7,63.75,20.98,92.91,11.2,24.58,29.49,45.77,52.47,60.02,57.91,35.93,127.91,16.8,188.9.11,36.73-10.05,73.06-21.47,109.63-32.05,36.39-10.52,73.99-22.55,112.1-24.12,35.17-1.45,69.39,8.68,92.24,36.68,19.74,24.18,29.26,55.72,51.76,77.81,22.65,22.23,54.65,24.79,84.68,21.3,35.1-4.08,68.47-16.19,102.61-24.65,66.93-16.59,137.49-13.5,203.01,7.93,16.9,5.53,33.32,12.31,49.24,20.22,3.45,1.71,6.49-3.46,3.03-5.18-59.71-29.65-127.3-43.46-193.87-38.88-33.28,2.29-65.2,10.37-97.18,19.42s-69,20.04-104.06,15.59c-18.05-2.29-34.22-9.94-46.55-23.48-10.6-11.63-18.17-25.7-25.86-39.31-14.87-26.32-31.24-50.92-59.86-63.61-30.25-13.41-64.6-11.39-96.36-5.24-37.23,7.21-73.74,18.77-110.03,29.59-36.39,10.85-72.75,21.85-109.64,30.89-35.14,8.61-72.91,16.31-108.94,8.58-27.65-5.94-52.82-20.64-71.34-42.04-21.16-24.43-30.62-55.18-35.94-86.52-10.04-59.17-9.14-128.33-61.3-168.87-25.59-19.89-57.44-23.6-88.9-22.37-38.85,1.52-77.37,8.35-116.1,11.46-34.3,2.76-75.62,7.24-105.77-12.94-26.63-17.83-42.54-50.33-58.8-76.97-36.08-59.1-72.75-117.69-110.72-175.59-6.58-10.03-13.18-20.05-19.96-29.94-2.17-3.16-7.37-.17-5.18,3.03h0Z"/><path class="cls-17" d="M125.85,266.05c30.45,58.19,66.68,113.52,101.43,169.18,17.79,28.5,35.41,57.86,56.64,83.98s45.28,38.49,77.26,41.04c37.23,2.97,75.16-2.37,112.1-6.48,36.3-4.04,75.68-10.64,111.56-.63,33.8,9.43,56.55,37.12,68.66,68.95,11.7,30.75,13.39,63.61,17.31,95.94,3.74,30.8,9.27,62.24,25.62,89.14,14.02,23.06,34.79,41.82,59.46,52.86,27.81,12.44,56.94,12.86,86.77,9.47,37.26-4.23,73.54-14.02,109.47-24.44,36.34-10.54,72.39-22.08,108.79-32.41,36.26-10.29,73.97-21.59,112.06-20.01,36.34,1.51,66.88,17.69,86.94,48.18,16.07,24.42,26.76,54.55,50.61,72.88,25.34,19.47,59.29,17.68,89.03,11.99,34.61-6.63,67.32-20.34,101.24-29.53,65.77-17.81,136.1-15.06,200.78,6.09,16.71,5.46,32.93,12.21,48.64,20.08,3.44,1.72,6.48-3.45,3.03-5.18-58.66-29.38-125.21-42.84-190.69-37.78-33.54,2.59-65.56,11.03-97.45,21.39-33.16,10.77-67.23,22.95-102.55,22.8-18.02-.08-36.1-4.34-50.23-16.05-11.97-9.92-20.3-23.44-27.97-36.76-15.07-26.18-28.77-53.3-55.84-69.07-28.11-16.38-61.73-17.27-93.15-12.79-37.11,5.29-73.51,16.98-109.33,27.71-36.21,10.85-72.27,22.25-108.82,31.95-35.84,9.51-73.66,18.11-110.98,16.99-29.51-.89-58.23-12.27-80.23-31.99-23.58-21.14-36.85-49.41-43.48-79.98-12.94-59.7-5.22-128.85-49.47-177.34-21.43-23.48-50.62-32.75-81.71-33.84-37.78-1.33-75.67,5.48-113.16,9.13-19.43,1.9-38.95,3.34-58.48,3.35-17.88,0-36.24-1.29-52.85-8.46-30.61-13.23-49.21-44.5-66.87-71.17-38.68-58.41-75.63-118.5-110.62-179.2-6.29-10.91-12.5-21.88-18.34-33.04-1.79-3.42-6.97-.39-5.18,3.03h0Z"/><path class="cls-6" d="M116.85,276.51c11,28.16,25.79,54.94,40.65,81.2,18.13,32.03,37.44,63.48,57.49,94.35,17.89,27.55,36.38,56.22,59.34,79.91,22.72,23.45,50.54,33.4,82.88,34.48,38.31,1.28,76.57-4.18,114.59-8.07,35.95-3.69,77.37-9.2,110.97,7.69,63.93,32.13,60.06,115.31,68.1,175.55,4.07,30.51,11.8,60.75,30.82,85.56,16.44,21.44,39.4,37.18,65.17,45.23,30.79,9.61,63.33,6.37,94.65,1.22,37.31-6.13,73.73-16.9,109.86-27.84,36.98-11.2,73.77-23.08,111.06-33.22,35.35-9.61,72.59-19.19,109.46-13.86,16.83,2.44,33.12,8.3,46.92,18.37,13.27,9.68,22.96,22.83,31.31,36.79,14.67,24.54,26.57,54.2,52.2,69.55,26.77,16.02,60.65,11.56,89.45,4.35,34.66-8.67,67.23-23.86,101.42-34.03,65.32-19.44,136.03-17.46,200.74,3.58,16.72,5.44,32.93,12.2,48.62,20.13,3.44,1.74,6.48-3.44,3.03-5.18-59.05-29.82-126.4-42.91-192.31-36.43-32.82,3.23-64.05,12.09-94.95,23.31-33.11,12.03-66.53,25.86-102.02,28.63-16.56,1.29-33.79-.15-48.62-8.22s-25.05-21.84-33.67-36.03c-14.98-24.66-26.54-52.16-50.14-70.12-55.75-42.44-134.85-15.28-194.65,2.36-72.97,21.52-146.46,50.48-222.93,56.14-30.87,2.29-60.93-2.27-87.54-18.93-26.9-16.85-45.27-43.27-54.19-73.49-17.71-60.02-4.78-128.02-40.16-182.79-16.92-26.2-42.64-41.79-73.38-46.09-36.63-5.13-74.39,1.31-110.85,5.15-36.49,3.84-76.84,9.8-113.02,1.04-33.68-8.15-55.26-34.63-74.97-61.23-21.99-29.68-41.64-61.04-60.9-92.53-18.04-29.49-35.51-59.35-51.19-90.18-6.31-12.41-12.41-24.97-17.48-37.94-1.39-3.56-7.19-2.01-5.79,1.6h0Z"/><path class="cls-16" d="M108.15,287.68c8.3,29.66,22.34,57.9,36.68,85.02,16.99,32.15,35.91,63.43,56.33,93.52,18.6,27.39,38.74,56,64.02,77.7,25.17,21.59,55.07,28.28,87.62,28.39,38.24.14,76.18-5.41,114.18-8.79,35.09-3.13,75.56-6.27,106.34,14.34,28.6,19.15,41.38,53.51,47.34,86.01,5.92,32.29,5.01,65.42,9.87,97.88,4.45,29.68,13.98,58.62,34.55,81.13,18.41,20.14,43.51,33.14,70,38.94,31.4,6.88,63.97,3.48,95.21-2.67,38.02-7.48,75.27-18.92,112.24-30.4,36.28-11.27,72.44-23.01,109.15-32.84,36.24-9.7,75.04-18.94,112.56-11.12,16.43,3.43,32.07,10.36,44.91,21.26,12.15,10.31,20.89,23.62,28.77,37.32,14.67,25.5,27.86,55.93,56.34,68.76,28.24,12.72,61.85,5.88,90.2-2.86,34.4-10.6,66.64-27.02,100.88-38.08,64.97-21,136.14-19.79,200.96,1.19,16.73,5.42,32.94,12.21,48.6,20.18,3.43,1.75,6.47-3.43,3.03-5.18-59.06-30.07-126.66-42.8-192.59-35.26-32.9,3.77-64.07,13.21-94.75,25.46-32.13,12.83-64.04,27.6-98.42,33.34-16.71,2.79-34.47,3.49-50.66-2.3-17.1-6.12-29.21-19.41-38.84-34.3-16.33-25.26-27.28-54.73-51.28-74.15-54.18-43.85-132.37-18.91-191.76-1.47-36.97,10.86-73.55,22.99-110.49,33.94s-74.81,21.88-113.34,25.71c-30.68,3.05-61.96.72-90.08-12.85-27.51-13.28-48.71-36.29-59.47-64.9-22.91-60.93-5.77-130.1-36.26-189.09-14.11-27.3-37.73-46.35-67.95-52.73-34.8-7.34-71.5-1.79-106.42,1.84-37.33,3.89-76.96,9.71-114.32,3.42-34.02-5.72-57.76-27.38-79.19-52.94-24.11-28.76-44.81-60.34-64.21-92.41-17.97-29.7-34.83-60.19-48.88-91.96-5.85-13.22-11.21-26.71-15.11-40.65-1.04-3.71-6.83-2.14-5.79,1.6h0Z"/><path class="cls-13" d="M99.45,298.86c5.77,31,18.72,60.75,32.59,88.89,16.09,32.65,34.97,64.13,56.21,93.69,18.61,25.89,39.4,52.05,65.05,71.34,27.65,20.8,59.88,25.68,93.73,25.2,39-.56,77.63-6.58,116.5-9.2,35.73-2.41,76.14-1.67,103.3,25.16,25.27,24.98,33.39,62.99,36.24,97.15,2.62,31.5,1.87,63.31,8.03,94.45,5.77,29.16,18.54,56.46,41.69,75.78,20.59,17.19,46.36,26.66,72.78,30.02,33.75,4.29,68.37-1.5,101.24-9.1,37.8-8.74,74.85-20.47,111.8-32.21,36.54-11.61,73.07-23.43,110.26-32.81,35.73-9.02,74.76-16.05,110.87-4.95,16.46,5.06,31.32,14.1,43.02,26.77,10.8,11.7,18.5,25.86,26.15,39.71,13.97,25.29,29.05,52.41,58.49,61.53,30.71,9.51,65.38-.67,94.3-11.63,33.31-12.63,64.76-29.78,98.58-41.14,64.07-21.53,134.8-20.71,198.94.09,16.55,5.37,32.57,12.12,48.04,20.06,3.43,1.76,6.47-3.42,3.03-5.18-58.46-30-125.5-42.44-190.81-34.43-31.75,3.9-61.97,12.98-91.37,25.44-32.69,13.86-64.47,30.65-99.11,39.29-17.31,4.31-35.84,7.13-53.53,3.41-17.69-3.72-31.63-14.46-42.2-28.8-17.32-23.49-26.91-52.19-47.2-73.58-49.78-52.47-130.47-31.01-190.88-13.68-73.29,21.03-145.3,50.14-220.81,62.49-32.04,5.24-65.16,6.66-96.43-3.44-28.13-9.09-52.6-27.49-66.87-53.65-32.43-59.45-10.97-132.29-34.44-194.59-10.61-28.16-30-51.71-59-61.84-34.14-11.93-72.46-6.88-107.6-3.41-37.12,3.66-75.15,9.02-112.48,5.34-17.97-1.77-35.21-6.69-50.67-16.17-14.13-8.66-26.22-20.2-37.5-32.24-25.1-26.79-46.21-57.23-65.13-88.62-18.24-30.28-34.7-61.91-47.03-95.08-5.04-13.55-9.36-27.4-12.01-41.63-.71-3.79-6.49-2.19-5.79,1.6h0Z"/><path class="cls-25" d="M90.65,309.23c3.35,31.62,14.27,62.14,27.29,90.97,14.96,33.1,33.68,64.74,55.61,93.7,19.28,25.46,41.52,50.4,68.51,67.91,29.99,19.46,64.5,22.8,99.46,21.7,39.07-1.22,77.76-7.63,116.81-9.01,36.97-1.31,76.22,4.19,99.33,36.39,40.62,56.61,17.65,133.11,34.21,196.68,7.23,27.77,22.57,52.17,46.47,68.48,22.9,15.62,50.84,22.54,78.27,23.72,35.09,1.51,70.55-5.77,104.38-14.37,37.29-9.48,73.89-21.41,110.49-33.21,36.04-11.62,72.16-23.25,109-32.13,35.1-8.45,73.78-13.83,108.67-1.55,33.55,11.81,50.61,39.29,66.9,68.88,14.31,25.99,30.82,52.64,61.95,59.45,31.18,6.81,64.56-4.46,93.04-16.42,32.84-13.79,63.76-31.87,97.18-44.32,64.93-24.19,137.58-24.73,203.37-3.47,16.56,5.35,32.57,12.13,48.02,20.12,3.42,1.77,6.46-3.4,3.03-5.18-58.66-30.34-125.97-42.31-191.47-33.39-32.5,4.43-63.31,14.47-93.07,28.08-32.46,14.84-63.76,32.8-98.1,43.13-34.27,10.31-71.82,12.57-97.09-17.15-19.02-22.37-28.19-51.32-46.81-74.03-45.76-55.79-125.24-39.27-185.51-22.55-73.05,20.26-143.93,48.8-218.28,64.27-60.09,12.51-137.49,15.82-177.25-40.91-38.91-55.53-17.33-130.33-32.82-192.62-7.42-29.84-23.34-58.56-51.97-72.46-30.3-14.71-65.91-12.43-98.5-9.75-38.75,3.2-77.62,9.01-116.6,7.26-18.99-.85-37.91-4.11-55.16-12.38-15.34-7.35-28.86-17.87-41.26-29.42-25.65-23.9-47.04-52.18-65.43-81.94-19.05-30.83-35.32-63.72-46.39-98.28-4.82-15.04-8.63-30.47-10.3-46.2-.4-3.8-6.41-3.84-6,0h0Z"/><path class="cls-14" d="M81.95,320.41c2.44,67.38,35.91,134.78,77.46,186.59,20.13,25.11,44.24,48.78,72.74,64.23,31.04,16.83,65.93,19.26,100.6,17.86,38.63-1.55,77.01-8.08,115.7-8.4,37.56-.31,75.2,8.61,95.43,43.21,35.45,60.62,8.14,135.58,27.83,200.29,8.17,26.86,25.02,49.63,49.4,63.84,23.98,13.98,52.33,19.17,79.82,19.18,36.27.02,72.6-7.88,107.49-17.12,37.6-9.96,74.51-22.31,111.47-34.37,36.17-11.81,72.51-23.58,109.62-32.11s74.65-12.53,109.07,1.37c33.62,13.58,49.12,43.29,65.8,73.21,14.62,26.22,32.83,50.53,64.66,54.81,32.17,4.33,65.25-8.68,93.84-22.05,32.3-15.1,62.77-34.05,95.96-47.26,65.06-25.88,138.59-27.46,205.11-6.02,16.57,5.34,32.57,12.14,48.01,20.18,3.42,1.78,6.46-3.39,3.03-5.18-58.83-30.65-126.47-42.25-192.12-32.42-33.26,4.98-64.72,15.96-94.84,30.73-31.43,15.41-61.54,33.85-94.55,45.83s-73.63,19.43-101.08-8.64c-21.42-21.89-30.51-52.68-49.19-76.64-44.34-56.86-122.8-43.08-183.38-26.58-74.47,20.29-146.33,49.73-221.81,66.38-58.54,12.92-135.49,21.13-179.53-29.61-45.2-52.08-22.6-130.39-33.07-192.55-5.25-31.16-18.5-62.75-46.78-79.53-28.68-17.02-64.28-16.03-96.37-13.79-38.05,2.66-76.03,8.41-114.26,7.48-19.31-.47-38.7-2.89-56.82-9.87-15.92-6.13-30.48-15.47-43.71-26.16-54.34-43.92-94.18-110.56-111.88-177.78-4.24-16.09-7.04-32.5-7.64-49.14-.14-3.85-6.14-3.87-6,0h0Z"/><path class="cls-26" d="M73.25,331.59c-1.68,67.97,27.83,136.42,71.45,187.63,21.44,25.17,47.7,47.53,78.08,61.09,33.01,14.74,69.28,16.08,104.85,14.13,39.34-2.16,78.95-9.36,118.42-7.06,18.08,1.05,36.55,4.64,52.25,14.07,15.37,9.22,26.36,23.65,33.2,40.04,26.83,64.27-3.53,136.81,21.15,201.52,21.51,56.41,81.26,74.37,136.92,71.24,76.77-4.32,150.76-32.68,223.1-56.44,36.16-11.87,72.69-23.85,110.05-31.41,35.32-7.15,75.29-9.91,108.45,6.86,31.01,15.68,44.52,45.88,60.88,74.55,14.9,26.11,34.28,48.11,66.07,50.82,33.35,2.84,67.14-12.3,96.1-27.16,30.9-15.85,60.16-34.89,92.04-48.83,65.48-28.62,140.73-31.82,208.74-10.31,17.04,5.39,33.49,12.36,49.31,20.66,3.42,1.79,6.45-3.38,3.03-5.18-59.25-31.1-127.65-42.34-193.71-31.35-33.73,5.61-65.48,17.44-95.7,33.23-31.26,16.34-61.05,35.79-93.77,49.21-32.64,13.39-74.53,24.07-103.6-2.56-22.56-20.66-31.76-51.86-49.42-76.21-41.75-57.53-117.45-48.72-178.03-32.89-75.29,19.68-147.5,49.72-223.18,68.01-58.59,14.16-138.66,28.44-187.64-17.75-51.75-48.8-27.87-129.83-34.4-192.18-3.2-30.5-12.5-62.62-37.33-82.61-25.57-20.58-60.3-22.71-91.75-21.34-39.42,1.71-78.58,8.08-118.09,7.79-37.5-.27-72.15-8.79-103.36-30.04-58.2-39.61-98.92-107.07-113.23-175.38-3.6-17.17-5.31-34.61-4.87-52.15.1-3.86-5.9-3.86-6,0h0Z"/><path class="cls-23" d="M64.55,342.76c-5,62.68,15.46,126.08,54.23,175.35,18.89,24.01,42.32,44.74,69.25,59.3,29.43,15.92,61.84,22.65,95.14,23.38,42.46.94,84.5-6.64,126.9-7.44,34.45-.65,72.03,5.38,93.39,35.43,19.88,27.97,21.53,65.3,20.47,98.38-1.12,34.84-5.87,69.91.74,104.51,5.97,31.28,23.14,58.73,51.54,74.06,25.77,13.91,56.15,17.36,85.02,16.18,77.85-3.17,153.32-31.75,226.42-56.2,37.86-12.66,76.03-25.4,115.11-33.76,31.3-6.69,65.09-9.95,96.22-.69,15.68,4.66,30.15,12.84,41.71,24.47,11.76,11.83,19.89,26.62,27.77,41.16,13.47,24.86,27.64,52.85,56.01,63.03,33.33,11.96,71.36-3.11,101.28-17.83,33.51-16.49,64.18-38.07,97.35-55.19,67.98-35.09,147.51-42.76,220.85-20.62,18.26,5.51,35.84,12.88,52.7,21.78,3.41,1.8,6.45-3.37,3.03-5.18-63.53-33.59-137.91-43.72-208.04-27.68-35.71,8.17-68.23,23.7-99.68,42.15-32.87,19.28-65.13,40.87-101.54,53.02-18.03,6.02-37.82,10.18-56.71,5.94-17.19-3.86-30.3-14.99-40.36-29.01-17.5-24.38-26.92-54.28-48.41-75.84-46.31-46.47-119.51-32.69-176.01-17.32-76.91,20.93-150.71,52.28-228.54,69.96-59.7,13.57-147.56,28.18-190.77-28.6-22.64-29.75-23.51-69.39-21.99-105.14,1.43-33.67,5.21-67.47-1.4-100.87-5.9-29.83-21.36-57.35-49.7-70.8-30.88-14.66-66.96-12.13-100.05-9.53-41.9,3.29-84.48,9.44-126.38,2.87-31.23-4.9-60.25-17.75-85.4-36.83-51.35-38.96-85.26-100.72-93.17-164.43-1.98-15.94-2.25-32.01-.97-48.02.31-3.85-5.69-3.83-6,0h0Z"/></g><g id="Layer_3"><path class="cls-11" d="M1585.89,96.49s41.34,375.39,249.07,492.26c0,0-154.59-238.15-153.62-492.26h-95.45Z"/><path class="cls-28" d="M1681.34,71.71s-24.91,339.61,153.62,517.04h25.22s-81.16-184.13-83.39-517.04h-95.45Z"/><path class="cls-11" d="M1774.79,96.49s-40.26,285.08,85.39,492.26l16.37-3.19s-23.01-78.62,4.42-502.18l-106.19,13.11Z"/><path class="cls-28" d="M1872.24,93.96s-45.03,247.24,4.31,491.6l43.36-7.44.09-452.6-47.76-31.57Z"/><path class="cls-11" d="M1700.46,1079.35s-57.52-57.83,114.15-448.46h10.2s-48.7,311.16-19.94,448.46h-104.42Z"/><path class="cls-28" d="M1814.61,630.89s-63.71,337.36-9.73,448.46h98.22l-42.92-448.46h-45.57Z"/><path class="cls-11" d="M1854.43,630.89s-10.62,200.31,32.3,448.46h33.18v-242.34l-23.89-210.36-41.59,4.25Z"/><path class="cls-28" d="M1886.58,627.61s12.71,241.27,33.42,283.77l-.09-289.69-33.32,5.92Z"/><path class="cls-29" d="M1834.96,588.75s-2.65,3.9,84.95-10.62v43.56s-39.38,17.35-105.3,9.21c0,0,7.63-20.27,20.35-42.14Z"/><path class="cls-28" d="M1829.34,598.88s58.3.26,90.66-12.14v18.85s-35.46,14.55-99.48,11.31l8.83-18.02Z"/><path class="cls-11" d="M334.11,97.14s-41.34,375.39-249.07,492.26c0,0,154.59-238.15,153.62-492.26h95.45Z"/><path class="cls-28" d="M238.66,72.36s24.91,339.61-153.62,517.04h-25.22s81.16-184.13,83.39-517.04h95.45Z"/><path class="cls-11" d="M145.22,97.14s40.26,285.08-85.39,492.26l-16.37-3.19s23.01-78.62-4.42-502.18l106.19,13.11Z"/><path class="cls-28" d="M47.76,94.61s45.03,247.24-4.31,491.6L.09,578.77,0,126.17l47.76-31.57Z"/><path class="cls-11" d="M219.55,1080s57.52-57.83-114.15-448.46h-10.2s48.7,311.16,19.94,448.46h104.42Z"/><path class="cls-28" d="M105.4,631.54s63.71,337.36,9.73,448.46H16.91s42.92-448.46,42.92-448.46h45.57Z"/><path class="cls-11" d="M65.58,631.54s10.62,200.31-32.3,448.46H.09v-242.34s23.89-210.36,23.89-210.36l41.59,4.25Z"/><path class="cls-28" d="M33.42,628.26S20.7,869.53,0,912.03l.09-289.69,33.32,5.92Z"/><path class="cls-29" d="M85.04,589.4s2.65,3.9-84.95-10.62v43.56s39.38,17.35,105.3,9.21c0,0-7.63-20.27-20.35-42.14Z"/><path class="cls-28" d="M90.66,599.53s-58.3.26-90.66-12.14v18.85s35.46,14.55,99.48,11.31l-8.83-18.02Z"/></g><g id="Layer_2"><path class="cls-5" d="M440.34,94.54c0,.84-.02,1.66-.09,2.48v-5.01c.07.84.09,1.68.09,2.53Z"/><path class="cls-11" d="M440.25,0v97.02c-1.35,23.68-22.19,42.5-47.69,42.5s-46.33-18.82-47.67-42.5c-.07-.82-.09-1.64-.09-2.48V0h95.45Z"/><path class="cls-28" d="M535.7,0v97.02c-1.35,23.68-22.19,42.5-47.69,42.5s-46.33-18.82-47.67-42.5c-.07-.82-.09-1.64-.09-2.48V0h95.45Z"/><path class="cls-11" d="M631.15,0v97.02c-1.35,23.68-22.19,42.5-47.69,42.5s-46.33-18.82-47.67-42.5c-.07-.82-.09-1.64-.09-2.48V0h95.45Z"/><path class="cls-28" d="M726.6,0v97.02c-1.35,23.68-22.19,42.5-47.69,42.5s-46.33-18.82-47.67-42.5c-.07-.82-.09-1.64-.09-2.48V0h95.45Z"/><path class="cls-11" d="M822.05,0v97.02c-1.35,23.68-22.19,42.5-47.69,42.5s-46.33-18.82-47.67-42.5c-.07-.82-.09-1.64-.09-2.48V0h95.45Z"/><path class="cls-5" d="M1013.28,95.19c0,.84-.02,1.66-.09,2.48v-5.01c.07.84.09,1.68.09,2.53Z"/><path class="cls-11" d="M1013.19.65v97.02c-1.35,23.68-22.19,42.5-47.69,42.5s-46.33-18.82-47.67-42.5c-.07-.82-.09-1.64-.09-2.48V.65h95.45Z"/><path class="cls-28" d="M1108.64.65v97.02c-1.35,23.68-22.19,42.5-47.69,42.5s-46.33-18.82-47.67-42.5c-.07-.82-.09-1.64-.09-2.48V.65h95.45Z"/><path class="cls-28" d="M917.5,0v97.02c-1.35,23.68-22.19,42.5-47.69,42.5s-46.33-18.82-47.67-42.5c-.07-.82-.09-1.64-.09-2.48V0h95.45Z"/><path class="cls-11" d="M1204.09.65v97.02c-1.35,23.68-22.19,42.5-47.69,42.5s-46.33-18.82-47.67-42.5c-.07-.82-.09-1.64-.09-2.48V.65h95.45Z"/><path class="cls-28" d="M1299.54.65v97.02c-1.35,23.68-22.19,42.5-47.69,42.5s-46.33-18.82-47.67-42.5c-.07-.82-.09-1.64-.09-2.48V.65h95.45Z"/><path class="cls-11" d="M1394.99,0v97.47c-1.35,23.79-22.19,42.7-47.69,42.7s-46.33-18.91-47.67-42.7c-.07-.83-.09-1.65-.09-2.49V0h95.45Z"/><path class="cls-28" d="M1490.44,0v98.38c-1.35,24.01-22.19,43.09-47.69,43.09s-46.33-19.08-47.67-43.09c-.07-.83-.09-1.67-.09-2.51V0h95.45Z"/><path class="cls-11" d="M1585.89,0v98.38c-1.35,24.01-22.19,43.09-47.69,43.09s-46.33-19.08-47.67-43.09c-.07-.83-.09-1.67-.09-2.51V0h95.45Z"/><path class="cls-28" d="M1681.34,0v98.38c-1.35,24.01-22.19,43.09-47.69,43.09s-46.33-19.08-47.67-43.09c-.07-.83-.09-1.67-.09-2.51V0h95.45Z"/><path class="cls-11" d="M1776.79,0v98.38c-1.35,24.01-22.19,43.09-47.69,43.09s-46.33-19.08-47.67-43.09c-.07-.83-.09-1.67-.09-2.51V0h95.45Z"/><path class="cls-28" d="M1872.24,0v98.38c-1.35,24.01-22.19,43.09-47.69,43.09s-46.33-19.08-47.67-43.09c-.07-.83-.09-1.67-.09-2.51V0h95.45Z"/><path class="cls-11" d="M1920,141.47c-25.5,0-46.33-19.08-47.67-43.09-.07-.83-.09-1.67-.09-2.51V0h47.72"/><path class="cls-28" d="M344.8,0v97.02c-1.35,23.68-22.19,42.5-47.69,42.5s-46.33-18.82-47.67-42.5c-.07-.82-.09-1.64-.09-2.48V0h95.45Z"/><path class="cls-11" d="M249.35,0v97.02c-1.35,23.68-22.19,42.5-47.69,42.5s-46.33-18.82-47.67-42.5c-.07-.82-.09-1.64-.09-2.48V0h95.45Z"/><path class="cls-28" d="M153.9,0v97.02c-1.35,23.68-22.19,42.5-47.69,42.5s-46.33-18.82-47.67-42.5c-.07-.82-.09-1.64-.09-2.48V0h95.45Z"/><path class="cls-11" d="M0,0h58.45v97.02c-1.35,23.68-22.19,42.5-47.69,42.5-3.7,0-7.3-.4-10.76-1.15"/><path class="cls-5" d="M344.89,97.02h-.09v-2.48c0,.84.02,1.66.09,2.48Z"/></g></svg>