<svg width="390" height="57" viewBox="0 0 390 57" fill="none" xmlns="http://www.w3.org/2000/svg">
<line y1="28" x2="390" y2="28" stroke="#3D1A20" stroke-width="2"/>
<path d="M322 54H83V3H322L276.989 28.504L322 54Z" fill="#F0B921"/>
<path d="M130.737 17.9277C131.353 17.9277 132.134 18.2207 133.081 18.8066V19.0264C132.729 19.0264 132.461 19.1484 132.275 19.3926H132.349C132.612 19.1973 132.856 19.0996 133.081 19.0996L133.154 19.0264V18.9531C133.408 19.0117 133.726 19.207 134.106 19.5391C134.536 19.5391 134.751 19.3193 134.751 18.8799H135.044L134.971 18.8066V18.7334C135.371 18.1963 135.615 17.9277 135.703 17.9277L135.776 18.001V18.3672L135.63 18.5137L135.776 19.0996L135.63 20.1836L135.776 21.2822L135.703 21.5752L135.776 21.6484L135.703 22.4541L135.776 23.5527L135.63 23.6846L135.703 23.7578V23.8311L135.63 23.9043V23.9775L135.776 25.0029V25.2959C135.776 25.6572 135.703 25.8525 135.557 25.8818L135.483 25.8086H135.41L135.117 25.8818L135.044 25.8086L134.678 25.8818H133.228C133.081 25.833 133.008 25.6865 133.008 25.4424V24.417L133.081 24.0508L132.935 23.9043V23.7578L133.228 23.4062H133.081V22.3076L133.008 22.2344V22.1611C133.115 22.1611 133.188 22.0391 133.228 21.7949L133.008 21.9414H132.935C132.935 21.6875 132.739 21.3457 132.349 20.916V20.8428L132.422 20.7695V20.6963H132.349L132.275 20.7695H132.202C131.694 20.623 131.182 20.5498 130.664 20.5498C129.541 20.5498 128.862 21.3066 128.628 22.8203C128.628 24.3145 129.453 25.5791 131.104 26.6143L131.836 26.541H132.568C132.715 26.541 132.788 26.8096 132.788 27.3467H132.715L133.154 28.3574C135 30.0371 135.923 31.2285 135.923 31.9316C136.021 31.9316 136.118 32.1758 136.216 32.6641L136.143 32.957V33.1768L136.289 33.3965L136.216 33.8359L136.289 34.2021L136.143 34.5684L136.216 34.6416H136.289C136.211 35.6572 136.04 36.165 135.776 36.165L135.85 36.458C135.137 38.2061 134.409 39.2266 133.667 39.5195C133.394 39.959 132.686 40.3008 131.543 40.5449C131.357 40.6426 131.089 40.6914 130.737 40.6914H130.078C129.502 40.6914 128.555 40.3008 127.236 39.5195L126.211 38.4209C126.104 38.2158 125.84 37.9717 125.42 37.6885C124.98 36.7217 124.761 36.1162 124.761 35.8721L124.834 35.5791L124.761 35.2861L124.834 34.8613L124.761 34.7881V34.7148L124.834 34.4219L124.761 34.2021C124.839 34.2021 124.912 34.0312 124.98 33.6895C124.834 33.0059 124.663 32.6641 124.468 32.6641H124.248C124.072 32.6641 123.877 32.7617 123.662 32.957H123.589V32.8105C123.843 31.9805 124.258 31.5654 124.834 31.5654L125.918 31.8584V31.7852C126.348 31.4434 126.665 31.2725 126.87 31.2725H127.383C127.812 31.2725 128.154 31.7119 128.408 32.5908V32.8105H128.262C128.262 32.6152 128.115 32.4932 127.822 32.4443L127.603 32.5176L127.676 32.5908V33.1768L127.529 33.3965V33.4697L127.676 33.6895V33.9824L127.529 34.4951L127.603 34.5684H127.676L127.603 34.9346L127.676 35.4326C127.578 35.4326 127.529 35.5059 127.529 35.6523C127.646 36.1895 128.062 36.7949 128.774 37.4688C129.351 37.8594 129.785 38.0547 130.078 38.0547H130.957C131.182 38.0547 131.548 37.7617 132.056 37.1758L132.495 37.3223H132.568V37.249L132.129 37.1758V37.0293C132.383 36.502 132.554 35.7305 132.642 34.7148C132.495 34.0801 132.153 33.3965 131.616 32.6641C131.04 31.9805 130.649 31.6387 130.444 31.6387L129.214 31.5654L128.481 31.6387L128.408 31.5654V31.4922L128.481 31.4189V31.3457L128.335 30.7744V30.2617C128.013 29.6367 127.573 29.1729 127.017 28.8701C126.509 28.2354 126.074 27.7959 125.713 27.5518L125.054 26.248L125.127 26.0283L124.907 25.4424L124.98 25.3691L124.688 24.124V23.9775L125.054 21.9414L125.127 21.8682L125.054 21.7949V21.7217C125.386 20.5791 126.211 19.583 127.529 18.7334L129.434 18.001L130.737 17.9277ZM131.177 19.6855V19.8174L131.396 19.7588V19.6855H131.177ZM130.151 19.8906V20.0371L130.371 19.9639V19.8906H130.151ZM129.434 20.1836V20.2568H129.58L129.8 20.1836V20.1104H129.727L129.434 20.1836ZM126.943 21.3555H127.017L127.456 21.209V21.1357H127.383C127.09 21.1846 126.943 21.2578 126.943 21.3555ZM127.163 21.502L127.09 21.5752V21.6484H127.163L127.383 21.5752V21.502H127.163ZM126.284 22.0146L126.211 22.0879V22.1611H126.284L126.504 22.0879V22.0146H126.284ZM135.41 22.1611H135.483L135.63 22.0146H135.557L135.41 22.1611ZM134.033 22.8203V22.9668L134.604 22.6738V22.5273L134.033 22.8203ZM125.127 22.8203V22.8936H125.42V22.8203H125.127ZM133.301 23.2598V23.333H133.447L133.74 23.1133H133.667L133.301 23.2598ZM128.335 25.7354V25.8086H128.481L128.701 25.7354V25.6621H128.555L128.335 25.7354ZM128.042 25.8818V26.0283L128.262 25.9551V25.8818H128.042ZM127.529 26.248H127.603L127.749 26.1016H127.676L127.529 26.248ZM127.09 26.4678H127.163L127.31 26.3213V26.248L127.09 26.4678ZM126.284 26.834H126.357L126.504 26.6875H126.431L126.284 26.834ZM125.771 34.9346V34.9932H126.138V34.9346H125.771ZM126.797 35.3594V35.5059L127.31 35.6523C127.31 35.5742 127.139 35.4766 126.797 35.3594ZM132.788 37.3223V37.3955L133.081 37.4688H133.228V37.3955L132.861 37.3223H132.788ZM133.521 37.6152V37.6885L134.033 37.7617C134.033 37.6641 133.96 37.6152 133.813 37.6152H133.521ZM134.18 37.7617V37.9082H134.458V37.835L134.18 37.7617ZM148.784 18.0156H148.857C148.857 18.1133 148.936 18.1621 149.092 18.1621L149.165 20.2275C149.165 20.5889 149.014 20.8867 148.711 21.1211L148.784 21.0332H148.857L148.945 21.1211H149.019V20.8867L149.165 21.0332L149.092 21.6338L149.165 23.4795V24.7393C149.165 25.1396 149.062 25.3398 148.857 25.3398L148.286 25.2666L147.979 25.3398L147.393 25.2666L146.792 25.3398L146.719 24.666L146.792 23.7871L146.719 23.4795L146.953 23.0547C146.797 23.0059 146.719 22.8545 146.719 22.6006L146.792 22.0732C146.792 21.624 146.226 21.1602 145.093 20.6816L144.653 20.6084C143.638 20.6084 142.998 20.8037 142.734 21.1943H142.661C142.563 23.167 142.461 24.2754 142.354 24.5195C142.471 24.5195 142.549 24.6953 142.588 25.0469L142.441 25.8525L142.588 25.999L142.515 26.0723L142.588 26.1455V26.2188L142.515 26.6582C142.515 27.2539 142.681 27.5518 143.013 27.5518L143.613 27.332L144.434 27.4785C144.873 27.3516 145.093 26.9561 145.093 26.292C145.093 26.0088 144.922 25.7354 144.58 25.4717V25.3398H144.653C145.64 25.6035 146.133 26.043 146.133 26.6582L146.221 26.9512V27.0244C146.221 27.708 146.069 28.2061 145.767 28.5186C145.767 28.7529 145.864 28.8701 146.06 28.8701L146.265 29.8516C146.03 30.877 145.518 31.3896 144.727 31.3896L144.346 31.4629V31.3896C144.805 30.9307 145.034 30.5596 145.034 30.2764C145.034 30.1592 144.756 30.0615 144.199 29.9834H143.979L143.467 30.0566L143.394 29.9834V29.9248C142.759 29.9639 142.441 30.1055 142.441 30.3496L142.588 30.6572L142.515 32.1953L142.588 32.2686V32.3418L142.441 32.9424V33.1768H142.588V33.6016L142.441 34.0557L142.515 34.1289V34.2021L142.441 34.7148L142.515 35.5352H142.441L142.661 36.1943L142.515 36.3555L142.588 36.5752L142.515 36.6484V36.7217L142.661 37.0732L142.515 37.2197C142.7 37.4443 142.793 37.6885 142.793 37.9521L143.848 38.2598C144.707 38.2598 145.664 37.8154 146.719 36.9268L146.792 36.1211L146.719 36.0479V35.9746L146.792 35.0957L146.719 35.0078V34.9346L146.865 34.4951L146.719 33.9092L146.865 33.7627L146.719 33.5283V33.3232L146.792 33.25V33.1768L147.598 33.3232L147.832 33.1768L148.579 33.25H149.019L149.092 33.3232H149.165L149.019 33.7627V33.8359L149.165 34.4365V34.6416L149.019 35.2422L149.165 35.667V35.9014C149.067 36.0967 148.916 36.1943 148.711 36.1943V36.3555L149.092 36.1211L149.165 36.6484V36.9268C149.136 37.4639 148.32 38.4258 146.719 39.8125C145.488 40.4082 144.697 40.7061 144.346 40.7061L144.272 40.6182L143.921 40.7061H143.613C142.354 40.7061 141.338 40.335 140.566 39.5928C140.205 39.9443 139.937 40.1201 139.761 40.1201H139.395C138.672 40.1201 137.837 39.7246 136.89 38.9336L136.743 38.7871L136.509 38.4795L136.582 38.4062C137.051 38.709 137.373 38.8604 137.549 38.8604H137.93C138.359 38.6553 138.574 38.3281 138.574 37.8789L138.501 37.6006L138.662 37.4541L138.501 37.0732L138.574 36.5752L138.501 35.9746L138.662 35.8281L138.428 35.5938L138.501 34.6416L138.428 34.4365L138.501 33.7627V33.4551L138.574 33.3818L138.428 33.1035L138.501 31.917V31.6094L138.428 31.1699L138.574 30.877C138.477 30.877 138.428 30.8037 138.428 30.6572L138.501 30.1299L138.354 29.9834H138.501V29.9248C138.228 29.9248 137.983 29.6514 137.769 29.1045L137.93 28.9434L137.842 28.8701H137.314V28.7969L138.428 27.4053V26.6582L138.501 26.2188L138.428 25.999L138.574 25.1201C138.477 25.1201 138.428 25.042 138.428 24.8857L138.501 23.8604L138.428 23.7871V23.7139L138.574 23.1279L138.428 22.8203L138.501 22.293C138.462 20.9648 138.413 20.3008 138.354 20.3008L137.168 19.9346L136.436 20.4619H136.362V20.3887C136.362 19.7539 137.1 19.1143 138.574 18.4697H139.263C139.683 18.4697 140.073 18.6895 140.435 19.1289C141.528 18.4844 142.271 18.1621 142.661 18.1621L143.701 18.2354L144.507 18.0889C144.507 18.2158 144.824 18.2939 145.459 18.3232L147.524 19.2021C147.808 19.2021 148.228 18.8066 148.784 18.0156ZM141.826 18.6748C141.826 18.7725 141.904 18.8213 142.061 18.8213H142.134V18.748L141.826 18.6748ZM143.247 19.4219L143.394 19.5684H143.467L143.32 19.4219H143.247ZM139.028 19.6562L138.955 19.8613V19.9346H139.028L139.189 19.7881V19.7295L139.263 19.7881H139.541V19.7295L139.189 19.6562L139.102 19.7295L139.028 19.6562ZM144.58 20.0078V20.0811L145.034 20.2275H145.093V20.1543L144.653 20.0078H144.58ZM146.221 21.0332L146.572 21.3408V21.1943L146.265 21.0332H146.221ZM148.579 21.2676V21.4873H148.711V21.2676H148.579ZM147.1 22.8203H147.173L147.319 22.6738H147.246L147.1 22.8203ZM148.286 22.9814C148.286 23.0791 148.506 23.1963 148.945 23.333H149.019V23.2598L148.286 22.9814ZM141.914 26.4531V26.5264L142.061 26.6582L142.207 26.5264L141.987 26.4531H141.914ZM141.68 26.8779V26.9512H141.914V26.8047L141.68 26.8779ZM141.255 27.2588L141.401 27.4053H141.68L141.548 27.2588H141.255ZM140.947 27.4053V27.5518L141.182 27.4785V27.332L140.947 27.4053ZM145.386 27.7715V27.8447L145.693 27.4785V27.4053L145.386 27.7715ZM140.288 27.7715C140.2 27.9668 140.024 28.0645 139.761 28.0645V28.2109L140.493 27.8447V27.7715H140.288ZM138.809 28.4453L138.735 28.5186V28.5918H138.809L139.028 28.5186V28.4453H138.809ZM139.761 28.8701H139.834L140.142 28.7383V28.665H140.068C139.863 28.7432 139.761 28.8115 139.761 28.8701ZM138.809 29.6172V29.7051H139.028V29.5439L138.809 29.6172ZM148.359 36.4287L148.213 36.5752V36.6484H148.359L148.506 36.4287H148.359ZM147.832 36.7803V36.9268L148.052 36.8535V36.7803H147.832ZM147.246 37.293H147.319L147.451 37.1465H147.393L147.246 37.293ZM146.499 37.7471H146.572L146.792 37.5273H146.719L146.499 37.7471ZM145.913 38.1133H145.986L146.133 37.9521H146.06L145.913 38.1133ZM145.239 38.333V38.4062H145.312L145.767 38.2598V38.1133L145.239 38.333ZM144.199 39.2119H144.272L144.434 39.0654H144.346L144.199 39.2119ZM143.247 39.8125H143.32L143.467 39.666H143.394L143.247 39.8125ZM142.734 40.1201V40.1787L143.086 39.959V39.8857H143.013L142.734 40.1201ZM161.646 18.0156H161.719C161.719 18.1133 161.797 18.1621 161.953 18.1621L162.026 20.2275C162.026 20.5889 161.875 20.8867 161.572 21.1211L161.646 21.0332H161.719L161.807 21.1211H161.88V20.8867L162.026 21.0332L161.953 21.6338L162.026 23.4795V24.7393C162.026 25.1396 161.924 25.3398 161.719 25.3398L161.147 25.2666L160.84 25.3398L160.254 25.2666L159.653 25.3398L159.58 24.666L159.653 23.7871L159.58 23.4795L159.814 23.0547C159.658 23.0059 159.58 22.8545 159.58 22.6006L159.653 22.0732C159.653 21.624 159.087 21.1602 157.954 20.6816L157.515 20.6084C156.499 20.6084 155.859 20.8037 155.596 21.1943H155.522C155.425 23.167 155.322 24.2754 155.215 24.5195C155.332 24.5195 155.41 24.6953 155.449 25.0469L155.303 25.8525L155.449 25.999L155.376 26.0723L155.449 26.1455V26.2188L155.376 26.6582C155.376 27.2539 155.542 27.5518 155.874 27.5518L156.475 27.332L157.295 27.4785C157.734 27.3516 157.954 26.9561 157.954 26.292C157.954 26.0088 157.783 25.7354 157.441 25.4717V25.3398H157.515C158.501 25.6035 158.994 26.043 158.994 26.6582L159.082 26.9512V27.0244C159.082 27.708 158.931 28.2061 158.628 28.5186C158.628 28.7529 158.726 28.8701 158.921 28.8701L159.126 29.8516C158.892 30.877 158.379 31.3896 157.588 31.3896L157.207 31.4629V31.3896C157.666 30.9307 157.896 30.5596 157.896 30.2764C157.896 30.1592 157.617 30.0615 157.061 29.9834H156.841L156.328 30.0566L156.255 29.9834V29.9248C155.62 29.9639 155.303 30.1055 155.303 30.3496L155.449 30.6572L155.376 32.1953L155.449 32.2686V32.3418L155.303 32.9424V33.1768H155.449V33.6016L155.303 34.0557L155.376 34.1289V34.2021L155.303 34.7148L155.376 35.5352H155.303L155.522 36.1943L155.376 36.3555L155.449 36.5752L155.376 36.6484V36.7217L155.522 37.0732L155.376 37.2197C155.562 37.4443 155.654 37.6885 155.654 37.9521L156.709 38.2598C157.568 38.2598 158.525 37.8154 159.58 36.9268L159.653 36.1211L159.58 36.0479V35.9746L159.653 35.0957L159.58 35.0078V34.9346L159.727 34.4951L159.58 33.9092L159.727 33.7627L159.58 33.5283V33.3232L159.653 33.25V33.1768L160.459 33.3232L160.693 33.1768L161.44 33.25H161.88L161.953 33.3232H162.026L161.88 33.7627V33.8359L162.026 34.4365V34.6416L161.88 35.2422L162.026 35.667V35.9014C161.929 36.0967 161.777 36.1943 161.572 36.1943V36.3555L161.953 36.1211L162.026 36.6484V36.9268C161.997 37.4639 161.182 38.4258 159.58 39.8125C158.35 40.4082 157.559 40.7061 157.207 40.7061L157.134 40.6182L156.782 40.7061H156.475C155.215 40.7061 154.199 40.335 153.428 39.5928C153.066 39.9443 152.798 40.1201 152.622 40.1201H152.256C151.533 40.1201 150.698 39.7246 149.751 38.9336L149.604 38.7871L149.37 38.4795L149.443 38.4062C149.912 38.709 150.234 38.8604 150.41 38.8604H150.791C151.221 38.6553 151.436 38.3281 151.436 37.8789L151.362 37.6006L151.523 37.4541L151.362 37.0732L151.436 36.5752L151.362 35.9746L151.523 35.8281L151.289 35.5938L151.362 34.6416L151.289 34.4365L151.362 33.7627V33.4551L151.436 33.3818L151.289 33.1035L151.362 31.917V31.6094L151.289 31.1699L151.436 30.877C151.338 30.877 151.289 30.8037 151.289 30.6572L151.362 30.1299L151.216 29.9834H151.362V29.9248C151.089 29.9248 150.845 29.6514 150.63 29.1045L150.791 28.9434L150.703 28.8701H150.176V28.7969L151.289 27.4053V26.6582L151.362 26.2188L151.289 25.999L151.436 25.1201C151.338 25.1201 151.289 25.042 151.289 24.8857L151.362 23.8604L151.289 23.7871V23.7139L151.436 23.1279L151.289 22.8203L151.362 22.293C151.323 20.9648 151.274 20.3008 151.216 20.3008L150.029 19.9346L149.297 20.4619H149.224V20.3887C149.224 19.7539 149.961 19.1143 151.436 18.4697H152.124C152.544 18.4697 152.935 18.6895 153.296 19.1289C154.39 18.4844 155.132 18.1621 155.522 18.1621L156.562 18.2354L157.368 18.0889C157.368 18.2158 157.686 18.2939 158.32 18.3232L160.386 19.2021C160.669 19.2021 161.089 18.8066 161.646 18.0156ZM154.688 18.6748C154.688 18.7725 154.766 18.8213 154.922 18.8213H154.995V18.748L154.688 18.6748ZM156.108 19.4219L156.255 19.5684H156.328L156.182 19.4219H156.108ZM151.89 19.6562L151.816 19.8613V19.9346H151.89L152.051 19.7881V19.7295L152.124 19.7881H152.402V19.7295L152.051 19.6562L151.963 19.7295L151.89 19.6562ZM157.441 20.0078V20.0811L157.896 20.2275H157.954V20.1543L157.515 20.0078H157.441ZM159.082 21.0332L159.434 21.3408V21.1943L159.126 21.0332H159.082ZM161.44 21.2676V21.4873H161.572V21.2676H161.44ZM159.961 22.8203H160.034L160.181 22.6738H160.107L159.961 22.8203ZM161.147 22.9814C161.147 23.0791 161.367 23.1963 161.807 23.333H161.88V23.2598L161.147 22.9814ZM154.775 26.4531V26.5264L154.922 26.6582L155.068 26.5264L154.849 26.4531H154.775ZM154.541 26.8779V26.9512H154.775V26.8047L154.541 26.8779ZM154.116 27.2588L154.263 27.4053H154.541L154.409 27.2588H154.116ZM153.809 27.4053V27.5518L154.043 27.4785V27.332L153.809 27.4053ZM158.247 27.7715V27.8447L158.555 27.4785V27.4053L158.247 27.7715ZM153.149 27.7715C153.062 27.9668 152.886 28.0645 152.622 28.0645V28.2109L153.354 27.8447V27.7715H153.149ZM151.67 28.4453L151.597 28.5186V28.5918H151.67L151.89 28.5186V28.4453H151.67ZM152.622 28.8701H152.695L153.003 28.7383V28.665H152.93C152.725 28.7432 152.622 28.8115 152.622 28.8701ZM151.67 29.6172V29.7051H151.89V29.5439L151.67 29.6172ZM161.221 36.4287L161.074 36.5752V36.6484H161.221L161.367 36.4287H161.221ZM160.693 36.7803V36.9268L160.913 36.8535V36.7803H160.693ZM160.107 37.293H160.181L160.312 37.1465H160.254L160.107 37.293ZM159.36 37.7471H159.434L159.653 37.5273H159.58L159.36 37.7471ZM158.774 38.1133H158.848L158.994 37.9521H158.921L158.774 38.1133ZM158.101 38.333V38.4062H158.174L158.628 38.2598V38.1133L158.101 38.333ZM157.061 39.2119H157.134L157.295 39.0654H157.207L157.061 39.2119ZM156.108 39.8125H156.182L156.328 39.666H156.255L156.108 39.8125ZM155.596 40.1201V40.1787L155.947 39.959V39.8857H155.874L155.596 40.1201ZM187.397 17.9863H187.705C188.164 17.9863 188.96 18.5771 190.093 19.7588L190.166 19.9932H189.932C189.57 19.9932 189.39 19.9395 189.39 19.832L188.936 19.9932H188.701C188.672 20.2861 188.594 20.5156 188.467 20.6816V20.7549L188.54 21.2236L188.467 21.6045C188.623 21.6045 188.701 21.917 188.701 22.542L188.54 22.6885C188.687 22.6885 188.867 23.333 189.082 24.6221C189.238 24.7295 189.316 24.8564 189.316 25.0029L189.243 25.0762V25.1494L189.478 25.7793L189.39 25.8525C189.497 25.8525 189.575 26.0576 189.624 26.4678L189.551 26.7021L189.697 26.8486L189.624 27.083C189.731 27.083 189.888 27.5176 190.093 28.3867C190.688 28.875 191.201 29.3633 191.631 29.8516V29.9395L190.708 31.0967V31.3164L190.781 31.8584H190.62V31.9463L191.323 34.4805L191.162 34.6416C191.318 34.6416 191.553 35.4863 191.865 37.1758C192.236 38.2012 192.622 38.7139 193.022 38.7139H193.242C193.438 38.7139 193.672 38.6113 193.945 38.4062L194.019 38.4795C193.394 39.6123 192.676 40.1787 191.865 40.1787C191.865 40.2471 191.685 40.3008 191.323 40.3398C191.147 40.3398 190.684 40.1348 189.932 39.7246C189.688 39.9883 189.326 40.2422 188.848 40.4863H188.54C187.944 40.3789 187.354 40.0713 186.768 39.5635L186.006 38.4795L186.079 38.4062H186.152L187.075 38.7871H187.236C187.52 38.7871 187.725 38.6357 187.852 38.333L187.778 38.2598V38.1719L187.852 37.791L187.617 36.7949V36.2529C187.471 36.0479 187.188 34.8174 186.768 32.5615H186.855L186.929 32.6348H187.002V32.5615L186.768 31.9463V31.1699C186.65 31.1699 186.523 30.8379 186.387 30.1738L186.548 30.0127C186.392 30.0127 186.313 29.959 186.313 29.8516V29.7783L186.387 29.7051C186.182 29.334 185.952 28.3818 185.698 26.8486H185.625C185.361 27.5811 185.229 28.1475 185.229 28.5479C185.112 29.8369 184.932 30.4814 184.688 30.4814H184.614V30.5547L184.775 30.7891C184.531 32.4297 184.326 33.25 184.16 33.25V33.4844C184.16 33.8848 183.979 34.4512 183.618 35.1836L183.765 35.3301L183.618 35.4912V35.7109L183.691 36.1064C183.467 37.6396 183.262 38.4062 183.076 38.4062L182.695 38.4795H179.678L179.458 38.2598V37.1025L179.37 36.6484L179.458 36.3408L179.37 36.4141H179.224L179.297 36.3408L179.224 36.2529V35.4912L179.062 34.2461L178.989 34.334H178.916C178.711 32.6934 178.301 30.252 177.686 27.0098H177.598C177.412 28.6016 177.158 29.3975 176.836 29.3975L176.909 29.7783L176.836 30.1738H176.982V30.3936C176.982 30.501 176.904 30.5547 176.748 30.5547V30.7012H176.909C176.45 33.6895 176.089 35.3594 175.825 35.7109L175.913 36.1064C175.913 36.3604 175.859 36.4873 175.752 36.4873L175.825 36.5605V36.6484L175.444 38.6406V38.7871L175.518 38.875V38.9482L175.605 38.875H175.679L175.913 38.9482C175.913 38.8604 176.064 38.7578 176.367 38.6406V38.7871C176.367 39.3438 175.879 39.9395 174.902 40.5742H174.448C174.116 40.5742 173.804 40.3643 173.511 39.9443C172.905 40.3643 172.524 40.5742 172.368 40.5742C171.675 40.5742 171.03 39.876 170.435 38.4795H170.508C170.957 38.792 171.265 38.9482 171.431 38.9482H171.665C172.183 38.7529 172.441 38.2646 172.441 37.4834C172.676 37.0537 172.905 36.2334 173.13 35.0225V34.4805L173.511 33.6309L173.364 33.4844V33.4111L173.599 33.1768L173.511 33.1035L173.833 31.8584L173.745 31.5508L173.833 31.2432C173.208 30.54 172.896 30.0518 172.896 29.7783C174.028 28.8701 174.595 28.1279 174.595 27.5518C174.595 27.2979 174.697 26.9854 174.902 26.6143V26.541L174.829 26.4678V26.3945C174.849 26.2383 174.976 26.0576 175.21 25.8525H174.976L175.752 22.6152L175.679 22.3809L175.825 21.6924H175.913L175.986 21.7656H176.06V21.6924L175.986 21.6045V21.5312L176.06 21.0771C176.06 20.2471 175.776 19.832 175.21 19.832L174.595 19.9932V19.832C175.532 18.709 176.328 18.1475 176.982 18.1475C177.305 18.1475 177.715 18.3232 178.213 18.6748C178.574 18.3232 178.96 18.1475 179.37 18.1475C179.976 18.1475 180.747 18.7383 181.685 19.9199L181.611 19.9932H181.377L181.143 19.832C180.635 20.0957 180.381 20.5107 180.381 21.0771L180.835 23.4648L180.762 23.5381V23.6113L181.069 24.1533V24.9297L181.143 25.0029V25.0762L180.996 25.2373C181.191 25.2373 181.318 25.5693 181.377 26.2334L181.304 26.3066C181.431 26.3066 181.558 26.9756 181.685 28.3135C181.802 28.3135 181.929 28.958 182.065 30.2471H182.227C182.227 29.7881 182.329 29.4512 182.534 29.2363V28.8555C182.534 28.3379 182.661 28.0059 182.915 27.8594L182.695 27.7715C182.871 26.7461 183.047 26.0283 183.223 25.6182L183.149 25.1494L183.457 25.0762V24.9297H183.311V24.6221L183.384 24.5342L183.311 24.4609V24.3877C183.604 22.6885 183.857 21.8389 184.072 21.8389L183.926 21.0771L183.999 20.9893V20.916C183.833 20.2031 183.677 19.8418 183.53 19.832H183.457L182.842 19.9932L182.769 19.9199C183.53 18.6797 184.302 18.0596 185.083 18.0596C185.522 18.0596 185.933 18.2939 186.313 18.7627H186.387C186.387 18.6553 186.465 18.6016 186.621 18.6016C186.748 18.1914 187.007 17.9863 187.397 17.9863ZM175.913 19.5244V19.6855H176.133V19.6123L175.913 19.5244ZM177.598 19.832V19.9932L177.905 20.0664V19.9199L177.598 19.832ZM177.056 19.9932V20.1396H177.29V20.0664L177.056 19.9932ZM177.144 20.3008L176.748 20.6816V20.7549L177.29 20.374V20.3008H177.144ZM178.447 20.6816V20.8428H178.682V20.7549L178.447 20.6816ZM179.15 20.9893L179.37 21.2236H179.458L179.224 20.9893H179.15ZM187.778 21.8389V21.9121L187.925 21.7656V21.6924L187.778 21.8389ZM186.46 22.7617V22.9229L186.929 22.7617V22.6885H186.768L186.46 22.7617ZM185.698 23.1572V23.3037L186.006 23.0693H185.933L185.698 23.1572ZM184.233 24.4609V24.5342L184.38 24.3877V24.3145L184.233 24.4609ZM181.143 26.7021H181.23L181.377 26.541H181.304L181.143 26.7021ZM180.923 26.9219H180.996L181.143 26.7754H181.069L180.923 26.9219ZM178.989 28.6211H179.062L179.458 28.3135H179.37L178.989 28.6211ZM180.381 29.0166V29.0898L180.615 29.1631H180.688V29.0898L180.454 29.0166H180.381ZM180.923 29.1631V29.2363H181.23V29.1631H180.923ZM176.44 29.6318V29.7783C176.646 29.7002 176.748 29.6221 176.748 29.5439H176.675L176.44 29.6318ZM183.223 29.6318V29.7051H183.53V29.6318H183.223ZM183.691 29.6318V29.7783H183.999V29.7051L183.691 29.6318ZM175.752 30.1738H175.825L175.986 30.0127H175.913L175.752 30.1738ZM187.002 30.0859V30.1738H187.31V30.0859H187.002ZM175.444 30.3936H175.518L175.679 30.2471H175.605L175.444 30.3936ZM183.999 32.166H184.072L184.233 32.0195H184.16L183.999 32.166ZM183.618 32.4004H183.691L183.838 32.2539H183.765L183.618 32.4004ZM183.223 32.6348H183.311L183.457 32.4736H183.384L183.223 32.6348ZM182.065 33.4844V33.5576L182.3 33.3232H182.227L182.065 33.4844ZM181.538 33.792V33.9385L181.758 33.8652V33.7188L181.538 33.792ZM180.923 34.0996V34.2461L181.143 34.1729V34.0264L180.923 34.0996ZM174.976 37.4102H175.063L175.21 37.249H175.137L174.976 37.4102ZM174.595 37.7178H174.668L174.902 37.4834H174.829L174.595 37.7178ZM173.599 38.4062H173.672L173.833 38.2598H173.745L173.599 38.4062ZM201.006 17.9863H201.226C201.997 17.9863 202.842 18.3232 203.76 18.9971L204.771 20.2275L204.99 20.1543V20.2275C205.557 21.0771 205.967 21.9463 206.221 22.835C206.387 22.9717 206.553 23.4551 206.719 24.2852L206.66 24.5049C206.797 24.5049 206.914 24.915 207.012 25.7354H206.792C206.987 26.0479 207.085 26.2871 207.085 26.4531L207.012 26.8926C207.1 26.8926 207.222 27.1074 207.378 27.5371L207.305 27.4639H207.231V27.5371C207.573 27.5859 207.744 27.7324 207.744 27.9766C207.979 28.084 208.218 28.3037 208.462 28.6357L207.378 29.8662L207.158 30.2178L207.231 30.4375L207.158 30.6572L207.231 31.0234L206.587 34.4951L206.66 34.7881C206.426 35.6084 206.133 36.209 205.781 36.5898C205.781 37.4785 205.083 38.4404 203.687 39.4756C202.847 40.1689 202.241 40.5352 201.87 40.5742L201.299 40.4277L200.933 40.501C199.741 40.501 198.56 39.7979 197.388 38.3916L196.377 36.7363C196.377 36.3066 196.23 35.8965 195.938 35.5059L196.011 35.2861L195.806 35.0664L195.938 34.8613V34.7881C195.605 34.7881 195.391 33.8701 195.293 32.0342C195.215 32.0342 195.166 31.8633 195.146 31.5215V31.0967L195.22 30.8037L195.146 30.5107V30.4375L195.22 30.0713L193.989 28.7676V28.6357C194.761 27.7861 195.146 27.2783 195.146 27.1123C195.146 26.2139 195.386 24.9102 195.864 23.2012C196.157 22.7617 196.377 22.2051 196.523 21.5312C197.178 20.3887 197.778 19.7393 198.325 19.583L198.252 19.5098V19.4365C198.73 18.7139 199.287 18.3525 199.922 18.3525C200.039 18.1084 200.4 17.9863 201.006 17.9863ZM200.581 20.0078V20.0811L200.933 20.1543H201.006V20.0811L200.64 20.0078H200.581ZM201.226 20.1543V20.3008L201.592 20.374H201.738V20.3008L201.226 20.1543ZM199.556 21.458L199.629 21.8242V21.8975L199.482 22.0439L199.556 22.6152L199.482 25.8818L199.424 26.3799L199.482 26.4531V26.5264L199.424 26.5996V26.6729L199.482 26.7461V26.8193L199.424 26.8926V26.9658C199.492 27.2783 199.897 27.8105 200.64 28.5625V28.6357C199.868 29.4951 199.482 30.0469 199.482 30.291L199.424 31.668L199.482 31.9609L199.351 32.1074L199.482 32.2539V32.5322L199.424 32.6055L199.482 32.6787V32.752L199.424 33.1182L199.482 33.3379L199.424 33.6309L199.482 35.4326V35.5059C199.482 35.6035 199.39 35.6523 199.204 35.6523V35.7988C199.438 35.7988 199.556 36.0137 199.556 36.4434C199.8 37.459 200.283 37.9668 201.006 37.9668H201.372C202.124 37.9668 202.681 37.3174 203.042 36.0186C203.013 35.7744 202.939 35.6523 202.822 35.6523L202.969 35.2129L202.822 34.7148L202.896 34.4219L202.822 32.8252L202.896 32.752H202.969L202.822 32.4004L202.896 31.7412L202.822 31.1553L202.896 30.3643C202.896 30.1494 202.485 29.5732 201.665 28.6357C202.485 27.7178 202.896 27.1611 202.896 26.9658L202.822 26.8926V26.8193L203.042 26.5264C202.896 26.3506 202.822 26.1846 202.822 26.0283L202.896 24.9297L202.822 24.0654L202.896 23.8457L202.822 23.4209V22.7617L202.896 22.4688C202.847 22.0879 202.627 21.4873 202.236 20.667H202.163L202.09 20.7402C201.875 20.6426 201.562 20.5938 201.152 20.5938H201.079C200.435 20.5938 199.951 20.8818 199.629 21.458H199.556ZM206.294 25.5889V25.6621H206.44L206.719 25.5889V25.5156H206.587L206.294 25.5889ZM205.137 25.6621V25.8086H205.21L205.488 25.5889H205.43L205.137 25.6621ZM205.928 25.6621V25.7354H206.221V25.6621H205.928ZM204.771 26.0283V26.1016H204.99C204.99 26.0039 205.063 25.9551 205.21 25.9551V25.8818H205.137L204.771 26.0283ZM204.331 26.1016V26.1602L204.404 26.2334V26.3066L204.331 26.3799V26.5264H204.404C204.404 26.3799 204.478 26.3066 204.624 26.3066L204.844 26.3799L204.478 26.1016H204.331ZM203.833 26.4531H203.906L204.053 26.3066H203.979L203.833 26.4531ZM206.514 27.1123V27.1855L206.792 27.2588H206.865V27.1855L206.587 27.1123H206.514ZM198.911 27.9033V28.0498L199.204 27.9766V27.9033H198.911ZM198.472 28.1963H198.545L198.691 28.0498H198.618L198.472 28.1963ZM197.461 28.416V28.4893H197.534L197.9 28.416V28.2695L197.461 28.416ZM196.45 28.8408H196.523L196.963 28.6943V28.6357H196.89C196.597 28.6748 196.45 28.7432 196.45 28.8408ZM196.597 34.9932L196.743 35.1396H196.816V34.9932H196.597ZM198.252 35.3594C198.252 35.457 198.325 35.5059 198.472 35.5059H198.618V35.4326L198.252 35.3594ZM198.838 35.5791C198.838 35.6768 198.911 35.7256 199.058 35.7256H199.131V35.6523L198.838 35.5791ZM203.101 36.9561L203.394 37.1611H203.54V37.0879L203.174 36.9561H203.101ZM203.613 37.1611V37.3076H203.687L203.833 37.1611H203.613ZM204.771 37.6006V37.6738H205.063V37.6006H204.771ZM201.812 38.9043V38.9775H201.943L202.236 38.9043V38.8311H202.09L201.812 38.9043ZM217.017 18.0742C218.159 18.0742 219.224 18.5479 220.21 19.4951C221.206 20.6475 221.704 21.7363 221.704 22.7617C221.675 23.2598 221.626 23.5088 221.558 23.5088L221.704 23.8018C221.704 24.9736 221.309 26.0918 220.518 27.1562C220.391 27.1562 220.044 27.5273 219.478 28.2695V28.416C220.649 28.9141 221.318 29.4121 221.484 29.9102L221.631 30.2031L221.558 30.4375H221.631C221.777 30.4375 221.851 30.7109 221.851 31.2578V31.5508L221.777 31.9902L221.851 32.0781L221.777 32.5908L221.851 33.4111L221.704 33.7041L221.777 33.9385L221.631 34.9053C221.777 35.4131 221.899 36.3506 221.997 37.7178C222.31 38.0693 222.583 38.2451 222.817 38.2451H222.891C223.076 38.2451 223.276 38.1475 223.491 37.9521H223.564V38.0254C223.564 38.2793 223.491 38.4258 223.345 38.4648H223.125L222.671 38.3916H222.598V38.4648L223.345 38.6113C223.052 39.3242 222.183 39.9688 220.737 40.5449L220.444 40.6328H220.21C219.634 40.6328 219.141 40.2812 218.73 39.5781C218.516 39.5781 218.193 39.207 217.764 38.4648L217.837 38.3916V38.3184L217.764 37.8643L217.983 37.9521H218.057V37.8643C217.959 37.8643 217.91 37.791 217.91 37.6445L217.69 37.4248L217.764 37.2051L217.69 36.9121L217.837 35.9453L217.69 35.7988V35.3447L217.837 35.1982L217.764 34.6709L217.837 34.4512L217.764 34.0117V33.7773L217.837 33.4844L217.764 33.1914V33.1182L217.837 32.5176L217.764 31.917L217.837 31.8438V31.7705C217.72 31.7705 217.646 31.4482 217.617 30.8037C217.617 30.4131 216.948 30.1885 215.61 30.1299H214.644V32.6641L214.556 34.085L214.644 34.4512L214.556 34.5244L214.644 34.9053V35.4912L214.482 35.6377L214.644 36.165L214.556 36.2383L214.644 36.3115L214.556 36.3848H214.482L214.644 37.1318L214.556 37.2051V37.2783L214.644 37.5713L214.556 37.791C214.917 38.543 215.317 38.9189 215.757 38.9189C215.991 38.9189 216.265 38.7676 216.577 38.4648H216.65V38.5381C216.465 39.0068 216.216 39.3291 215.903 39.5049C215.532 40.2568 215.034 40.6328 214.409 40.6328C213.745 40.5547 213.125 40.2275 212.549 39.6514C212.1 40.1982 211.68 40.4717 211.289 40.4717H211.143C210.381 40.4717 209.487 39.8271 208.462 38.5381V38.4648L209.575 38.7578L210.029 38.6846L210.249 38.7578L210.176 38.6846V38.6113C210.283 38.6113 210.43 38.3135 210.615 37.7178C210.518 37.7178 210.469 37.6445 210.469 37.498L210.542 37.4248L210.469 37.0586V36.9121L210.542 36.3115L210.469 35.8721L210.542 35.6377L210.469 35.1982V34.832L210.542 34.7441L210.469 34.6709V32.3711L210.615 32.1514L210.469 30.4375L210.542 30.2031L209.429 29.0166L209.355 28.9434V28.8701C210.146 27.9619 210.542 27.3418 210.542 27.0098L210.615 26.4824L210.542 26.4092V26.2627L210.615 25.9697L210.469 25.5156V25.4424L210.615 25.2959L210.469 24.7686L210.542 24.4023L210.469 23.7285V23.0693L210.542 22.6885L210.469 22.1758L210.615 20.3887C210.283 20.0371 209.961 19.8613 209.648 19.8613L208.462 20.4619V20.3887C209.028 19.5586 209.697 19.0117 210.469 18.748C210.596 18.543 210.918 18.4404 211.436 18.4404C211.777 18.5088 212.173 18.7822 212.622 19.2607C213.765 18.5186 214.561 18.1475 215.01 18.1475H215.083L215.156 18.2207L217.017 18.0742ZM213.296 19.1143V19.1875H213.677V19.1143H213.296ZM214.717 19.1143V19.1875L215.083 19.2607H215.156V19.1875L214.79 19.1143H214.717ZM215.303 19.2607V19.334L215.684 19.4072H215.903V19.2607H215.83L215.522 19.334L215.449 19.2607H215.303ZM216.416 19.4951V19.5684L216.724 19.6416V19.4951H216.416ZM217.383 19.6416V19.7148L217.91 19.7881H218.057V19.7148L217.617 19.6416H217.383ZM218.203 19.7881V19.8613H218.511V19.7881H218.203ZM218.657 19.9346V20.0078L219.17 20.0811H219.551V20.0078L218.73 19.9346H218.657ZM219.697 20.0811V20.1543L220.137 20.2275H220.298V20.1543L219.844 20.0811H219.697ZM215.449 20.3887C215.449 20.5352 215.4 20.6084 215.303 20.6084L215.229 20.5352L214.863 20.6084H214.644V21.3555L214.556 21.6484L214.644 21.7217V21.7949L214.556 22.3955L214.644 23.4355L214.556 23.875L214.644 24.4756V25.0029L214.482 25.2227L214.644 25.6621L214.556 26.1895L214.644 26.4824L214.556 26.79C214.556 27.2295 214.707 27.4492 215.01 27.4492L216.05 27.5225C217.046 27.249 217.544 26.7559 217.544 26.043C217.544 25.6426 217.666 25.4424 217.91 25.4424V25.3691C217.715 25.3691 217.617 25.2959 217.617 25.1494V23.6553L217.764 23.5088C217.578 21.8193 217.329 20.9746 217.017 20.9746C217.017 20.7988 216.646 20.6523 215.903 20.5352V20.4619L215.83 20.5352H215.522V20.3887H215.449ZM219.697 26.2627V26.3359H219.844L220.137 26.1162H220.063L219.697 26.2627ZM211.143 26.4824V26.6289L211.436 26.79V26.7168L211.143 26.4824ZM218.584 26.8633V26.9365H218.804L218.877 26.8633V26.79H218.804L218.584 26.8633ZM217.617 27.2295V27.376L217.837 27.3027V27.2295H217.617ZM216.724 27.6836V27.8301L217.09 27.6836V27.6104H216.943L216.724 27.6836ZM215.903 27.9766L215.977 28.0498V28.123L216.27 28.0498V27.9033L215.903 27.9766ZM214.717 28.3428V28.416H214.937L215.449 28.2695V28.1963H215.229L214.717 28.3428ZM216.123 28.2695V28.3428H216.504V28.2695H216.123ZM217.69 28.5771V28.6504L218.057 28.7236H218.203V28.6504L217.764 28.5771H217.69ZM218.438 28.7236C218.438 28.8213 218.511 28.8701 218.657 28.8701H218.73V28.7969L218.438 28.7236ZM212.93 28.8701V29.0166L213.296 28.9434V28.8701H212.93ZM219.331 29.0166V29.0898L219.624 29.1631H219.771V29.0898L219.404 29.0166H219.331ZM210.923 29.1631V29.2363H211.289V29.1631H210.923ZM211.582 29.1631C211.582 29.2998 211.284 29.4268 210.688 29.5439V29.6172H210.923C211.343 29.4121 211.665 29.3096 211.89 29.3096V29.1631L211.816 29.2363H211.729L211.655 29.1631H211.582ZM220.518 29.4707V29.6172H220.811V29.5439L220.518 29.4707ZM214.79 29.5439V29.6904H215.01V29.6172L214.79 29.5439ZM219.023 37.9521V38.0254L219.844 38.2451H220.063C220.063 38.1768 219.741 38.0791 219.097 37.9521H219.023ZM220.298 38.1719L220.21 38.2451V38.3184H220.884V38.2451L220.298 38.1719ZM221.558 38.3184C221.558 38.416 221.631 38.4648 221.777 38.4648H221.851V38.3916L221.558 38.3184ZM235.972 18.0156H236.045C236.045 18.1133 236.123 18.1621 236.279 18.1621L236.353 20.2275C236.353 20.5889 236.201 20.8867 235.898 21.1211L235.972 21.0332H236.045L236.133 21.1211H236.206V20.8867L236.353 21.0332L236.279 21.6338L236.353 23.4795V24.7393C236.353 25.1396 236.25 25.3398 236.045 25.3398L235.474 25.2666L235.166 25.3398L234.58 25.2666L233.979 25.3398L233.906 24.666L233.979 23.7871L233.906 23.4795L234.141 23.0547C233.984 23.0059 233.906 22.8545 233.906 22.6006L233.979 22.0732C233.979 21.624 233.413 21.1602 232.28 20.6816L231.841 20.6084C230.825 20.6084 230.186 20.8037 229.922 21.1943H229.849C229.751 23.167 229.648 24.2754 229.541 24.5195C229.658 24.5195 229.736 24.6953 229.775 25.0469L229.629 25.8525L229.775 25.999L229.702 26.0723L229.775 26.1455V26.2188L229.702 26.6582C229.702 27.2539 229.868 27.5518 230.2 27.5518L230.801 27.332L231.621 27.4785C232.061 27.3516 232.28 26.9561 232.28 26.292C232.28 26.0088 232.109 25.7354 231.768 25.4717V25.3398H231.841C232.827 25.6035 233.32 26.043 233.32 26.6582L233.408 26.9512V27.0244C233.408 27.708 233.257 28.2061 232.954 28.5186C232.954 28.7529 233.052 28.8701 233.247 28.8701L233.452 29.8516C233.218 30.877 232.705 31.3896 231.914 31.3896L231.533 31.4629V31.3896C231.992 30.9307 232.222 30.5596 232.222 30.2764C232.222 30.1592 231.943 30.0615 231.387 29.9834H231.167L230.654 30.0566L230.581 29.9834V29.9248C229.946 29.9639 229.629 30.1055 229.629 30.3496L229.775 30.6572L229.702 32.1953L229.775 32.2686V32.3418L229.629 32.9424V33.1768H229.775V33.6016L229.629 34.0557L229.702 34.1289V34.2021L229.629 34.7148L229.702 35.5352H229.629L229.849 36.1943L229.702 36.3555L229.775 36.5752L229.702 36.6484V36.7217L229.849 37.0732L229.702 37.2197C229.888 37.4443 229.98 37.6885 229.98 37.9521L231.035 38.2598C231.895 38.2598 232.852 37.8154 233.906 36.9268L233.979 36.1211L233.906 36.0479V35.9746L233.979 35.0957L233.906 35.0078V34.9346L234.053 34.4951L233.906 33.9092L234.053 33.7627L233.906 33.5283V33.3232L233.979 33.25V33.1768L234.785 33.3232L235.02 33.1768L235.767 33.25H236.206L236.279 33.3232H236.353L236.206 33.7627V33.8359L236.353 34.4365V34.6416L236.206 35.2422L236.353 35.667V35.9014C236.255 36.0967 236.104 36.1943 235.898 36.1943V36.3555L236.279 36.1211L236.353 36.6484V36.9268C236.323 37.4639 235.508 38.4258 233.906 39.8125C232.676 40.4082 231.885 40.7061 231.533 40.7061L231.46 40.6182L231.108 40.7061H230.801C229.541 40.7061 228.525 40.335 227.754 39.5928C227.393 39.9443 227.124 40.1201 226.948 40.1201H226.582C225.859 40.1201 225.024 39.7246 224.077 38.9336L223.931 38.7871L223.696 38.4795L223.77 38.4062C224.238 38.709 224.561 38.8604 224.736 38.8604H225.117C225.547 38.6553 225.762 38.3281 225.762 37.8789L225.688 37.6006L225.85 37.4541L225.688 37.0732L225.762 36.5752L225.688 35.9746L225.85 35.8281L225.615 35.5938L225.688 34.6416L225.615 34.4365L225.688 33.7627V33.4551L225.762 33.3818L225.615 33.1035L225.688 31.917V31.6094L225.615 31.1699L225.762 30.877C225.664 30.877 225.615 30.8037 225.615 30.6572L225.688 30.1299L225.542 29.9834H225.688V29.9248C225.415 29.9248 225.171 29.6514 224.956 29.1045L225.117 28.9434L225.029 28.8701H224.502V28.7969L225.615 27.4053V26.6582L225.688 26.2188L225.615 25.999L225.762 25.1201C225.664 25.1201 225.615 25.042 225.615 24.8857L225.688 23.8604L225.615 23.7871V23.7139L225.762 23.1279L225.615 22.8203L225.688 22.293C225.649 20.9648 225.601 20.3008 225.542 20.3008L224.355 19.9346L223.623 20.4619H223.55V20.3887C223.55 19.7539 224.287 19.1143 225.762 18.4697H226.45C226.87 18.4697 227.261 18.6895 227.622 19.1289C228.716 18.4844 229.458 18.1621 229.849 18.1621L230.889 18.2354L231.694 18.0889C231.694 18.2158 232.012 18.2939 232.646 18.3232L234.712 19.2021C234.995 19.2021 235.415 18.8066 235.972 18.0156ZM229.014 18.6748C229.014 18.7725 229.092 18.8213 229.248 18.8213H229.321V18.748L229.014 18.6748ZM230.435 19.4219L230.581 19.5684H230.654L230.508 19.4219H230.435ZM226.216 19.6562L226.143 19.8613V19.9346H226.216L226.377 19.7881V19.7295L226.45 19.7881H226.729V19.7295L226.377 19.6562L226.289 19.7295L226.216 19.6562ZM231.768 20.0078V20.0811L232.222 20.2275H232.28V20.1543L231.841 20.0078H231.768ZM233.408 21.0332L233.76 21.3408V21.1943L233.452 21.0332H233.408ZM235.767 21.2676V21.4873H235.898V21.2676H235.767ZM234.287 22.8203H234.36L234.507 22.6738H234.434L234.287 22.8203ZM235.474 22.9814C235.474 23.0791 235.693 23.1963 236.133 23.333H236.206V23.2598L235.474 22.9814ZM229.102 26.4531V26.5264L229.248 26.6582L229.395 26.5264L229.175 26.4531H229.102ZM228.867 26.8779V26.9512H229.102V26.8047L228.867 26.8779ZM228.442 27.2588L228.589 27.4053H228.867L228.735 27.2588H228.442ZM228.135 27.4053V27.5518L228.369 27.4785V27.332L228.135 27.4053ZM232.573 27.7715V27.8447L232.881 27.4785V27.4053L232.573 27.7715ZM227.476 27.7715C227.388 27.9668 227.212 28.0645 226.948 28.0645V28.2109L227.681 27.8447V27.7715H227.476ZM225.996 28.4453L225.923 28.5186V28.5918H225.996L226.216 28.5186V28.4453H225.996ZM226.948 28.8701H227.021L227.329 28.7383V28.665H227.256C227.051 28.7432 226.948 28.8115 226.948 28.8701ZM225.996 29.6172V29.7051H226.216V29.5439L225.996 29.6172ZM235.547 36.4287L235.4 36.5752V36.6484H235.547L235.693 36.4287H235.547ZM235.02 36.7803V36.9268L235.239 36.8535V36.7803H235.02ZM234.434 37.293H234.507L234.639 37.1465H234.58L234.434 37.293ZM233.687 37.7471H233.76L233.979 37.5273H233.906L233.687 37.7471ZM233.101 38.1133H233.174L233.32 37.9521H233.247L233.101 38.1133ZM232.427 38.333V38.4062H232.5L232.954 38.2598V38.1133L232.427 38.333ZM231.387 39.2119H231.46L231.621 39.0654H231.533L231.387 39.2119ZM230.435 39.8125H230.508L230.654 39.666H230.581L230.435 39.8125ZM229.922 40.1201V40.1787L230.273 39.959V39.8857H230.2L229.922 40.1201Z" fill="#63313A"/>
</svg>
