<svg width="90" height="90" viewBox="0 0 90 90" fill="none" xmlns="http://www.w3.org/2000/svg">
<path d="M45 90C69.8528 90 90 69.8528 90 45C90 20.1472 69.8528 0 45 0C20.1472 0 0 20.1472 0 45C0 69.8528 20.1472 90 45 90Z" fill="#FFE9C3"/>
<path d="M38.3892 63.3703L27.418 63.2434L29.7751 42.6232L48.1451 42.4629L38.3892 63.3703Z" fill="#64323A"/>
<path d="M52.6395 63.3703L63.6041 63.2434L61.2469 42.6232L42.877 42.4629L52.6395 63.3703Z" fill="#64323A"/>
<path d="M66.8489 36.4863H24.373V41.7883H66.8489V36.4863Z" fill="#64323A"/>
<path d="M45.7344 21.9824L24.6133 35.8049H66.8488L45.7344 21.9824Z" fill="#64323A"/>
</svg>
