<?xml version="1.0" encoding="UTF-8"?><svg id="Layer_1" xmlns="http://www.w3.org/2000/svg" width="801" height="97" viewBox="0 0 801 97"><defs><style>.cls-1{fill:#ffe9c3;stroke-width:0px;}</style></defs><path class="cls-1" d="M22.6,5.96c2.34,0,3.96.74,4.86,2.23,1.76,0,3.4,2.64,4.92,7.91l-.41.35-2.99-1.46-2.99,1.11c0,1.6.62,3.36,1.88,5.27,0,1.02.51,2.5,1.52,4.45h-1.52v.41c1.25,0,1.88.25,1.88.76l2.23,4.86c.43,0,1.82-3.01,4.16-9.02l1.46-2.64-.35-.35v-.41l1.11-2.99c-.35-1.25-1.23-1.88-2.64-1.88-.62,0-1,.51-1.11,1.52l-.35.35h-.76v-.76c1.09-3.32,3.09-5.68,5.98-7.09l3.4-1.52c1.09.04,2.34.55,3.75,1.52h.76l1.88-1.52h.35c.94,0,2.07.51,3.4,1.52l-.35.35v.76l.35-.35h1.11c3.01,3.36,4.51,5.72,4.51,7.09-1.05-.98-2.05-1.46-2.99-1.46l-3.4,4.1h-1.11v.35h.76v.41l-1.88,2.23c0,.62-.37,1.25-1.11,1.88l.7.76-2.99,4.86-.35,1.17.35,1.11c-.66,0-1.54,1.25-2.64,3.75-.62,0-1.5,1.99-2.64,5.98v1.11c0,1.21,1.25,3.22,3.75,6.04v.35c-3.98,3.98-5.98,6.62-5.98,7.91l-.35,2.23.35,9.38-.35.41h-.41l.76,2.23-.35.35v.41l.35.35v.41l-.35,1.88.35,1.46-.35,4.16v2.58l-.41,1.52c1.29,2.73,2.79,4.1,4.51,4.1l3.4-.76v.76c-3.98,4.26-6.88,6.39-8.67,6.39l-.35-.41c0,1.02-1.62,1.66-4.86,1.93l-2.64-1.93c-.9.78-2.4,1.17-4.51,1.17h-.35c-2.38,0-5.02-1.39-7.91-4.16l-.35.41h-.41c-2.5-1.99-3.98-3.75-4.45-5.27h.35l5.27,1.52h1.88c.9-.47,1.52-1.23,1.88-2.29l-.41-6.33.41-1.52-.76-.76v-.35l.35-1.88-.35-2.23v-2.29h.35l1.52,1.11h.35l-2.64-2.58.41-1.17-.41-2.23.41-7.5c0-2.73-2.13-5.74-6.39-9.02v-.35l3.4-4.51-5.62-15c-.39,0-.78-.51-1.17-1.52l.41-1.88-.41.41h-.35l-.76-1.11c0-.51.37-.76,1.11-.76v-.41c-1.72,0-2.97-1.74-3.75-5.21l-2.23-3.75L.1,16.1v-.41c.55-1.56,3.55-4.43,9.02-8.61l3.75-.35,2.99,1.88c.94,0,2.44-.88,4.51-2.64h2.23ZM45.51,20.96l-.41.41v.35h.41l1.11-.35v-.41h-1.11ZM23.36,26.59l-.35,1.11h1.11l.35-1.11h-1.11ZM14.75,28.87l-.76.7-1.11-.35v.76h.35c1.02,0,2.4-.51,4.16-1.52v.76h.35c.94-.86,2.19-1.37,3.75-1.52v-.35h-.35l-6.39,1.52ZM39.47,40.12v.35l1.52-1.52v-.35l-1.52,1.52ZM35.37,42l.35.35v.35l-.35.41v.35h.35l.41-.35h.35l-.35-1.52-.41.41h-.35ZM33.15,43.87c0,.47-.88.96-2.64,1.46v.76c1.29-1.02,2.79-1.52,4.51-1.52v-.35l-1.88-.35ZM24.12,48.73h.35c1.25-.31,1.88-.68,1.88-1.11h-.35c-1.25.31-1.88.68-1.88,1.11ZM21.13,49.09v.76l1.11-.35v-.41h-1.11ZM17.74,50.96v.41h1.11v-.76l-1.11.35ZM24.12,72.76l1.88,1.46v-.76l-1.52-.7h-.35ZM20.72,73.11v.35l1.52.41h.35v-.41l-1.46-.35h-.41ZM31.97,78.38l.76.7h.41l-.76-.7h-.41ZM33.5,79.5l1.11,1.11h1.11v-.35c-.98,0-1.46-.25-1.46-.76h-.76ZM86.64,5.9h.88c3.09,0,6.46,1.35,10.14,4.04l4.04,4.92.88-.29v.29c2.27,3.4,3.91,6.88,4.92,10.43.66.55,1.33,2.48,1.99,5.8l-.23.88c.55,0,1.02,1.64,1.41,4.92h-.88c.78,1.25,1.17,2.21,1.17,2.87l-.29,1.76c.35,0,.84.86,1.46,2.58l-.29-.29h-.29v.29c1.37.2,2.05.78,2.05,1.76.94.43,1.89,1.31,2.87,2.64l-4.34,4.92-.88,1.41.29.88-.29.88.29,1.46-2.58,13.89.29,1.17c-.94,3.28-2.11,5.68-3.52,7.21,0,3.55-2.79,7.4-8.38,11.54-3.36,2.77-5.78,4.24-7.27,4.39l-2.29-.59-1.46.29c-4.77,0-9.49-2.81-14.18-8.44l-4.04-6.62c0-1.72-.59-3.36-1.76-4.92l.29-.88-.82-.88.53-.82v-.29c-1.33,0-2.19-3.67-2.58-11.02-.31,0-.51-.68-.59-2.05v-1.7l.29-1.17-.29-1.17v-.29l.29-1.46-4.92-5.21v-.53c3.09-3.4,4.63-5.43,4.63-6.09,0-3.59.96-8.81,2.87-15.64,1.17-1.76,2.05-3.98,2.64-6.68,2.62-4.57,5.02-7.17,7.21-7.79l-.29-.29v-.29c1.91-2.89,4.14-4.34,6.68-4.34.47-.98,1.91-1.46,4.34-1.46ZM84.94,13.99v.29l1.41.29h.29v-.29l-1.46-.29h-.23ZM87.52,14.57v.59l1.46.29h.59v-.29l-2.05-.59ZM80.84,19.79l.29,1.46v.29l-.59.59.29,2.29-.29,13.07-.23,1.99.23.29v.29l-.23.29v.29l.23.29v.29l-.23.29v.29c.27,1.25,1.89,3.38,4.86,6.39v.29c-3.09,3.44-4.63,5.64-4.63,6.62l-.23,5.51.23,1.17-.53.59.53.59v1.11l-.23.29.23.29v.29l-.23,1.46.23.88-.23,1.17.23,7.21v.29c0,.39-.37.59-1.11.59v.59c.94,0,1.41.86,1.41,2.58.98,4.06,2.91,6.09,5.8,6.09h1.46c3.01,0,5.23-2.6,6.68-7.79-.12-.98-.41-1.46-.88-1.46l.59-1.76-.59-1.99.29-1.17-.29-6.39.29-.29h.29l-.59-1.41.29-2.64-.29-2.34.29-3.16c0-.86-1.64-3.16-4.92-6.91,3.28-3.67,4.92-5.9,4.92-6.68l-.29-.29v-.29l.88-1.17c-.59-.7-.88-1.37-.88-1.99l.29-4.39-.29-3.46.29-.88-.29-1.7v-2.64l.29-1.17c-.2-1.52-1.07-3.93-2.64-7.21h-.29l-.29.29c-.86-.39-2.11-.59-3.75-.59h-.29c-2.58,0-4.51,1.15-5.8,3.46h-.29ZM107.79,36.31v.29h.59l1.11-.29v-.29h-.53l-1.17.29ZM103.17,36.61v.59h.29l1.11-.88h-.24l-1.17.29ZM106.33,36.61v.29h1.17v-.29h-1.17ZM101.7,38.07v.29h.88c0-.39.29-.59.88-.59v-.29h-.29l-1.46.59ZM99.94,38.36v.23l.29.29v.29l-.29.29v.59h.29c0-.59.29-.88.88-.88l.88.29-1.46-1.11h-.59ZM97.95,39.77h.29l.59-.59h-.29l-.59.59ZM108.67,42.41v.29l1.11.29h.29v-.29l-1.11-.29h-.29ZM78.26,45.57v.59l1.17-.29v-.29h-1.17ZM76.51,46.74h.29l.59-.59h-.29l-.59.59ZM72.46,47.62v.29h.29l1.46-.29v-.59l-1.76.59ZM68.42,49.32h.29l1.76-.59v-.23h-.29c-1.17.16-1.76.43-1.76.82ZM69.01,73.93l.59.59h.29v-.59h-.88ZM75.63,75.39c0,.39.29.59.88.59h.59v-.29l-1.46-.29ZM77.97,76.27c0,.39.29.59.88.59h.29v-.29l-1.17-.29ZM95.02,81.78l1.17.82h.59v-.29l-1.46-.53h-.29ZM97.07,82.6v.59h.29l.59-.59h-.88ZM101.7,84.36v.29h1.17v-.29h-1.17ZM89.87,89.57v.29h.53l1.17-.29v-.29h-.59l-1.11.29ZM126.54,5.9c2.07.51,3.95,1.6,5.63,3.28,1.72-1.99,3.2-2.99,4.45-2.99h.29c2.46.59,4.34,1.78,5.62,3.57l-.59.59h.59l.88-.29,3.28,3.81v.29l-2.4-.59h-1.76c-.9,0-1.7,1.97-2.4,5.92l.35.29-.65,4.75.29,2.7-.59,4.16.59.59-.29,1.46.29,1.76v.29h-.88l.59.88-.29,1.82c0,3.16,1.88,6.21,5.62,9.14-1.37,1.95-2.34,3.05-2.93,3.28l-.29-.29c0,.98-.39,1.46-1.17,1.46l.29.29v.29l-1.52,3.28.59.88v.59l-.29,1.17.29,1.17v1.23l-.88.88c.24,1.76.53,2.64.88,2.64l-.29,1.82.29,5.92-.59.88.59,2.64v.59l-.29.29c1.37,6.13,3.55,9.2,6.56,9.2h2.34c4.3,0,6.88-2.66,7.74-7.97l-.35-2.7v-1.76l.64-.88-.64-.59v-.59l.64-.94-.29-.88.29-.29-.64-.59.64-5.62-.29-3.57h.29l-.64-3.81.35-.29v-.29c0-.82-.61-2.21-1.82-4.16v-.59l-.29.29h-.29c0-.78-.39-1.17-1.17-1.17l-1.46-1.82c3.12-3.55,4.69-5.62,4.69-6.21l.35-1.46-.35-.88.35-.29h.29l-.64-1.46h.35l-.35-.35.35-2.93-.35-2.99.64-4.39-.64-.59.35-.35-.35-1.46v-.29l.35-.29-.35-.29v-3.28l.64-.59-.29-1.46v-2.05l-2.11-2.4h-2.05c-.67,0-1.37.29-2.11.88h-.29v-.29c1.6-3.01,3.79-5.18,6.56-6.5l.88.29.88-.88h.58c.98,0,2.27.8,3.87,2.4,1.17-1.21,2.44-1.82,3.81-1.82h.64c4.92,1.84,7.38,3.81,7.38,5.92l.59.59v.29h-.29l-4.16-.88c-1.37.47-2.05,1.76-2.05,3.87l.29,1.17-.59,1.82.59,1.76v9.79l-.29,1.76.29,1.76-.29,1.82.29,2.05-.29.88c0,.98,1.68,3.24,5.04,6.8v.88c-2.3,2.15-4.08,4.34-5.33,6.56l.29.29h.29l-.59,3.52.59,1.46-.29,1.52.29,3.22v.59l-.59,1.82.59,1.46-.29,3.57.29.88-.59.59.59.59v.29c0,1.45-.29,2.23-.88,2.34l-.88-.29c0,.43.39.64,1.17.64l.29.29v.29c0,2.38-1.29,5.82-3.87,10.31-3.67,5.74-9,8.61-16,8.61h-2.34l-1.82-.35-1.17.35c-5.2-.82-9.24-2.21-12.13-4.16-3.2-2.85-5.27-6.11-6.21-9.79l.29-.29v-.29l-1.52-7.38.29-2.05-.29-2.7.64-2.05c-.43,0-.74-2.17-.94-6.5l.59-2.4-.59-1.76v-.88l.29-1.17c0-1.45-1.56-3.93-4.69-7.44l4.4-5.33c0-.74.41-1.72,1.23-2.93-.47,0-.88-.39-1.23-1.17v-.59h.29l-.29-2.11c0-3.75.9-5.62,2.69-5.62v-.29h-.59l-1.17.59-.64-1.76v-.88l.29-1.17-.59-1.52v-.59h.29c-.31-6.91-1.19-10.37-2.64-10.37h-3.57l-.88.59h-.29v-.88c1.72-3.2,5.08-5.66,10.08-7.38ZM123.26,14.81v.59l2.11.59h.59v-.29l-2.69-.88ZM130.41,17.15v.29h1.46v-.29h-1.46ZM132.46,17.74v.29l1.76.59h.29v-.29l-1.76-.59h-.29ZM161.17,20.73c1.52-.78,2.42-1.48,2.7-2.11h-.29c-1.52.66-2.33,1.37-2.4,2.11ZM157.66,21.9v.29h1.46v-.29h-.58v-.29l-.88.29ZM132.17,27.23v.59l.88-.29v-.29h-.88ZM129.83,28.11v.29h.29l1.46-.29v-.29h-.88l-.88.29ZM160.88,48.85l.94-.29v-.64l-.94.94ZM125.67,50.9v.29l1.17.59h.29c0-.27-.39-.57-1.17-.88h-.29ZM134.51,56.82l-.29.29v.29h1.23v-.29l-.94-.29ZM128.3,63.91v.29l2.4.88c0-.31-.7-.7-2.11-1.17h-.29ZM159.71,64.5v.29l.59-.59v-.29l-.59.59ZM135.16,67.19v.29l.29.29h.88v-.29l-1.17-.29ZM136.92,68.07v.29l1.76.59c0-.35-.49-.64-1.47-.88h-.29ZM159.12,73.7v.59l1.17.29v-.59l-1.17-.29ZM156.78,74.28l.59.59h.29l-.59-.59h-.29ZM161.82,74.57v.29l1.17.29c0-.39-.29-.59-.88-.59h-.29ZM163.58,74.87v.59h1.46v-.29l-1.46-.29ZM158.24,75.45l.58.59h.29l-.58-.59h-.29ZM165.63,75.75v.29l.88.29h.29v-.29l-.88-.29h-.29ZM160.59,76.68v.29l1.82,1.17v-.59l-1.82-.88ZM163.28,78.73c0,.39.39.59,1.17.59v.59h.88v-.29l-2.05-.88ZM165.33,80.2v.29l1.17.29c0-.39-.29-.59-.88-.59h-.29ZM132.46,87.29v.29h1.46v-.29h-1.46ZM131,87.88v.59l.88-.29v-.29h-.88ZM252.81,6.37h.88c2.11,0,4.39,2.07,6.86,6.21l.7,2.17h-.41c-1.05-1.68-2.6-2.52-4.63-2.52-1.05,0-1.89.62-2.52,1.88l1.29,6.86c-.39,0-.59.31-.59.94l-.29-.35h-.41v1.58h.41l.29-1.23h.59c1.72,15.31,3.48,22.97,5.27,22.97l.59,1.88c.7,0,1.97.92,3.81,2.75v.35c-1.72,2.03-2.99,3.91-3.81,5.62l5.68,32.93c.62,1.64,1.54,2.46,2.75,2.46h.94c1.17,0,2.42-.82,3.75-2.46l.29.29c-3.59,4.96-7.01,7.44-10.25,7.44l-3.75-2.17h-.59c-2.5,1.64-4.26,2.46-5.27,2.46h-1.29c-2.89,0-5.57-2.09-8.03-6.27h.29c2.27,1.05,4.02,1.58,5.27,1.58,1.25-.12,1.88-.94,1.88-2.46l-.88-4.98,1.76-1.23h-.29l-1.46.64-.41-.35v-3.69c-1.02,0-1.74-3.11-2.17-9.32l-.29-.29v-.29h-3.11l-3.4-.29-.94.29-4.39-1c0,.51-.82.84-2.46,1-1.21,6.91-2.34,11.97-3.4,15.18l-.29,4.63c.39,1.25,1.21,1.88,2.46,1.88.98,0,2.01-.43,3.1-1.29v.7c-.86,1.91-2.91,3.77-6.15,5.57h-1.29c-1.72,0-3.48-.92-5.27-2.75h-.29c-1.84,1.64-3.5,2.46-4.98,2.46h-1.29c-4.96-1.25-7.44-3.24-7.44-5.98,1.37.86,2.71,1.29,4.04,1.29,2.3,0,3.96-1.86,4.98-5.57h.29l-.29-.35v-.94l2.81-7.68-.35-.29v-.7l1.23-5.27-.29-.29,2.75-9.9-.29-.35v-.29c.35-.43.68-1.88,1-4.34-.55-1.52-1.8-3.4-3.75-5.62.35-.94,1.89-2.5,4.63-4.69l2.23-3.11c0-1.84,1.01-3.18,3.05-4.04v-.29l-.88-.29c-.16,1.05-.49,1.58-1,1.58h-.29v-.7c2.69-9.96,4.04-16.05,4.04-18.28l.64-2.46c0-2.93-1.13-4.39-3.4-4.39l-2.81,1.23v-.29c2.46-4.1,4.75-6.15,6.86-6.15,0-.47.51-.7,1.52-.7v.35l.29-.35h.7v.7h.59v-.7c2.62,0,5.29,1.35,8.03,4.04,2.62-3.28,4.9-4.92,6.86-4.92ZM238.52,9.71v.41h.29l1-.41v-.29h-.41l-.88.29ZM236.06,12.88v.29h.29l1.29-1.23h-.29c-.86.35-1.29.66-1.29.94ZM249.71,26.88v.59c.94-.27,2.17-1.19,3.69-2.75h-.29c-.86.23-1.78.96-2.75,2.17h-.65ZM247.54,29.05h.29l1.23-.64v-.64h-.29l-1.23,1.29ZM243.5,31.57h.29c.94-.43,1.47-.86,1.58-1.29v-.29c-1.25.62-1.88,1.15-1.88,1.58ZM242.91,30.86l-.64,1.29h.64l.29-1v-.29h-.29ZM246.25,31.86l1,.88,1.82-.29v.59h1c0-.59-.53-.88-1.58-.88v-.29l-.35.29h-.29l-1.58-.29ZM236.06,35.26v.59l5.27-3.11v-.29h-.64l-4.63,2.81ZM242.91,32.45c-.47,3.71-1.21,5.57-2.23,5.57l.29.29-.88,4.69.29.94c-1.05,2.46-2.3,6.91-3.75,13.36l-.29.35c.66,0,1,.31,1,.94l.29.29h.29l1.17-.29,6.27.59c0-.39.62-.59,1.88-.59l-1.88-13.71.29-.94c-1.64-5.16-2.46-8.98-2.46-11.48h-.29ZM250.65,33.03l1,1,.29-.29v-.41l-1.29-.29ZM252.81,34.32l.88.94v-.35l-.59-.59h-.29ZM254.4,35.55v.29l1.23.35c0-.43-.31-.64-.94-.64h-.29ZM233.24,36.78v.94l1.23-.94v-.29l-1.23.29ZM227.33,74.11v.64l.94-.35v-.29h-.94ZM225.16,74.75v.29h.35l1.17-.29v-.35h-.59l-.94.35ZM223.34,75.04l-.29.29v.29h.29l.88-.29v-.29h-.88ZM258.73,79.09v.59l.94-.29v-.59l-.94.29ZM257.79,81.25h.29l2.17-.64v-.64c-1.64.35-2.46.78-2.46,1.29ZM254.98,81.84v.29h.64v-.88l-.64.59ZM254.1,82.13l-.41.94h.7v-.94h-.29ZM255.63,84.95l.94.94v-.35l-.64-.59h-.29ZM256.56,86.18v.35l1.23.59v-.94h-1.23ZM258.38,87.41l1,1.58h.59v-1l-1.23-.59h-.35ZM264.01,91.16v.29c.55,1.05,1.39,1.58,2.52,1.58l-2.52-1.88ZM308.19,6.25c4.57,0,8.83,1.89,12.77,5.68,3.98,4.61,5.98,8.96,5.98,13.07-.12,1.99-.31,2.99-.59,2.99l.59,1.17c0,4.69-1.58,9.16-4.75,13.42-.51,0-1.89,1.48-4.16,4.45v.59c4.69,1.99,7.36,3.98,8.03,5.98l.59,1.17-.29.94h.29c.59,0,.88,1.09.88,3.28v1.17l-.29,1.76.29.35-.29,2.05.29,3.28-.59,1.17.29.94-.59,3.87c.59,2.03,1.07,5.78,1.46,11.25,1.25,1.41,2.34,2.11,3.28,2.11h.29c.74,0,1.54-.39,2.4-1.17h.29v.29c0,1.02-.29,1.6-.88,1.76h-.88l-1.82-.29h-.29v.29l2.99.59c-1.17,2.85-4.65,5.43-10.43,7.73l-1.17.35h-.94c-2.3,0-4.28-1.41-5.92-4.22-.86,0-2.15-1.48-3.87-4.45l.29-.29v-.29l-.29-1.82.88.35h.29v-.35c-.39,0-.59-.29-.59-.88l-.88-.88.29-.88-.29-1.17.59-3.87-.59-.59v-1.82l.59-.59-.29-2.11.29-.88-.29-1.76v-.94l.29-1.17-.29-1.17v-.29l.29-2.4-.29-2.4.29-.29v-.29c-.47,0-.76-1.29-.88-3.87,0-1.56-2.68-2.46-8.03-2.7h-3.87v10.14l-.35,5.68.35,1.46-.35.29.35,1.52v2.34l-.64.59.64,2.11-.35.29.35.29-.35.29h-.29l.64,2.99-.35.29v.29l.35,1.17-.35.88c1.45,3.01,3.05,4.51,4.8,4.51.94,0,2.03-.61,3.28-1.82h.29v.29c-.74,1.88-1.74,3.16-2.99,3.87-1.48,3.01-3.48,4.51-5.98,4.51-2.66-.31-5.14-1.62-7.44-3.93-1.8,2.19-3.48,3.28-5.04,3.28h-.59c-3.05,0-6.62-2.58-10.72-7.73v-.29l4.45,1.17,1.82-.29.88.29-.29-.29v-.29c.43,0,1.02-1.19,1.76-3.57-.39,0-.59-.29-.59-.88l.29-.29-.29-1.46v-.59l.29-2.4-.29-1.76.29-.94-.29-1.76v-1.46l.29-.35-.29-.29v-9.2l.59-.88-.59-6.86.29-.94-4.45-4.75-.29-.29v-.29c3.16-3.63,4.75-6.11,4.75-7.44l.29-2.11-.29-.29v-.59l.29-1.17-.59-1.82v-.29l.59-.59-.59-2.11.29-1.46-.29-2.7v-2.64l.29-1.52-.29-2.05.59-7.15c-1.33-1.41-2.62-2.11-3.87-2.11l-4.75,2.4v-.29c2.27-3.32,4.94-5.51,8.03-6.56.51-.82,1.8-1.23,3.87-1.23,1.37.27,2.95,1.37,4.75,3.28,4.57-2.97,7.75-4.45,9.55-4.45h.29l.29.29,7.44-.59ZM293.3,10.41v.29h1.52v-.29h-1.52ZM298.99,10.41v.29l1.46.29h.29v-.29l-1.46-.29h-.29ZM301.33,11v.29l1.52.29h.88v-.59h-.29l-1.23.29-.29-.29h-.59ZM305.78,11.94v.29l1.23.29v-.59h-1.23ZM309.65,12.52v.29l2.11.29h.59v-.29l-1.76-.29h-.94ZM312.93,13.11v.29h1.23v-.29h-1.23ZM314.75,13.7v.29l2.05.29h1.52v-.29l-3.28-.29h-.29ZM318.91,14.28v.29l1.76.29h.64v-.29l-1.82-.29h-.59ZM301.92,15.51c0,.59-.2.88-.59.88l-.29-.29-1.46.29h-.88v2.99l-.35,1.17.35.29v.29l-.35,2.4.35,4.16-.35,1.76.35,2.4v2.11l-.64.88.64,1.76-.35,2.11.35,1.17-.35,1.23c0,1.76.61,2.64,1.82,2.64l4.16.29c3.98-1.09,5.98-3.07,5.98-5.92,0-1.6.49-2.4,1.46-2.4v-.29c-.78,0-1.17-.29-1.17-.88v-5.98l.59-.59c-.74-6.76-1.74-10.14-2.99-10.14,0-.7-1.48-1.29-4.45-1.76v-.29l-.29.29h-1.23v-.59h-.29ZM318.91,39.01v.29h.59l1.17-.88h-.29l-1.46.59ZM284.69,39.89v.59l1.17.64v-.29l-1.17-.94ZM314.45,41.41v.29h.88l.29-.29v-.29h-.29l-.88.29ZM310.59,42.88v.59l.88-.29v-.29h-.88ZM307.01,44.69v.59l1.46-.59v-.29h-.59l-.88.29ZM303.73,45.86l.29.29v.29l1.17-.29v-.59l-1.46.29ZM298.99,47.33v.29h.88l2.05-.59v-.29h-.88l-2.05.59ZM304.61,47.04v.29h1.52v-.29h-1.52ZM310.88,48.27v.29l1.46.29h.59v-.29l-1.76-.29h-.29ZM313.87,48.85c0,.39.29.59.88.59h.29v-.29l-1.17-.29ZM291.84,49.44v.59l1.46-.29v-.29h-1.46ZM317.44,50.02v.29l1.17.29h.59v-.29l-1.46-.29h-.29ZM283.81,50.61v.29h1.46v-.29h-1.46ZM286.45,50.61c0,.55-1.19,1.05-3.57,1.52v.29h.94c1.68-.82,2.97-1.23,3.87-1.23v-.59l-.29.29h-.35l-.29-.29h-.29ZM322.19,51.84v.59h1.17v-.29l-1.17-.29ZM299.28,52.13v.59h.88v-.29l-.88-.29ZM316.21,85.77v.29l3.28.88h.88c0-.27-1.29-.66-3.87-1.17h-.29ZM321.31,86.64l-.35.29v.29h2.7v-.29l-2.34-.29ZM326.35,87.23c0,.39.29.59.88.59h.29v-.29l-1.17-.29ZM384.01,6.02h.29c0,.39.31.59.94.59l.29,8.26c0,1.45-.61,2.64-1.82,3.57l.29-.35h.29l.35.35h.29v-.94l.59.59-.29,2.4.29,7.38v5.04c0,1.6-.41,2.4-1.23,2.4l-2.29-.29-1.23.29-2.34-.29-2.4.29-.29-2.7.29-3.52-.29-1.23.94-1.7c-.62-.2-.94-.8-.94-1.82l.29-2.11c0-1.8-2.27-3.65-6.8-5.57l-1.76-.29c-4.06,0-6.62.78-7.68,2.34h-.29c-.39,7.89-.8,12.32-1.23,13.3.47,0,.78.7.94,2.11l-.59,3.22.59.59-.29.29.29.29v.29l-.29,1.76c0,2.38.66,3.57,1.99,3.57l2.4-.88,3.28.59c1.76-.51,2.64-2.09,2.64-4.75,0-1.13-.68-2.23-2.05-3.28v-.53h.29c3.95,1.05,5.92,2.81,5.92,5.27l.35,1.17v.29c0,2.73-.61,4.73-1.82,5.98,0,.94.39,1.41,1.17,1.41l.82,3.93c-.94,4.1-2.99,6.15-6.15,6.15l-1.52.29v-.29c1.84-1.84,2.75-3.32,2.75-4.45,0-.47-1.11-.86-3.34-1.17h-.88l-2.05.29-.29-.29v-.23c-2.54.16-3.81.72-3.81,1.7l.59,1.23-.29,6.15.29.29v.29l-.59,2.4v.94h.59v1.7l-.59,1.82.29.29v.29l-.29,2.05.29,3.28h-.29l.88,2.64-.59.64.29.88-.29.29v.29l.59,1.41-.59.59c.74.9,1.11,1.88,1.11,2.93l4.22,1.23c3.44,0,7.27-1.78,11.48-5.33l.29-3.22-.29-.29v-.29l.29-3.52-.29-.35v-.29l.59-1.76-.59-2.34.59-.59-.59-.94v-.82l.29-.29v-.29l3.22.59.94-.59,2.99.29h1.76l.29.29h.29l-.59,1.76v.29l.59,2.4v.82l-.59,2.4.59,1.7v.94c-.39.78-1,1.17-1.82,1.17v.64l1.52-.94.29,2.11v1.11c-.12,2.15-3.38,6-9.79,11.54-4.92,2.38-8.09,3.57-9.49,3.57l-.29-.35-1.41.35h-1.23c-5.04,0-9.1-1.48-12.19-4.45-1.45,1.41-2.52,2.11-3.22,2.11h-1.46c-2.89,0-6.23-1.58-10.02-4.75l-.59-.59-.94-1.23.29-.29c1.88,1.21,3.16,1.82,3.87,1.82h1.52c1.72-.82,2.58-2.13,2.58-3.93l-.29-1.11.64-.59-.64-1.52.29-1.99-.29-2.4.64-.59-.94-.94.29-3.81-.29-.82.29-2.7v-1.23l.29-.29-.59-1.11.29-4.75v-1.23l-.29-1.76.59-1.17c-.39,0-.59-.29-.59-.88l.29-2.11-.59-.59h.59v-.23c-1.09,0-2.07-1.09-2.93-3.28l.64-.64-.35-.29h-2.11v-.29l4.45-5.57v-2.99l.29-1.76-.29-.88.59-3.52c-.39,0-.59-.31-.59-.94l.29-4.1-.29-.29v-.29l.59-2.34-.59-1.23.29-2.11c-.16-5.31-.35-7.97-.59-7.97l-4.75-1.46-2.93,2.11h-.29v-.29c0-2.54,2.95-5.1,8.85-7.68h2.75c1.68,0,3.24.88,4.69,2.64,4.38-2.58,7.34-3.87,8.91-3.87l4.16.29,3.22-.59c0,.51,1.27.82,3.81.94l8.26,3.52c1.13,0,2.81-1.58,5.04-4.75ZM356.17,8.66c0,.39.31.59.94.59h.29v-.29l-1.23-.29ZM361.86,11.64l.59.59h.29l-.59-.59h-.29ZM344.98,12.58l-.29.82v.29h.29l.64-.59v-.23l.29.23h1.11v-.23l-1.41-.29-.35.29-.29-.29ZM367.19,13.99v.29l1.82.59h.23v-.29l-1.76-.59h-.29ZM373.75,18.09l1.41,1.23v-.59l-1.23-.64h-.18ZM383.19,19.03v.88h.53v-.88h-.53ZM377.27,25.24h.29l.59-.59h-.29l-.59.59ZM382.01,25.88c0,.39.88.86,2.64,1.41h.29v-.29l-2.93-1.11ZM356.53,39.77v.29l.59.53.59-.53-.88-.29h-.29ZM355.59,41.47v.29h.94v-.59l-.94.29ZM353.89,42.99l.59.59h1.11l-.53-.59h-1.17ZM352.66,43.58v.59l.94-.29v-.59l-.94.29ZM370.41,45.04v.29l1.23-1.46v-.29l-1.23,1.46ZM350.02,45.04c-.35.78-1.05,1.17-2.11,1.17v.59l2.93-1.46v-.29h-.82ZM344.1,47.74l-.29.29v.29h.29l.88-.29v-.29h-.88ZM347.91,49.44h.29l1.23-.53v-.29h-.29c-.82.31-1.23.59-1.23.82ZM344.1,52.43v.35h.88v-.64l-.88.29ZM382.31,79.67l-.59.59v.29h.59l.59-.88h-.59ZM380.2,81.08v.59l.88-.29v-.29h-.88ZM377.85,83.13h.29l.53-.59h-.23l-.59.59ZM374.87,84.95h.29l.88-.88h-.29l-.88.88ZM372.52,86.41h.29l.59-.64h-.29l-.59.64ZM369.83,87.29v.29h.29l1.82-.59v-.59l-2.11.88ZM365.67,90.8h.29l.64-.59h-.35l-.59.59ZM361.86,93.21h.29l.59-.59h-.29l-.59.59ZM359.81,94.44v.23l1.41-.88v-.29h-.29l-1.11.94ZM432.17,5.9c1.17,0,2.73.94,4.69,2.81,1.29-1.68,2.54-2.52,3.75-2.52,6.72,0,11.05,2.6,13.01,7.79l-4.34-1.23c-2.89.23-4.34,1.05-4.34,2.46l.29,8.09v1.88l-.29,2.46.29,2.46-.29,2.17.29,2.81v7.15l4.98,6.21v.64c-1.45,2.07-2.6,3.11-3.46,3.11l.35.29v.29c-1.25,1.09-1.97,2.54-2.17,4.34l.29,5.92v5.27h-.64v2.81l.35,1.88-.35.29v.29l.64,3.75-.29,7.09.29.94-.29,1.23c2.15,2.5,3.59,3.75,4.34,3.75,1.21,0,2.56-.53,4.04-1.58h.29c0,2.34-2.29,4.22-6.86,5.62l-.29-.35h-.29c-1.8,1.48-3.24,2.23-4.34,2.23-2.15,0-3.91-.84-5.27-2.52,0,.9-1.76,1.43-5.27,1.58-5.08-.9-8.61-2.46-10.61-4.69l-1.52-1.88.29-.29,3.75,1.88c3.32-.98,4.98-2.54,4.98-4.69l-.35-.29v-1.88l.64-.94-.64-2.46.35-.29-.35-3.69v-.64c0-6.37.21-10.72.64-13.07l-.64-1.82.35-1.88-.35-3.11v-.94l-4.63-5.92c3.32-4.06,4.98-6.76,4.98-8.09l.29-5.57-.64-2.81v-.88l.94-8.44c-.7,0-1.11-1.95-1.23-5.86l.29-.94c0-1.84-1.54-3.09-4.63-3.75h-.29c-1.29,0-2.44.53-3.46,1.58v-.64c1.95-3.36,5.37-5.84,10.25-7.44h2.46ZM439.96,12.76v.59l1.23-.29v-.29h-1.23ZM438.09,13.34l.64.64h.29v-.64h-.94ZM435.28,13.99v.29l2.23-.29v-.35h-1.29l-.94.35ZM429.71,14.57c0,.43.31.64.94.64h.29v-.29l-1.23-.35ZM441.84,36.31v.64l.94-.29v-.64l-.94.29ZM441.19,38.19l-.29.94v.29h.29l.64-1.23h-.64ZM439.67,41v.29l.59-.64v-.29l-.59.64ZM438.73,42.52l-.35.94h.64l.29-.94h-.59ZM438.09,43.75l-.29.94h.59v-.94h-.29ZM435.63,47.5l-.64,1.23v.64h.29l.64-1.58v-.29h-.29ZM434.04,49.96l-.29.94h.64v-.94h-.35ZM439.96,51.55v.29l.94-.94h-.29l-.64.64ZM431.29,53.71v.29h.59l.94-1.23v-.29c-.31,0-.62.41-.94,1.23h-.59ZM429.71,55.59v.29h.64l.94-1.23v-.29l-1.29,1.23h-.29ZM433.46,56.18v.35h1.23v-.64l-1.23.29ZM437.5,78.27v.59h.88v-.29l-.88-.29ZM439.32,79.2v.29l1.29.29h.29v-.29l-1.23-.29h-.35ZM441.84,80.08v.64h1.52l.29.29h.35v-.59h-1.58l-.29-.35h-.29ZM436.86,80.43v.29l1.23.29c0-.39-.31-.59-.94-.59h-.29ZM439.96,81.96v.59l1.23.35-1.23-.94ZM467.27,5.73l.59.59.64-.59,1.52.94v-.35c4.02,1.91,6.15,3.24,6.39,3.98,1.13,0,1.95.7,2.46,2.11.59,0,.88.41.88,1.23,1.29,0,2.3,1.52,3.05,4.57l-.29.94.29-.29h.29c1.25,1.37,3.4,7.66,6.45,18.87l1.52,3.98-.35.29v.29c.82,1.09,2.25,5.37,4.28,12.83h.29l.64-7.32-.29-1.23v-1.23l.59-.59-.59-1.23.29-1.52-.29-2.46.29-.29v-.29l-.64-1.82.94-.94h-.94v-4.86c0-2.38.21-4,.64-4.86l-.64-2.75.35-.29-.35-1.52.35-1.52-.35-1.52.35-.94c-.43-3.87-1.76-5.8-3.98-5.8-.78,0-2.3.72-4.57,2.17l-.29-.35v-.29c2.62-3.24,5.06-5.18,7.32-5.8,0-.39.29-.59.88-.59l.94.29v-.29l.88-.94h1.23c1.37,0,2.7.72,3.98,2.17,1.41-1.21,2.62-1.82,3.63-1.82l1.23.29,1.82-.29,4.92,2.4-.35.94.35-.29h.29c1.99,1.95,3.1,3.36,3.34,4.22l-.29.35h-.29c-.9-1.25-2.64-1.88-5.21-1.88-2.03,0-3.05,1.93-3.05,5.8h-.29l.29,1.52v3.34c0,.43-.29.64-.88.64l.88,1.52-.88.88v.35l.88.29v.59h-.29l.29,2.17v4.86c0,1.45-.2,2.56-.59,3.34l.29.29v.35l-.29.29v.29l.29,1.23-.29.29.29.94c.39,0,.59.8.59,2.4,1.45.47,2.17,1.19,2.17,2.17v.59l.88-.59,1.52,1.82v.59c-3.63,4.06-5.45,6.82-5.45,8.26l.59.59-.59.94.29.29h.29l-.29,1.52v.59l.29,1.23-.29.29v.29l.29.35v.29l-.29.29v.29l.29.94-.29.29v.29l.29.29v.35l-.29.29v.29l.29.29v.29l-.29.94.29,1.82-.59.64v.88l.59.94v.59l-.29,1.23.29,1.23-.59,1.82.59.64v.29l-.29.29.29.29v.64l-.29.29.29.29v1.23l-.59.59.59,2.11-.29.29c.16,2.03.86,3.87,2.11,5.51h3.69l2.75-2.46.29.29c-1.56,3.83-3.81,6.27-6.74,7.32l-4.57,1.88h-.88c-5.9,0-8.85-.53-8.85-1.58l-1.82-.59c-2.3-1.48-4.34-5.55-6.09-12.19l.29-.29h.29v-.59c-1.02,0-1.52-.61-1.52-1.82l.29-.94-.59-.59.59-.94c-.82,0-1.23-.92-1.23-2.75l-.29.35h-.29l-.59-1.88.59-.59c-.66,0-1.07-.61-1.23-1.82h-.29l.29-2.17v-.59c-1.09,0-1.8-1.52-2.11-4.57-1.21-1.33-2.83-6.11-4.86-14.36-.78-1.02-1.41-2.64-1.88-4.86h-.29v7.62l-.59.94.59,2.11-.59,2.75.59,1.82v.94l-.29,5.8.29.29v.29l-.29.29v.29l.29,4.28v1.52c0,.43-.29.64-.88.64l.88,1.23-.29,1.17.29,3.05-.29,1.88c0,3.36,1.52,5.98,4.57,7.85h.29v-.59h.94c.66,0,1.37-.31,2.11-.94h.29l.64.64c-2.34,2.42-4.38,3.63-6.09,3.63-1.56,1.21-3.18,1.82-4.86,1.82-1.41,0-2.83-.51-4.28-1.52l-3.05,1.23h-1.23c-.43,0-.64-.31-.64-.94h-.29l-.88.64c-.7-.7-2.23-1.31-4.57-1.82l-3.98-3.4v-.29h.59l2.46.64h.94l1.52-.35.59.64h.29l-.29-.29v-.35l2.75-3.05-.64-2.11.64-1.46-.64-3.05.35-1.52-.35-.94.35-.29-.35-1.52v-2.46l.35-1.23-.35-1.23.35-3.34-.35-3.93v-.94l.35-1.82-.35-1.52v-.64l.35-.29c0-2.23-1.13-4.16-3.4-5.8l-1.17-1.82v-.88c3.05-2.81,4.57-5.25,4.57-7.32l-.35-3.34v-4.57l.35-2.75-.35-2.17c0-1.76.92-2.97,2.75-3.63v-.29h-.29l-1.82,1.17-.64-.59v-3.63h.64l-.29-1.23.29-.94c-.47,0-.78-1.21-.94-3.63l-2.4-1.82h-1.23c-1.17,0-2.29.39-3.34,1.17h-.64v-.29c3.63-3.63,5.76-5.45,6.39-5.45l2.75-1.52c.55-.43,1.88-.74,3.98-.94ZM496.21,12.41c0,.47.51.78,1.52.94,0-.47-.51-.78-1.52-.94ZM500.49,14.87v.59l1.82.64h.29v-.29l-2.11-.94ZM503.54,16.68l.59.64h.64v-.64h-1.23ZM467.56,21.55v.35l.29.88h.29v-.29l-.29-.94h-.29ZM466.04,22.19v.29l.29.94h.29v-.94l-.29-.29h-.29ZM464.51,24.59h.29l.64-.59h-.35l-.59.59ZM510.22,46.57l-.59.59-.94,1.23h.35l1.52-1.52v-.29h-.35ZM507.81,47.5l-.29.88v.64h.29l.29-1.23v-.29h-.29ZM508.11,50.2v.35h1.23v-.35h-1.23ZM506,51.14h.29l.59-.59h-.29l-.59.59ZM504.12,52.95v.64l.94-.35v-.29h-.94ZM500.49,56h.29l.64-.59h-.35l-.59.59ZM504.12,57.52l-.29.29v.35l1.82-.35v-.29h-1.52ZM497.74,57.82l-3.05,2.46v.29c2.23-1.33,3.34-2.25,3.34-2.75h-.29ZM492.87,61.21l-.29.29v.29h.29l.88-.29v-.29h-.88ZM490.12,62.74c0,.39-.31.59-.94.59l-.29.29v.29h.29l1.23-1.17h-.29ZM487.37,64.55h.29l.94-.29v-.64l-1.23.94ZM484.32,66.08v.59l.94-.29v-.59l-.94.29ZM469.73,72.17v.88h.59l1.23-1.17-.29-.35.29-.29-1.82.94ZM467.56,74.28h.29l.64-.59h-.35l-.59.59ZM538.87,5.9c3.24,0,6.58,2.4,10.02,7.21l.29.94h-.29c-1.64-.62-3.1-.94-4.39-.94-1.41,0-2.25,1.35-2.52,4.04l.29,1.88-.59.64,1.23,1.58v3.11c1.05,2.23,1.99,6,2.81,11.31l-.29.29c.35,0,.98,2.4,1.88,7.21l-.29.29v.29l1.52,7.56v.59l-.29.35,2.17,8.44h.64c0-1.68,1.25-7.83,3.75-18.46.39-3.87.92-6.05,1.58-6.56v-.35l-.29-.29.59-1.88-.29-.35v-.29c0-.7.31-1.43.94-2.17v-.35l-.29-1.23c.39-1.68.8-2.52,1.23-2.52l-.29-1.52c0-1.29.41-1.93,1.23-1.93l-.65-.94v-1.23l.65-1.23-.29-.35.29-1.52v-2.52h.64v-.29l-1.88-1.29h-.35l-1.52.94h-.35v-.29c2.85-4.18,5.78-6.27,8.79-6.27h1.23c.7,0,1.45.31,2.23.94.2-.62.82-.94,1.88-.94h.59c3.16,0,4.75.62,4.75,1.87l.94-.29v.29l.59.94.94-.29,2.52,4.04-.29.35h-.35c-.74-.62-1.47-.94-2.17-.94h-.65c-3.28,0-6.19,6.88-8.73,20.63l-.94,4.1.29.94-.64,4.04.35.94-.35.29c2.11,2.54,3.16,4.32,3.16,5.33-.59,0-1.64,1.05-3.16,3.16-1.88.94-3.22,3.34-4.04,7.21,0,.55-.31,1.17-.94,1.88l.59.59c0,.94-.41,1.88-1.23,2.81l.29,1.29-2.46,8.44.29,1.23-1.23,4.1h-1.58v.29c1.25,0,1.88.31,1.88.94l-.64.94.35,1.52-.35.35h-.29c0,3.4,1.25,5.37,3.75,5.92.62,0,.94.21.94.64l4.1-1.58v.35c-.9,1.84-2.27,3.28-4.1,4.34-1.72.86-4,1.5-6.85,1.93l-4.1-1-.29.35h-.35l-1.52-.94-2.81,1.23-2.23-.64-.94.35c-4.22-1.17-6.82-2.32-7.79-3.46l-.94.29-2.87-2.81v-.29h.35l3.11.94c2.66,0,4.34-1.25,5.04-3.75v-.64l-1.88-9.02h.29l-1.23-3.46v-.29l.29-.35v-.29c-.63,0-1.04-1.25-1.23-3.75h.94v-.29c-1.05,0-1.9-2.3-2.52-6.91l.29-1.23-.59-1.58.29-1.58c-1.05,0-1.58-.62-1.58-1.88l-4.4-4.69c-.82-.31-1.23-.62-1.23-.94v-.64c2.3-3.67,3.46-6.27,3.46-7.79l.29-.35c-.9,0-1.84-3.03-2.81-9.08l.29-.29v-.29c-.39,0-.7-1.25-.94-3.75-1.25-3.83-1.88-6.23-1.88-7.21l.64-.64v-.64c-.62,0-.94-.2-.94-.59l.29-.35-1.88-2.46-.59-1.88c-.86,0-1.29-.21-1.29-.64-2.38.27-3.85.68-4.4,1.23h-.29v-.29c2.85-3.98,5.25-5.98,7.21-5.98l2.81-1.52c1.76,0,3.75.94,5.98,2.81,3.16-2.3,5.04-3.46,5.62-3.46ZM526.62,13.4v.35h1.29l.29-.35v-.29h-.29l-1.29.29ZM533.83,14.98l.65.64h.29l-.59-.64h-.35ZM537.58,16.57c0,.39.31.59.94.59h.35v-.29l-1.29-.29ZM539.81,17.8v.29l.94.35h.29v-.35l-.94-.29h-.29ZM567.05,20.32h.29l.65-.64h-.35l-.59.64ZM566.12,20.61l-.65.64v.29h.65l.59-.94h-.59ZM568.28,22.48l.29.29,1.29-.29v-.64h-.94l-.64.64ZM562.66,23.42v.35h.29l.64-1.29v-.29c-.55,0-.86.41-.94,1.23ZM560.14,24.71v.59l1.88-1.52h-.29l-1.58.94ZM563.6,24.71v.29h.94v-.64l-.94.35ZM559.2,26.23v.35l.64-.64v-.29l-.64.59ZM541.68,32.21v.29h.94v-.64l-.94.35ZM540.39,32.8v.64l.94-.29v-.64l-.94.29ZM538.22,33.73v.64c1.09,0,1.72-.31,1.88-.94h-.29l-.35.29h-.29v-.29l-.94.29ZM533.83,37.19v.35l.94.29c0-.43.31-.64.94-.64v-.29h-.29l-1.58.29ZM532.25,38.48v.29h.65v-.94l-.65.64ZM539.45,69.77v.29l1.29.35h.29v-.35l-.94-.29h-.65ZM554.81,76.04v.29l2.81.94h.35v-.29l-2.52-.94h-.65ZM593.19,5.9c1.17,0,2.73.94,4.69,2.81,1.29-1.68,2.54-2.52,3.75-2.52,6.72,0,11.05,2.6,13.01,7.79l-4.34-1.23c-2.89.23-4.34,1.05-4.34,2.46l.29,8.09v1.88l-.29,2.46.29,2.46-.29,2.17.29,2.81v7.15l4.98,6.21v.64c-1.45,2.07-2.6,3.11-3.46,3.11l.35.29v.29c-1.25,1.09-1.97,2.54-2.17,4.34l.29,5.92v5.27h-.64v2.81l.35,1.88-.35.29v.29l.64,3.75-.29,7.09.29.94-.29,1.23c2.15,2.5,3.59,3.75,4.34,3.75,1.21,0,2.56-.53,4.04-1.58h.29c0,2.34-2.29,4.22-6.85,5.62l-.29-.35h-.29c-1.8,1.48-3.24,2.23-4.34,2.23-2.15,0-3.91-.84-5.27-2.52,0,.9-1.76,1.43-5.27,1.58-5.08-.9-8.61-2.46-10.6-4.69l-1.52-1.88.29-.29,3.75,1.88c3.32-.98,4.98-2.54,4.98-4.69l-.35-.29v-1.88l.65-.94-.65-2.46.35-.29-.35-3.69v-.64c0-6.37.22-10.72.65-13.07l-.65-1.82.35-1.88-.35-3.11v-.94l-4.63-5.92c3.32-4.06,4.98-6.76,4.98-8.09l.29-5.57-.65-2.81v-.88l.94-8.44c-.7,0-1.11-1.95-1.23-5.86l.29-.94c0-1.84-1.54-3.09-4.63-3.75h-.29c-1.29,0-2.44.53-3.46,1.58v-.64c1.95-3.36,5.37-5.84,10.25-7.44h2.46ZM600.98,12.76v.59l1.23-.29v-.29h-1.23ZM599.1,13.34l.64.64h.29v-.64h-.94ZM596.29,13.99v.29l2.23-.29v-.35h-1.29l-.94.35ZM590.72,14.57c0,.43.31.64.94.64h.29v-.29l-1.23-.35ZM602.85,36.31v.64l.94-.29v-.64l-.94.29ZM602.21,38.19l-.29.94v.29h.29l.65-1.23h-.65ZM600.69,41v.29l.59-.64v-.29l-.59.64ZM599.75,42.52l-.35.94h.64l.29-.94h-.59ZM599.1,43.75l-.29.94h.59v-.94h-.29ZM596.64,47.5l-.65,1.23v.64h.29l.65-1.58v-.29h-.29ZM595.06,49.96l-.29.94h.64v-.94h-.35ZM600.98,51.55v.29l.94-.94h-.29l-.64.64ZM592.31,53.71v.29h.59l.94-1.23v-.29c-.31,0-.62.41-.94,1.23h-.59ZM590.72,55.59v.29h.65l.94-1.23v-.29l-1.29,1.23h-.29ZM594.47,56.18v.35h1.23v-.64l-1.23.29ZM598.52,78.27v.59h.88v-.29l-.88-.29ZM600.33,79.2v.29l1.29.29h.29v-.29l-1.23-.29h-.35ZM602.85,80.08v.64h1.52l.29.29h.35v-.59h-1.58l-.29-.35h-.29ZM597.87,80.43v.29l1.23.29c0-.39-.31-.59-.94-.59h-.29ZM600.98,81.96v.59l1.23.35-1.23-.94ZM680.43.22c4.3,1.37,6.45,3.13,6.45,5.27h-.29l.29.29v.59l-.29.29v.29l.88.88c0,1.52-.59,3.38-1.76,5.57,1.37,2.19,2.05,4.24,2.05,6.15,0,2.93-2.34,4.79-7.03,5.57v-.29c.94-.94,1.52-2.01,1.76-3.22,0-1.37-1.27-2.05-3.81-2.05l-2.34-.29-3.22.59-1.46-.29-2.93.29h-.59l-1.76-.29-1.17.29h-.59v-.29l-2.05.29h-2.93l-.29,2.93v2.34l-.29.29v.29l-1.76-1.17h-.29c0,.35.78.94,2.34,1.76l.29.29v.29l-.29,2.34.29,1.17-.29,2.05.29.29-.59,5.57.59.59-.29.88.29,3.22v.29l-.29.29.29.88-.59,2.34c0,2.66,1.76,5.47,5.27,8.44v.88c-3.32,3.91-4.98,6.25-4.98,7.03l.29,3.22c-.12,1.95-.31,2.93-.59,2.93l.29.29v.29l-.29,1.17.29.29v.29l-.29.88.29.29-.29,1.17.59,6.45-.59,5.57,2.64,3.22,1.76.59h.29c1.02,0,2.19-.39,3.52-1.17l.29.29v.29c-4.49,4.69-8.3,7.03-11.42,7.03-1.72-.31-3.28-1.19-4.69-2.64-1.09,1.37-3.32,2.05-6.68,2.05-2.5,0-5.72-2.34-9.67-7.03l.29-.29c.98.59,1.95.88,2.93.88h2.05c1.95,0,2.93-1.76,2.93-5.27l.29-3.52-.29-1.17.29-2.34-.29-9.08.59-.59-.59-3.22.29-.29c0-1.99-1.56-4.63-4.69-7.91.27-.66,1.84-2.23,4.69-4.69h-.59l.88-3.46c-.39-.86-.59-2.42-.59-4.69l.88-1.17-.88-.88.59-2.93-.59-4.39.88-.29-.88-3.81.29-.88-.29-4.1.29-1.17-.29-1.17h.29l-.29-.29v-2.05c-1.37,0-2.05-.39-2.05-1.17l-2.34.88-.29-.29-.59.59-3.51-.29-2.64.29-.88-.29-1.17.29-2.05-.29-2.05.29-1.76-.29c-1.56.12-2.34.31-2.34.59l-.29,1.17c0,1.56.59,2.83,1.76,3.81v.29c-3.4,0-5.94-1.86-7.62-5.57,0-.98.59-2.64,1.76-4.98-1.56-1.09-2.34-2.56-2.34-4.39v-.88c0-3.44,2.54-5.68,7.62-6.74v.29c-.98,1.02-1.46,1.89-1.46,2.64v.88c0,1.37,1.07,2.05,3.22,2.05l1.76-.29h.59c1.95,0,2.93.29,2.93.88h.29c0-.59.2-.88.59-.88h.29l2.05.29,2.34-.29,5.86.59,4.1-.59,1.47.59,9.32-.59.88.29,1.17-.29,1.17.29,4.1-.29h2.93l2.64.29.29-.29h.29l5.86.59c4.1-.47,6.15-1.25,6.15-2.34.59-.74.88-1.52.88-2.34-.24-2.34-.82-3.52-1.76-3.52V.22ZM670.18,10.77v.29h1.17v-.29h-1.17ZM665.2,11.64v.29h2.05v-.59l-2.05.29ZM663.15,11.94v.29h1.17v-.29h-1.17ZM660.51,12.23v.29h1.17v-.29h-1.17ZM656.99,12.82v.29h1.46v-.29h-1.46ZM654.06,13.4v.29h1.17v-.29h-1.17ZM650.9,13.99v.29h1.7v-.29h-1.7ZM643.28,15.16v.29h2.05v-.59l-2.05.29ZM639.77,15.45v.29h2.05v-.29h-2.05ZM638.3,15.75v.29h1.17v-.29h-1.17ZM633.32,16.33v.29h1.17v-.29h-1.17ZM642.4,16.63v.29l1.17.29h.29v-.29l-1.17-.29h-.29ZM622.19,18.09v.29l1.76.29.29-.29v-.29h-2.05ZM654.65,41.23v.29h.29l.88-.29v-.29h-.29l-.88.29ZM652.31,42.7h.29l.59-.59h-.29l-.59.59ZM645.63,42.7v.29l2.05,1.17v-.59c-.51,0-1-.29-1.47-.88h-.59ZM650.9,43.58h.29l.53-.59h-.29l-.53.59ZM650.02,45.34l1.41,1.17v-.59l-1.11-.59h-.29ZM652.6,47.09c0,.39.29.59.88.59h.29v-.29l-1.17-.29ZM654.06,47.68v.29l.88.82h.29l-1.17-1.11ZM656.12,49.09l-.29,1.17.88.29.88-.29v-.29l-1.46-.88ZM652.6,76.92l.59.59h.29l-.59-.59h-.29ZM653.77,77.8v.29l.88.29h.29v-.29l-.88-.29h-.29ZM655.82,78.97v.59h.59c0,.59.2.88.59.88v-.29l-1.17-1.17ZM647.68,86v.29h.88v-.59l-.88.29ZM644.75,87.46v.29h.88v-.59l-.88.29ZM737.68,6.02h.29c0,.39.31.59.94.59l.29,8.26c0,1.45-.61,2.64-1.82,3.57l.29-.35h.29l.35.35h.29v-.94l.59.59-.29,2.4.29,7.38v5.04c0,1.6-.41,2.4-1.23,2.4l-2.28-.29-1.23.29-2.34-.29-2.4.29-.29-2.7.29-3.52-.29-1.23.94-1.7c-.62-.2-.94-.8-.94-1.82l.29-2.11c0-1.8-2.27-3.65-6.8-5.57l-1.76-.29c-4.06,0-6.62.78-7.68,2.34h-.29c-.39,7.89-.8,12.32-1.23,13.3.47,0,.78.7.94,2.11l-.59,3.22.59.59-.29.29.29.29v.29l-.29,1.76c0,2.38.66,3.57,1.99,3.57l2.4-.88,3.28.59c1.76-.51,2.64-2.09,2.64-4.75,0-1.13-.68-2.23-2.05-3.28v-.53h.29c3.95,1.05,5.92,2.81,5.92,5.27l.35,1.17v.29c0,2.73-.6,4.73-1.82,5.98,0,.94.39,1.41,1.17,1.41l.82,3.93c-.94,4.1-2.99,6.15-6.15,6.15l-1.52.29v-.29c1.84-1.84,2.75-3.32,2.75-4.45,0-.47-1.11-.86-3.34-1.17h-.88l-2.05.29-.29-.29v-.23c-2.54.16-3.81.72-3.81,1.7l.59,1.23-.29,6.15.29.29v.29l-.59,2.4v.94h.59v1.7l-.59,1.82.29.29v.29l-.29,2.05.29,3.28h-.29l.88,2.64-.59.64.29.88-.29.29v.29l.59,1.41-.59.59c.74.9,1.11,1.88,1.11,2.93l4.22,1.23c3.44,0,7.27-1.78,11.48-5.33l.29-3.22-.29-.29v-.29l.29-3.52-.29-.35v-.29l.59-1.76-.59-2.34.59-.59-.59-.94v-.82l.29-.29v-.29l3.22.59.94-.59,2.99.29h1.76l.29.29h.29l-.59,1.76v.29l.59,2.4v.82l-.59,2.4.59,1.7v.94c-.39.78-1,1.17-1.82,1.17v.64l1.52-.94.29,2.11v1.11c-.12,2.15-3.38,6-9.79,11.54-4.92,2.38-8.09,3.57-9.49,3.57l-.29-.35-1.41.35h-1.23c-5.04,0-9.1-1.48-12.19-4.45-1.44,1.41-2.52,2.11-3.22,2.11h-1.46c-2.89,0-6.23-1.58-10.02-4.75l-.59-.59-.94-1.23.29-.29c1.88,1.21,3.16,1.82,3.87,1.82h1.52c1.72-.82,2.58-2.13,2.58-3.93l-.29-1.11.65-.59-.65-1.52.29-1.99-.29-2.4.65-.59-.94-.94.29-3.81-.29-.82.29-2.7v-1.23l.29-.29-.59-1.11.29-4.75v-1.23l-.29-1.76.59-1.17c-.39,0-.59-.29-.59-.88l.29-2.11-.59-.59h.59v-.23c-1.09,0-2.07-1.09-2.93-3.28l.64-.64-.35-.29h-2.11v-.29l4.45-5.57v-2.99l.29-1.76-.29-.88.59-3.52c-.39,0-.59-.31-.59-.94l.29-4.1-.29-.29v-.29l.59-2.34-.59-1.23.29-2.11c-.16-5.31-.35-7.97-.59-7.97l-4.75-1.46-2.93,2.11h-.29v-.29c0-2.54,2.95-5.1,8.85-7.68h2.75c1.68,0,3.24.88,4.69,2.64,4.38-2.58,7.34-3.87,8.91-3.87l4.16.29,3.22-.59c0,.51,1.27.82,3.81.94l8.26,3.52c1.13,0,2.81-1.58,5.04-4.75ZM709.85,8.66c0,.39.31.59.94.59h.29v-.29l-1.23-.29ZM715.53,11.64l.59.59h.29l-.59-.59h-.29ZM698.65,12.58l-.29.82v.29h.29l.64-.59v-.23l.29.23h1.11v-.23l-1.41-.29-.35.29-.29-.29ZM720.86,13.99v.29l1.82.59h.23v-.29l-1.76-.59h-.29ZM727.42,18.09l1.41,1.23v-.59l-1.23-.64h-.18ZM736.86,19.03v.88h.53v-.88h-.53ZM730.94,25.24h.29l.59-.59h-.29l-.59.59ZM735.69,25.88c0,.39.88.86,2.64,1.41h.29v-.29l-2.93-1.11ZM710.2,39.77v.29l.59.53.59-.53-.88-.29h-.29ZM709.26,41.47v.29h.94v-.59l-.94.29ZM707.56,42.99l.59.59h1.11l-.53-.59h-1.17ZM706.33,43.58v.59l.94-.29v-.59l-.94.29ZM724.08,45.04v.29l1.23-1.46v-.29l-1.23,1.46ZM703.69,45.04c-.35.78-1.05,1.17-2.11,1.17v.59l2.93-1.46v-.29h-.82ZM697.78,47.74l-.29.29v.29h.29l.88-.29v-.29h-.88ZM701.58,49.44h.29l1.23-.53v-.29h-.29c-.82.31-1.23.59-1.23.82ZM697.78,52.43v.35h.88v-.64l-.88.29ZM735.98,79.67l-.59.59v.29h.59l.59-.88h-.59ZM733.87,81.08v.59l.88-.29v-.29h-.88ZM731.53,83.13h.29l.53-.59h-.23l-.59.59ZM728.54,84.95h.29l.88-.88h-.29l-.88.88ZM726.19,86.41h.29l.59-.64h-.29l-.59.64ZM723.5,87.29v.29h.29l1.82-.59v-.59l-2.11.88ZM719.34,90.8h.29l.65-.59h-.35l-.59.59ZM715.53,93.21h.29l.59-.59h-.29l-.59.59ZM713.48,94.44v.23l1.41-.88v-.29h-.29l-1.11.94ZM773.13,6.02c4.53.66,6.8,1.45,6.8,2.34l.88-.29c3.2,1.48,5.47,3.75,6.8,6.8l1.82,2.64c.59,0,.88.31.88.94,3.32,5.2,4.98,10.61,4.98,16.23.74,2.11,1.35,5.37,1.82,9.79l3.81,4.16c-2.97,4.06-4.45,6.5-4.45,7.32h-.29l-.29-.29v3.87l.29,1.17c-1.84,11.6-3.42,17.4-4.75,17.4l.29.29v.88c-.55,2.97-3.11,7.11-7.68,12.42-1.68,1.88-5.8,3.46-12.36,4.75l-.94-.35-3.52.35c-1.41,0-4.94-1.39-10.6-4.16h-.29c0,.51-1.48,1.02-4.45,1.52-5.43,0-9.57-2.68-12.42-8.03h.29c2.66,2.19,4.92,3.28,6.8,3.28h.29c1.95,0,2.93-2.29,2.93-6.86l.29-1.99-.29-2.64.29-.29v-.29l-.82-3.57.82-5.33-.29-1.82v-1.99l.29-1.23-.53-3.52.23-1.23-.23-.29v-.29l.23-.29v-.23l-.23-1.52.53-1.46c-1.99-2.03-3.55-3.89-4.69-5.57v-.35c3.12-3.09,4.69-5.35,4.69-6.8h-.53v-.35l.53-.82-.53-1.76,2.34-2.05v-.29h-.29l-1.23.82h-.59l-.23-1.46v-.29l.23-1.17-.23-.94h.23l-.23-.82.23-4.1-.23-1.82.53-3.87-.53-2.11.53-1.7-.29-1.52.29-.29v-.29c-.47-2.34-1.35-3.52-2.64-3.52h-2.34c-.86,0-2.05.8-3.57,2.4h-.24v-.29c2.97-4.77,5.62-7.15,7.97-7.15,3.05,0,5.51.8,7.38,2.4,1.25-1.21,2.52-1.91,3.81-2.11l.94.29v-.29c0-.51,1.07-.88,3.22-1.11.74-.62,1.52-.94,2.34-.94h.29l.59.59,1.82-.59.29.29h.29l2.93-.59ZM747.99,10.77v.59h.35l.59-.59h-.94ZM746.82,11.64v.29h1.17v-.29h-1.17ZM765.74,16.1l.35,3.52-.64.64.29.18v3.34l.35,2.05h-.35l.35.29v.29c0,.86-.51,1.84-1.52,2.93h.88v.88l-.29.29.29.35v6.74l-.29,1.23.59,2.64-.29,1.17,5.27,5.98v.29c-.04.39-.92,1.27-2.64,2.64,0,.98-.98,2.15-2.93,3.52.62,0,.94.2.94.59l-.35,2.93.35,2.75-.64,1.11.29,1.82-.29.29.64.59-.35,4.98.35.88-.35,1.52.35,1.7-.64,5.98.29.29v.29l-.29.88.29,1.41-.29.29.64.64-.35,1.46c0,.78.58,1.27,1.76,1.46l.29-.29h.29l1.23.29c4.1-.43,6.15-1.21,6.15-2.34,1.06,0,2.13-2.85,3.22-8.55h.29l-.29-2.93.29-1.52-.29-1.46c.16-2.5.47-3.98.94-4.45v-.23c-.62,0-.94-.2-.94-.59l.29-7.97c0-1.91-.57-3.4-1.7-4.45l.29-.29v-.59c-.82,0-1.23-.51-1.23-1.52l-.29.29h-.29l-1.52-1.41v-.29c1.91-1.91,3.61-4.1,5.1-6.56h.29c-.62-2.42-.94-4.69-.94-6.8h.29l-.29-.29v-10.08c0-4.14-1.17-6.8-3.52-7.97-1.02-.51-2.77-.88-5.27-1.11l-1.23.29-.29-.29v-.29l-2.64.59ZM783.73,18.15v.59l1.23-.59v-.29h-.29l-.94.29ZM781.1,19.91v.35h.65l.82-.35v-.29h-.53l-.94.29ZM764.28,29.63v1.23h.29v-1.23h-.29ZM757.78,33.15v.35h.23c.66-.59,1.27-.88,1.82-.88v-.59c-1.37.35-2.05.72-2.05,1.11ZM762.76,63.32l-.29,1.52h.59v-.59c.62,0,.94-.21.94-.64l-.35-.29h-.88ZM752.74,64.55v.29c.08.39.57.76,1.46,1.11v-.53l-1.46-.88ZM755.37,66.25l.59.94-.88.29v.29h.29l1.82-.59c0-.43-.61-.74-1.82-.94ZM753.67,66.55v.35l.82.29v-.64h-.82ZM758.01,67.48v.29h.59v.29l-.29.29v.29h.94v-.59l1.17.29h.59v-.29l-2.7-.59h-.29ZM760.12,69.59v.23h.29l.29-1.17c-.39,0-.58.31-.58.94ZM764.28,69.83v.59h1.17v-.29l-1.17-.29ZM757.48,71h.53l.59-.59h-.59l-.53.59ZM755.96,71.59v.35h.35l.88-.35v-.29h-.29l-.94.29ZM755.37,73.4v.29l.59-.59v-.29l-.59.59ZM782.56,74.87l.88.88h.29v-.59l-1.17-.29ZM784.96,76.04v.29l1.47.29c0-.39-.29-.59-.88-.59h-.59ZM790,77.86v.53h1.11v-.29l-1.11-.23ZM764.87,93.79l-.59,1.11h.59l.29-.82v-.29h-.29Z"/></svg>