<svg width="60" height="60" viewBox="0 0 60 60" fill="none" xmlns="http://www.w3.org/2000/svg">
<path d="M39.375 30C39.375 32.4864 38.3873 34.871 36.6291 36.6291C34.871 38.3873 32.4864 39.375 30 39.375C27.5136 39.375 25.129 38.3873 23.3709 36.6291C21.6127 34.871 20.625 32.4864 20.625 30C20.625 29.4656 20.6812 28.9438 20.7781 28.4375H17.5V40.9281C17.5 41.7969 18.2031 42.5 19.0719 42.5H40.9313C41.3476 42.4992 41.7466 42.3332 42.0407 42.0385C42.3348 41.7438 42.5 41.3445 42.5 40.9281V28.4375H39.2219C39.3187 28.9438 39.375 29.4656 39.375 30ZM30 36.25C30.821 36.2498 31.6339 36.0879 32.3923 35.7735C33.1506 35.4592 33.8397 34.9985 34.4201 34.4179C35.0004 33.8372 35.4607 33.1479 35.7747 32.3894C36.0887 31.6308 36.2502 30.8178 36.25 29.9969C36.2498 29.1759 36.0879 28.363 35.7735 27.6046C35.4592 26.8462 34.9985 26.1572 34.4179 25.5768C33.8372 24.9964 33.1479 24.5361 32.3894 24.2221C31.6308 23.9082 30.8178 23.7467 29.9969 23.7469C28.3389 23.7473 26.7489 24.4063 25.5768 25.579C24.4047 26.7517 23.7465 28.342 23.7469 30C23.7473 31.658 24.4063 33.248 25.579 34.4201C26.7517 35.5922 28.342 36.2504 30 36.25ZM37.5 23.4375H41.2469C41.4958 23.4375 41.7346 23.3388 41.9109 23.1631C42.0872 22.9874 42.1867 22.7489 42.1875 22.5V18.7531C42.1875 18.5037 42.0884 18.2644 41.912 18.088C41.7356 17.9116 41.4963 17.8125 41.2469 17.8125H37.5C37.2505 17.8125 37.0113 17.9116 36.8349 18.088C36.6585 18.2644 36.5594 18.5037 36.5594 18.7531V22.5C36.5625 23.0156 36.9844 23.4375 37.5 23.4375ZM30 0C22.0435 0 14.4129 3.1607 8.7868 8.7868C3.1607 14.4129 0 22.0435 0 30C0 37.9565 3.1607 45.5871 8.7868 51.2132C14.4129 56.8393 22.0435 60 30 60C33.9397 60 37.8407 59.224 41.4805 57.7164C45.1203 56.2087 48.4274 53.999 51.2132 51.2132C53.999 48.4274 56.2087 45.1203 57.7164 41.4805C59.224 37.8407 60 33.9397 60 30C60 26.0603 59.224 22.1593 57.7164 18.5195C56.2087 14.8797 53.999 11.5726 51.2132 8.7868C48.4274 6.00104 45.1203 3.79125 41.4805 2.28361C37.8407 0.775973 33.9397 0 30 0ZM45.625 42.1531C45.625 44.0625 44.0625 45.625 42.1531 45.625H17.8469C15.9375 45.625 14.375 44.0625 14.375 42.1531V17.8469C14.375 15.9375 15.9375 14.375 17.8469 14.375H42.1531C44.0625 14.375 45.625 15.9375 45.625 17.8469V42.1531Z" fill="#FFE9C3"/>
</svg>
