<svg width="60" height="60" viewBox="0 0 60 60" fill="none" xmlns="http://www.w3.org/2000/svg">
<path d="M29.9996 3.59961C26.5325 3.59882 23.0992 4.28114 19.8958 5.60758C16.6925 6.93403 13.7819 8.87861 11.3302 11.3302C8.87861 13.7819 6.93403 16.6925 5.60758 19.8958C4.28114 23.0992 3.59882 26.5325 3.59961 29.9996C3.59961 35.221 5.14794 40.3252 8.04881 44.6667C10.9497 49.0081 15.0728 52.3919 19.8968 54.39C24.7207 56.3882 30.0289 56.911 35.15 55.8923C40.2711 54.8737 44.9751 52.3593 48.6672 48.6672C52.3593 44.9751 54.8737 40.2711 55.8923 35.15C56.911 30.0289 56.3882 24.7207 54.39 19.8968C52.3919 15.0728 49.0081 10.9497 44.6667 8.04881C40.3252 5.14794 35.221 3.59961 29.9996 3.59961ZM40.4336 43.5056C39.9146 43.5056 39.5516 43.3076 39.1706 43.0766C35.6036 40.9136 31.1846 39.7796 26.3966 39.7796C23.9546 39.7796 21.3176 40.0706 18.5666 40.6346L18.2306 40.7186C17.8826 40.8026 17.5256 40.8956 17.2526 40.8956C16.9924 40.8996 16.7339 40.8516 16.4925 40.7543C16.2511 40.657 16.0316 40.5124 15.8468 40.3291C15.6621 40.1457 15.5158 39.9273 15.4167 39.6866C15.3176 39.4459 15.2676 39.1879 15.2696 38.9276C15.2696 37.8086 15.8996 37.0166 16.9556 36.8186C20.0553 36.0903 23.2276 35.7159 26.4116 35.7026C31.9766 35.7026 36.9506 36.9926 41.2046 39.5396C41.9336 39.9656 42.3926 40.4576 42.3926 41.5436C42.3918 42.0632 42.1853 42.5613 41.8181 42.929C41.451 43.2967 40.9532 43.504 40.4336 43.5056ZM43.1726 35.8226C42.5516 35.8226 42.1436 35.5856 41.7836 35.3756C35.3546 31.5626 25.7846 30.2966 17.9006 32.3966C17.78 32.4316 17.66 32.4686 17.5406 32.5076C17.2436 32.6006 16.9676 32.6936 16.5776 32.6936C15.9528 32.6912 15.3544 32.4409 14.9139 31.9977C14.4735 31.5544 14.227 30.9545 14.2286 30.3296C14.2286 29.0726 14.8856 28.1936 16.0706 27.8576C19.1096 27.0236 21.9626 26.4716 26.0696 26.4716C32.7056 26.4716 39.1406 28.1366 44.1836 31.1546C45.1016 31.6796 45.5186 32.3966 45.5186 33.4676C45.5194 34.0909 45.2728 34.689 44.8329 35.1305C44.393 35.5721 43.7959 35.821 43.1726 35.8226ZM46.2806 27.0626C45.6956 27.0626 45.3356 26.9216 44.7956 26.6306C40.4366 24.0146 33.6356 22.4576 26.5886 22.4576C22.9166 22.4576 19.5806 22.8626 16.6706 23.6486C16.572 23.6732 16.4739 23.7002 16.3766 23.7296C16.0235 23.8504 15.6546 23.9192 15.2816 23.9336C14.9164 23.9357 14.5546 23.8647 14.2172 23.725C13.8798 23.5853 13.5737 23.3796 13.3169 23.12C13.0601 22.8604 12.8577 22.5521 12.7217 22.2132C12.5856 21.8744 12.5186 21.5117 12.5246 21.1466C12.5246 19.7876 13.2866 18.7496 14.5646 18.3716C18.0776 17.3336 22.1216 16.8086 26.5826 16.8086C34.6166 16.8086 42.2606 18.5936 47.5556 21.7016C48.5516 22.2686 49.0406 23.1266 49.0406 24.3176C49.0434 24.6801 48.9739 25.0396 48.836 25.3749C48.6981 25.7102 48.4947 26.0146 48.2376 26.2703C47.9805 26.5259 47.675 26.7277 47.339 26.8637C47.003 26.9998 46.6431 27.0674 46.2806 27.0626Z" fill="#FFE9C3"/>
</svg>
