<svg width="60" height="60" viewBox="0 0 60 60" fill="none" xmlns="http://www.w3.org/2000/svg">
<path d="M34.8092 29.4982L28.0712 26.3542C27.4832 26.0812 27.0002 26.3872 27.0002 27.0382V32.9602C27.0002 33.6112 27.4832 33.9172 28.0712 33.6442L34.8062 30.5002C35.3972 30.2242 35.3972 29.7742 34.8092 29.4982ZM30.0002 1.19922C14.0942 1.19922 1.2002 14.0932 1.2002 29.9992C1.2002 45.9052 14.0942 58.7992 30.0002 58.7992C45.9062 58.7992 58.8002 45.9052 58.8002 29.9992C58.8002 14.0932 45.9062 1.19922 30.0002 1.19922ZM30.0002 41.6992C15.2582 41.6992 15.0002 40.3702 15.0002 29.9992C15.0002 19.6282 15.2582 18.2992 30.0002 18.2992C44.7422 18.2992 45.0002 19.6282 45.0002 29.9992C45.0002 40.3702 44.7422 41.6992 30.0002 41.6992Z" fill="#FFE9C3"/>
</svg>
