<svg width="150" height="96" viewBox="0 0 150 96" fill="none" xmlns="http://www.w3.org/2000/svg">
<g clip-path="url(#clip0_600_105)">
<path d="M81.0679 24.3969C82.5129 24.372 83.9214 24.4171 85.3547 24.6032C85.7121 24.6482 86.0707 24.6885 86.4281 24.7288C86.6941 24.7596 86.9589 24.7893 87.2238 24.8201C87.3492 24.8343 87.4746 24.8485 87.6035 24.8628C89.1058 25.0418 89.1058 25.0418 89.414 25.3535C89.4398 25.5467 89.4574 25.7423 89.4726 25.9367C89.4867 26.1157 89.4867 26.1157 89.5019 26.2982C89.516 26.4867 89.516 26.4867 89.5312 26.6799C89.6097 27.7408 89.6097 27.7408 89.7656 28.791C89.9695 28.2541 90.0222 27.8084 90.0293 27.2359C90.0773 26.3409 90.2953 25.6095 90.8203 24.8794C91.1519 24.6743 91.405 24.6115 91.7906 24.6067C91.889 24.6044 91.9875 24.602 92.0894 24.6008C92.1949 24.5996 92.3015 24.5984 92.4105 24.5972C92.5207 24.5949 92.632 24.5937 92.7468 24.5913C93.1031 24.5854 93.4593 24.5806 93.8156 24.5759C94.2796 24.5688 94.7437 24.5605 95.2078 24.5534C95.3789 24.5498 95.3789 24.5498 95.5546 24.5475C96.2929 24.5344 97.0277 24.5012 97.766 24.4562C98.5523 24.4088 99.3152 24.4017 100.1 24.487C100.207 24.4977 100.314 24.5083 100.424 24.519C103.134 24.8213 103.134 24.8213 103.945 25.5906C104.132 26.0434 104.236 26.5057 104.341 26.9834C104.371 27.1114 104.401 27.2394 104.433 27.371C104.507 27.6863 104.579 28.0016 104.648 28.3169C104.687 28.113 104.725 27.9091 104.763 27.7053C104.784 27.5915 104.805 27.4777 104.828 27.3603C104.894 26.9395 104.921 26.5246 104.937 26.0991C105.028 25.7079 105.186 25.5159 105.469 25.235C105.837 25.0821 105.837 25.0821 106.267 24.9754C106.405 24.9398 106.544 24.9042 106.686 24.8675C107.984 24.5925 109.273 24.487 110.596 24.5012C110.746 24.5024 110.896 24.5048 111.05 24.506C111.298 24.5083 111.545 24.5107 111.791 24.5143C112.396 24.5226 112.999 24.5237 113.604 24.5226C114.063 24.5214 114.521 24.5249 114.98 24.5297C115.206 24.5309 115.431 24.5309 115.657 24.5285C115.976 24.5273 116.294 24.5309 116.613 24.5356C116.708 24.5332 116.803 24.532 116.902 24.5309C117.299 24.5403 117.555 24.5593 117.871 24.8189C118.29 25.2966 118.515 25.7707 118.682 26.3836C118.705 26.4654 118.73 26.5472 118.754 26.6313C118.929 27.2548 119.051 27.8807 119.137 28.5232C119.167 28.7946 119.167 28.7946 119.297 29.0281C119.31 28.9511 119.321 28.8728 119.334 28.7934C119.392 28.4366 119.45 28.081 119.509 27.7242C119.529 27.6021 119.548 27.48 119.568 27.3544C119.885 25.4578 119.885 25.4578 120.688 24.7916C121.153 24.5143 121.629 24.5475 122.156 24.5581C122.276 24.5569 122.396 24.5569 122.519 24.5569C122.913 24.5558 123.307 24.5605 123.701 24.5641C123.975 24.5652 124.249 24.5652 124.523 24.5664C125.096 24.5676 125.671 24.57 126.244 24.5759C126.98 24.583 127.716 24.5854 128.453 24.5866C129.018 24.5866 129.584 24.5889 130.148 24.5925C130.42 24.5937 130.692 24.5949 130.964 24.5961C131.343 24.5972 131.721 24.6008 132.1 24.6044C132.268 24.6044 132.268 24.6044 132.442 24.6055C132.595 24.6067 132.595 24.6067 132.752 24.6091C132.841 24.6103 132.932 24.6103 133.023 24.6115C133.242 24.6423 133.242 24.6423 133.477 24.8794C133.543 25.0915 133.601 25.3085 133.653 25.5254C133.696 25.6973 133.696 25.6973 133.738 25.8727C133.789 26.0932 133.789 26.0932 133.843 26.3172C133.953 26.7807 134.065 27.2453 134.18 27.7242C134.489 26.7072 134.798 25.6901 135.117 24.6423C135.934 24.5676 136.718 24.506 137.532 24.5072C137.638 24.506 137.742 24.506 137.849 24.506C138.19 24.5048 138.53 24.5036 138.869 24.5036C139.109 24.5036 139.346 24.5036 139.585 24.5024C140.082 24.5024 140.58 24.5012 141.077 24.5024C141.715 24.5024 142.352 24.5 142.989 24.4977C143.481 24.4965 143.972 24.4965 144.463 24.4965C144.698 24.4965 144.933 24.4965 145.168 24.4953C145.496 24.4941 145.823 24.4941 146.151 24.4953C146.297 24.4941 146.297 24.4941 146.444 24.4929C146.933 24.4953 147.339 24.5072 147.773 24.7608C147.922 25.0643 148.018 25.3203 148.111 25.6427C148.139 25.7387 148.168 25.8359 148.198 25.9355C148.608 27.3864 148.863 28.8823 149.143 30.364C149.257 30.9626 149.378 31.56 149.505 32.1563C149.522 32.2345 149.538 32.3127 149.556 32.3934C149.633 32.7608 149.712 33.1271 149.791 33.4946C149.948 34.2354 150.033 34.9075 150 35.6661C149.505 35.857 149.011 36.0407 148.51 36.2138C146.918 36.7697 145.423 37.4643 143.913 38.2147C139.723 40.289 139.723 40.289 138.398 40.289C138.401 40.3874 138.402 40.4846 138.404 40.5854C138.41 40.9552 138.415 41.3239 138.418 41.6925C138.421 41.9284 138.425 42.1643 138.429 42.4002C138.441 43.9814 138.16 44.9676 137.103 46.1234C135.744 47.4747 133.487 48.5166 131.583 48.5937C129.76 48.5581 128.04 47.7118 126.748 46.4422C126.459 46.1909 126.459 46.1909 126.096 46.1566C125.667 46.2289 125.439 46.3782 125.084 46.6307C124.289 47.1617 123.449 47.5043 122.563 47.8457C122.333 47.9346 122.105 48.0235 121.875 48.1124C121.793 48.1444 121.712 48.1752 121.628 48.2084C120.248 48.7466 118.912 49.3404 117.589 50.0066C117.093 50.2567 116.593 50.5033 116.095 50.751C115.997 50.7996 115.898 50.8482 115.796 50.8992C111.831 52.8681 107.771 54.6532 103.665 56.3009C101.809 57.0476 99.9902 57.8703 98.1961 58.7581C96.6515 59.5144 95.0871 60.2197 93.5156 60.9143C93.3808 60.9747 93.246 61.034 93.1078 61.0956C91.0101 62.0285 88.8937 62.9069 86.7187 63.6406C86.721 63.7414 86.7246 63.8421 86.7269 63.9453C86.7304 64.1539 86.7304 64.1539 86.7339 64.3672C86.7363 64.5012 86.7386 64.6363 86.7421 64.775C86.7316 65.357 86.632 65.9248 86.5464 66.4997C86.482 66.9774 86.4339 67.4539 86.3929 67.9352C86.3824 68.0573 86.3824 68.0573 86.3718 68.1829C86.3425 68.5172 86.3144 68.8526 86.2875 69.1881C86.2675 69.437 86.2464 69.686 86.2242 69.9349C86.2125 70.0807 86.2007 70.2265 86.1879 70.377C86.1386 70.7172 86.073 70.9365 85.8984 71.2269C85.7695 71.2269 85.6394 71.2257 85.5058 71.2245C85.0254 71.2234 84.5461 71.2222 84.0656 71.221C83.857 71.2198 83.6496 71.2186 83.441 71.2186C83.1433 71.2162 82.8445 71.2162 82.5457 71.2151C82.4519 71.2151 82.3593 71.2139 82.2632 71.2139C81.8812 71.2139 81.5753 71.2222 81.2109 71.3455C80.8628 72.9421 81.7488 74.6336 82.3898 76.0584C83.5722 78.7018 83.6402 81.2005 82.6359 83.9435C81.9714 85.6444 81.0773 87.2636 80.1996 88.8591C80.0918 89.0535 79.9851 89.2491 79.8785 89.4447C79.8234 89.5443 79.7683 89.645 79.7109 89.7482C79.2796 90.5459 78.8777 91.3555 78.4816 92.1722C78.4265 92.2848 78.3726 92.3962 78.3152 92.5124C78.0363 93.0861 77.7597 93.6587 77.4855 94.2347C77.3824 94.4469 77.2793 94.6603 77.175 94.8736C77.1047 95.023 77.1047 95.023 77.0332 95.1771C76.9886 95.2684 76.9441 95.3596 76.8972 95.4533C76.8586 95.5339 76.8211 95.6145 76.7812 95.6963C76.6007 95.9357 76.4601 95.9583 76.1718 96.0009C75.355 94.7776 74.5652 93.5389 73.7906 92.2884C73.5808 91.9494 73.3675 91.6115 73.1543 91.2737C70.7683 87.4758 68.1339 82.7972 69.0398 78.1067C69.3996 76.8183 70.1367 75.7953 70.9535 74.7664C71.5523 74.0101 71.8828 73.4175 71.9168 72.4277C71.9203 72.3459 71.925 72.2641 71.9285 72.1799C71.9379 71.9808 71.9461 71.7817 71.9531 71.5825C71.8863 71.5837 71.8207 71.5849 71.7527 71.5861C69.6269 71.6205 67.4965 71.5434 65.3906 71.2269C65.1949 71.029 65.2418 70.78 65.2277 70.5074C65.2207 70.3794 65.2136 70.2514 65.2066 70.1186C65.1996 69.9799 65.1925 69.84 65.1855 69.6966C65.1773 69.5544 65.1703 69.4133 65.1621 69.2663C65.1375 68.8112 65.114 68.356 65.0906 67.9008C65.0742 67.5926 65.0578 67.2844 65.0414 66.9774C65.0004 66.2211 64.9605 65.4637 64.9218 64.7074C64.3699 64.4194 63.8203 64.1574 63.239 63.9346C63.0316 63.8528 63.0316 63.8528 62.8183 63.7698C62.7468 63.7426 62.6742 63.7141 62.5992 63.6845C61.3078 63.1795 60.0609 62.6283 58.8281 61.9882C56.7258 60.8977 54.5566 59.9826 52.3769 59.0628C49.3008 57.7648 46.2304 56.4467 43.2351 54.965C43.159 54.9282 43.084 54.8903 43.0066 54.8524C42.7898 54.7445 42.573 54.6378 42.3551 54.5299C41.0683 53.8922 39.7887 53.3446 38.4305 52.8835C36.6293 52.2695 34.9512 51.4172 33.2812 50.5056C32.0379 49.83 30.757 49.3511 29.4176 48.9102C27.8883 48.4064 26.5113 47.8765 25.1519 46.9934C24.7383 46.7433 24.4019 46.5584 23.9121 46.5963C23.4586 46.7729 23.1445 47.1428 22.8012 47.4806C21.4863 48.6861 19.6758 48.6861 17.9988 48.6103C16.0289 48.4562 14.0496 47.7592 12.6445 46.319C11.5746 45.0317 11.4082 43.5262 11.5418 41.8999C11.5617 41.6795 11.5805 41.4578 11.6016 41.2373C9.44296 40.0152 7.19648 39.0302 4.92539 38.044C4.81172 37.9942 4.69805 37.9444 4.57969 37.8934C4.46719 37.8448 4.35469 37.795 4.23867 37.7452C2.81368 37.1241 1.38867 36.4864 0 35.7847C0.0632812 34.7771 0.273053 33.8122 0.496881 32.8307C0.534381 32.6612 0.573049 32.4917 0.610549 32.321C0.690237 31.9666 0.771095 31.6134 0.850782 31.259C0.953907 30.8097 1.05469 30.3605 1.15547 29.9112C1.23399 29.5603 1.3125 29.2107 1.39219 28.8598C1.42969 28.695 1.46602 28.5291 1.50352 28.3643C1.69336 27.5192 1.89375 26.6764 2.11407 25.8395C2.14922 25.7032 2.18555 25.5669 2.22188 25.427C2.26172 25.3239 2.30273 25.2219 2.34375 25.1164C2.66719 25.0074 2.86289 24.9825 3.19688 24.9789C3.34922 24.9777 3.34922 24.9777 3.50625 24.9754C3.67383 24.9742 3.67383 24.9742 3.84493 24.973C3.96329 24.9718 4.08047 24.9706 4.20235 24.9694C4.59375 24.9659 4.98399 24.9635 5.37539 24.9611C5.50899 24.9611 5.6414 24.96 5.77969 24.9588C6.48515 24.9552 7.19062 24.9528 7.89726 24.9505C8.48203 24.9481 9.06562 24.9434 9.65039 24.9374C10.3559 24.9303 11.0613 24.9268 11.768 24.9256C12.0363 24.9244 12.3059 24.9232 12.5742 24.9197C12.9504 24.9149 13.3266 24.9149 13.7027 24.9149C13.8141 24.9125 13.9254 24.9102 14.0402 24.9078C14.7773 24.9161 14.7773 24.9161 15.0809 25.152C15.9141 26.137 16.0723 27.5571 16.2891 28.791C16.2914 28.6974 16.2937 28.6049 16.2961 28.5089C16.3078 28.0846 16.3207 27.6602 16.3336 27.2359C16.3371 27.0889 16.3406 26.9419 16.3441 26.7913C16.3512 26.578 16.3512 26.578 16.3582 26.3599C16.3617 26.2295 16.3652 26.0991 16.3687 25.9651C16.459 25.0631 16.459 25.0631 16.7578 24.7608C17.1187 24.7525 17.4762 24.7525 17.8371 24.7561C18.007 24.7585 18.007 24.7585 18.1805 24.7596C18.5578 24.7632 18.9352 24.7667 19.3125 24.7715C19.575 24.7739 19.8375 24.7762 20.0988 24.7786C20.6508 24.7845 21.2016 24.7905 21.7523 24.7964C22.4566 24.8035 23.1609 24.8106 23.8641 24.8177C24.4066 24.8225 24.9492 24.8284 25.4918 24.8331C25.7508 24.8367 26.0098 24.8391 26.2687 24.8414C26.6332 24.845 26.9976 24.8485 27.3633 24.8533C27.4687 24.8545 27.5742 24.8545 27.6832 24.8556C29.7469 24.8829 29.7469 24.8829 30.1465 25.2196C30.6961 26.418 31.1098 27.8131 31.0547 29.1467C31.132 29.1467 31.2094 29.1467 31.2891 29.1467C31.2914 29.0755 31.2937 29.0044 31.2961 28.9321C31.4156 25.4531 31.4156 25.4531 31.7578 24.7608C33.1898 24.7715 34.623 24.7822 36.0551 24.7952C36.7207 24.8011 37.3851 24.8059 38.0508 24.8106C38.6941 24.8153 39.3387 24.8213 39.982 24.8272C40.2258 24.8296 40.4695 24.8308 40.7133 24.8319C41.8617 24.8391 43.0055 24.8556 44.148 24.9789C44.2301 24.9872 44.3121 24.9955 44.3965 25.0038C44.7211 25.0441 44.9566 25.0844 45.2226 25.2824C45.416 25.5669 45.4535 25.8431 45.5144 26.1809C45.539 26.3184 45.5648 26.4571 45.5906 26.5993C45.6152 26.7427 45.641 26.8874 45.6668 27.0355C45.6926 27.1801 45.7195 27.3259 45.7465 27.4765C45.8109 27.8356 45.8754 28.1948 45.9375 28.554C46.2469 27.8854 46.4297 27.2193 46.5972 26.5021C46.6465 26.2899 46.6969 26.0778 46.7472 25.8668C46.7695 25.7731 46.7906 25.6807 46.814 25.5846C46.875 25.3535 46.875 25.3535 46.9922 25.1164C47.2816 25.0583 47.5582 25.0169 47.85 24.986C47.9836 24.9706 47.9836 24.9706 48.1207 24.9552C49.1812 24.8462 50.2418 24.8402 51.307 24.8391C51.5238 24.8391 51.7394 24.8379 51.9562 24.8367C52.4051 24.8355 52.8527 24.8355 53.3015 24.8355C53.8758 24.8355 54.4488 24.8319 55.023 24.8284C55.4672 24.826 55.9125 24.8248 56.3566 24.8248C56.5687 24.8248 56.7797 24.8236 56.9918 24.8225C57.2871 24.8201 57.5812 24.8201 57.8765 24.8213C57.9633 24.8201 58.0488 24.8189 58.1379 24.8177C58.8246 24.826 59.2406 25.0595 59.7199 25.5443C60.4769 26.6064 60.4511 28.0028 60.5859 29.2652C60.6269 29.0933 60.6269 29.0933 60.6679 28.9167C60.8754 28.0502 61.0957 27.1873 61.3476 26.3314C61.3699 26.252 61.3922 26.1738 61.4144 26.092C61.5597 25.6131 61.7039 25.293 62.1093 24.9979C62.4644 24.9042 62.4644 24.9042 62.8711 24.8568C63.0023 24.8414 63.1347 24.8248 63.2707 24.8082C63.43 24.7916 63.5906 24.7762 63.75 24.7608C63.8449 24.7513 63.9398 24.7407 64.0371 24.7312C65.0508 24.634 66.0597 24.6245 67.0769 24.6269C67.2586 24.6269 67.4402 24.6269 67.623 24.6269C68.0015 24.6257 68.38 24.6269 68.7597 24.6269C69.2425 24.6281 69.7254 24.6269 70.2082 24.6269C70.5832 24.6257 70.9582 24.6257 71.3332 24.6269C71.5113 24.6269 71.6894 24.6269 71.8675 24.6257C72.116 24.6257 72.3656 24.6269 72.6152 24.6269C72.8273 24.6269 72.8273 24.6269 73.0429 24.6269C73.541 24.6447 74.0367 24.7051 74.5312 24.7608C74.7632 25.5823 74.9953 26.4037 75.2343 27.2501C75.382 26.5009 75.5132 25.7814 75.6023 25.0275C75.7031 24.7608 75.7031 24.7608 75.9457 24.6292C76.3652 24.5012 76.7613 24.4823 77.1961 24.4751C77.284 24.4728 77.3718 24.4704 77.4621 24.468C77.7468 24.4609 78.0328 24.455 78.3175 24.4503C78.5156 24.4455 78.7125 24.4408 78.9093 24.4372C79.3945 24.4265 79.8796 24.4171 80.3636 24.41C80.5992 24.4052 80.8336 24.4017 81.0679 24.3969ZM136.652 27.0545C136.287 27.6081 136.225 28.2778 136.138 28.9226C136.125 29.0139 136.112 29.104 136.099 29.1976C136.073 29.3896 136.046 29.5817 136.021 29.7725C135.982 30.0629 135.941 30.3522 135.9 30.6426C135.874 30.8299 135.848 31.0171 135.823 31.2044C135.811 31.2898 135.799 31.3739 135.786 31.4617C135.698 32.129 135.703 32.7253 135.703 33.4139C139.493 33.4139 143.283 33.4139 147.187 33.4139C147.108 32.5297 147.008 31.7035 146.828 30.8417C146.805 30.7279 146.782 30.6141 146.757 30.4968C146.685 30.1376 146.61 29.7796 146.536 29.4205C146.485 29.1751 146.435 28.9297 146.385 28.6844C146.263 28.0881 146.14 27.4907 146.016 26.8945C144.83 26.8862 143.644 26.8802 142.459 26.8767C141.908 26.8743 141.357 26.8719 140.807 26.8672C140.276 26.8636 139.745 26.8613 139.214 26.8613C139.01 26.8601 138.807 26.8589 138.605 26.8565C138.321 26.8542 138.037 26.8542 137.754 26.8542C137.669 26.853 137.585 26.8518 137.498 26.8506C137.047 26.853 137.047 26.853 136.652 27.0545ZM121.992 27.2501C121.828 27.8096 121.694 28.3619 121.585 28.9357C121.563 29.053 121.563 29.053 121.54 29.1727C121.508 29.3375 121.478 29.5023 121.446 29.667C121.399 29.9171 121.351 30.1661 121.303 30.4162C121.103 31.47 120.937 32.4526 120.937 33.5325C126.565 33.4744 126.565 33.4744 132.305 33.4139C132.305 32.487 132.291 31.7047 132.125 30.8156C132.107 30.7125 132.089 30.6094 132.07 30.5027C132.013 30.1791 131.953 29.8555 131.894 29.5319C131.855 29.3102 131.815 29.0886 131.776 28.8657C131.68 28.3276 131.583 27.7882 131.484 27.2501C131.153 27.1552 130.857 27.1161 130.513 27.1161C130.413 27.1161 130.315 27.1161 130.213 27.1149C130.052 27.1149 130.052 27.1149 129.888 27.1161C129.777 27.1161 129.664 27.1161 129.548 27.1149C129.183 27.1149 128.817 27.1161 128.453 27.1173C128.266 27.1173 128.266 27.1173 128.078 27.1173C126.047 27.1197 124.021 27.1564 121.992 27.2501ZM33.75 27.9613C33.6305 28.3288 33.6305 28.3288 33.5742 28.7768C33.5613 28.861 33.5484 28.9451 33.5344 29.0317C33.4863 29.347 33.4418 29.6611 33.3984 29.9764C33.3785 30.1175 33.3586 30.2573 33.3375 30.4019C33.2297 31.1665 33.123 31.9322 33.0199 32.698C32.9941 32.8924 32.9941 32.8924 32.9672 33.0903C32.9226 33.4187 32.9226 33.4187 32.9297 33.7696C34.1156 33.7565 35.3015 33.7435 36.4875 33.7293C37.0383 33.7233 37.589 33.7162 38.1398 33.7103C38.673 33.7055 39.2074 33.6984 39.7406 33.6925C39.9422 33.6901 40.1437 33.6878 40.3453 33.6854C41.7047 33.6712 43.057 33.6202 44.414 33.5325C44.4773 32.4479 44.264 31.5458 43.9523 30.5098C43.6523 29.4987 43.4015 28.5469 43.3594 27.4871C42.9609 27.3674 42.5847 27.3449 42.1699 27.3307C42.0246 27.3259 41.8793 27.3212 41.7305 27.3165C41.5723 27.3117 41.4152 27.307 41.257 27.3022C41.1773 27.2999 41.0976 27.2975 41.0156 27.2951C40.4297 27.2773 39.8437 27.2631 39.2578 27.2501C39.1781 27.2489 39.0984 27.2465 39.0164 27.2441C38.489 27.2323 37.9617 27.2252 37.4344 27.2204C37.2328 27.2169 37.2328 27.2169 37.0277 27.2133C35.2676 27.1991 35.2676 27.1991 33.75 27.9613ZM48.9844 27.2501C48.5754 28.3098 48.1922 29.3517 47.9519 30.466C47.9273 30.5691 47.9039 30.6734 47.8793 30.7813C47.714 31.5162 47.5605 32.2262 47.5711 32.9848C47.5734 33.1674 47.5758 33.3499 47.5781 33.5325C49.2961 33.6617 51.0117 33.6688 52.7344 33.6664C53.2019 33.6664 53.6695 33.6664 54.1371 33.6676C55.7051 33.6676 57.2648 33.6498 58.8281 33.5325C58.7719 30.2253 58.7719 30.2253 57.4218 27.3686C57.0691 27.2714 57.0691 27.2714 56.6754 27.2726C56.5289 27.2679 56.3824 27.2619 56.2324 27.256C56.0086 27.2536 56.0086 27.2536 55.7812 27.2501C55.6465 27.2477 55.5117 27.2441 55.3722 27.2418C54.9597 27.237 54.5472 27.237 54.1347 27.2382C53.9109 27.2394 53.9109 27.2394 53.6836 27.2394C53.2957 27.2394 52.9066 27.2406 52.5176 27.2418C52.1191 27.243 51.7195 27.2441 51.3199 27.2441C50.5418 27.2453 49.7625 27.2477 48.9844 27.2501ZM63.164 27.4871C63.1254 27.6768 63.0925 27.8676 63.0621 28.0585C63.0433 28.177 63.0246 28.2967 63.0047 28.4188C62.9847 28.5469 62.9648 28.6749 62.9449 28.8065C62.8113 29.6457 62.6707 30.479 62.4902 31.3099C62.3355 32.0579 62.3062 32.7703 62.3437 33.5325C62.7855 33.6759 63.2226 33.6676 63.6808 33.6664C63.7676 33.6664 63.8543 33.6664 63.9433 33.6676C64.2304 33.6676 64.5175 33.6676 64.8047 33.6664C65.005 33.6664 65.2054 33.6676 65.4058 33.6676C65.8277 33.6676 66.2484 33.6676 66.6691 33.6664C67.2058 33.6664 67.7414 33.6664 68.2769 33.6664C68.6918 33.6676 69.1066 33.6676 69.5214 33.6664C69.7195 33.6664 69.9164 33.6664 70.1133 33.6676C71.2418 33.6688 72.3527 33.6427 73.4765 33.5325C73.4988 32.7904 73.4203 32.1065 73.2867 31.3763C73.2656 31.2649 73.2457 31.1523 73.2246 31.0373C72.8695 29.0921 72.8695 29.0921 72.1875 27.2501C71.1644 27.2477 70.1414 27.2453 69.1195 27.2441C68.6437 27.243 68.1691 27.243 67.6945 27.2418C67.2351 27.2394 66.7757 27.2394 66.3176 27.2394C66.1429 27.2382 65.9683 27.2382 65.7937 27.2382C64.3933 27.109 64.3933 27.109 63.164 27.4871ZM77.6953 27.3686C77.6636 27.5263 77.639 27.6851 77.6179 27.8439C77.6039 27.9447 77.5898 28.0455 77.5746 28.1498C77.5605 28.26 77.5453 28.3702 77.53 28.484C77.5148 28.5966 77.4996 28.7093 77.4832 28.8266C77.4503 29.066 77.4187 29.3067 77.3859 29.5473C77.3367 29.9124 77.2863 30.2775 77.2359 30.6426C77.2043 30.8761 77.1738 31.1096 77.1422 31.3431C77.1269 31.451 77.1117 31.56 77.0964 31.6715C77.0086 32.3376 76.9781 32.9789 76.9921 33.651C78.1476 33.6534 79.3031 33.6558 80.4586 33.6569C80.9953 33.6581 81.532 33.6581 82.0687 33.6605C82.5879 33.6617 83.1082 33.6617 83.6273 33.6629C83.8242 33.6629 84.0211 33.6629 84.2168 33.6641C85.5632 33.6676 86.8992 33.6214 88.2421 33.5325C88.1261 32.2689 87.9562 31.0314 87.7218 29.7844C87.6855 29.5876 87.6855 29.5876 87.6492 29.3885C87.4511 28.3489 87.4511 28.3489 87.0703 27.3686C86.5992 27.2133 86.1152 27.2347 85.6242 27.2347C85.5386 27.2347 85.4543 27.2347 85.3675 27.2347C85.0898 27.2335 84.8121 27.2335 84.5343 27.2347C84.341 27.2347 84.1476 27.2347 83.9543 27.2347C83.55 27.2335 83.1457 27.2347 82.7414 27.2347C82.2222 27.2359 81.7031 27.2347 81.1839 27.2347C80.7855 27.2335 80.3859 27.2335 79.9875 27.2347C79.7964 27.2347 79.6043 27.2347 79.4132 27.2335C79.1461 27.2335 78.8789 27.2347 78.6129 27.2347C78.3843 27.2347 78.3843 27.2347 78.1523 27.2347C77.8254 27.211 77.8253 27.211 77.6953 27.3686ZM92.6953 27.2501C92.6191 27.5488 92.5441 27.8475 92.4691 28.1462C92.448 28.2292 92.4269 28.3122 92.4058 28.3987C91.9839 30.0866 91.9324 31.7995 91.875 33.5325C92.2687 33.6214 92.6332 33.6664 93.0363 33.6664C93.2039 33.6664 93.2039 33.6664 93.375 33.6676C93.4957 33.6676 93.6164 33.6676 93.7406 33.6664C93.8671 33.6664 93.9937 33.6676 94.125 33.6676C94.5375 33.6676 94.9488 33.6664 95.3613 33.6664C95.571 33.6652 95.5711 33.6652 95.7843 33.6652C97.507 33.6629 99.2285 33.6522 100.95 33.5989C101.103 33.5941 101.258 33.5894 101.418 33.5846C102.037 33.5633 102.63 33.5266 103.242 33.4139C103.236 31.9808 102.85 30.6272 102.505 29.2486C102.371 28.7057 102.252 28.1592 102.134 27.6128C102.093 27.371 102.093 27.371 101.953 27.2501C101.665 27.2394 101.379 27.2359 101.089 27.237C100.955 27.237 100.955 27.237 100.816 27.237C100.516 27.237 100.216 27.2382 99.9164 27.2382C99.7089 27.2394 99.5015 27.2394 99.2941 27.2394C98.7468 27.2394 98.2007 27.2406 97.6535 27.2418C97.0957 27.243 96.5378 27.2441 95.98 27.2441C94.8855 27.2453 93.7898 27.2477 92.6953 27.2501ZM107.109 27.3686C107.091 27.5239 107.072 27.6792 107.053 27.838C106.904 29.0163 106.714 30.1495 106.372 31.2862C106.15 32.0306 106.017 32.634 106.172 33.4139C109.962 33.4139 113.752 33.4139 117.656 33.4139C117.531 30.3533 117.531 30.3533 116.367 27.3686C115.276 27.205 114.15 27.2323 113.048 27.2347C112.896 27.2347 112.744 27.2347 112.587 27.2347C112.268 27.2335 111.949 27.2347 111.63 27.2347C111.224 27.2359 110.816 27.2347 110.408 27.2347C110.017 27.2335 109.625 27.2347 109.233 27.2347C109.087 27.2347 108.942 27.2335 108.792 27.2335C108.656 27.2347 108.52 27.2347 108.381 27.2347C108.203 27.2347 108.203 27.2347 108.022 27.2347C107.706 27.2501 107.418 27.2975 107.109 27.3686ZM4.33594 27.4871C4.06523 28.5943 3.93165 29.6919 3.84493 30.8287C3.83555 30.9567 3.82618 31.0847 3.81563 31.2163C3.75586 32.0686 3.74648 32.9149 3.75 33.7696C4.70156 33.7719 5.65313 33.7743 6.60586 33.7755C7.04766 33.7767 7.48945 33.7767 7.93242 33.779C9.74414 33.7838 11.5535 33.7802 13.3652 33.7174C13.5035 33.7127 13.643 33.7079 13.7859 33.7032C13.9746 33.6961 13.9746 33.6961 14.168 33.6889C14.2781 33.6842 14.3883 33.6795 14.5019 33.6759C14.7703 33.6676 14.7703 33.6676 15 33.5325C14.7492 32.2262 14.3672 30.9733 13.9383 29.7168C13.8996 29.6042 13.8996 29.6042 13.8598 29.488C13.6113 28.7567 13.3535 28.0585 13.0078 27.3686C11.9285 27.3662 10.8504 27.3639 9.77109 27.3627C9.2707 27.3615 8.77032 27.3615 8.26875 27.3603C7.78594 27.3579 7.30195 27.3579 6.81914 27.3579C6.63515 27.3568 6.45 27.3568 6.26602 27.3568C6.00703 27.3556 5.74922 27.3556 5.49141 27.3556C5.34375 27.3556 5.19727 27.3544 5.0461 27.3544C4.68282 27.352 4.68281 27.352 4.33594 27.4871ZM19.1016 27.3686C18.8414 28.727 18.5836 30.0843 18.3691 31.451C18.3492 31.5755 18.3281 31.6987 18.3082 31.8267C18.2168 32.4005 18.1359 32.9493 18.1641 33.5325C19.8715 33.8442 21.6305 33.7885 23.359 33.785C23.7574 33.785 24.1559 33.785 24.5555 33.7861C25.7566 33.7861 26.9555 33.7755 28.1566 33.7174C28.2973 33.7103 28.2973 33.7103 28.4414 33.7032C28.9289 33.6759 29.4012 33.6249 29.8828 33.5325C29.3871 30.383 29.3871 30.383 28.125 27.4871C27.7805 27.3129 27.4348 27.3532 27.0574 27.3556C26.9719 27.3556 26.8851 27.3556 26.7973 27.3556C26.5137 27.3556 26.2289 27.3568 25.9453 27.3568C25.7484 27.3579 25.5516 27.3579 25.3547 27.3579C24.8367 27.3579 24.3187 27.3591 23.8008 27.3603C23.2711 27.3615 22.7426 27.3627 22.2141 27.3627C21.1769 27.3639 20.1387 27.3662 19.1016 27.3686ZM112.969 35.9032C113.49 36.4674 113.49 36.4674 114.141 36.8515C114.648 36.7424 115.089 36.5018 115.547 36.2588C114.814 35.7657 113.822 35.8866 112.969 35.9032ZM118.945 36.733C118.839 36.7685 118.731 36.8029 118.621 36.8396C117.858 37.117 117.238 37.5343 116.602 38.0368C116.461 38.1435 116.461 38.1435 116.318 38.2538C115.881 38.6307 115.588 38.9188 115.459 39.4972C115.433 39.9488 115.435 40.3922 115.452 40.845C115.496 43.0509 115.024 44.9036 113.493 46.5299C112.132 47.841 110.699 48.5261 108.831 48.5427C108.724 48.5439 108.618 48.5451 108.509 48.5462C107.586 48.5261 106.837 48.257 106.05 47.7758C105.684 47.5565 105.425 47.4462 105 47.4012C104.296 47.63 103.707 48.142 103.125 48.5865C102.981 48.6909 102.836 48.7952 102.69 48.8983C102.415 49.0939 102.142 49.2918 101.87 49.4922C101.519 49.7482 101.163 49.9912 100.803 50.2318C99.9703 50.7878 99.1582 51.3733 98.3437 51.9577C98.0929 52.1379 97.841 52.3169 97.5902 52.4959C92.0636 56.391 92.0636 56.391 86.8359 60.6772C87.0644 60.8278 87.0644 60.8278 87.3035 60.7234C87.4464 60.6618 87.4464 60.6618 87.5929 60.5978C87.7019 60.5516 87.8109 60.5053 87.9234 60.4567C88.0429 60.4058 88.1625 60.3536 88.2867 60.2991C88.4121 60.2457 88.5375 60.1912 88.6675 60.1355C89.073 59.9624 89.4785 59.7858 89.8828 59.6104C90.1359 59.5002 90.389 59.3911 90.6421 59.2809C91.0371 59.1102 91.432 58.9395 91.8257 58.7676C92.1914 58.6099 92.5558 58.4511 92.9214 58.2935C93.089 58.2211 93.2566 58.1477 93.4253 58.0754C94.0875 57.7873 94.7496 57.5016 95.4128 57.2172C95.5558 57.1567 95.5558 57.1567 95.7011 57.0939C96.8718 56.5937 98.0425 56.1207 99.2437 55.6987C100.16 55.3763 101.017 55.0159 101.875 54.5608C102.622 54.166 103.387 53.8081 104.15 53.4465C104.23 53.4086 104.311 53.3707 104.393 53.3315C106.111 52.5184 107.843 51.7396 109.578 50.9644C110.507 50.5507 111.435 50.1334 112.362 49.7162C112.703 49.5621 113.044 49.4092 113.385 49.2551C113.546 49.1828 113.708 49.1105 113.87 49.037C114.299 48.845 114.727 48.6529 115.155 48.4609C116.118 48.0306 117.076 47.5968 118.023 47.1345C118.139 47.0776 118.256 47.0207 118.376 46.9626C119.518 46.4019 120.656 45.8341 121.793 45.2628C122.003 45.1585 122.211 45.0542 122.42 44.9499C123.959 44.1924 123.959 44.1924 125.391 43.2524C125.371 43.1458 125.352 43.0403 125.331 42.93C125.014 40.9671 125.252 39.2234 126.364 37.5331C126.721 37.0423 127.12 36.6168 127.559 36.1995C127.645 36.1118 127.645 36.1118 127.734 36.0217C127.734 35.9826 127.734 35.9435 127.734 35.9032C123.28 35.8084 123.28 35.8084 118.945 36.733ZM135.703 36.0217C135.92 36.49 136.219 36.8491 136.56 37.2296C136.616 37.2936 136.671 37.3588 136.728 37.4252C137.078 37.8152 137.293 38.0013 137.812 38.0368C138.201 37.929 138.201 37.929 138.609 37.75C138.685 37.7192 138.76 37.6884 138.838 37.6563C139.078 37.558 139.317 37.456 139.556 37.3553C139.716 37.2889 139.875 37.2237 140.035 37.1573C140.742 36.8645 141.446 36.5646 142.148 36.2588C142.148 36.2197 142.148 36.1806 142.148 36.1403C140.852 35.9613 139.575 35.8807 138.267 35.8807C138.067 35.8807 138.067 35.8807 137.863 35.8807C137.134 35.8854 136.426 35.9257 135.703 36.0217ZM79.4531 36.1403C79.4953 36.1984 79.5386 36.2553 79.582 36.3145C79.7062 36.4828 79.8304 36.65 79.9547 36.8183C80.0824 36.989 80.2113 37.1585 80.3425 37.3256C81.5507 38.8749 81.7089 40.6269 81.5625 42.5412C81.4066 43.7396 80.9379 44.7484 80.2734 45.7417C80.2136 45.8365 80.1539 45.9313 80.0918 46.0297C79.1285 47.4296 77.564 48.1954 75.9504 48.5403C73.8187 48.8094 71.9461 48.4265 70.1953 47.144C68.9472 46.0594 67.9476 44.4603 67.7343 42.7783C67.6781 41.958 67.8082 41.2112 67.991 40.4147C68.0133 40.3056 68.0367 40.1954 68.0601 40.0828C68.3214 38.9259 68.7562 37.8116 69.7265 37.0886C70.1847 36.8266 70.6523 36.5955 71.1328 36.3773C70.7308 36.1059 70.5855 36.1106 70.1121 36.1118C69.907 36.1106 69.907 36.1106 69.6961 36.1106C69.4734 36.1118 69.4734 36.1118 69.2461 36.113C69.0164 36.113 69.0164 36.113 68.782 36.113C68.4574 36.113 68.1328 36.1142 67.8082 36.1154C67.3957 36.1178 66.982 36.1189 66.5683 36.1189C66.1722 36.1189 65.775 36.1189 65.3789 36.1201C65.2312 36.1201 65.0847 36.1213 64.9324 36.1213C64.1765 36.1249 63.4441 36.1569 62.6953 36.2588C63.1863 37.7026 63.7207 39.125 64.2843 40.5415C64.3254 40.6435 64.3664 40.7454 64.4074 40.8509C65.6168 43.8949 66.8742 46.9104 68.216 49.8952C68.3238 50.137 68.4316 50.3776 68.5394 50.6183C70.2515 54.4517 72.0761 58.2247 73.9453 61.9811C74.891 61.9953 75.8179 61.9693 76.7578 61.8626C76.8316 61.667 76.8316 61.667 76.9078 61.4678C77.8593 58.9596 78.8214 56.4668 79.9359 54.0273C80.0484 53.7808 80.1609 53.5354 80.2722 53.2889C81.0234 51.6353 81.7781 49.9841 82.5375 48.3341C84.0046 45.149 85.3816 41.9331 86.6238 38.6509C86.6859 38.4849 86.7492 38.3201 86.8136 38.1542C86.9004 37.9266 86.9859 37.699 87.0703 37.4702C87.1183 37.3422 87.1675 37.213 87.2168 37.0803C87.3093 36.7128 87.2929 36.5018 87.1875 36.1403C85.8117 36.0312 84.4429 36.0028 83.0636 36.0063C82.7238 36.0075 82.3839 36.0063 82.0453 36.0051C81.8273 36.0051 81.6082 36.0063 81.3902 36.0063C81.2894 36.0063 81.1898 36.0051 81.0867 36.0051C80.53 36.0075 80.0027 36.0466 79.4531 36.1403ZM92.5148 36.0265C92.2371 36.0324 91.9593 36.0419 91.6816 36.0526C91.5597 36.0561 91.5597 36.0561 91.4355 36.0585C91.0546 36.0774 90.8531 36.1142 90.5531 36.3596C90.3492 36.6429 90.225 36.9191 90.0949 37.2438C90.041 37.36 89.9871 37.4762 89.932 37.5947C89.8148 37.846 89.7011 38.0985 89.591 38.351C89.3496 38.8939 89.0789 39.4202 88.8105 39.95C88.016 41.5218 87.2754 43.1197 86.55 44.7246C86.3449 45.1775 86.1386 45.6303 85.93 46.0819C84.1066 50.0469 82.4449 54.0807 80.7937 58.1216C80.7457 58.2377 80.6976 58.3551 80.6484 58.476C80.5136 58.8067 80.3789 59.1374 80.2441 59.4693C80.2043 59.5665 80.1644 59.6625 80.1246 59.7621C79.6547 60.7839 79.6546 60.7839 79.4531 61.8626C79.7683 61.8756 80.0824 61.8851 80.3976 61.8922C80.53 61.8981 80.53 61.8981 80.6648 61.9041C81.5074 61.9195 81.9703 61.6445 82.5996 61.0992C82.7074 60.9937 82.814 60.8894 82.9253 60.7815C83.5816 60.1521 84.2777 59.5985 84.9996 59.0485C85.33 58.7961 85.6546 58.5365 85.9793 58.2769C90.6105 54.5892 90.6105 54.5892 92.6589 53.1419C93.5648 52.5018 94.4519 51.8368 95.3402 51.1706C95.6285 50.9549 95.9179 50.7392 96.2074 50.5246C97.2738 49.734 98.3308 48.9327 99.3749 48.1124C99.6292 47.9145 99.8824 47.7177 100.137 47.5197C100.262 47.4225 100.387 47.3241 100.513 47.2269C100.782 47.0171 101.053 46.8073 101.325 46.5975C101.394 46.543 101.464 46.4896 101.536 46.4339C101.669 46.3308 101.803 46.2265 101.937 46.1234C102.191 45.9278 102.43 45.7334 102.656 45.5046C102.621 45.0506 102.548 44.6097 102.475 44.1604C102.132 41.8988 102.429 39.624 103.711 37.6812C104.031 37.2711 104.384 36.8942 104.747 36.5231C105.014 36.3062 105.014 36.3062 105 36.1403C104.273 36.0478 103.567 36.0051 102.835 36.0063C102.73 36.0063 102.625 36.0063 102.516 36.0063C102.169 36.0051 101.823 36.0051 101.477 36.0063C101.234 36.0063 100.991 36.0063 100.747 36.0063C100.237 36.0051 99.7277 36.0063 99.2191 36.0063C98.5711 36.0075 97.9242 36.0063 97.2761 36.0063C96.7734 36.0051 96.2707 36.0051 95.7679 36.0063C95.53 36.0063 95.291 36.0063 95.0531 36.0051C94.207 36.0051 93.3609 36.0123 92.5148 36.0265ZM22.1484 36.3773C22.3184 36.5362 22.4894 36.6938 22.6617 36.8515C22.7566 36.9392 22.8516 37.0281 22.95 37.1182C23.1797 37.3505 23.1797 37.3505 23.4375 37.3256C23.4691 37.3956 23.5008 37.4643 23.5336 37.5366C23.6695 37.795 23.8183 37.9965 24.0012 38.2218C25.3125 39.9702 25.3453 41.9841 25.0781 44.0822C26.1422 44.6334 27.2121 45.1573 28.3125 45.6314C28.8422 45.8626 29.3637 46.1115 29.8863 46.3593C30.6973 46.7433 31.5129 47.1179 32.3297 47.4901C32.4082 47.5257 32.4855 47.5624 32.5676 47.5991C33.9445 48.2274 35.3273 48.8473 36.7125 49.4602C37.2211 49.6854 37.7297 49.9118 38.2383 50.1382C39.4758 50.6882 40.7144 51.2382 41.9531 51.787C42.048 51.8297 42.1441 51.8712 42.2426 51.915C44.8922 53.0897 47.5476 54.249 50.2066 55.4C51.5027 55.9607 52.7976 56.5225 54.089 57.0915C55.9066 57.8904 57.7289 58.674 59.5535 59.4551C60.1793 59.723 60.805 59.9933 61.4297 60.2635C61.8445 60.4425 62.2605 60.6215 62.6754 60.8005C62.8734 60.8858 63.0715 60.9712 63.2695 61.0577C63.5425 61.1763 63.8156 61.2948 64.0898 61.4121C64.2117 61.4655 64.2117 61.4655 64.3359 61.52C64.5281 61.6018 64.725 61.6741 64.9218 61.744C64.9992 61.7049 65.0765 61.6658 65.1562 61.6255C64.4636 61.0909 63.7476 60.6606 62.9742 60.2623C62.3437 59.9364 61.8199 59.6187 61.309 59.1185C60.9644 58.8221 60.5836 58.5945 60.198 58.3587C58.5 57.3132 56.9461 56.0519 55.3699 54.8322C54.6808 54.3 53.9836 53.7832 53.2758 53.2782C52.7379 52.8918 52.2047 52.4994 51.6726 52.1059C51.5777 52.0359 51.4828 51.966 51.3844 51.8949C50.8969 51.5322 50.4574 51.1659 50.039 50.7202C49.923 50.623 49.807 50.5246 49.6875 50.4239C49.282 50.0825 48.9152 49.7174 48.559 49.3238C47.8394 48.5557 46.7097 47.4628 45.6305 47.3609C45.0445 47.3692 44.6519 47.611 44.1656 47.9204C42.5765 48.8995 41.1492 48.8082 39.375 48.4099C37.7215 47.9879 36.3234 47.0124 35.4269 45.5497C34.3793 43.6495 34.3207 41.785 34.6875 39.6964C34.7191 39.5956 34.7508 39.4948 34.7836 39.3905C34.834 39.0847 34.834 39.0847 34.6183 38.8002C32.1551 36.2766 27.9914 36.1403 24.7031 36.113C24.525 36.113 24.348 36.1118 24.1699 36.1106C24.0832 36.1106 23.9953 36.1095 23.9062 36.1083C23.6578 36.1071 23.4094 36.1083 23.1609 36.1095C23.0168 36.1095 22.8726 36.1095 22.7238 36.1095C22.3676 36.1047 22.3676 36.1047 22.1484 36.3773ZM35.1562 36.3773C35.318 36.503 35.482 36.6263 35.6473 36.7484C35.7387 36.8171 35.8289 36.8859 35.9226 36.9558C36.2074 37.1241 36.2074 37.1241 36.5144 37.0103C36.8941 36.797 37.1777 36.554 37.5 36.2588C37.5 36.2197 37.5 36.1806 37.5 36.1403C37.1976 36.1343 36.8941 36.1296 36.5918 36.126C36.5062 36.1237 36.4207 36.1213 36.3328 36.1201C35.8828 36.1154 35.5371 36.1201 35.1562 36.3773ZM44.7656 36.1403C44.8781 36.2742 44.9894 36.407 45.1019 36.5397C45.1957 36.6512 45.1957 36.6512 45.2906 36.765C45.4922 36.9961 45.7066 37.2059 45.9305 37.4145C46.4695 37.9527 46.8492 38.5608 47.2265 39.2222C47.2969 39.3455 47.2969 39.3455 47.3695 39.4699C48.0246 40.6944 48.314 42.2105 48.0914 43.5855C47.9097 44.0099 47.6883 44.3927 47.441 44.7804C47.3144 45.0257 47.3144 45.0257 47.4246 45.2581C47.6051 45.5485 47.7937 45.7061 48.0656 45.9112C48.164 45.9882 48.2637 46.0641 48.3668 46.1423C48.4734 46.2229 48.5812 46.3035 48.6914 46.3865C48.8027 46.4707 48.9129 46.5548 49.0277 46.6414C49.7953 47.2234 50.5699 47.7935 51.3504 48.3578C52.1402 48.9303 52.9113 49.5265 53.6824 50.124C54.3832 50.6669 55.091 51.2003 55.8035 51.7278C57.7722 53.1917 57.7722 53.1917 58.5504 54.0096C60.2777 55.79 62.5113 57.0204 64.6488 58.22C66.7441 59.4006 66.7441 59.4006 67.4414 60.1438C68.3214 61.0743 69.341 61.6018 70.5468 61.9811C70.5855 61.9029 70.6242 61.8246 70.664 61.744C70.5656 61.4501 70.4578 61.1703 70.3394 60.8847C70.3031 60.7958 70.2679 60.7068 70.2304 60.6156C70.1097 60.3204 69.9879 60.0241 69.866 59.7289C69.7804 59.5215 69.6949 59.3129 69.6105 59.1054C68.7316 56.9635 67.8281 54.8322 66.9187 52.7033C66.7383 52.2801 66.5578 51.857 66.3785 51.4326C64.8211 47.7521 63.1746 44.1106 61.4906 40.4882C61.2703 40.0117 61.0511 39.534 60.832 39.0563C60.7183 38.8085 60.6047 38.562 60.491 38.3142C60.4183 38.1554 60.3457 37.9965 60.273 37.8389C60.1734 37.6196 60.0726 37.4015 59.973 37.1834C59.9156 37.0589 59.8582 36.9345 59.7996 36.8064C59.6484 36.4805 59.6484 36.4805 59.414 36.1403C59.1468 36.0869 59.1468 36.0869 58.8293 36.0976C58.6441 36.0964 58.6441 36.0964 58.4554 36.0964C58.2515 36.0976 58.2515 36.0976 58.0429 36.1C57.9 36.1 57.757 36.1 57.6093 36.1C57.2168 36.1 56.8254 36.1023 56.4328 36.1047C56.0226 36.1071 55.6125 36.1071 55.2023 36.1071C54.4265 36.1083 53.6496 36.1106 52.8726 36.1142C51.989 36.1189 51.1054 36.1201 50.2207 36.1225C48.4031 36.126 46.5844 36.132 44.7656 36.1403ZM7.85156 36.4959C8.16562 36.8799 8.57578 37.053 9.01524 37.2533C9.09492 37.2901 9.17344 37.3268 9.25547 37.3647C9.42188 37.4418 9.58945 37.5177 9.75585 37.5935C10.0113 37.7109 10.2656 37.8294 10.5211 37.9491C10.6828 38.0238 10.8457 38.0985 11.0074 38.172C11.0836 38.2075 11.1598 38.2443 11.2383 38.281C11.5371 38.415 11.775 38.5145 12.1055 38.4968C12.4078 38.3391 12.5379 38.0629 12.723 37.7832C13.0031 37.4145 13.3664 37.1798 13.7473 36.9262C14.0109 36.7448 14.2711 36.5634 14.5312 36.3773C14.5312 36.3382 14.5312 36.2991 14.5312 36.2588C12.2906 36.2327 10.0816 36.2387 7.85156 36.4959ZM131.655 36.8302C130.808 36.8278 130.172 37.1123 129.441 37.5105C129.35 37.5591 129.26 37.6066 129.168 37.6563C128.219 38.2064 127.819 39.0302 127.475 40.0543C127.076 41.5811 127.25 43.0794 127.989 44.4662C128.609 45.4145 129.506 46.0202 130.595 46.2846C131.641 46.4565 132.543 46.3735 133.477 45.8602C133.585 45.801 133.694 45.7417 133.807 45.68C134.95 44.957 135.419 43.8582 135.755 42.5709C135.97 41.2729 135.853 39.905 135.153 38.7706C134.467 37.8235 133.595 37.1241 132.451 36.874C132.186 36.8562 131.921 36.8491 131.655 36.8302ZM105.641 38.3853C104.842 39.5197 104.596 40.8165 104.801 42.1821C105.098 43.7918 105.701 44.8515 106.992 45.8602C107.572 46.2561 107.971 46.2158 108.633 46.0973C109.085 46.0001 109.533 45.8875 109.98 45.7713C110.096 45.7429 110.214 45.7144 110.333 45.6848C111.156 45.4714 111.894 45.2083 112.477 44.5575C113.106 43.4397 113.26 42.3421 113.005 41.0737C112.53 39.3787 111.683 38.2265 110.183 37.3446C108.67 36.548 106.737 37.1692 105.641 38.3853ZM15.0809 38.7777C14.1586 39.9548 13.9137 41.6759 14.0625 43.1339C14.3273 44.343 15.1664 45.2628 16.1719 45.9266C17.0812 46.4245 17.8395 46.4007 18.8227 46.121C20.1035 45.6599 21.7512 44.9665 22.4637 43.742C22.9523 42.5614 22.7273 41.4874 22.3828 40.3044C22.3336 40.1302 22.3336 40.1302 22.2844 39.9536C22.0137 39.093 21.6164 38.3557 20.8324 37.8768C18.9059 36.9143 16.5762 37.1834 15.0809 38.7777ZM39.968 37.3482C39.7887 37.3873 39.7887 37.3873 39.6058 37.4276C39.1781 37.5935 38.9754 37.8093 38.6719 38.1554C38.5863 38.2514 38.5008 38.3462 38.4129 38.4446C37.1531 39.9536 36.5437 41.2681 36.6797 43.2524C36.8707 44.2292 37.4051 44.8313 38.2031 45.3861C39.7523 46.2846 41.223 46.3344 42.9422 45.942C43.8527 45.6883 44.4715 45.2249 45 44.4378C45.6492 43.269 45.4711 41.6344 45.1394 40.385C45.0621 40.1136 44.9765 39.8445 44.8828 39.5778C44.8418 39.4569 44.7996 39.3348 44.7574 39.2104C44.4269 38.7078 43.9969 38.5193 43.4695 38.2597C43.3687 38.2075 43.2691 38.1566 43.1648 38.1044C41.6402 37.3007 41.6402 37.3007 39.968 37.3482ZM73.0523 37.718C72.9574 37.7547 72.8625 37.7915 72.7652 37.8294C72.58 37.9017 72.3949 37.9752 72.2109 38.0511C72.0468 38.1175 71.8793 38.1815 71.7117 38.2395C71.3426 38.3759 71.1597 38.4659 70.9547 38.8097C70.9218 38.9223 70.8879 39.0337 70.855 39.1487C70.8199 39.259 70.7847 39.3704 70.7496 39.4842C70.3711 40.9552 70.3183 42.706 71.0156 44.0822C71.6156 45.0945 72.4629 45.7867 73.5937 46.0973C75.3316 46.3012 76.4625 45.8602 77.8781 44.8088C78.5086 44.2695 78.9492 43.6069 79.1015 42.7783C79.2164 41.2954 79.0078 40.0164 78.0363 38.863C77.175 37.9657 76.0054 37.3268 74.748 37.2936C74.1293 37.3019 73.6207 37.488 73.0523 37.718ZM79.2187 64.4561C79.0043 64.4668 78.7886 64.4775 78.5742 64.487C77.3718 64.5486 76.1754 64.6363 74.9777 64.7537C74.1738 64.8224 73.3746 64.8319 72.5683 64.8283C72.457 64.8283 72.3457 64.8272 72.2308 64.8272C71.666 64.8236 71.1023 64.8165 70.5375 64.807C70.33 64.8046 70.1226 64.8023 69.914 64.7999C69.8179 64.7975 69.7207 64.794 69.6222 64.7916C69.1336 64.7715 69.1336 64.7715 68.7105 64.9813C68.4597 65.3037 68.3953 65.6854 68.3062 66.0777C68.2757 66.2045 68.2757 66.2045 68.2453 66.3338C68.1 66.9667 67.9617 67.6116 67.9687 68.2635C68.2265 68.5243 68.7761 68.4721 69.1336 68.5077C69.2273 68.5184 69.3199 68.5302 69.4172 68.5409C71.2886 68.7341 73.2023 68.6144 75.0808 68.5753C75.2554 68.5717 75.2554 68.5717 75.4324 68.567C78.1418 68.5101 80.8476 68.3927 83.5546 68.2635C83.6285 67.3223 83.6918 66.3859 83.6871 65.4412C83.6871 65.3475 83.6871 65.2539 83.6882 65.1579C83.7281 64.7193 83.7281 64.7193 83.5546 64.3518C83.2675 64.34 82.9851 64.3364 82.698 64.3376C82.6089 64.3388 82.5199 64.3388 82.4285 64.3388C81.3574 64.3483 80.2886 64.4004 79.2187 64.4561ZM74.7656 72.2937C75.1886 72.5794 75.5566 72.6067 76.0488 72.6576C76.139 72.6683 76.2293 72.6778 76.323 72.6885C76.6125 72.7205 76.9007 72.7525 77.1902 72.7833C77.3859 72.8046 77.5816 72.826 77.7785 72.8485C78.2578 72.9018 78.7382 72.954 79.2187 73.005C79.2187 72.7703 79.2187 72.5356 79.2187 72.2937C78.6785 72.2736 78.1382 72.2546 77.5992 72.2368C77.4152 72.2309 77.2312 72.2238 77.0484 72.2167C76.7836 72.2072 76.5187 72.1989 76.255 72.1894C76.132 72.1847 76.132 72.1847 76.0078 72.1799C75.5754 72.1669 75.1863 72.1871 74.7656 72.2937ZM72.9316 75.819C71.7773 77.3683 71.1679 78.7433 71.25 80.7098C72.389 81.2148 73.6863 81.2242 74.9121 81.2586C75.0504 81.2622 75.1886 81.2669 75.3304 81.2717C75.7289 81.2835 76.1261 81.293 76.5234 81.3025C76.623 81.3048 76.7238 81.3084 76.8257 81.3108C77.8007 81.3357 78.7617 81.2977 79.732 81.2065C79.8269 81.1982 79.923 81.1899 80.0214 81.1816C80.5054 81.1294 80.782 81.0938 81.0937 80.7098C81.3832 79.8326 81.273 78.8737 80.9039 78.0451C80.0718 76.5136 78.8086 75.8048 77.2054 75.2939C76.5293 75.1232 75.8472 75.1113 75.1535 75.1019C75.0586 75.0995 74.9648 75.0971 74.8664 75.0947C74.08 75.0959 73.5 75.2251 72.9316 75.819ZM72.6562 83.1991C73.4343 86.3485 74.6332 89.2491 76.1718 92.0892C76.5375 91.9043 76.5539 91.6104 76.6886 91.2251C77.0203 90.3005 77.3777 89.3878 77.7421 88.4751C77.7984 88.3328 77.8547 88.1906 77.9132 88.0448C78.15 87.4509 78.3867 86.8571 78.6246 86.2632C78.8004 85.8246 78.9738 85.3872 79.1484 84.9486C79.2023 84.8147 79.2562 84.6796 79.3125 84.5409C79.3617 84.4164 79.4109 84.292 79.4625 84.1639C79.5058 84.0537 79.5492 83.9446 79.5949 83.832C79.7062 83.5475 79.7062 83.5475 79.6875 83.1991C77.3671 83.1991 75.0468 83.1991 72.6562 83.1991Z" fill="#6EBBA4"/>
</g>
<path d="M140.532 0.166016C142.028 0.166016 143.252 0.768689 144.206 1.97403H144.107C143.696 1.75287 143.302 1.64229 142.924 1.64229H142.726C141.954 1.64229 141.518 1.91321 141.42 2.45507L141.518 2.98586L141.42 4.39579L141.223 4.52848L141.321 4.59483V4.66118L141.124 4.79388L141.321 4.99293L141.223 5.34126L141.42 5.47396L141.223 5.60666L141.42 6.07111L141.223 6.40285L141.42 6.53555V6.68484L141.321 6.95023L141.42 7.21563V7.28198L141.223 7.48103V7.54738L141.814 8.6919C142.044 8.6919 142.447 8.94071 143.022 9.43833C141.888 10.323 141.321 10.8814 141.321 11.1137L141.223 11.5118L141.42 12.0425L141.321 12.988L141.42 13.7345L141.223 13.8672V13.9335L141.42 14.1325L141.321 14.5306L141.42 15.4098V15.5425L141.223 15.7415L141.42 15.8742L141.321 15.9406V16.0069L141.518 16.1396V16.7533C141.518 17.6491 142.151 18.0969 143.417 18.0969C144.567 18.0969 145.562 17.356 146.4 15.8742L146.499 15.1444L146.301 14.7297V14.6633H146.795V14.5306L146.696 14.597H146.597L146.203 14.4643L146.301 14.0662L146.203 12.8553C146.252 12.5899 146.351 12.4572 146.499 12.4572H147.016L147.214 12.5899L147.312 12.5236L148.298 12.5899L149.901 12.4572L150 12.5236L149.901 13.8672V14.1989L149.704 14.3316C149.901 14.8513 150 15.4098 150 16.0069C149.687 16.9911 149.285 17.6435 148.792 17.9642C148.068 18.8046 147.444 19.2249 146.918 19.2249C146.918 19.446 146.384 19.6064 145.315 19.7059L145.019 19.6395C145.019 19.9049 144.05 20.0376 142.11 20.0376C141.19 20.0376 140.031 19.7667 138.634 19.2249L138.437 19.3741L138.313 19.2912H138.215L137.524 19.4405C136.242 19.4405 134.779 19.059 133.136 18.296L133.037 18.2296V18.0969H133.136L134.738 18.296C135.462 18.1301 135.823 17.8371 135.823 17.4168C135.823 17.2399 135.889 17.1514 136.02 17.1514L135.922 16.8197L136.119 16.6206L135.922 16.405V16.1396L136.02 15.8079L135.922 15.7415H135.823L135.922 15.0614V13.9335L136.02 13.8672L135.922 13.6681L135.823 12.4572L135.922 12.0425L135.823 11.7108L135.922 11.18C135.922 10.7598 135.429 10.2235 134.442 9.57103C135.281 8.95177 135.84 8.36569 136.119 7.81278C135.922 7.50315 135.823 7.19352 135.823 6.88389L136.02 6.13746L135.823 5.34126L136.02 4.46213L135.922 4.19674V4.13039L136.02 4.06404V3.99769L135.823 3.86499V3.05221C135.626 2.11226 135.166 1.64229 134.442 1.64229H134.245C133.933 1.64229 133.563 1.77499 133.136 2.04038L133.037 1.97403C133.317 1.46536 133.818 1.06173 134.541 0.76316H134.64L135.034 0.912446H135.133V0.829509L134.738 0.76316C135.314 0.409297 136.045 0.232365 136.933 0.232365C137.557 0.232365 138.157 0.431413 138.732 0.829509C139.308 0.38718 139.908 0.166016 140.532 0.166016ZM135.922 1.11149L136.119 1.24419H136.242L136.02 1.11149H135.922ZM136.735 1.31054V1.44324L137.031 1.50959V1.37689L136.735 1.31054ZM137.722 1.64229V1.70864L138.017 1.77499V1.64229H137.722ZM138.313 1.77499V1.84134H138.732V1.77499H138.313ZM140.31 4.86023H140.409L140.631 4.72753H140.532L140.31 4.86023ZM139.225 5.54031V5.60666L139.423 5.47396V5.40761L139.225 5.54031ZM138.437 5.87206V5.93841L138.732 5.73936H138.634L138.437 5.87206ZM138.831 6.3365V6.40285L139.127 6.2038H139.028L138.831 6.3365ZM137.426 6.53555L137.228 6.75119H137.426L137.524 6.53555H137.426ZM136.735 7.08293V7.14928L136.933 7.01658V6.95023L136.735 7.08293ZM137.031 7.21563H137.13L137.327 7.08293H137.228L137.031 7.21563ZM149.507 13.1207V13.1871L149.704 13.0544V12.988L149.507 13.1207ZM147.608 13.0544V13.1871L147.904 13.1207V13.0544H147.608ZM148.298 13.8672V13.9999C148.956 13.834 149.326 13.6736 149.408 13.5188H149.309C148.948 13.751 148.611 13.8672 148.298 13.8672ZM139.62 16.5543V16.6206H139.719C140.228 16.5543 140.697 16.4161 141.124 16.206H141.025C140.335 16.4382 139.866 16.5543 139.62 16.5543ZM138.93 16.7533V16.8197H139.127L139.423 16.7533V16.687H139.225L138.93 16.7533ZM138.313 16.886L138.215 16.9524V17.0187H138.535L138.313 16.886ZM137.82 16.9524L137.722 17.0187V17.0851H137.82L138.116 17.0187V16.9524H137.82ZM137.327 17.1514H137.426L137.623 17.0187H137.524L137.327 17.1514ZM144.822 18.0969L145.019 18.2296H145.118L144.921 18.0969H144.822ZM145.512 18.296L145.71 18.4287H145.808L145.611 18.296H145.512ZM146.696 18.6941V18.7604L147.411 18.8268V18.6941H146.696Z" fill="#FFE9C3"/>
<path d="M132.125 0H132.224C132.224 0.0884658 132.322 0.132699 132.519 0.132699L132.618 1.95731C132.618 2.27799 132.421 2.53786 132.026 2.73691L132.125 2.67056H132.224L132.322 2.73691H132.421V2.53786L132.618 2.67056L132.519 3.20135L132.618 4.82691V5.93826C132.618 6.29213 132.487 6.46906 132.224 6.46906L131.459 6.40271L131.065 6.46906L130.301 6.40271L129.512 6.46906L129.413 5.87192L129.512 5.09231L129.413 4.82691L129.709 4.4454C129.512 4.40117 129.413 4.26847 129.413 4.04731L129.512 3.58286C129.512 3.18477 128.764 2.77561 127.268 2.3554L126.701 2.28905C125.37 2.28905 124.531 2.46045 124.186 2.80326H124.087C123.956 4.55046 123.825 5.52911 123.693 5.73922C123.841 5.73922 123.94 5.89403 123.989 6.20366L123.792 6.91692L123.989 7.04962L123.89 7.11596L123.989 7.18231V7.24866L123.89 7.63017C123.89 8.16097 124.112 8.42636 124.556 8.42636L125.345 8.22732L126.405 8.36001C126.98 8.24943 127.268 7.9011 127.268 7.31501C127.268 7.06067 127.046 6.81739 126.602 6.58517V6.46906H126.701C127.999 6.70128 128.649 7.08832 128.649 7.63017L128.747 7.89557V7.96192C128.747 8.55906 128.55 8.99586 128.156 9.27232C128.156 9.48242 128.287 9.58748 128.55 9.58748L128.821 10.45C128.509 11.3568 127.835 11.8102 126.8 11.8102L126.306 11.8765V11.8102C126.898 11.401 127.194 11.0748 127.194 10.8315C127.194 10.7209 126.832 10.6325 126.109 10.5661H125.813L125.148 10.6325L125.049 10.5661V10.5164C124.211 10.5495 123.792 10.6767 123.792 10.8979L123.989 11.1633L123.89 12.5234L123.989 12.5898V12.6561L123.792 13.1869V13.386H123.989V13.7675L123.792 14.1656L123.89 14.2319V14.2983L123.792 14.7461L123.89 15.476H123.792L124.087 16.0565L123.89 16.1892L123.989 16.3883L123.89 16.4546V16.521L124.087 16.8361L123.89 16.9688C124.137 17.1679 124.26 17.3835 124.26 17.6157L125.641 17.8811C126.775 17.8811 128.032 17.4886 129.413 16.7034L129.512 15.9902L129.413 15.9238V15.8575L129.512 15.0779L129.413 15.0115V14.9452L129.61 14.5471L129.413 14.0329L129.61 13.9002L129.413 13.7011V13.5187L129.512 13.4523V13.386L130.572 13.5187L130.868 13.386L131.854 13.4523H132.421L132.519 13.5187H132.618L132.421 13.9002V13.9665L132.618 14.4973V14.6798L132.421 15.2106L132.618 15.5921V15.7911C132.487 15.9681 132.289 16.0565 132.026 16.0565V16.1892L132.519 15.9902L132.618 16.4546V16.7034C132.585 17.1789 131.517 18.0304 129.413 19.2579C127.802 19.7776 126.767 20.0375 126.306 20.0375L126.208 19.9711L125.739 20.0375H125.345C123.685 20.0375 122.353 19.7113 121.351 19.0588C120.874 19.3685 120.521 19.5233 120.291 19.5233H119.798C118.861 19.5233 117.768 19.175 116.518 18.4783L116.321 18.3456L116.025 18.0802L116.124 18.0138C116.732 18.2792 117.151 18.4119 117.381 18.4119H117.874C118.45 18.235 118.737 17.9475 118.737 17.5494L118.639 17.3006L118.836 17.1679L118.639 16.8361L118.737 16.3883L118.639 15.8575L118.836 15.7248L118.54 15.5257L118.639 14.6798L118.54 14.4973L118.639 13.9002V13.6348L118.737 13.5684L118.54 13.3196L118.639 12.2746V12.0092L118.54 11.6111L118.737 11.3623C118.606 11.3623 118.54 11.296 118.54 11.1633L118.639 10.6988L118.442 10.5661H118.639V10.5164C118.277 10.5164 117.957 10.2731 117.677 9.78653L117.874 9.65383L117.776 9.58748H117.086V9.52113L118.54 8.29367V7.63017L118.639 7.24866L118.54 7.04962L118.737 6.27001C118.606 6.27001 118.54 6.20366 118.54 6.07096L118.639 5.15866L118.54 5.09231V5.02596L118.737 4.51175L118.54 4.24636L118.639 3.78191C118.589 2.60974 118.524 2.02365 118.442 2.02365L116.888 1.69191L115.927 2.15635H115.828V2.09C115.828 1.53709 116.798 0.973123 118.737 0.398096H119.625C120.184 0.398096 120.702 0.591615 121.178 0.978653C122.608 0.414683 123.578 0.132699 124.087 0.132699L125.444 0.199048L126.504 0.0663493C126.504 0.176932 126.923 0.243281 127.761 0.265397L130.473 1.045C130.835 1.045 131.385 0.696668 132.125 0ZM123.003 0.580557C123.003 0.669022 123.101 0.713255 123.299 0.713255H123.397V0.646906L123.003 0.580557ZM124.852 1.24405L125.049 1.37675H125.148L124.95 1.24405H124.852ZM119.329 1.4431L119.23 1.62556V1.69191H119.329L119.526 1.55921V1.50945L119.625 1.55921H119.995V1.50945L119.526 1.4431L119.428 1.50945L119.329 1.4431ZM126.602 1.75826V1.82461L127.194 1.95731H127.268V1.89096L126.701 1.75826H126.602ZM128.747 2.67056L129.216 2.93596V2.80326L128.821 2.67056H128.747ZM131.854 2.86961V3.06866H132.026V2.86961H131.854ZM129.906 4.24636H130.005L130.202 4.11366H130.103L129.906 4.24636ZM131.459 4.37906C131.459 4.46752 131.747 4.57257 132.322 4.69421H132.421V4.62787L131.459 4.37906ZM123.101 7.44771V7.51406L123.299 7.63017L123.496 7.51406L123.2 7.44771H123.101ZM122.805 7.82922V7.89557H123.101V7.76287L122.805 7.82922ZM122.238 8.16097L122.436 8.29367H122.805L122.633 8.16097H122.238ZM121.844 8.29367V8.42636L122.14 8.36001V8.22732L121.844 8.29367ZM127.662 8.60882V8.67517L128.057 8.36001V8.29367L127.662 8.60882ZM120.981 8.60882C120.866 8.78576 120.636 8.87422 120.291 8.87422V9.00692L121.252 8.67517V8.60882H120.981ZM119.033 9.20597L118.935 9.27232V9.33867H119.033L119.329 9.27232V9.20597H119.033ZM120.291 9.58748H120.389L120.784 9.47137V9.40502H120.685C120.422 9.47137 120.291 9.53219 120.291 9.58748ZM119.033 10.251V10.3173H119.329V10.1846L119.033 10.251ZM131.558 16.2556L131.361 16.3883V16.4546H131.558L131.755 16.2556H131.558ZM130.868 16.5707V16.7034L131.163 16.6371V16.5707H130.868ZM130.103 17.0352H130.202L130.374 16.9025H130.301L130.103 17.0352ZM129.117 17.4333H129.216L129.512 17.2342H129.413L129.117 17.4333ZM128.353 17.7484H128.451L128.649 17.6157H128.55L128.353 17.7484ZM127.465 17.9475V18.0138H127.564L128.156 17.8811V17.7484L127.465 17.9475ZM126.109 18.7271H126.208L126.405 18.5944H126.306L126.109 18.7271ZM124.852 19.2579H124.95L125.148 19.1252H125.049L124.852 19.2579ZM124.186 19.5233V19.5731L124.655 19.3906V19.3242H124.556L124.186 19.5233Z" fill="#FFE9C3"/>
<path d="M108.111 0.166016C108.916 0.166016 109.927 0.420355 111.144 0.929033V1.12808C110.683 1.12808 110.338 1.23313 110.108 1.44324H110.182C110.527 1.26631 110.848 1.17784 111.144 1.17784L111.242 1.12808V1.06173C111.571 1.11702 111.982 1.2829 112.475 1.55935C113.034 1.55935 113.313 1.37136 113.313 0.995382H113.708L113.609 0.929033V0.862684C114.119 0.398238 114.431 0.166016 114.546 0.166016L114.645 0.232365V0.547524L114.447 0.680223L114.645 1.17784L114.447 2.13991L114.645 3.10197L114.546 3.35078L114.645 3.41713L114.546 4.1138L114.645 5.07587L114.447 5.19198L114.546 5.25833V5.32468L114.447 5.39103V5.45737L114.645 6.3365V6.6019C114.645 6.91153 114.554 7.08293 114.373 7.11611L114.275 7.04976H114.176L113.806 7.11611L113.708 7.04976L113.215 7.11611H111.341C111.144 7.07188 111.045 6.93918 111.045 6.71801V5.83888L111.144 5.52372L110.946 5.39103V5.25833L111.341 4.94317H111.144V3.9811L111.045 3.93134V3.86499C111.193 3.86499 111.291 3.75994 111.341 3.54983L111.045 3.66594H110.946C110.946 3.44478 110.692 3.14621 110.182 2.77023V2.72046L110.281 2.65412V2.58777H110.182L110.108 2.65412H110.009C109.352 2.52142 108.686 2.45507 108.012 2.45507C106.566 2.45507 105.687 3.11303 105.374 4.42896C105.374 5.73383 106.443 6.83965 108.579 7.74643L109.541 7.68008H110.478C110.675 7.68008 110.774 7.9123 110.774 8.37675H110.675L111.242 9.27246C113.642 10.7321 114.842 11.7716 114.842 12.3909C114.957 12.3909 115.08 12.6065 115.212 13.0378L115.113 13.2866V13.4856L115.31 13.6681L115.212 14.0496L115.31 14.3648L115.113 14.6799L115.212 14.7463H115.31C115.212 15.642 114.99 16.0899 114.645 16.0899L114.743 16.3387C113.806 17.8647 112.861 18.7604 111.908 19.0258C111.546 19.4018 110.626 19.6948 109.146 19.9049C108.9 19.9934 108.555 20.0376 108.111 20.0376H107.248C106.508 20.0376 105.276 19.7004 103.55 19.0258L102.243 18.0637C102.095 17.8868 101.742 17.6767 101.183 17.4334C100.624 16.5819 100.345 16.0512 100.345 15.841L100.443 15.5756L100.345 15.3268L100.443 14.9453L100.345 14.879V14.8126L100.443 14.7463V14.6799L100.345 14.3648L100.443 13.8672L100.345 13.8008V13.7345L100.542 13.0875L100.345 12.706V12.5236C100.378 12.2692 100.468 12.1421 100.616 12.1421H101.183L101.282 12.2084L101.577 12.1421L101.676 12.2084H101.75C102.358 11.9541 102.835 11.8269 103.18 11.8269H103.648C103.911 11.8822 104.043 12.0702 104.043 12.3909V12.6563L103.846 12.8387V12.9051L104.043 13.0875V13.3529L103.846 13.8008L104.043 13.9169V14.2487L103.944 14.5638L104.142 15.4595C104.01 15.4595 103.944 15.5204 103.944 15.642C104.092 16.1064 104.626 16.6372 105.547 17.2344C106.303 17.5772 106.87 17.7486 107.248 17.7486H108.382C108.678 17.7486 109.155 17.4942 109.812 16.9856L110.379 17.1017H110.478V17.0519L109.911 16.9856V16.8529C110.24 16.3884 110.461 15.7083 110.576 14.8126C110.379 14.2597 109.935 13.6681 109.245 13.0378C108.489 12.4406 107.988 12.1421 107.741 12.1421L106.114 12.0757L105.177 12.1421L105.078 12.0757V12.0094L105.177 11.943V11.8933L104.98 11.3791V10.9312C104.569 10.3893 104.002 9.98572 103.279 9.72032C102.621 9.15635 102.054 8.77484 101.577 8.57579L100.715 7.43127L100.813 7.23222L100.542 6.71801L100.616 6.66825L100.246 5.57349V5.45737L100.715 3.66594L100.813 3.59959L100.715 3.54983V3.48348C101.158 2.47718 102.235 1.60358 103.944 0.862684L106.41 0.232365L108.111 0.166016ZM108.678 1.69205V1.82475L108.974 1.7584V1.69205H108.678ZM107.347 1.8911V2.00721L107.643 1.95745V1.8911H107.347ZM106.41 2.13991V2.20626H106.582L106.878 2.13991V2.07356H106.78L106.41 2.13991ZM103.18 3.15174H103.279L103.846 3.03562V2.96927H103.747C103.369 3.01351 103.18 3.07433 103.18 3.15174ZM103.476 3.28443L103.377 3.35078V3.41713H103.476L103.747 3.35078V3.28443H103.476ZM102.342 3.73229L102.243 3.79864V3.86499H102.342L102.613 3.79864V3.73229H102.342ZM114.176 3.86499H114.275L114.447 3.73229H114.373L114.176 3.86499ZM112.376 4.42896V4.56166L113.141 4.31285V4.18015L112.376 4.42896ZM100.813 4.42896V4.49531H101.183V4.42896H100.813ZM111.415 4.81047V4.87682H111.612L112.006 4.69436H111.908L111.415 4.81047ZM104.98 6.98341V7.04976H105.177L105.448 6.98341V6.91706H105.276L104.98 6.98341ZM104.61 7.11611V7.23222L104.881 7.16587V7.11611H104.61ZM103.944 7.43127H104.043L104.216 7.29857H104.142L103.944 7.43127ZM103.377 7.61373H103.476L103.648 7.49762V7.43127L103.377 7.61373ZM102.342 7.92889H102.416L102.613 7.81278H102.514L102.342 7.92889ZM101.676 15.0117V15.0614H102.145V15.0117H101.676ZM102.983 15.3932V15.5093L103.648 15.642C103.648 15.5756 103.427 15.4927 102.983 15.3932ZM110.774 17.1017V17.168L111.144 17.2344H111.341V17.168L110.848 17.1017H110.774ZM111.711 17.3671V17.4334L112.376 17.4832C112.376 17.4058 112.278 17.3671 112.08 17.3671H111.711ZM112.574 17.4832V17.6159H112.943V17.5495L112.574 17.4832Z" fill="#FFE9C3"/>
<path d="M84.0235 0.166016C84.6974 0.276598 85.3055 0.51435 85.8479 0.879271C86.4068 0.448 86.8917 0.232365 87.3026 0.232365H87.4012C88.2066 0.365064 88.8229 0.624932 89.2503 1.01197L89.0531 1.14467H89.2503L89.5462 1.07832L90.6063 1.92427V1.99062L89.8174 1.85792H89.2503C88.9544 1.85792 88.6915 2.29472 88.4613 3.16832L88.56 3.23467L88.3627 4.26309L88.4613 4.86023L88.2641 5.77253L88.4613 5.90523L88.3627 6.22039L88.4613 6.61849V6.68484H88.1901L88.3627 6.88389L88.2641 7.26539C88.2641 7.96206 88.8805 8.63661 90.1132 9.28905C89.653 9.70926 89.3325 9.94701 89.1517 10.0023L89.0531 9.93595C89.0531 10.1571 88.9216 10.2677 88.6586 10.2677L88.7572 10.3341V10.4004L88.2641 11.1137L88.4613 11.3127V11.4454L88.3627 11.6942L88.4613 11.9596V12.225L88.1901 12.4075C88.2559 12.8056 88.3463 13.0046 88.4613 13.0046L88.3627 13.3861L88.4613 14.6965L88.2641 14.8956L88.4613 15.4761V15.6088L88.3627 15.6752C88.8065 17.0243 89.5215 17.6988 90.5077 17.6988H91.272C92.6855 17.6988 93.5238 17.1127 93.7868 15.9406L93.7128 15.3434V14.9619L93.8854 14.7629L93.7128 14.6302V14.4975L93.8854 14.2984L93.7868 14.116L93.8854 14.0496L93.7128 13.9169L93.8854 12.6729L93.7868 11.8933H93.8854L93.7128 11.0473L93.7868 10.981V10.9146C93.7868 10.7377 93.5978 10.4336 93.2197 10.0023V9.86961L93.1211 9.93595H93.0225C93.0225 9.75902 92.891 9.67056 92.628 9.67056L92.1596 9.28905C93.1951 8.50391 93.7128 8.045 93.7128 7.9123L93.7868 7.59714L93.7128 7.39809L93.7868 7.33174H93.8854L93.7128 7H93.7868L93.7128 6.93365L93.7868 6.28674L93.7128 5.63984L93.8854 4.66118L93.7128 4.52848L93.7868 4.46213L93.7128 4.14698V4.08063L93.7868 4.01428L93.7128 3.94793V3.23467L93.8854 3.10197L93.7868 2.77023V2.32237L93.1211 1.79157H92.4308C92.2171 1.79157 91.9952 1.85792 91.7651 1.99062H91.6665V1.92427C92.1924 1.26078 92.8992 0.785276 93.7868 0.497762L94.0826 0.564112L94.3785 0.365064H94.5757C94.888 0.365064 95.3072 0.536466 95.8331 0.879271C96.2276 0.624932 96.6467 0.497762 97.0905 0.497762H97.2878C98.8985 0.895858 99.7039 1.32713 99.7039 1.79157L99.9012 1.92427V1.99062H99.8026L98.4465 1.79157C98.0028 1.8911 97.7809 2.17308 97.7809 2.63753L97.8548 2.90293L97.6822 3.30102L97.8548 3.68253V5.83888L97.7809 6.22039L97.8548 6.61849L97.7809 7L97.8548 7.46444L97.7809 7.66349C97.7809 7.8736 98.3233 8.37122 99.4081 9.15635V9.3554C98.6684 9.8309 98.0932 10.3064 97.6822 10.7819L97.7809 10.8483H97.8548L97.6822 11.6279L97.8548 11.9596L97.7809 12.2914L97.8548 13.0046V13.1373L97.6822 13.5188L97.8548 13.8506L97.7809 14.6302L97.8548 14.8292L97.6822 14.9619L97.8548 15.078V15.1444C97.8548 15.4651 97.7644 15.642 97.5836 15.6752L97.2878 15.6088C97.2878 15.6973 97.4193 15.7415 97.6822 15.7415L97.7809 15.8079V15.8742C97.7809 16.394 97.3535 17.1514 96.4988 18.1467C95.2989 19.4073 93.5567 20.0376 91.272 20.0376H90.5077L89.916 19.9713L89.5462 20.0376C87.8368 19.8607 86.5054 19.5566 85.5521 19.1253C84.5166 18.5061 83.8427 17.7873 83.5304 16.969L83.629 16.9026V16.8529L83.1359 15.2107L83.2345 14.7629L83.1359 14.1657L83.3331 13.7179C83.2016 13.7179 83.103 13.2424 83.0373 12.2914L83.2345 11.7606L83.0373 11.3791V11.18L83.1359 10.9146C83.1359 10.5939 82.6181 10.0521 81.5826 9.28905L83.0373 8.11135C83.0373 7.94547 83.1688 7.72984 83.4318 7.46444C83.2838 7.46444 83.1523 7.37598 83.0373 7.19904V7.06635H83.1359L83.0373 6.61849C83.0373 5.78912 83.3331 5.37444 83.9249 5.37444V5.30809H83.7276L83.3331 5.44079L83.1359 5.05928V4.86023L83.2345 4.59483L83.0373 4.26309V4.14698H83.1359C83.0373 2.62094 82.7496 1.85792 82.273 1.85792H81.1142L80.8183 1.99062H80.7197V1.79157C81.2786 1.08385 82.3798 0.541995 84.0235 0.166016ZM82.9387 2.12332V2.25602L83.629 2.38872H83.8262V2.32237L82.9387 2.12332ZM85.2809 2.63753V2.70388H85.7493V2.63753H85.2809ZM85.9465 2.77023V2.83658L86.5383 2.96927H86.6369V2.90293L86.0452 2.77023H85.9465ZM95.34 3.41713C95.8331 3.25126 96.129 3.10197 96.2276 2.96927H96.129C95.6195 3.11303 95.3565 3.26232 95.34 3.41713ZM94.1813 3.68253V3.74888H94.6744V3.68253H94.4771V3.61618L94.1813 3.68253ZM85.8479 4.86023V4.99293L86.1438 4.92658V4.86023H85.8479ZM85.0836 5.05928V5.12563H85.1822L85.6507 5.05928V4.99293H85.3795L85.0836 5.05928ZM95.2414 9.6208L95.5373 9.55445V9.42175L95.2414 9.6208ZM83.7276 10.0687V10.135L84.1221 10.2677H84.1961C84.1961 10.2014 84.0728 10.135 83.8262 10.0687H83.7276ZM86.6369 11.3791L86.5383 11.4454V11.4952H86.9081V11.4454L86.6369 11.3791ZM84.5905 12.9383V13.0046L85.3795 13.2037C85.3795 13.1263 85.1494 13.0378 84.6892 12.9383H84.5905ZM94.8716 13.071V13.1373L95.0688 13.0046V12.9383L94.8716 13.071ZM86.8341 13.6515V13.7179L86.9081 13.7842H87.2039V13.7179L86.8341 13.6515ZM87.4012 13.8506V13.9169L87.9929 14.0496C87.9929 13.9722 87.8285 13.9059 87.4998 13.8506H87.4012ZM94.6744 15.078V15.2107L95.0688 15.2771V15.1444L94.6744 15.078ZM93.8854 15.2107L94.0826 15.3434H94.1813L93.984 15.2107H93.8854ZM95.5373 15.2771V15.3434L95.9318 15.4098C95.9318 15.3213 95.8331 15.2771 95.6359 15.2771H95.5373ZM96.129 15.3434V15.4761H96.5974V15.4098L96.129 15.3434ZM94.3785 15.4761L94.5757 15.6088H94.6744L94.4771 15.4761H94.3785ZM96.7947 15.5425V15.6088L97.0905 15.6752H97.1891V15.6088L96.8933 15.5425H96.7947ZM95.1428 15.7415V15.8079L95.7345 16.0567V15.9406L95.1428 15.7415ZM96.0304 16.1894C96.0304 16.2778 96.1619 16.3221 96.4248 16.3221V16.4548H96.6961V16.3884L96.0304 16.1894ZM96.6961 16.5211V16.5875L97.0905 16.6538C97.0905 16.5654 96.9919 16.5211 96.7947 16.5211H96.6961ZM85.9465 18.0803V18.1467H86.4396V18.0803H85.9465ZM85.4781 18.213V18.3457L85.7493 18.2794V18.213H85.4781Z" fill="#FFE9C3"/>
<path d="M71.9428 0.0996094C73.4385 0.0996094 74.8438 0.514293 76.1588 1.34366C77.4573 2.37207 78.1065 3.33967 78.1065 4.24644C78.0736 4.68877 78.0079 4.90994 77.9093 4.90994L78.1065 5.15875C78.1065 6.19822 77.5805 7.18793 76.5286 8.12788C76.3642 8.12788 75.9122 8.4541 75.1726 9.10653V9.23923C76.7176 9.68156 77.597 10.1239 77.8106 10.5662L78.0079 10.8316L77.9093 11.0307H78.0079C78.2051 11.0307 78.3037 11.2684 78.3037 11.7439V12.0093L78.2051 12.4074L78.3037 12.4738L78.2051 12.9382L78.3037 13.6515L78.1065 13.9169L78.2051 14.1159L78.0079 14.9784C78.2051 15.4318 78.3695 16.2612 78.501 17.4665C78.9119 17.7762 79.2653 17.931 79.5611 17.931H79.6597C79.9063 17.931 80.1693 17.8425 80.4487 17.6656H80.5473V17.7319C80.5473 17.9642 80.4487 18.0969 80.2515 18.13H79.9556L79.3639 18.0637H79.2653V18.13L80.2515 18.2627C79.8734 18.882 78.7311 19.4515 76.8244 19.9712L76.43 20.0376H76.1588C75.3862 20.0376 74.7288 19.728 74.1864 19.1087C73.907 19.1087 73.4878 18.7825 72.929 18.13L73.0276 18.0637V17.9973L72.929 17.5992L73.2248 17.6656H73.3235V17.5992C73.192 17.5992 73.1262 17.5329 73.1262 17.4002L72.8304 17.2011L72.929 17.0187L72.8304 16.7533L73.0276 15.8907L72.8304 15.7581V15.36L73.0276 15.2273L72.929 14.7794L73.0276 14.5804L72.929 14.1823V13.9832L73.0276 13.7178L72.929 13.4524V13.3861L73.0276 12.8719L72.929 12.3411L73.0276 12.2747V12.2084C72.8797 12.2084 72.7811 11.9208 72.7317 11.3458C72.7317 11.003 71.8524 10.8095 70.0937 10.7653H68.8116V13.0046L68.713 14.2486L68.8116 14.5804L68.713 14.6467L68.8116 14.9784V15.4927L68.6144 15.6254L68.8116 16.0898L68.713 16.1561L68.8116 16.2225L68.713 16.2888H68.6144L68.8116 16.9523L68.713 17.0187V17.0685L68.8116 17.3338L68.713 17.5329C69.1897 18.1964 69.7156 18.5281 70.2909 18.5281C70.6032 18.5281 70.9566 18.3954 71.3511 18.13H71.4497V18.1964C71.2196 18.6055 70.8991 18.8875 70.4882 19.0423C69.9951 19.7058 69.3376 20.0376 68.5158 20.0376C67.6446 19.9712 66.831 19.6837 66.0749 19.175C65.4832 19.6616 64.9326 19.9049 64.4231 19.9049H64.2258C63.2232 19.9049 62.048 19.3354 60.7002 18.1964V18.13L62.1548 18.3954L62.7465 18.3291L63.0424 18.3954L62.9438 18.3291V18.2627C63.0917 18.2627 63.289 17.9973 63.5355 17.4665C63.404 17.4665 63.3383 17.4002 63.3383 17.2675L63.4369 17.2011L63.3383 16.886V16.7533L63.4369 16.2225L63.3383 15.8244L63.4369 15.6254L63.3383 15.2273V14.9121L63.4369 14.8457L63.3383 14.7794V12.7392L63.5355 12.5401L63.3383 11.0307L63.4369 10.8316L61.9822 9.77002L61.8836 9.70368V9.63733C62.9191 8.84113 63.4369 8.29375 63.4369 7.99518L63.5355 7.53073L63.4369 7.46439V7.33169L63.5355 7.08288L63.3383 6.68478V6.61843L63.5355 6.48573L63.3383 6.02129L63.4369 5.68954L63.3383 5.0924V4.51184L63.4369 4.18009L63.3383 3.71565L63.5355 2.13985C63.1081 1.83022 62.6808 1.67541 62.2534 1.67541L60.7002 2.2062V2.13985C61.4398 1.41001 62.3192 0.928976 63.3383 0.696753C63.5026 0.519822 63.93 0.431356 64.6203 0.431356C65.0641 0.486647 65.5818 0.724399 66.1736 1.14461C67.6693 0.492176 68.713 0.165959 69.3047 0.165959H69.4033L69.502 0.232308L71.9428 0.0996094ZM67.0611 1.0285V1.09485H67.5542V1.0285H67.0611ZM68.9102 1.0285V1.09485L69.4033 1.14461H69.502V1.09485L69.0089 1.0285H68.9102ZM69.6992 1.14461V1.21096L70.1923 1.27731H70.4882V1.14461H70.3895L69.9951 1.21096L69.8964 1.14461H69.6992ZM71.1538 1.34366V1.41001L71.5483 1.47636V1.34366H71.1538ZM72.4359 1.47636V1.54271L73.1262 1.60906H73.3235V1.54271L72.7317 1.47636H72.4359ZM73.496 1.60906V1.67541H73.8905V1.60906H73.496ZM74.0878 1.74176V1.8081L74.7781 1.87445H75.2712V1.8081L74.1864 1.74176H74.0878ZM75.4684 1.87445V1.9408L76.0601 2.00715H76.2574V1.9408L75.6657 1.87445H75.4684ZM69.8964 2.13985C69.8964 2.27255 69.8307 2.3389 69.6992 2.3389L69.6006 2.27255L69.1075 2.3389H68.8116V3.00239L68.713 3.2512L68.8116 3.31755V3.3839L68.713 3.9147L68.8116 4.84359L68.713 5.2251L68.8116 5.75589V6.22034L68.6144 6.41938L68.8116 6.81748L68.713 7.26534L68.8116 7.53073L68.713 7.79613C68.713 8.19423 68.9102 8.39328 69.3047 8.39328L70.6607 8.45963C71.9757 8.20529 72.6331 7.76296 72.6331 7.13264C72.6331 6.78983 72.7975 6.61843 73.1262 6.61843V6.55208C72.8632 6.55208 72.7317 6.48573 72.7317 6.35303V5.04263L72.929 4.90994C72.6824 3.41708 72.3537 2.67065 71.9428 2.67065C71.9428 2.50477 71.4579 2.37207 70.4882 2.27255V2.2062L70.3895 2.27255H69.9951V2.13985H69.8964ZM75.4684 7.33169V7.39804H75.6657L76.0601 7.19899H75.9615L75.4684 7.33169ZM64.2258 7.53073V7.66343L64.6203 7.79613V7.72978L64.2258 7.53073ZM73.9891 7.86248V7.92883H74.285L74.3836 7.86248V7.79613H74.285L73.9891 7.86248ZM72.7317 8.19423V8.32693L73.0276 8.26058V8.19423H72.7317ZM71.5483 8.59232V8.72502L72.0414 8.59232V8.52597H71.8442L71.5483 8.59232ZM70.4882 8.85772L70.5868 8.92407V8.99042L70.9566 8.92407V8.79137L70.4882 8.85772ZM68.9102 9.17288V9.23923H69.2061L69.8964 9.10653V9.05677H69.6006L68.9102 9.17288ZM70.7594 9.10653V9.17288H71.2525V9.10653H70.7594ZM72.8304 9.37193V9.43828L73.3235 9.50463H73.496V9.43828L72.929 9.37193H72.8304ZM73.7919 9.50463C73.7919 9.59309 73.8905 9.63733 74.0878 9.63733H74.1864V9.57098L73.7919 9.50463ZM66.568 9.63733V9.77002L67.0611 9.70368V9.63733H66.568ZM74.9753 9.77002V9.83637L75.3698 9.90272H75.5671V9.83637L75.074 9.77002H74.9753ZM63.93 9.90272V9.96907H64.4231V9.90272H63.93ZM64.8176 9.90272C64.8176 10.0244 64.4231 10.1349 63.6341 10.2345V10.3008H63.93C64.4888 10.1239 64.908 10.0354 65.1874 10.0354V9.90272L65.0888 9.96907H64.9901L64.9162 9.90272H64.8176ZM76.5286 10.1681V10.3008H76.9231V10.2345L76.5286 10.1681ZM69.0089 10.2345V10.3672H69.3047V10.3008L69.0089 10.2345ZM74.5809 17.6656V17.7319L75.6657 17.931H75.9615C75.9615 17.8646 75.5342 17.7762 74.6795 17.6656H74.5809ZM76.2574 17.8646L76.1588 17.931V17.9973H77.0217V17.931L76.2574 17.8646ZM77.9093 17.9973C77.9093 18.0858 78.0079 18.13 78.2051 18.13H78.3037V18.0637L77.9093 17.9973Z" fill="#FFE9C3"/>
<path d="M51.9233 0.0996094C53.419 0.0996094 54.8243 0.514293 56.1392 1.34366C57.4377 2.37207 58.087 3.33967 58.087 4.24644C58.0541 4.68877 57.9883 4.90994 57.8897 4.90994L58.087 5.15875C58.087 6.19822 57.561 7.18793 56.5091 8.12788C56.3447 8.12788 55.8927 8.4541 55.153 9.10653V9.23923C56.6981 9.68156 57.5774 10.1239 57.7911 10.5662L57.9883 10.8316L57.8897 11.0307H57.9883C58.1856 11.0307 58.2842 11.2684 58.2842 11.7439V12.0093L58.1856 12.4074L58.2842 12.4738L58.1856 12.9382L58.2842 13.6515L58.087 13.9169L58.1856 14.1159L57.9883 14.9784C58.1856 15.4318 58.3499 16.2612 58.4814 17.4665C58.8924 17.7762 59.2457 17.931 59.5416 17.931H59.6402C59.8868 17.931 60.1497 17.8425 60.4292 17.6656H60.5278V17.7319C60.5278 17.9642 60.4292 18.0969 60.2319 18.13H59.9361L59.3444 18.0637H59.2457V18.13L60.2319 18.2627C59.8539 18.882 58.7116 19.4515 56.8049 19.9712L56.4104 20.0376H56.1392C55.3667 20.0376 54.7093 19.728 54.1668 19.1087C53.8874 19.1087 53.4683 18.7825 52.9095 18.13L53.0081 18.0637V17.9973L52.9095 17.5992L53.2053 17.6656H53.3039V17.5992C53.1724 17.5992 53.1067 17.5329 53.1067 17.4002L52.8108 17.2011L52.9095 17.0187L52.8108 16.7533L53.0081 15.8907L52.8108 15.7581V15.36L53.0081 15.2273L52.9095 14.7794L53.0081 14.5804L52.9095 14.1823V13.9832L53.0081 13.7178L52.9095 13.4524V13.3861L53.0081 12.8719L52.9095 12.3411L53.0081 12.2747V12.2084C52.8601 12.2084 52.7615 11.9208 52.7122 11.3458C52.7122 11.003 51.8329 10.8095 50.0741 10.7653H48.7921V13.0046L48.6935 14.2486L48.7921 14.5804L48.6935 14.6467L48.7921 14.9784V15.4927L48.5949 15.6254L48.7921 16.0898L48.6935 16.1561L48.7921 16.2225L48.6935 16.2888H48.5949L48.7921 16.9523L48.6935 17.0187V17.0685L48.7921 17.3338L48.6935 17.5329C49.1701 18.1964 49.6961 18.5281 50.2714 18.5281C50.5837 18.5281 50.9371 18.3954 51.3315 18.13H51.4302V18.1964C51.2001 18.6055 50.8795 18.8875 50.4686 19.0423C49.9755 19.7058 49.3181 20.0376 48.4962 20.0376C47.6251 19.9712 46.8115 19.6837 46.0554 19.175C45.4637 19.6616 44.9131 19.9049 44.4035 19.9049H44.2063C43.2037 19.9049 42.0285 19.3354 40.6807 18.1964V18.13L42.1353 18.3954L42.727 18.3291L43.0229 18.3954L42.9243 18.3291V18.2627C43.0722 18.2627 43.2694 17.9973 43.516 17.4665C43.3845 17.4665 43.3187 17.4002 43.3187 17.2675L43.4173 17.2011L43.3187 16.886V16.7533L43.4173 16.2225L43.3187 15.8244L43.4173 15.6254L43.3187 15.2273V14.9121L43.4173 14.8457L43.3187 14.7794V12.7392L43.516 12.5401L43.3187 11.0307L43.4173 10.8316L41.9627 9.77002L41.8641 9.70368V9.63733C42.8996 8.84113 43.4173 8.29375 43.4173 7.99518L43.516 7.53073L43.4173 7.46439V7.33169L43.516 7.08288L43.3187 6.68478V6.61843L43.516 6.48573L43.3187 6.02129L43.4173 5.68954L43.3187 5.0924V4.51184L43.4173 4.18009L43.3187 3.71565L43.516 2.13985C43.0886 1.83022 42.6613 1.67541 42.2339 1.67541L40.6807 2.2062V2.13985C41.4203 1.41001 42.2997 0.928976 43.3187 0.696753C43.4831 0.519822 43.9104 0.431356 44.6008 0.431356C45.0446 0.486647 45.5623 0.724399 46.154 1.14461C47.6498 0.492176 48.6935 0.165959 49.2852 0.165959H49.3838L49.4824 0.232308L51.9233 0.0996094ZM47.0416 1.0285V1.09485H47.5347V1.0285H47.0416ZM48.8907 1.0285V1.09485L49.3838 1.14461H49.4824V1.09485L48.9893 1.0285H48.8907ZM49.6797 1.14461V1.21096L50.1728 1.27731H50.4686V1.14461H50.37L49.9755 1.21096L49.8769 1.14461H49.6797ZM51.1343 1.34366V1.41001L51.5288 1.47636V1.34366H51.1343ZM52.4164 1.47636V1.54271L53.1067 1.60906H53.3039V1.54271L52.7122 1.47636H52.4164ZM53.4765 1.60906V1.67541H53.871V1.60906H53.4765ZM54.0682 1.74176V1.8081L54.7586 1.87445H55.2517V1.8081L54.1668 1.74176H54.0682ZM55.4489 1.87445V1.9408L56.0406 2.00715H56.2379V1.9408L55.6461 1.87445H55.4489ZM49.8769 2.13985C49.8769 2.27255 49.8112 2.3389 49.6797 2.3389L49.5811 2.27255L49.088 2.3389H48.7921V3.00239L48.6935 3.2512L48.7921 3.31755V3.3839L48.6935 3.9147L48.7921 4.84359L48.6935 5.2251L48.7921 5.75589V6.22034L48.5949 6.41938L48.7921 6.81748L48.6935 7.26534L48.7921 7.53073L48.6935 7.79613C48.6935 8.19423 48.8907 8.39328 49.2852 8.39328L50.6412 8.45963C51.9561 8.20529 52.6136 7.76296 52.6136 7.13264C52.6136 6.78983 52.778 6.61843 53.1067 6.61843V6.55208C52.8437 6.55208 52.7122 6.48573 52.7122 6.35303V5.04263L52.9095 4.90994C52.6629 3.41708 52.3342 2.67065 51.9233 2.67065C51.9233 2.50477 51.4384 2.37207 50.4686 2.27255V2.2062L50.37 2.27255H49.9755V2.13985H49.8769ZM55.4489 7.33169V7.39804H55.6461L56.0406 7.19899H55.942L55.4489 7.33169ZM44.2063 7.53073V7.66343L44.6008 7.79613V7.72978L44.2063 7.53073ZM53.9696 7.86248V7.92883H54.2655L54.3641 7.86248V7.79613H54.2655L53.9696 7.86248ZM52.7122 8.19423V8.32693L53.0081 8.26058V8.19423H52.7122ZM51.5288 8.59232V8.72502L52.0219 8.59232V8.52597H51.8246L51.5288 8.59232ZM50.4686 8.85772L50.5672 8.92407V8.99042L50.9371 8.92407V8.79137L50.4686 8.85772ZM48.8907 9.17288V9.23923H49.1866L49.8769 9.10653V9.05677H49.5811L48.8907 9.17288ZM50.7398 9.10653V9.17288H51.2329V9.10653H50.7398ZM52.8108 9.37193V9.43828L53.3039 9.50463H53.4765V9.43828L52.9095 9.37193H52.8108ZM53.7724 9.50463C53.7724 9.59309 53.871 9.63733 54.0682 9.63733H54.1668V9.57098L53.7724 9.50463ZM46.5485 9.63733V9.77002L47.0416 9.70368V9.63733H46.5485ZM54.9558 9.77002V9.83637L55.3503 9.90272H55.5475V9.83637L55.0544 9.77002H54.9558ZM43.9104 9.90272V9.96907H44.4035V9.90272H43.9104ZM44.798 9.90272C44.798 10.0244 44.4035 10.1349 43.6146 10.2345V10.3008H43.9104C44.4693 10.1239 44.8884 10.0354 45.1678 10.0354V9.90272L45.0692 9.96907H44.9706L44.8966 9.90272H44.798ZM56.5091 10.1681V10.3008H56.9035V10.2345L56.5091 10.1681ZM48.9893 10.2345V10.3672H49.2852V10.3008L48.9893 10.2345ZM54.5613 17.6656V17.7319L55.6461 17.931H55.942C55.942 17.8646 55.5146 17.7762 54.6599 17.6656H54.5613ZM56.2379 17.8646L56.1392 17.931V17.9973H57.0022V17.931L56.2379 17.8646ZM57.8897 17.9973C57.8897 18.0858 57.9883 18.13 58.1856 18.13H58.2842V18.0637L57.8897 17.9973Z" fill="#FFE9C3"/>
<path d="M34.1714 0.166016H34.4673C35.1576 0.166016 35.9055 0.624932 36.7108 1.54276L36.9327 2.0238H36.8095C36.4643 1.64782 35.9548 1.45983 35.2809 1.45983C34.9357 1.45983 34.6645 1.59806 34.4673 1.87451L34.8864 3.38396C34.7549 3.38396 34.6891 3.45584 34.6891 3.59959L34.5905 3.51666H34.4673V3.86499H34.5905L34.6891 3.59959H34.8864C35.4452 6.97235 36.0205 8.65873 36.6122 8.65873L36.8095 9.07341C37.0396 9.07341 37.4505 9.27799 38.0422 9.68714V9.75349C37.4834 10.2069 37.0724 10.6216 36.8095 10.9975L38.6586 18.2628C38.8722 18.6277 39.1763 18.8102 39.5708 18.8102H39.8667C40.2611 18.8102 40.672 18.6277 41.0994 18.2628L41.198 18.3291C40.0146 19.4239 38.8969 19.9713 37.845 19.9713L36.6122 19.4903H36.415C35.5932 19.8552 35.0179 20.0376 34.6891 20.0376H34.27C33.3167 20.0376 32.4373 19.5787 31.6319 18.6609H31.7306C32.4702 18.8931 33.0455 19.0092 33.4564 19.0092C33.8673 18.9761 34.0728 18.7936 34.0728 18.4618L33.7769 17.3671L34.3686 17.0851H34.27L33.7769 17.2344L33.6536 17.1514V16.3387C33.3249 16.3387 33.0866 15.6531 32.9387 14.2818L32.84 14.2155V14.1491H31.8292L30.7197 14.0828L30.3992 14.1491L28.9692 13.9335C28.9692 14.0441 28.698 14.116 28.1556 14.1491C27.7611 15.6752 27.3913 16.7921 27.0462 17.4998L26.9475 18.5282C27.079 18.8046 27.3502 18.9429 27.7611 18.9429C28.0734 18.9429 28.4104 18.8489 28.772 18.6609V18.8102C28.4926 19.2304 27.8187 19.6395 26.7503 20.0376H26.3312C25.7723 20.0376 25.197 19.8331 24.6053 19.4239H24.5067C23.915 19.7888 23.3726 19.9713 22.8795 19.9713H22.4604C20.8331 19.6948 20.0195 19.258 20.0195 18.6609C20.4633 18.8489 20.9071 18.9429 21.3509 18.9429C22.107 18.9429 22.6494 18.5337 22.9781 17.7154H23.0767L22.9781 17.6325V17.4334L23.8903 15.7249L23.7917 15.6586V15.5093L24.1862 14.3482L24.0876 14.2818L24.9998 12.0923L24.9012 12.026V11.9596C25.0162 11.8601 25.1231 11.5394 25.2217 10.9975C25.0409 10.6658 24.63 10.2511 23.989 9.75349C24.104 9.55445 24.6135 9.21164 25.5176 8.72508L26.2325 8.045C26.2325 7.63584 26.5695 7.33727 27.2434 7.14928V7.08293L26.9475 7.01658C26.8982 7.24881 26.7914 7.36492 26.627 7.36492H26.5284V7.21563C27.416 5.01505 27.8598 3.67147 27.8598 3.18491L28.057 2.63753C28.057 1.99615 27.6872 1.67546 26.9475 1.67546L26.0353 1.94086V1.87451C26.8407 0.967737 27.5886 0.51435 28.2789 0.51435C28.2789 0.414826 28.4433 0.365064 28.772 0.365064V0.448L28.8706 0.365064H29.0925V0.51435H29.2897V0.365064C30.1444 0.365064 31.0238 0.663636 31.9278 1.26078C32.7825 0.530937 33.5304 0.166016 34.1714 0.166016ZM29.487 0.912446V0.995382H29.5856L29.9061 0.912446V0.846096H29.7828L29.487 0.912446ZM28.6734 1.60911V1.67546H28.772L29.1911 1.39348H29.0925C28.8131 1.47089 28.6734 1.54276 28.6734 1.60911ZM33.1605 4.69436V4.82706C33.4564 4.76071 33.8591 4.55613 34.3686 4.21332H34.27C33.9906 4.26862 33.6865 4.42896 33.3578 4.69436H33.1605ZM32.4456 5.17539H32.5442L32.9387 5.0261V4.89341H32.84L32.4456 5.17539ZM31.1142 5.72277H31.2128C31.5251 5.63431 31.6977 5.54031 31.7306 5.44079V5.37444C31.3197 5.51819 31.1142 5.63431 31.1142 5.72277ZM30.917 5.57349L30.7197 5.85547H30.917L31.0156 5.63984V5.57349H30.917ZM32.0264 5.78912L32.3469 5.98817L32.9387 5.92182V6.05452H33.2592C33.2592 5.92182 33.0866 5.85547 32.7414 5.85547V5.78912L32.6428 5.85547H32.5442L32.0264 5.78912ZM28.6734 6.53555V6.66825L30.3992 5.98817V5.92182H30.202L28.6734 6.53555ZM30.917 5.92182C30.769 6.74013 30.5307 7.14928 30.202 7.14928L30.3006 7.21563L30.0047 8.24405L30.1034 8.45968C29.7582 9.00153 29.3473 9.98019 28.8706 11.3956L28.772 11.4786C28.9857 11.4786 29.0925 11.5449 29.0925 11.6776L29.1911 11.744H29.2897L29.6842 11.6776L31.7306 11.8103C31.7306 11.7219 31.936 11.6776 32.3469 11.6776L31.7306 8.65873L31.8292 8.45968C31.2868 7.32068 31.0156 6.47473 31.0156 5.92182H30.917ZM33.4564 6.05452L33.7769 6.27015L33.8755 6.2038V6.12087L33.4564 6.05452ZM34.1714 6.3365L34.4673 6.53555V6.4692L34.27 6.3365H34.1714ZM34.6891 6.6019V6.66825L35.0836 6.75119C35.0836 6.65166 34.985 6.6019 34.7878 6.6019H34.6891ZM27.7611 6.88389V7.08293L28.1556 6.88389V6.81754L27.7611 6.88389ZM25.8134 15.1112V15.2439L26.1339 15.1776V15.1112H25.8134ZM25.0984 15.2439V15.3103H25.2217L25.6162 15.2439V15.1776H25.4189L25.0984 15.2439ZM24.5067 15.3103L24.4081 15.3766V15.4429H24.5067L24.8026 15.3766V15.3103H24.5067ZM36.1191 16.206V16.3387L36.415 16.2723V16.1396L36.1191 16.206ZM35.7986 16.687H35.8972L36.6122 16.5377V16.405C36.0698 16.4824 35.7986 16.5764 35.7986 16.687ZM34.8864 16.8197V16.886H35.0836V16.687L34.8864 16.8197ZM34.5905 16.886L34.4673 17.0851H34.6891V16.886H34.5905ZM35.0836 17.4998L35.4041 17.7154V17.6325L35.1822 17.4998H35.0836ZM35.4041 17.7818V17.8481L35.7986 17.9808V17.7818H35.4041ZM35.9959 18.0472L36.3164 18.3955H36.5136V18.1799L36.1191 18.0472H35.9959ZM37.845 18.8765V18.9429C38.0258 19.1751 38.297 19.2912 38.6586 19.2912L37.845 18.8765Z" fill="#FFE9C3"/>
<path d="M7.27317 0L8.4566 0.331747C8.96614 0.431271 9.56607 0.74643 10.2564 1.27722C10.6344 1.27722 10.8974 1.47627 11.0454 1.87437H10.9467C10.5523 1.6532 10.092 1.54262 9.56607 1.54262C8.76068 1.54262 8.35798 1.76379 8.35798 2.20612L8.25936 3.41699L8.35798 3.48334H8.4566L8.25936 4.56152L8.4566 5.02596H8.35798L8.4566 5.09231V5.15866L8.25936 7.23208L8.4566 7.36478V8.04486C10.2811 5.95485 11.7439 4.43435 12.8452 3.48334L13.6588 2.00707C13.6588 1.76379 13.4862 1.60897 13.141 1.54262L12.2534 1.74167V1.67532C12.6808 1.08923 13.215 0.68561 13.856 0.464445H14.5463C15.0887 0.464445 15.5161 0.530795 15.8284 0.663493C15.8284 0.530795 16.1325 0.420212 16.7406 0.331747C17.7268 0.331747 18.6555 0.823837 19.5266 1.80802L19.7239 2.20612V2.33881H19.6252C19.05 1.98495 18.5158 1.80802 18.0227 1.80802H17.9241C17.7104 1.83014 16.9461 2.6595 15.6312 4.29612C14.9244 5.45723 14.3655 6.03779 13.9546 6.03779L14.0532 6.30319C13.8067 6.69022 13.6012 6.88927 13.4369 6.90033L13.3383 6.83398H13.2396V6.90033L13.3383 7.23208L13.141 7.36478C13.141 7.9398 13.9382 8.45401 15.5325 8.9074L14.5463 10.5827V10.7154L15.3353 12.7391L16.8392 16.2224C16.9872 16.2335 17.2173 16.6094 17.5296 17.3503C18.0227 17.7595 18.6884 17.9641 19.5266 17.9641V18.0304C18.6226 18.4396 17.5953 18.7492 16.4448 18.9593C16.4448 19.0699 15.812 19.2302 14.5463 19.4404C14.0532 19.8384 13.4862 20.0375 12.8452 20.0375L12.1548 18.1631C11.9905 18.13 11.6617 17.4609 11.1686 16.1561L9.17159 11.5282H9.07297C8.59631 12.0369 8.35798 12.5732 8.35798 13.1372L8.4566 13.2035V13.2699C8.35798 13.2699 8.25936 14.1158 8.16074 15.8077L8.25936 15.8907V15.957L8.16074 16.1561C8.16074 17.2287 8.49769 17.8535 9.17159 18.0304H9.96055L10.2564 17.8977H10.5523V17.9641C9.15516 18.8266 8.06213 19.2745 7.27317 19.3077C6.76364 19.3077 6.22945 19.2358 5.67061 19.092C5.67061 19.2026 5.309 19.3187 4.5858 19.4404C3.40236 19.4404 2.10388 19.1252 0.690335 18.4949L0.0986193 18.0968V18.0304L0.295858 17.8977L1.30671 17.9641C2.35864 17.8424 2.88461 17.7097 2.88461 17.566L2.78599 17.3503L2.98323 16.1561L2.88461 15.8907L2.98323 15.476L2.88461 14.6134L2.98323 14.1324L2.88461 13.7343L3.08185 13.6016L2.88461 12.7391L3.18047 11.1964L2.88461 11.0638L2.98323 10.7154V10.5164C2.62163 10.1293 2.09566 9.73123 1.40532 9.32208C2.45726 8.65859 2.98323 8.14438 2.98323 7.77946V7.43112L2.88461 7.16573L3.08185 5.90509L2.88461 5.7558V5.02596L2.98323 4.62787L2.88461 4.56152V4.49517L3.08185 3.08524C2.95036 2.10106 2.35864 1.60897 1.30671 1.60897L0.0986193 1.87437L0 1.80802C1.2163 0.646906 2.54766 0.0663493 3.99408 0.0663493H4.28994C4.5858 0.0663493 5.11177 0.265397 5.86785 0.663493C6.03221 0.453387 6.50065 0.232223 7.27317 0ZM16.5434 2.00707V2.07342H16.642C16.905 2.00707 17.0365 1.94072 17.0365 1.87437L16.5434 2.00707ZM15.8284 2.40516H16.0503L16.2475 2.27246V2.13977L15.8284 2.40516ZM14.8422 2.7535H14.9408L15.1381 2.6208H15.0394L14.8422 2.7535ZM15.4339 2.6208L15.0394 3.08524V3.15159H15.1381L15.6312 2.6208H15.4339ZM14.0532 2.95254V3.01889H14.3491V2.8862L14.0532 2.95254ZM5.67061 3.08524L5.86785 3.21794H5.96647L5.76923 3.08524H5.67061ZM6.68146 3.35064V3.41699L6.97731 3.48334V3.35064H6.68146ZM7.07593 3.41699V3.54969L7.47041 3.61604V3.48334L7.07593 3.41699ZM14.4477 3.81509V3.94778L14.5463 4.14683H14.645V4.01413L14.5463 3.81509H14.4477ZM12.6479 8.31025H12.7465L13.2396 8.17755V8.11121H13.0424L12.6479 8.31025ZM11.2673 8.84105H11.3659L11.5631 8.70835H11.4645L11.2673 8.84105ZM10.2564 9.32208H10.355L10.5523 9.17279H10.4536L10.2564 9.32208ZM7.07593 10.3173H7.17455L7.37179 10.1846H7.27317L7.07593 10.3173ZM6.3856 10.45V10.6491L7.07593 10.7154V10.5827H6.68146V10.5164L6.78008 10.45V10.3837H6.68146L6.3856 10.45ZM5.17751 10.5164V10.5827C5.50624 10.5827 5.67061 10.6491 5.67061 10.7818L6.06509 10.7154V10.5827L5.37475 10.5164H5.17751ZM7.37179 10.5827V10.6491L7.76627 10.7154H7.86489V10.6491L7.56903 10.5827H7.37179ZM9.66469 10.7154V10.8647H10.1578V10.7818L9.66469 10.7154ZM4.88165 10.9974V11.0638H4.98027L5.47337 10.9974V10.8647L4.88165 10.9974ZM10.4536 10.8647V10.9311H11.0454V10.8647H10.4536ZM12.7465 11.1301V11.1964H13.4369V11.1301L13.141 11.0638L12.7465 11.1301ZM4.28994 11.3291H4.38856L4.5858 11.1964H4.48718L4.28994 11.3291ZM6.06509 11.5282C6.06509 11.7051 5.83497 11.7936 5.37475 11.7936C5.01315 12.0148 4.75016 12.1253 4.5858 12.1253V12.1917H4.68442L6.18836 11.6609L6.28698 11.5945V11.5282H6.06509ZM3.67357 16.0897V16.1561L4.38856 16.2224H4.5858V16.1561L3.99408 16.0897H3.67357ZM4.68442 16.1561V16.2224H5.07889V16.1561H4.68442ZM6.97731 16.4215V16.4878H7.47041V16.4215H6.97731ZM12.1548 16.9523V17.0186L12.6479 17.085C12.6479 16.9965 12.5493 16.9523 12.3521 16.9523H12.1548ZM6.18836 17.3503H6.28698L6.78008 17.1513V17.085H6.68146C6.36916 17.1734 6.2048 17.2619 6.18836 17.3503ZM14.4477 17.2176V17.3503H14.8422V17.284L14.4477 17.2176Z" fill="#FFE9C3"/>
<defs>
<clipPath id="clip0_600_105">
<rect width="150" height="91.7468" fill="white" transform="translate(0 4.25391)"/>
</clipPath>
</defs>
</svg>
